<svg width="127" height="131" viewBox="0 0 127 131" fill="none" xmlns="http://www.w3.org/2000/svg">
<g filter="url(#filter0_d_367_4016)">
<g clip-path="url(#clip0_367_4016)">
<rect x="0.431396" width="116.919" height="116.919" rx="58.4595" fill="white"/>
<g clip-path="url(#clip1_367_4016)">
<path d="M83.2346 99.8028L81.6973 98.9119V98.8457C81.6973 98.7701 81.7404 98.6998 81.8098 98.6622C81.9663 98.5775 82.0593 98.4144 82.0525 98.2365C82.0434 97.996 81.8479 97.8005 81.6075 97.7914C81.4803 97.7865 81.3598 97.8324 81.2683 97.9205C81.1767 98.0087 81.1262 98.1273 81.1262 98.2544C81.1262 98.3139 81.1745 98.3621 81.2339 98.3621C81.2934 98.3621 81.3416 98.3139 81.3416 98.2544C81.3416 98.1864 81.3686 98.1229 81.4177 98.0757C81.4666 98.0286 81.5311 98.0039 81.5993 98.0066C81.7279 98.0115 81.8324 98.116 81.8373 98.2446C81.8409 98.34 81.7911 98.4274 81.7073 98.4727C81.5683 98.548 81.4819 98.6909 81.4819 98.8457V98.9119L79.9445 99.8028C79.8255 99.8718 79.7515 100 79.7515 100.138C79.7515 100.351 79.9251 100.525 80.1386 100.525H83.0406C83.254 100.525 83.4276 100.351 83.4276 100.138C83.4276 100 83.3536 99.8718 83.2346 99.8028ZM83.0406 100.309H80.1386C80.0439 100.309 79.9669 100.232 79.9669 100.138C79.9669 100.077 79.9997 100.02 80.0525 99.9892L81.5896 99.0985L83.1266 99.9892C83.1794 100.02 83.2122 100.077 83.2122 100.138C83.2122 100.232 83.1352 100.309 83.0406 100.309Z" fill="#383630"/>
</g>
<g clip-path="url(#clip2_367_4016)">
<path d="M71.3408 60.9756L71.3408 60.63C71.3408 60.6147 71.3348 60.6001 71.324 60.5893C71.3132 60.5785 71.2985 60.5724 71.2832 60.5724C71.268 60.5724 71.2533 60.5785 71.2425 60.5893C71.2317 60.6001 71.2256 60.6147 71.2256 60.63L71.2256 60.9756C71.2256 60.9909 71.2317 61.0055 71.2425 61.0163C71.2533 61.0271 71.268 61.0332 71.2832 61.0332C71.2985 61.0332 71.3132 61.0271 71.324 61.0163C71.3348 61.0055 71.3408 60.9909 71.3408 60.9756Z" fill="#383630"/>
<path d="M71.5704 61.089L71.5704 60.5147C71.5704 60.4994 71.5643 60.4848 71.5536 60.474C71.5428 60.4633 71.5282 60.4572 71.5129 60.4572C71.4977 60.4572 71.4831 60.4633 71.4723 60.474C71.4616 60.4848 71.4555 60.4994 71.4555 60.5147L71.4555 61.089C71.4555 61.1043 71.4616 61.1189 71.4723 61.1297C71.4831 61.1404 71.4977 61.1465 71.5129 61.1465C71.5282 61.1465 71.5428 61.1404 71.5536 61.1297C71.5643 61.1189 71.5704 61.1043 71.5704 61.089Z" fill="#383630"/>
<path d="M72.0302 60.5128L72.0302 60.7432C72.0302 60.7585 72.0363 60.7731 72.0471 60.7839C72.0579 60.7947 72.0725 60.8008 72.0878 60.8008L72.4334 60.8008C72.4487 60.8008 72.4633 60.7947 72.4741 60.7839C72.4849 60.7731 72.491 60.7585 72.491 60.7432L72.491 60.5128C72.491 60.4975 72.4849 60.4829 72.4741 60.4721C72.4633 60.4612 72.4487 60.4552 72.4334 60.4552L72.0878 60.4552C72.0725 60.4552 72.0579 60.4612 72.0471 60.4721C72.0363 60.4829 72.0302 60.4975 72.0302 60.5128ZM72.3758 60.5704L72.3758 60.6856L72.1454 60.6856L72.1454 60.5704L72.3758 60.5704Z" fill="#383630"/>
<path d="M71.3408 59.9395L71.3408 59.5939C71.3408 59.5786 71.3348 59.5639 71.324 59.5531C71.3132 59.5423 71.2985 59.5363 71.2832 59.5363C71.268 59.5363 71.2533 59.5423 71.2425 59.5531C71.2317 59.5639 71.2256 59.5786 71.2256 59.5939L71.2256 59.9395C71.2256 59.9547 71.2317 59.9694 71.2425 59.9802C71.2533 59.991 71.268 59.9971 71.2832 59.9971C71.2985 59.9971 71.3132 59.991 71.324 59.9802C71.3348 59.9694 71.3408 59.9547 71.3408 59.9395Z" fill="#383630"/>
<path d="M71.5704 60.0558L71.5704 59.4815C71.5704 59.4662 71.5643 59.4516 71.5536 59.4408C71.5428 59.4301 71.5282 59.424 71.5129 59.424C71.4977 59.424 71.4831 59.4301 71.4723 59.4408C71.4616 59.4516 71.4555 59.4662 71.4555 59.4815L71.4555 60.0558C71.4555 60.0711 71.4616 60.0857 71.4723 60.0965C71.4831 60.1072 71.4977 60.1133 71.5129 60.1133C71.5282 60.1133 71.5428 60.1072 71.5536 60.0965C71.5643 60.0857 71.5704 60.0711 71.5704 60.0558Z" fill="#383630"/>
<path d="M72.0302 59.4806L72.0302 59.711C72.0302 59.7262 72.0363 59.7409 72.0471 59.7517C72.0579 59.7625 72.0725 59.7686 72.0878 59.7686L72.4334 59.7686C72.4487 59.7686 72.4633 59.7625 72.4741 59.7517C72.4849 59.7409 72.491 59.7262 72.491 59.711L72.491 59.4806C72.491 59.4653 72.4849 59.4506 72.4741 59.4398C72.4633 59.429 72.4487 59.423 72.4334 59.423L72.0878 59.423C72.0725 59.423 72.0579 59.429 72.0471 59.4398C72.0363 59.4506 72.0302 59.4653 72.0302 59.4806ZM72.3758 59.5382L72.3758 59.6534L72.1454 59.6534L72.1454 59.5382L72.3758 59.5382Z" fill="#383630"/>
<path d="M71.3408 58.9082L71.3408 58.5626C71.3408 58.5473 71.3348 58.5327 71.324 58.5219C71.3132 58.5111 71.2985 58.505 71.2832 58.505C71.268 58.505 71.2533 58.5111 71.2425 58.5219C71.2317 58.5327 71.2256 58.5473 71.2256 58.5626L71.2256 58.9082C71.2256 58.9235 71.2317 58.9381 71.2425 58.9489C71.2533 58.9598 71.268 58.9658 71.2832 58.9658C71.2985 58.9658 71.3132 58.9598 71.324 58.9489C71.3348 58.9381 71.3408 58.9235 71.3408 58.9082Z" fill="#383630"/>
<path d="M71.5704 59.0217L71.5704 58.4473C71.5704 58.432 71.5643 58.4174 71.5536 58.4067C71.5428 58.3959 71.5282 58.3898 71.5129 58.3898C71.4977 58.3898 71.4831 58.3959 71.4723 58.4067C71.4616 58.4174 71.4555 58.432 71.4555 58.4473L71.4555 59.0217C71.4555 59.0369 71.4616 59.0515 71.4723 59.0623C71.4831 59.0731 71.4977 59.0791 71.5129 59.0791C71.5282 59.0791 71.5428 59.0731 71.5536 59.0623C71.5643 59.0515 71.5704 59.0369 71.5704 59.0217Z" fill="#383630"/>
<path d="M72.0302 58.4474L72.0302 58.6778C72.0302 58.693 72.0363 58.7077 72.0471 58.7185C72.0579 58.7293 72.0725 58.7354 72.0878 58.7354L72.4334 58.7354C72.4487 58.7354 72.4633 58.7293 72.4741 58.7185C72.4849 58.7077 72.491 58.693 72.491 58.6778L72.491 58.4474C72.491 58.4321 72.4849 58.4174 72.4741 58.4066C72.4633 58.3958 72.4487 58.3898 72.4334 58.3898L72.0878 58.3898C72.0725 58.3898 72.0579 58.3958 72.0471 58.4066C72.0363 58.4174 72.0302 58.4321 72.0302 58.4474ZM72.3758 58.505L72.3758 58.6202L72.1454 58.6202L72.1454 58.505L72.3758 58.505Z" fill="#383630"/>
<path d="M73.007 60.9756L73.007 60.63C73.007 60.6147 73.001 60.6001 72.9902 60.5893C72.9794 60.5785 72.9647 60.5724 72.9494 60.5724C72.9342 60.5724 72.9195 60.5785 72.9087 60.5893C72.8979 60.6001 72.8918 60.6147 72.8918 60.63L72.8918 60.9756C72.8918 60.9909 72.8979 61.0055 72.9087 61.0163C72.9195 61.0271 72.9342 61.0332 72.9494 61.0332C72.9647 61.0332 72.9794 61.0271 72.9902 61.0163C73.001 61.0055 73.007 60.9909 73.007 60.9756Z" fill="#383630"/>
<path d="M73.2369 61.089L73.2369 60.5147C73.2369 60.4994 73.2308 60.4848 73.2201 60.474C73.2093 60.4633 73.1947 60.4572 73.1794 60.4572C73.1642 60.4572 73.1496 60.4633 73.1388 60.474C73.1281 60.4848 73.122 60.4994 73.122 60.5147L73.122 61.089C73.122 61.1043 73.1281 61.1189 73.1388 61.1297C73.1496 61.1404 73.1642 61.1465 73.1794 61.1465C73.1947 61.1465 73.2093 61.1404 73.2201 61.1297C73.2308 61.1189 73.2369 61.1043 73.2369 61.089Z" fill="#383630"/>
<path d="M73.6959 60.5128L73.6959 60.7432C73.6959 60.7585 73.702 60.7731 73.7128 60.7839C73.7236 60.7947 73.7382 60.8008 73.7535 60.8008L74.0991 60.8008C74.1144 60.8008 74.1291 60.7947 74.1399 60.7839C74.1507 60.7731 74.1567 60.7585 74.1567 60.7432L74.1567 60.5128C74.1567 60.4975 74.1507 60.4829 74.1399 60.4721C74.1291 60.4612 74.1144 60.4552 74.0991 60.4552L73.7535 60.4552C73.7382 60.4552 73.7236 60.4612 73.7128 60.4721C73.702 60.4829 73.6959 60.4975 73.6959 60.5128ZM74.0415 60.5704L74.0415 60.6856L73.8111 60.6856L73.8111 60.5704L74.0415 60.5704Z" fill="#383630"/>
<path d="M73.007 59.9395L73.007 59.5939C73.007 59.5786 73.001 59.5639 72.9902 59.5531C72.9794 59.5423 72.9647 59.5363 72.9494 59.5363C72.9342 59.5363 72.9195 59.5423 72.9087 59.5531C72.8979 59.5639 72.8918 59.5786 72.8918 59.5939L72.8918 59.9395C72.8918 59.9547 72.8979 59.9694 72.9087 59.9802C72.9195 59.991 72.9342 59.9971 72.9494 59.9971C72.9647 59.9971 72.9794 59.991 72.9902 59.9802C73.001 59.9694 73.007 59.9547 73.007 59.9395Z" fill="#383630"/>
<path d="M73.1794 59.424C73.1642 59.424 73.1496 59.4301 73.1388 59.4408C73.1281 59.4516 73.122 59.4662 73.122 59.4815L73.122 60.0558C73.122 60.0711 73.1281 60.0857 73.1388 60.0965C73.1496 60.1072 73.1642 60.1133 73.1794 60.1133C73.1947 60.1133 73.2093 60.1072 73.2201 60.0965C73.2308 60.0857 73.2369 60.0711 73.2369 60.0558L73.2369 59.4815C73.2369 59.4662 73.2308 59.4516 73.2201 59.4408C73.2093 59.4301 73.1947 59.424 73.1794 59.424Z" fill="#383630"/>
<path d="M73.6959 59.4806L73.6959 59.711C73.6959 59.7262 73.702 59.7409 73.7128 59.7517C73.7236 59.7625 73.7382 59.7686 73.7535 59.7686L74.0991 59.7686C74.1144 59.7686 74.1291 59.7625 74.1399 59.7517C74.1507 59.7409 74.1567 59.7262 74.1567 59.711L74.1567 59.4806C74.1567 59.4653 74.1507 59.4506 74.1399 59.4398C74.1291 59.429 74.1144 59.423 74.0991 59.423L73.7535 59.423C73.7382 59.423 73.7236 59.429 73.7128 59.4398C73.702 59.4506 73.6959 59.4653 73.6959 59.4806ZM74.0415 59.5382L74.0415 59.6534L73.8111 59.6534L73.8111 59.5382L74.0415 59.5382Z" fill="#383630"/>
<path d="M70.9964 58.1614C70.9812 58.1614 70.9666 58.1674 70.9558 58.1782C70.945 58.189 70.939 58.2036 70.939 58.2188L70.939 61.3205C70.939 61.3357 70.945 61.3503 70.9558 61.3611C70.9666 61.3719 70.9812 61.3779 70.9964 61.3779L74.3278 61.3779C74.3431 61.3779 74.3577 61.3719 74.3685 61.3611C74.3792 61.3503 74.3853 61.3357 74.3853 61.3205L74.3853 58.2188C74.3853 58.2036 74.3792 58.189 74.3685 58.1782C74.3577 58.1674 74.3431 58.1614 74.3278 58.1614L70.9964 58.1614ZM71.0538 58.2762L72.6047 58.2762L72.6047 59.1953L71.0538 59.1953L71.0538 58.2762ZM72.7196 60.2292L72.7196 59.3101L74.2704 59.3101L74.2704 60.2292L72.7196 60.2292ZM71.0538 59.3101L72.6047 59.3101L72.6047 60.2292L71.0538 60.2292L71.0538 59.3101ZM71.0538 60.344L72.6047 60.344L72.6047 61.2631L71.0538 61.2631L71.0538 60.344ZM74.2704 60.344L74.2704 61.2631L72.7196 61.2631L72.7196 60.344L74.2704 60.344ZM74.2704 58.2762L74.2704 59.1953L72.7196 59.1953L72.7196 58.2762L74.2704 58.2762Z" fill="#383630"/>
<path d="M73.007 58.9082L73.007 58.5626C73.007 58.5473 73.001 58.5327 72.9902 58.5219C72.9794 58.5111 72.9647 58.505 72.9494 58.505C72.9342 58.505 72.9195 58.5111 72.9087 58.5219C72.8979 58.5327 72.8918 58.5473 72.8918 58.5626L72.8918 58.9082C72.8918 58.9235 72.8979 58.9381 72.9087 58.9489C72.9195 58.9598 72.9342 58.9658 72.9494 58.9658C72.9647 58.9658 72.9794 58.9598 72.9902 58.9489C73.001 58.9381 73.007 58.9235 73.007 58.9082Z" fill="#383630"/>
<path d="M73.2369 59.0217L73.2369 58.4473C73.2369 58.432 73.2308 58.4174 73.2201 58.4067C73.2093 58.3959 73.1947 58.3898 73.1794 58.3898C73.1642 58.3898 73.1496 58.3959 73.1388 58.4067C73.1281 58.4174 73.122 58.432 73.122 58.4473L73.122 59.0217C73.122 59.0369 73.1281 59.0515 73.1388 59.0623C73.1496 59.0731 73.1642 59.0791 73.1794 59.0791C73.1947 59.0791 73.2093 59.0731 73.2201 59.0623C73.2308 59.0515 73.2369 59.0369 73.2369 59.0217Z" fill="#383630"/>
<path d="M73.6959 58.4474L73.6959 58.6778C73.6959 58.693 73.702 58.7077 73.7128 58.7185C73.7236 58.7293 73.7382 58.7354 73.7535 58.7354L74.0991 58.7354C74.1144 58.7354 74.1291 58.7293 74.1399 58.7185C74.1507 58.7077 74.1567 58.693 74.1567 58.6778L74.1567 58.4474C74.1567 58.4321 74.1507 58.4174 74.1399 58.4066C74.1291 58.3958 74.1144 58.3898 74.0991 58.3898L73.7535 58.3898C73.7382 58.3898 73.7236 58.3958 73.7128 58.4066C73.702 58.4174 73.6959 58.4321 73.6959 58.4474ZM74.0415 58.505L74.0415 58.6202L73.8111 58.6202L73.8111 58.505L74.0415 58.505Z" fill="#383630"/>
</g>
<g clip-path="url(#clip3_367_4016)">
<path d="M72.5062 97.8388H72.8518C72.8671 97.8388 72.8817 97.8328 72.8925 97.822C72.9033 97.8112 72.9094 97.7965 72.9094 97.7812C72.9094 97.766 72.9033 97.7513 72.8925 97.7405C72.8817 97.7297 72.8671 97.7236 72.8518 97.7236H72.5062C72.4909 97.7236 72.4763 97.7297 72.4655 97.7405C72.4547 97.7513 72.4486 97.766 72.4486 97.7812C72.4486 97.7965 72.4547 97.8112 72.4655 97.822C72.4763 97.8328 72.4909 97.8388 72.5062 97.8388Z" fill="#383630"/>
<path d="M72.3911 98.067H72.9654C72.9807 98.067 72.9953 98.061 73.0061 98.0502C73.0168 98.0394 73.0229 98.0248 73.0229 98.0096C73.0229 97.9944 73.0168 97.9797 73.0061 97.969C72.9953 97.9582 72.9807 97.9521 72.9654 97.9521H72.3911C72.3758 97.9521 72.3612 97.9582 72.3504 97.969C72.3397 97.9797 72.3336 97.9944 72.3336 98.0096C72.3336 98.0248 72.3397 98.0394 72.3504 98.0502C72.3612 98.061 72.3758 98.067 72.3911 98.067Z" fill="#383630"/>
<path d="M72.9662 98.5273H72.7358C72.7205 98.5273 72.7058 98.5334 72.695 98.5442C72.6842 98.555 72.6782 98.5697 72.6782 98.5849V98.9305C72.6782 98.9458 72.6842 98.9605 72.695 98.9713C72.7058 98.9821 72.7205 98.9881 72.7358 98.9881H72.9662C72.9814 98.9881 72.9961 98.9821 73.0069 98.9713C73.0177 98.9605 73.0238 98.9458 73.0238 98.9305V98.5849C73.0238 98.5697 73.0177 98.555 73.0069 98.5442C72.9961 98.5334 72.9814 98.5273 72.9662 98.5273ZM72.9086 98.8729H72.7934V98.6425H72.9086V98.8729Z" fill="#383630"/>
<path d="M73.5404 97.8388H73.886C73.9013 97.8388 73.9159 97.8328 73.9267 97.822C73.9375 97.8112 73.9436 97.7965 73.9436 97.7812C73.9436 97.766 73.9375 97.7513 73.9267 97.7405C73.9159 97.7297 73.9013 97.7236 73.886 97.7236H73.5404C73.5251 97.7236 73.5105 97.7297 73.4997 97.7405C73.4889 97.7513 73.4828 97.766 73.4828 97.7812C73.4828 97.7965 73.4889 97.8112 73.4997 97.822C73.5105 97.8328 73.5251 97.8388 73.5404 97.8388Z" fill="#383630"/>
<path d="M73.4255 98.067H73.9999C74.0152 98.067 74.0298 98.061 74.0405 98.0502C74.0513 98.0394 74.0574 98.0248 74.0574 98.0096C74.0574 97.9944 74.0513 97.9797 74.0405 97.969C74.0298 97.9582 74.0152 97.9521 73.9999 97.9521H73.4255C73.4103 97.9521 73.3957 97.9582 73.3849 97.969C73.3742 97.9797 73.3681 97.9944 73.3681 98.0096C73.3681 98.0248 73.3742 98.0394 73.3849 98.0502C73.3957 98.061 73.4103 98.067 73.4255 98.067Z" fill="#383630"/>
<path d="M74.0001 98.5273H73.7697C73.7544 98.5273 73.7398 98.5334 73.729 98.5442C73.7182 98.555 73.7121 98.5697 73.7121 98.5849V98.9305C73.7121 98.9458 73.7182 98.9605 73.729 98.9713C73.7398 98.9821 73.7544 98.9881 73.7697 98.9881H74.0001C74.0154 98.9881 74.03 98.9821 74.0408 98.9713C74.0516 98.9605 74.0577 98.9458 74.0577 98.9305V98.5849C74.0577 98.5697 74.0516 98.555 74.0408 98.5442C74.03 98.5334 74.0154 98.5273 74.0001 98.5273ZM73.9425 98.8729H73.8273V98.6425H73.9425V98.8729Z" fill="#383630"/>
<path d="M74.5743 97.8388H74.9199C74.9352 97.8388 74.9499 97.8328 74.9607 97.822C74.9715 97.8112 74.9775 97.7965 74.9775 97.7812C74.9775 97.766 74.9715 97.7513 74.9607 97.7405C74.9499 97.7297 74.9352 97.7236 74.9199 97.7236H74.5743C74.559 97.7236 74.5444 97.7297 74.5336 97.7405C74.5228 97.7513 74.5167 97.766 74.5167 97.7812C74.5167 97.7965 74.5228 97.8112 74.5336 97.822C74.5444 97.8328 74.559 97.8388 74.5743 97.8388Z" fill="#383630"/>
<path d="M74.4589 98.067H75.0333C75.0485 98.067 75.0632 98.061 75.0739 98.0502C75.0847 98.0394 75.0908 98.0248 75.0908 98.0096C75.0908 97.9944 75.0847 97.9797 75.0739 97.969C75.0632 97.9582 75.0485 97.9521 75.0333 97.9521H74.4589C74.4437 97.9521 74.4291 97.9582 74.4183 97.969C74.4075 97.9797 74.4015 97.9944 74.4015 98.0096C74.4015 98.0248 74.4075 98.0394 74.4183 98.0502C74.4291 98.061 74.4437 98.067 74.4589 98.067Z" fill="#383630"/>
<path d="M75.0343 98.5273H74.8039C74.7887 98.5273 74.774 98.5334 74.7632 98.5442C74.7524 98.555 74.7463 98.5697 74.7463 98.5849V98.9305C74.7463 98.9458 74.7524 98.9605 74.7632 98.9713C74.774 98.9821 74.7887 98.9881 74.8039 98.9881H75.0343C75.0496 98.9881 75.0643 98.9821 75.0751 98.9713C75.0859 98.9605 75.0919 98.9458 75.0919 98.9305V98.5849C75.0919 98.5697 75.0859 98.555 75.0751 98.5442C75.0643 98.5334 75.0496 98.5273 75.0343 98.5273ZM74.9767 98.8729H74.8615V98.6425H74.9767V98.8729Z" fill="#383630"/>
<path d="M72.5062 99.5039H72.8518C72.8671 99.5039 72.8817 99.4978 72.8925 99.487C72.9033 99.4762 72.9094 99.4615 72.9094 99.4463C72.9094 99.431 72.9033 99.4163 72.8925 99.4055C72.8817 99.3947 72.8671 99.3887 72.8518 99.3887H72.5062C72.4909 99.3887 72.4763 99.3947 72.4655 99.4055C72.4547 99.4163 72.4486 99.431 72.4486 99.4463C72.4486 99.4615 72.4547 99.4762 72.4655 99.487C72.4763 99.4978 72.4909 99.5039 72.5062 99.5039Z" fill="#383630"/>
<path d="M72.3911 99.735H72.9654C72.9807 99.735 72.9953 99.7289 73.0061 99.7182C73.0168 99.7074 73.0229 99.6928 73.0229 99.6776C73.0229 99.6623 73.0168 99.6477 73.0061 99.6369C72.9953 99.6262 72.9807 99.6201 72.9654 99.6201H72.3911C72.3758 99.6201 72.3612 99.6262 72.3504 99.6369C72.3397 99.6477 72.3336 99.6623 72.3336 99.6776C72.3336 99.6928 72.3397 99.7074 72.3504 99.7182C72.3612 99.7289 72.3758 99.735 72.3911 99.735Z" fill="#383630"/>
<path d="M72.9662 100.192H72.7358C72.7205 100.192 72.7058 100.198 72.695 100.209C72.6842 100.22 72.6782 100.235 72.6782 100.25V100.596C72.6782 100.611 72.6842 100.626 72.695 100.636C72.7058 100.647 72.7205 100.653 72.7358 100.653H72.9662C72.9814 100.653 72.9961 100.647 73.0069 100.636C73.0177 100.626 73.0238 100.611 73.0238 100.596V100.25C73.0238 100.235 73.0177 100.22 73.0069 100.209C72.9961 100.198 72.9814 100.192 72.9662 100.192ZM72.9086 100.538H72.7934V100.308H72.9086V100.538Z" fill="#383630"/>
<path d="M73.5404 99.5039H73.886C73.9013 99.5039 73.9159 99.4978 73.9267 99.487C73.9375 99.4762 73.9436 99.4615 73.9436 99.4463C73.9436 99.431 73.9375 99.4163 73.9267 99.4055C73.9159 99.3947 73.9013 99.3887 73.886 99.3887H73.5404C73.5251 99.3887 73.5105 99.3947 73.4997 99.4055C73.4889 99.4163 73.4828 99.431 73.4828 99.4463C73.4828 99.4615 73.4889 99.4762 73.4997 99.487C73.5105 99.4978 73.5251 99.5039 73.5404 99.5039Z" fill="#383630"/>
<path d="M74.0574 99.6776C74.0574 99.6623 74.0513 99.6477 74.0405 99.6369C74.0298 99.6262 74.0152 99.6201 73.9999 99.6201H73.4255C73.4103 99.6201 73.3957 99.6262 73.3849 99.6369C73.3742 99.6477 73.3681 99.6623 73.3681 99.6776C73.3681 99.6928 73.3742 99.7074 73.3849 99.7182C73.3957 99.7289 73.4103 99.735 73.4255 99.735H73.9999C74.0152 99.735 74.0298 99.7289 74.0405 99.7182C74.0513 99.7074 74.0574 99.6928 74.0574 99.6776Z" fill="#383630"/>
<path d="M74.0001 100.192H73.7697C73.7544 100.192 73.7398 100.198 73.729 100.209C73.7182 100.22 73.7121 100.235 73.7121 100.25V100.596C73.7121 100.611 73.7182 100.626 73.729 100.636C73.7398 100.647 73.7544 100.653 73.7697 100.653H74.0001C74.0154 100.653 74.03 100.647 74.0408 100.636C74.0516 100.626 74.0577 100.611 74.0577 100.596V100.25C74.0577 100.235 74.0516 100.22 74.0408 100.209C74.03 100.198 74.0154 100.192 74.0001 100.192ZM73.9425 100.538H73.8273V100.308H73.9425V100.538Z" fill="#383630"/>
<path d="M75.3209 97.493C75.3209 97.4778 75.3148 97.4631 75.304 97.4524C75.2933 97.4416 75.2787 97.4355 75.2634 97.4355H72.1617C72.1465 97.4355 72.1319 97.4416 72.1211 97.4524C72.1104 97.4631 72.1043 97.4778 72.1043 97.493V100.824C72.1043 100.84 72.1104 100.854 72.1211 100.865C72.1319 100.876 72.1465 100.882 72.1617 100.882H75.2634C75.2787 100.882 75.2933 100.876 75.304 100.865C75.3148 100.854 75.3209 100.84 75.3209 100.824V97.493ZM75.206 97.5504V99.1013H74.287V97.5504H75.206ZM73.2531 99.2161H74.1721V100.767H73.2531V99.2161ZM74.1721 97.5504V99.1013H73.2531V97.5504H74.1721ZM73.1382 97.5504V99.1013H72.2192V97.5504H73.1382ZM73.1382 100.767H72.2192V99.2161H73.1382V100.767ZM75.206 100.767H74.287V99.2161H75.206V100.767Z" fill="#383630"/>
<path d="M74.5743 99.5039H74.9199C74.9352 99.5039 74.9499 99.4978 74.9607 99.487C74.9715 99.4762 74.9775 99.4615 74.9775 99.4463C74.9775 99.431 74.9715 99.4163 74.9607 99.4055C74.9499 99.3947 74.9352 99.3887 74.9199 99.3887H74.5743C74.559 99.3887 74.5444 99.3947 74.5336 99.4055C74.5228 99.4163 74.5167 99.431 74.5167 99.4463C74.5167 99.4615 74.5228 99.4762 74.5336 99.487C74.5444 99.4978 74.559 99.5039 74.5743 99.5039Z" fill="#383630"/>
<path d="M74.4589 99.735H75.0333C75.0485 99.735 75.0632 99.7289 75.0739 99.7182C75.0847 99.7074 75.0908 99.6928 75.0908 99.6776C75.0908 99.6623 75.0847 99.6477 75.0739 99.6369C75.0632 99.6262 75.0485 99.6201 75.0333 99.6201H74.4589C74.4437 99.6201 74.4291 99.6262 74.4183 99.6369C74.4075 99.6477 74.4015 99.6623 74.4015 99.6776C74.4015 99.6928 74.4075 99.7074 74.4183 99.7182C74.4291 99.7289 74.4437 99.735 74.4589 99.735Z" fill="#383630"/>
<path d="M75.0343 100.192H74.8039C74.7887 100.192 74.774 100.198 74.7632 100.209C74.7524 100.22 74.7463 100.235 74.7463 100.25V100.596C74.7463 100.611 74.7524 100.626 74.7632 100.636C74.774 100.647 74.7887 100.653 74.8039 100.653H75.0343C75.0496 100.653 75.0643 100.647 75.0751 100.636C75.0859 100.626 75.0919 100.611 75.0919 100.596V100.25C75.0919 100.235 75.0859 100.22 75.0751 100.209C75.0643 100.198 75.0496 100.192 75.0343 100.192ZM74.9767 100.538H74.8615V100.308H74.9767V100.538Z" fill="#383630"/>
</g>
<g clip-path="url(#clip4_367_4016)">
<path d="M79.0323 60.6787C78.469 60.6787 78.4612 60.6787 77.9927 60.6787C77.7417 60.6787 77.5366 60.8829 77.5353 61.1338L77.5281 62.5537C77.5276 62.6604 77.6137 62.7474 77.7204 62.7479C77.7208 62.7479 77.7211 62.7479 77.7214 62.7479C77.8277 62.7479 77.9141 62.662 77.9147 62.5556L77.9218 61.1357C77.9218 61.1356 77.9218 61.1354 77.9218 61.1353C77.9221 61.1142 77.9393 61.0972 77.9604 61.0974C77.9815 61.0975 77.9985 61.1146 77.9985 61.1357L77.9986 64.3847C77.9986 64.5127 78.1024 64.6166 78.2305 64.6166C78.3586 64.6166 78.4624 64.5127 78.4624 64.3847V62.5309H78.5626V64.3847C78.5626 64.5127 78.6664 64.6166 78.7945 64.6166C78.9226 64.6166 79.0264 64.5127 79.0264 64.3847C79.0264 61.3189 79.0223 63.0721 79.0222 61.1385C79.0222 61.1168 79.0394 61.0989 79.0611 61.0981C79.0828 61.0972 79.1014 61.1137 79.1031 61.1353V61.1354L79.1018 62.5545C79.1017 62.6612 79.1881 62.7478 79.2948 62.7479C79.2949 62.7479 79.295 62.7479 79.295 62.7479C79.4017 62.7479 79.4882 62.6615 79.4883 62.5548L79.4896 61.1349C79.4896 61.1345 79.4896 61.1342 79.4896 61.1338C79.4884 60.8829 79.2832 60.6787 79.0323 60.6787Z" fill="#383630"/>
<path d="M78.5121 60.552C78.7333 60.552 78.9126 60.3727 78.9126 60.1515C78.9126 59.9303 78.7333 59.751 78.5121 59.751C78.2909 59.751 78.1116 59.9303 78.1116 60.1515C78.1116 60.3727 78.2909 60.552 78.5121 60.552Z" fill="#383630"/>
<path d="M82.456 62.2542C82.4524 62.2441 82.1009 61.2417 82.0457 61.0808C81.9566 60.8218 81.8074 60.6904 81.6021 60.6904C81.3146 60.6904 81.2207 60.6904 80.9338 60.6904C80.7284 60.6904 80.5792 60.8218 80.4902 61.0808C80.4349 61.2417 80.0834 62.2441 80.0799 62.2542C80.0448 62.3542 80.0975 62.4637 80.1975 62.4988C80.2976 62.5338 80.407 62.4811 80.442 62.3812C80.4533 62.3488 80.6648 61.7613 80.7828 61.4233C80.7704 61.5242 80.806 61.3148 80.5085 62.8506C80.4957 62.9166 80.5466 62.9776 80.6131 62.9776C80.6545 62.9776 80.704 62.9776 80.7595 62.9776V64.3692C80.7595 64.4964 80.8626 64.5994 80.9898 64.5994C81.1169 64.5994 81.22 64.4964 81.22 64.3692V62.9776C81.2531 62.9776 81.2863 62.9776 81.3194 62.9776V64.3692C81.3194 64.4964 81.4225 64.5994 81.5496 64.5994C81.6768 64.5994 81.7799 64.4964 81.7799 64.3692V62.9776C81.8354 62.9776 81.8849 62.9776 81.9263 62.9776C81.9931 62.9776 82.0437 62.9165 82.0309 62.8506C81.7361 61.3288 81.7686 61.5055 81.7586 61.4233C81.8775 61.7639 82.0827 62.3493 82.0939 62.3812C82.129 62.4812 82.2385 62.5338 82.3384 62.4987C82.4384 62.4637 82.491 62.3542 82.456 62.2542Z" fill="#383630"/>
<path d="M81.2696 60.5638C81.4892 60.5638 81.6673 60.3858 81.6673 60.1662C81.6673 59.9466 81.4892 59.7686 81.2696 59.7686C81.05 59.7686 80.872 59.9466 80.872 60.1662C80.872 60.3858 81.05 60.5638 81.2696 60.5638Z" fill="#383630"/>
<path d="M79.7788 60.0068C79.6971 60.0068 79.6308 60.0731 79.6308 60.1548V64.2092C79.6308 64.2909 79.6971 64.3572 79.7788 64.3572C79.8606 64.3572 79.9268 64.291 79.9268 64.2092V60.1548C79.9268 60.0731 79.8605 60.0068 79.7788 60.0068Z" fill="#383630"/>
</g>
<mask id="path-47-inside-1_367_4016" fill="white">
<path d="M-14.2507 13.2959H9.90631V35.8775H-14.2507V13.2959Z"/>
</mask>
<path d="M-14.2507 13.2959V13.0333H-14.5133V13.2959H-14.2507ZM9.90631 13.2959H10.1689V13.0333H9.90631V13.2959ZM-14.2507 13.2959V13.5585H9.90631V13.2959V13.0333H-14.2507V13.2959ZM9.90631 13.2959H9.64374V35.8775H9.90631H10.1689V13.2959H9.90631ZM-14.2507 35.8775H-13.9882V13.2959H-14.2507H-14.5133V35.8775H-14.2507Z" fill="#383630" mask="url(#path-47-inside-1_367_4016)"/>
<mask id="path-49-inside-2_367_4016" fill="white">
<path d="M-14.2507 78.415H9.90631V103.622H-14.2507V78.415Z"/>
</mask>
<path d="M-14.2507 103.622H-14.5133V103.885H-14.2507V103.622ZM9.90631 103.622V103.36H-14.2507V103.622V103.885H9.90631V103.622ZM-14.2507 103.622H-13.9882V78.415H-14.2507H-14.5133V103.622H-14.2507Z" fill="#383630" mask="url(#path-49-inside-2_367_4016)"/>
<mask id="path-51-inside-3_367_4016" fill="white">
<path d="M9.90656 78.415H36.1642V103.622H9.90656V78.415Z"/>
</mask>
<path d="M9.90656 78.415V78.6776H36.1642V78.415V78.1525H9.90656V78.415ZM36.1642 103.622V103.36H9.90656V103.622V103.885H36.1642V103.622Z" fill="#383630" mask="url(#path-51-inside-3_367_4016)"/>
<mask id="path-53-inside-4_367_4016" fill="white">
<path d="M85.0035 77.3652H111.261V103.623H85.0035V77.3652Z"/>
</mask>
<path d="M85.0035 77.3652V77.6278H111.261V77.3652V77.1027H85.0035V77.3652ZM111.261 103.623V103.36H85.0035V103.623V103.885H111.261V103.623Z" fill="#383630" mask="url(#path-53-inside-4_367_4016)"/>
<mask id="path-55-inside-5_367_4016" fill="white">
<path d="M111.261 13.8203H135.418V103.622H111.261V13.8203Z"/>
</mask>
<path d="M135.418 13.8203H135.68V13.5577H135.418V13.8203ZM135.418 103.622V103.884H135.68V103.622H135.418ZM111.261 13.8203V14.0829H135.418V13.8203V13.5577H111.261V13.8203ZM135.418 13.8203H135.155V103.622H135.418H135.68V13.8203H135.418ZM135.418 103.622V103.359H111.261V103.622V103.884H135.418V103.622Z" fill="#383630" mask="url(#path-55-inside-5_367_4016)"/>
<rect x="75.2083" y="57.9174" width="9.8915" height="15.8643" stroke="#383630" stroke-width="0.262577"/>
<mask id="path-58-inside-6_367_4016" fill="white">
<path d="M50.2348 35.5039H70.6941V73.7473H50.2348V35.5039Z"/>
</mask>
<path d="M50.2348 35.5039V35.2413H49.9722V35.5039H50.2348ZM70.6941 35.5039H70.9567V35.2413H70.6941V35.5039ZM50.2348 35.5039V35.7665H70.6941V35.5039V35.2413H50.2348V35.5039ZM70.6941 35.5039H70.4315V73.7473H70.6941H70.9567V35.5039H70.6941ZM50.2348 73.7473H50.4974V35.5039H50.2348H49.9722V73.7473H50.2348Z" fill="#383630" mask="url(#path-58-inside-6_367_4016)"/>
<mask id="path-60-inside-7_367_4016" fill="white">
<path d="M-14.2507 34.8281H9.90631V78.4158H-14.2507V34.8281Z"/>
</mask>
<path d="M9.90631 34.8281H9.64374V78.4158H9.90631H10.1689V34.8281H9.90631ZM-14.2507 78.4158H-13.9882V34.8281H-14.2507H-14.5133V78.4158H-14.2507Z" fill="#383630" mask="url(#path-60-inside-7_367_4016)"/>
<line x1="70.6602" y1="57.9136" x2="75.5381" y2="57.9136" stroke="#383630" stroke-width="0.262577"/>
<path d="M36.0343 78.415L36.0343 73.6887" stroke="#383630" stroke-width="0.262577"/>
<line x1="35.9019" y1="73.6158" x2="50.4747" y2="73.6158" stroke="#383630" stroke-width="0.262577"/>
<rect x="35.7701" y="94.3002" width="14.4417" height="9.19018" stroke="#383630" stroke-width="0.262577"/>
<line x1="70.4308" y1="94.6953" x2="70.4308" y2="103.492" stroke="#383630" stroke-width="0.262577"/>
<line x1="85.1348" y1="94.6953" x2="85.1348" y2="103.387" stroke="#383630" stroke-width="0.262577"/>
<line x1="70.2996" y1="94.564" x2="75.8497" y2="94.564" stroke="#383630" stroke-width="0.262577"/>
<line x1="80.277" y1="94.564" x2="85.2509" y2="94.564" stroke="#383630" stroke-width="0.262577"/>
<line x1="50.3433" y1="103.49" x2="85.0034" y2="103.49" stroke="#383630" stroke-width="0.262577"/>
<line x1="85.1086" y1="73.9141" x2="85.1086" y2="78.4256" stroke="#383630" stroke-width="0.262577"/>
<g clip-path="url(#clip5_367_4016)">
<path d="M49.4026 89.4351L48.5715 89.4358C48.4468 89.4359 48.3638 89.5191 48.3639 89.6437C48.364 89.7684 48.4472 89.8514 48.5718 89.8513L49.1951 89.8508L49.1957 90.4741C49.1958 90.5988 49.2789 90.6818 49.4036 90.6817L50.0269 90.6812L50.0274 91.3045C50.0275 91.4291 50.1107 91.5122 50.2354 91.5121L50.8587 91.5116L50.8592 92.1349C50.8593 92.2595 50.9425 92.3426 51.0672 92.3425L51.8982 92.3418C52.0229 92.3417 52.1059 92.2585 52.1058 92.1338C52.1057 92.0092 52.0225 91.9261 51.8979 91.9262L51.2746 91.9267L51.274 91.3034C51.2739 91.1788 51.1908 91.0957 51.0661 91.0958L50.4428 91.0964L50.4423 90.4731C50.4422 90.3484 50.359 90.2654 50.2343 90.2655L49.611 90.266L49.6105 89.6427C49.6104 89.518 49.5272 89.435 49.4026 89.4351Z" fill="#383630"/>
</g>
<path d="M69.7052 89.4311L70.5363 89.4311C70.661 89.4311 70.7441 89.5142 70.7441 89.6388C70.7441 89.7635 70.661 89.8466 70.5363 89.8466L69.913 89.8466L69.913 90.4699C69.913 90.5946 69.8299 90.6777 69.7052 90.6777L69.0819 90.6777L69.0819 91.301C69.0819 91.4257 68.9988 91.5088 68.8742 91.5088L68.2508 91.5088L68.2508 92.1321C68.2508 92.2567 68.1677 92.3398 68.0431 92.3398L67.212 92.3398C67.0873 92.3398 67.0042 92.2567 67.0042 92.1321C67.0042 92.0074 67.0873 91.9243 67.212 91.9243L67.8353 91.9243L67.8353 91.301C67.8353 91.1763 67.9184 91.0932 68.0431 91.0932L68.6664 91.0932L68.6664 90.4699C68.6664 90.3453 68.7495 90.2621 68.8742 90.2621L69.4975 90.2621L69.4975 89.6388C69.4975 89.5142 69.5806 89.4311 69.7052 89.4311Z" fill="#383630"/>
<path d="M45.254 83.2743C45.4454 83.2743 45.6006 83.1303 45.6006 82.9526C45.6006 82.775 45.4454 82.6309 45.254 82.6309C45.0627 82.6309 44.9075 82.775 44.9075 82.9526C44.9075 83.1303 45.0627 83.2743 45.254 83.2743Z" fill="#383630"/>
<path d="M45.2542 83.3174C44.8393 83.3174 44.7188 83.4793 44.6682 84.1048C44.6636 84.161 44.709 84.21 44.7695 84.2142C44.7724 84.2144 44.7751 84.2145 44.7779 84.2145C44.8349 84.2145 44.8831 84.1737 44.8874 84.1201C44.9061 83.8892 44.9305 83.7476 44.9668 83.6605C44.9631 83.6778 44.9611 83.6955 44.9611 83.7138V84.1065C44.9611 84.1276 44.9639 84.148 44.9688 84.1677V85.0301C44.9688 85.0959 45.0262 85.1492 45.097 85.1492C45.1679 85.1492 45.2253 85.0959 45.2253 85.0301V84.3774C45.2348 84.3782 45.2445 84.3787 45.2542 84.3787C45.2639 84.3787 45.2736 84.3782 45.283 84.3774V85.0301C45.283 85.0959 45.3405 85.1492 45.4113 85.1492C45.4821 85.1492 45.5395 85.0959 45.5395 85.0301V84.1682C45.5445 84.1484 45.5474 84.1278 45.5474 84.1065V83.7138C45.5474 83.6956 45.5454 83.6778 45.5417 83.6606C45.5779 83.7477 45.6023 83.8893 45.621 84.1201C45.6255 84.1763 45.6784 84.2184 45.7388 84.2142C45.7994 84.21 45.8448 84.161 45.8402 84.1048C45.7896 83.4793 45.6691 83.3174 45.2542 83.3174Z" fill="#383630"/>
<path d="M46.5534 83.2743C46.7448 83.2743 46.9 83.1303 46.9 82.9526C46.9 82.775 46.7448 82.6309 46.5534 82.6309C46.3621 82.6309 46.2069 82.775 46.2069 82.9526C46.2069 83.1303 46.3621 83.2743 46.5534 83.2743Z" fill="#383630"/>
<path d="M46.5528 83.3174C46.1379 83.3174 46.0174 83.4793 45.9668 84.1048C45.9623 84.161 46.0076 84.21 46.0682 84.2142C46.071 84.2144 46.0738 84.2145 46.0766 84.2145C46.1335 84.2145 46.1817 84.1737 46.1861 84.1201C46.2038 83.9016 46.2266 83.7631 46.2597 83.675V83.9871L46.1506 84.4424C46.1484 84.4513 46.1508 84.4605 46.1569 84.4676C46.163 84.4747 46.1722 84.4788 46.182 84.4788H46.2674V85.0301C46.2674 85.0959 46.3248 85.1492 46.3957 85.1492C46.4665 85.1492 46.5239 85.0959 46.5239 85.0301V84.4788H46.5817V85.0301C46.5817 85.0959 46.6391 85.1492 46.71 85.1492C46.7808 85.1492 46.8382 85.0959 46.8382 85.0301V84.4788H46.9238C46.9239 84.4788 46.924 84.4788 46.9241 84.4788C46.9419 84.4788 46.9563 84.4654 46.9563 84.4489C46.9563 84.4451 46.9556 84.4414 46.9542 84.438L46.846 83.9868V83.6748C46.8791 83.7629 46.9019 83.9014 46.9196 84.1201C46.9242 84.1763 46.977 84.2185 47.0375 84.2143C47.098 84.21 47.1434 84.161 47.1389 84.1048C47.0883 83.4793 46.9678 83.3174 46.5528 83.3174Z" fill="#383630"/>
<path d="M47.3857 81.8926H44.4225C44.0888 81.8926 43.8174 82.1446 43.8174 82.4544V85.206C43.8174 85.5158 44.0888 85.7679 44.4225 85.7679H47.3857C47.7194 85.7679 47.9908 85.5158 47.9908 85.206V82.4544C47.9908 82.1446 47.7194 81.8926 47.3857 81.8926ZM47.6185 85.206C47.6185 85.3252 47.5141 85.4222 47.3857 85.4222H44.4225C44.2941 85.4222 44.1896 85.3253 44.1896 85.206V82.4544C44.1896 82.3352 44.2941 82.2382 44.4225 82.2382H47.3857C47.5141 82.2382 47.6186 82.3352 47.6186 82.4544V85.206H47.6185Z" fill="#383630"/>
<path d="M45.0133 80.8063C45.0314 80.7894 45.0496 80.7726 45.0678 80.7557V81.3874C45.0678 81.4159 45.0668 81.4439 45.0761 81.4716C45.101 81.5465 45.18 81.5973 45.2643 81.593C45.3483 81.5887 45.4206 81.5302 45.4366 81.4535C45.4416 81.4298 45.4401 81.4048 45.4401 81.3807V80.7557C45.4835 80.796 45.5234 80.8402 45.5864 80.853C45.6813 80.8721 45.7791 80.8179 45.8054 80.731C45.8242 80.6687 45.8031 80.6039 45.7544 80.5587L45.3856 80.2162C45.3283 80.1631 45.2376 80.1506 45.1662 80.186C45.1366 80.2007 45.1144 80.2236 45.091 80.2453L44.7642 80.5487C44.748 80.5638 44.7323 80.5787 44.7206 80.5973C44.6911 80.6445 44.6876 80.7036 44.7112 80.7536C44.763 80.8632 44.9222 80.8908 45.0133 80.8063Z" fill="#383630"/>
<path d="M46.4221 81.543C46.4793 81.5962 46.5701 81.6086 46.6415 81.5732C46.671 81.5585 46.6933 81.5357 46.7167 81.514L47.0434 81.2105C47.0596 81.1955 47.0754 81.1806 47.087 81.1619C47.1166 81.1147 47.1201 81.0557 47.0965 81.0057C47.0447 80.896 46.8854 80.8684 46.7944 80.9529C46.7762 80.9698 46.758 80.9867 46.7399 81.0036V80.3719C46.7399 80.3434 46.7408 80.3154 46.7316 80.2877C46.7066 80.2127 46.6277 80.162 46.5433 80.1663C46.4594 80.1706 46.387 80.2291 46.371 80.3057C46.366 80.3295 46.3676 80.3545 46.3676 80.3786V81.0036C46.3242 80.9633 46.2843 80.9191 46.2212 80.9063C46.1263 80.8871 46.0286 80.9414 46.0023 81.0283C45.9834 81.0906 46.0045 81.1553 46.0532 81.2006L46.4221 81.543Z" fill="#383630"/>
<mask id="path-81-inside-8_367_4016" fill="white">
<path d="M36.1637 76.8398H42.4655V87.4921H36.1637V76.8398Z"/>
</mask>
<path d="M36.1637 76.8398H42.4655V87.4921H36.1637V76.8398Z" fill="#FAF5F0"/>
<path d="M42.4655 76.8398H42.7281V76.5773H42.4655V76.8398ZM36.1637 76.8398V77.1024H42.4655V76.8398V76.5773H36.1637V76.8398ZM42.4655 76.8398H42.203V87.4921H42.4655H42.7281V76.8398H42.4655Z" fill="#383630" mask="url(#path-81-inside-8_367_4016)"/>
<line x1="42.2033" y1="87.3541" x2="47.9905" y2="87.3541" stroke="#383630" stroke-width="0.262577"/>
<line x1="47.4122" y1="87.3599" x2="50.1328" y2="87.3599" stroke="#383630" stroke-width="0.262577"/>
<line x1="50.0339" y1="87.4917" x2="50.0014" y2="78.96" stroke="#383630" stroke-width="0.262577"/>
<line x1="44.9077" y1="79.0912" x2="42.2266" y2="79.0912" stroke="#383630" stroke-width="0.262577"/>
<line x1="50.1326" y1="79.0912" x2="46.9416" y2="79.0912" stroke="#383630" stroke-width="0.262577"/>
<g clip-path="url(#clip6_367_4016)">
<path d="M39.9872 83.667L40.8187 83.6677C40.9434 83.6678 41.0265 83.7511 41.0264 83.8758C41.0263 84.0005 40.9431 84.0836 40.8183 84.0835L40.1947 84.0829L40.1942 84.7066C40.1941 84.8313 40.1109 84.9144 39.9861 84.9143L39.3625 84.9137L39.362 85.5374C39.3619 85.6621 39.2787 85.7452 39.1539 85.7451L38.5303 85.7445L38.5298 86.3682C38.5297 86.4929 38.4465 86.576 38.3218 86.5759L37.4903 86.5752C37.3655 86.5751 37.2825 86.4918 37.2826 86.3671C37.2827 86.2424 37.3659 86.1593 37.4906 86.1594L38.1142 86.1599L38.1148 85.5363C38.1149 85.4116 38.1981 85.3285 38.3228 85.3286L38.9464 85.3291L38.947 84.7055C38.9471 84.5808 39.0303 84.4977 39.155 84.4978L39.7786 84.4983L39.7791 83.8747C39.7792 83.75 39.8625 83.6669 39.9872 83.667Z" fill="#383630"/>
</g>
<line x1="54.0297" y1="75.4615" x2="66.8985" y2="75.4615" stroke="#383630" stroke-width="0.262577"/>
<line x1="54.1567" y1="75.5593" x2="55.4639" y2="80.5165" stroke="#383630" stroke-width="0.262577"/>
<line x1="55.337" y1="80.4185" x2="65.8628" y2="80.4185" stroke="#383630" stroke-width="0.262577"/>
<line x1="55.8547" y1="79.1548" x2="64.9305" y2="79.1548" stroke="#383630" stroke-width="0.262577"/>
<line x1="56.8616" y1="77.8375" x2="63.9763" y2="77.8375" stroke="#383630" stroke-width="0.262577"/>
<line x1="57.7174" y1="76.6275" x2="63.1973" y2="76.6275" stroke="#383630" stroke-width="0.262577"/>
<line x1="65.7339" y1="80.523" x2="66.7697" y2="75.5658" stroke="#383630" stroke-width="0.262577"/>
<line x1="64.8034" y1="79.254" x2="65.7353" y2="75.563" stroke="#383630" stroke-width="0.262577"/>
<line x1="63.849" y1="77.9346" x2="64.5297" y2="75.4083" stroke="#383630" stroke-width="0.262577"/>
<line x1="63.0709" y1="76.7246" x2="63.4249" y2="75.4102" stroke="#383630" stroke-width="0.262577"/>
<line x1="57.8448" y1="76.7169" x2="57.5204" y2="75.5532" stroke="#383630" stroke-width="0.262577"/>
<line x1="56.9897" y1="77.938" x2="56.3381" y2="75.483" stroke="#383630" stroke-width="0.262577"/>
<line x1="55.9832" y1="79.255" x2="55.2084" y2="75.6287" stroke="#383630" stroke-width="0.262577"/>
<line x1="111.392" y1="13.8203" x2="111.379" y2="77.7757" stroke="#383630" stroke-width="0.262577"/>
<g clip-path="url(#clip7_367_4016)">
<path d="M80.8101 70.3736C80.7144 70.3314 80.6029 70.3759 80.5616 70.4717C80.3673 70.9194 79.9255 71.2086 79.436 71.2086C78.7584 71.2086 78.2072 70.6574 78.2072 69.9798C78.2072 69.5404 78.4438 69.1326 78.8246 68.915C78.9155 68.8634 78.9469 68.7479 78.8951 68.6572C78.8435 68.5664 78.7278 68.5343 78.6373 68.5868C78.1387 68.8713 77.829 69.405 77.829 69.9798C77.829 70.8659 78.5499 71.5868 79.436 71.5868C80.0763 71.5868 80.6543 71.2081 80.9084 70.6222C80.95 70.5265 80.9061 70.4152 80.8101 70.3736Z" fill="#383630"/>
<path d="M82.1637 70.5694C82.1248 70.4722 82.0155 70.4249 81.918 70.4639L81.6351 70.5771L81.2236 69.2598C81.1988 69.1807 81.1256 69.1271 81.0428 69.1271H79.6926L79.6338 68.7489H80.3811C80.4857 68.7489 80.5702 68.6644 80.5702 68.5599C80.5702 68.4554 80.4857 68.3708 80.3811 68.3708H79.5752L79.4775 67.7411C79.6211 67.6598 79.7194 67.5076 79.7194 67.331C79.7194 67.0703 79.5075 66.8584 79.2468 66.8584C78.9863 66.8584 78.7742 67.0703 78.7742 67.331C78.7742 67.5403 78.9118 67.7161 79.1007 67.7781L79.3436 69.345C79.358 69.4373 79.4372 69.5052 79.5304 69.5052H80.9039L81.3349 70.8849C81.3508 70.9352 81.3867 70.9766 81.4344 70.9993C81.4599 71.0116 81.4879 71.0176 81.5155 71.0176C81.5393 71.0176 81.5631 71.0133 81.5858 71.0042L82.0584 70.8151C82.1554 70.7764 82.2025 70.6663 82.1637 70.5694Z" fill="#383630"/>
</g>
<mask id="path-105-inside-9_367_4016" fill="white">
<path d="M85.0035 76.8398H78.7016V87.3429H85.0035V76.8398Z"/>
</mask>
<path d="M85.0035 76.8398H78.7016V87.3429H85.0035V76.8398Z" fill="#FAF5F0"/>
<path d="M78.7016 76.8398H78.4391V76.5773H78.7016V76.8398ZM85.0035 76.8398V77.1024H78.7016V76.8398V76.5773H85.0035V76.8398ZM78.7016 76.8398H78.9642V87.3429H78.7016H78.4391V76.8398H78.7016Z" fill="#383630" mask="url(#path-105-inside-9_367_4016)"/>
<line y1="-0.131288" x2="2.62577" y2="-0.131288" transform="matrix(1 0 0 -1 76.0759 78.9404)" stroke="#383630" stroke-width="0.262577"/>
<line y1="-0.131288" x2="3.15092" y2="-0.131288" transform="matrix(1 0 0 -1 70.8239 78.9404)" stroke="#383630" stroke-width="0.262577"/>
<line x1="70.6926" y1="87.3438" x2="70.6926" y2="78.9413" stroke="#383630" stroke-width="0.262577"/>
<path d="M75.6745 83.1854C75.4831 83.1854 75.3279 83.0415 75.3279 82.8638C75.3279 82.6861 75.4831 82.542 75.6745 82.542C75.8658 82.542 76.0211 82.6861 76.0211 82.8638C76.0211 83.0415 75.8658 83.1854 75.6745 83.1854Z" fill="#383630"/>
<path d="M75.6745 83.2295C76.0895 83.2295 76.21 83.3914 76.2606 84.0169C76.2652 84.0731 76.2198 84.1221 76.1592 84.1264C76.1564 84.1265 76.1536 84.1266 76.1509 84.1266C76.0939 84.1266 76.0457 84.0858 76.0413 84.0322C76.0227 83.8013 75.9982 83.6597 75.962 83.5726C75.9657 83.5899 75.9677 83.6077 75.9677 83.6259V84.0186C75.9677 84.0397 75.9649 84.0601 75.96 84.0798V84.9422C75.96 85.008 75.9026 85.0613 75.8317 85.0613C75.7609 85.0613 75.7035 85.008 75.7035 84.9422V84.2895C75.694 84.2904 75.6843 84.2908 75.6745 84.2908C75.6648 84.2908 75.6552 84.2904 75.6457 84.2895V84.9422C75.6457 85.008 75.5883 85.0613 75.5175 85.0613C75.4466 85.0613 75.3892 85.008 75.3892 84.9422V84.0803C75.3843 84.0605 75.3814 84.0399 75.3814 84.0186V83.6259C75.3814 83.6077 75.3834 83.5899 75.3871 83.5727C75.3509 83.6598 75.3265 83.8014 75.3078 84.0322C75.3032 84.0884 75.2504 84.1305 75.19 84.1264C75.1294 84.1221 75.084 84.0731 75.0885 84.0169C75.1391 83.3914 75.2596 83.2295 75.6745 83.2295Z" fill="#383630"/>
<path d="M74.3753 83.1854C74.184 83.1854 74.0287 83.0415 74.0287 82.8638C74.0287 82.6861 74.184 82.542 74.3753 82.542C74.5667 82.542 74.7219 82.6861 74.7219 82.8638C74.7219 83.0415 74.5667 83.1854 74.3753 83.1854Z" fill="#383630"/>
<path d="M74.3755 83.2295C74.7904 83.2295 74.9109 83.3914 74.9615 84.0169C74.966 84.0731 74.9206 84.1221 74.8601 84.1264C74.8573 84.1265 74.8545 84.1266 74.8517 84.1266C74.7947 84.1266 74.7466 84.0858 74.7422 84.0322C74.7245 83.8137 74.7017 83.6752 74.6686 83.5871V83.8992L74.7777 84.3545C74.7799 84.3634 74.7775 84.3726 74.7714 84.3797C74.7653 84.3868 74.7561 84.3909 74.7463 84.3909H74.6609V84.9422C74.6609 85.008 74.6034 85.0613 74.5326 85.0613C74.4618 85.0613 74.4043 85.008 74.4043 84.9422V84.3909H74.3466V84.9422C74.3466 85.008 74.2891 85.0613 74.2183 85.0613C74.1475 85.0613 74.09 85.008 74.09 84.9422V84.3909H74.0045C74.0044 84.3909 74.0043 84.3909 74.0042 84.3909C73.9864 84.3909 73.9719 84.3775 73.9719 84.361C73.9719 84.3572 73.9727 84.3535 73.9741 84.3502L74.0823 83.8989V83.5869C74.0492 83.675 74.0263 83.8135 74.0087 84.0322C74.0041 84.0884 73.9513 84.1306 73.8908 84.1264C73.8302 84.1222 73.7848 84.0731 73.7894 84.0169C73.84 83.3914 73.9605 83.2295 74.3755 83.2295Z" fill="#383630"/>
<path d="M73.5437 81.8047H76.5069C76.8406 81.8047 77.112 82.0567 77.112 82.3665V85.1181C77.112 85.428 76.8406 85.68 76.5069 85.68H73.5437C73.21 85.68 72.9386 85.428 72.9386 85.1181V82.3665C72.9386 82.0567 73.21 81.8047 73.5437 81.8047ZM73.3108 85.1181C73.3108 85.2374 73.4153 85.3343 73.5437 85.3343H76.5069C76.6353 85.3343 76.7397 85.2374 76.7397 85.1181V82.3665C76.7397 82.2474 76.6353 82.1504 76.5069 82.1504H73.5437C73.4153 82.1504 73.3108 82.2473 73.3108 82.3665V85.1181H73.3108Z" fill="#383630"/>
<path d="M75.9149 80.7174C75.8968 80.7006 75.8786 80.6837 75.8604 80.6668V81.2985C75.8604 81.327 75.8614 81.355 75.8521 81.3827C75.8272 81.4577 75.7482 81.5084 75.6639 81.5041C75.5799 81.4998 75.5076 81.4413 75.4916 81.3647C75.4866 81.3409 75.4882 81.3159 75.4882 81.2918V80.6668C75.4448 80.7071 75.4048 80.7514 75.3418 80.7641C75.2469 80.7833 75.1491 80.729 75.1228 80.6421C75.104 80.5798 75.1251 80.5151 75.1738 80.4698L75.5426 80.1274C75.5999 80.0742 75.6906 80.0618 75.7621 80.0972C75.7916 80.1119 75.8139 80.1347 75.8372 80.1564L76.164 80.4599C76.1802 80.4749 76.1959 80.4898 76.2076 80.5085C76.2371 80.5557 76.2407 80.6147 76.217 80.6647C76.1653 80.7743 76.006 80.802 75.9149 80.7174Z" fill="#383630"/>
<path d="M74.5073 81.4542C74.4501 81.5073 74.3593 81.5197 74.2879 81.4844C74.2583 81.4697 74.2361 81.4468 74.2127 81.4251L73.886 81.1217C73.8697 81.1066 73.854 81.0917 73.8424 81.0731C73.8128 81.0258 73.8093 80.9668 73.8329 80.9168C73.8847 80.8072 74.044 80.7795 74.135 80.8641C74.1532 80.8809 74.1714 80.8978 74.1895 80.9147V80.283C74.1895 80.2545 74.1886 80.2266 74.1978 80.1989C74.2228 80.1239 74.3017 80.0731 74.386 80.0774C74.47 80.0817 74.5424 80.1402 74.5584 80.2169C74.5633 80.2406 74.5618 80.2656 74.5618 80.2897V80.9147C74.6052 80.8744 74.6451 80.8302 74.7082 80.8174C74.8031 80.7983 74.9008 80.8525 74.9271 80.9394C74.946 81.0017 74.9249 81.0665 74.8761 81.1117L74.5073 81.4542Z" fill="#383630"/>
<g clip-path="url(#clip8_367_4016)">
<path d="M81.4149 83.1304L80.5838 83.1311C80.4591 83.1312 80.3761 83.2144 80.3762 83.339C80.3763 83.4637 80.4595 83.5467 80.5842 83.5466L81.2075 83.5461L81.208 84.1694C81.2081 84.2941 81.2913 84.3771 81.4159 84.377L82.0392 84.3765L82.0398 84.9998C82.0399 85.1245 82.123 85.2075 82.2477 85.2074L82.871 85.2069L82.8715 85.8302C82.8716 85.9548 82.9548 86.0379 83.0795 86.0378L83.9106 86.0371C84.0352 86.037 84.1183 85.9538 84.1182 85.8291C84.118 85.7045 84.0349 85.6214 83.9102 85.6215L83.2869 85.6221L83.2864 84.9987C83.2863 84.8741 83.2031 84.791 83.0784 84.7912L82.4551 84.7917L82.4546 84.1684C82.4545 84.0437 82.3713 83.9607 82.2467 83.9608L81.6233 83.9613L81.6228 83.338C81.6227 83.2133 81.5395 83.1303 81.4149 83.1304Z" fill="#383630"/>
</g>
<path d="M0.978638 13.5586H-5.3232V18.4475H0.978638V13.5586Z" fill="#FAF5F0"/>
<line y1="-0.131288" x2="2.62577" y2="-0.131288" transform="matrix(-1 0 0 1 78.7017 87.3438)" stroke="#383630" stroke-width="0.262577"/>
<line x1="78.6213" y1="87.2143" x2="70.744" y2="87.2143" stroke="#383630" stroke-width="0.262577"/>
<line x1="111.392" y1="77.3652" x2="111.392" y2="88.3934" stroke="#383630" stroke-width="0.262577"/>
<line x1="111.392" y1="92.0684" x2="111.392" y2="103.097" stroke="#383630" stroke-width="0.262577"/>
<line x1="9.77484" y1="78.415" x2="9.77484" y2="88.9181" stroke="#383630" stroke-width="0.262577"/>
<line x1="9.77484" y1="92.5928" x2="9.77484" y2="103.621" stroke="#383630" stroke-width="0.262577"/>
<line x1="9.90686" y1="78.5444" x2="-0.44616" y2="78.5444" stroke="#383630" stroke-width="0.262577"/>
<line x1="9.90686" y1="29.7094" x2="-0.44616" y2="29.7094" stroke="#383630" stroke-width="0.262577"/>
<g clip-path="url(#clip9_367_4016)">
<path d="M54.635 96.1426C53.3287 96.1426 52.2718 97.1996 52.2718 98.5058C52.2718 99.812 53.3288 100.869 54.635 100.869C55.9412 100.869 56.9982 99.8119 56.9982 98.5058C56.9982 97.1995 55.9411 96.1426 54.635 96.1426ZM54.635 100.5C53.5328 100.5 52.641 99.6078 52.641 98.5058C52.641 97.4036 53.5329 96.5118 54.635 96.5118C55.7371 96.5118 56.6289 97.4037 56.6289 98.5058C56.6289 99.6079 55.737 100.5 54.635 100.5Z" fill="#383630"/>
<path d="M54.635 98.123C54.533 98.123 54.4504 98.2057 54.4504 98.3077V99.4966C54.4504 99.5986 54.533 99.6812 54.635 99.6812C54.737 99.6812 54.8196 99.5985 54.8196 99.4966V98.3077C54.8196 98.2057 54.737 98.123 54.635 98.123Z" fill="#383630"/>
<path d="M54.6351 97.8983C54.7732 97.8983 54.8851 97.7864 54.8851 97.6484C54.8851 97.5103 54.7732 97.3984 54.6351 97.3984C54.4971 97.3984 54.3852 97.5103 54.3852 97.6484C54.3852 97.7864 54.4971 97.8983 54.6351 97.8983Z" fill="#383630"/>
</g>
<circle cx="77.4982" cy="75.4423" r="4.4911" fill="#DA4F64"/>
</g>
<rect x="1.42426" y="0.99286" width="114.933" height="114.933" rx="57.4666" stroke="black" stroke-width="1.98572"/>
</g>
<defs>
<filter id="filter0_d_367_4016" x="0.431396" y="0" width="125.919" height="130.919" filterUnits="userSpaceOnUse" color-interpolation-filters="sRGB">
<feFlood flood-opacity="0" result="BackgroundImageFix"/>
<feColorMatrix in="SourceAlpha" type="matrix" values="0 0 0 0 0 0 0 0 0 0 0 0 0 0 0 0 0 0 127 0" result="hardAlpha"/>
<feOffset dx="5" dy="10"/>
<feGaussianBlur stdDeviation="2"/>
<feComposite in2="hardAlpha" operator="out"/>
<feColorMatrix type="matrix" values="0 0 0 0 0 0 0 0 0 0 0 0 0 0 0 0 0 0 0.25 0"/>
<feBlend mode="normal" in2="BackgroundImageFix" result="effect1_dropShadow_367_4016"/>
<feBlend mode="normal" in="SourceGraphic" in2="effect1_dropShadow_367_4016" result="shape"/>
</filter>
<clipPath id="clip0_367_4016">
<rect x="0.431396" width="116.919" height="116.919" rx="58.4595" fill="white"/>
</clipPath>
<clipPath id="clip1_367_4016">
<rect width="3.67607" height="3.67607" fill="white" transform="translate(79.7515 97.3203)"/>
</clipPath>
<clipPath id="clip2_367_4016">
<rect width="3.67607" height="3.67607" fill="white" transform="translate(70.8239 61.6074) rotate(-90)"/>
</clipPath>
<clipPath id="clip3_367_4016">
<rect width="3.67607" height="3.67607" fill="white" transform="translate(71.8742 97.3203)"/>
</clipPath>
<clipPath id="clip4_367_4016">
<rect width="5.25153" height="5.25153" fill="white" transform="translate(77.5284 59.5586)"/>
</clipPath>
<clipPath id="clip5_367_4016">
<rect width="4.98647" height="4.98647" fill="white" transform="matrix(1 -0.000840325 -0.000840325 -1 47.7433 93.3838)"/>
</clipPath>
<clipPath id="clip6_367_4016">
<rect width="4.98896" height="4.98896" fill="white" transform="translate(41.6467 87.6191) rotate(-179.952)"/>
</clipPath>
<clipPath id="clip7_367_4016">
<rect width="4.72638" height="4.72638" fill="white" transform="translate(77.64 66.8613)"/>
</clipPath>
<clipPath id="clip8_367_4016">
<rect width="4.98647" height="4.98647" fill="white" transform="matrix(1 -0.000840325 -0.000840325 -1 79.756 87.083)"/>
</clipPath>
<clipPath id="clip9_367_4016">
<rect width="4.72638" height="4.72638" fill="white" transform="translate(52.272 96.1455)"/>
</clipPath>
</defs>
</svg>
