<svg width="127" height="132" viewBox="0 0 127 132" fill="none" xmlns="http://www.w3.org/2000/svg">
<g filter="url(#filter0_d_367_3625)">
<g clip-path="url(#clip0_367_3625)">
<rect x="0.581055" y="0.746094" width="116.919" height="116.919" rx="58.4595" fill="white"/>
<g clip-path="url(#clip1_367_3625)">
<path d="M83.3842 100.549L81.8469 99.658V99.5918C81.8469 99.5162 81.89 99.4459 81.9594 99.4083C82.1159 99.3236 82.2089 99.1605 82.2021 98.9826C82.193 98.7421 81.9975 98.5466 81.7571 98.5375C81.6299 98.5326 81.5094 98.5785 81.4179 98.6666C81.3263 98.7548 81.2758 98.8734 81.2758 99.0005C81.2758 99.06 81.3241 99.1082 81.3835 99.1082C81.443 99.1082 81.4912 99.06 81.4912 99.0005C81.4912 98.9325 81.5182 98.869 81.5673 98.8218C81.6162 98.7746 81.6807 98.75 81.7489 98.7527C81.8775 98.7576 81.982 98.8621 81.9869 98.9907C81.9905 99.0861 81.9407 99.1735 81.8569 99.2188C81.7178 99.2941 81.6315 99.437 81.6315 99.5918V99.658L80.0941 100.549C79.9751 100.618 79.9011 100.746 79.9011 100.884C79.9011 101.097 80.0747 101.271 80.2882 101.271H83.1902C83.4036 101.271 83.5772 101.097 83.5772 100.884C83.5772 100.746 83.5032 100.618 83.3842 100.549ZM83.1902 101.056H80.2882C80.1935 101.056 80.1165 100.979 80.1165 100.884C80.1165 100.823 80.1493 100.766 80.2021 100.735L81.7392 99.8446L83.2762 100.735C83.329 100.766 83.3618 100.823 83.3618 100.884C83.3618 100.979 83.2848 101.056 83.1902 101.056Z" fill="#383630"/>
</g>
<g clip-path="url(#clip2_367_3625)">
<path d="M71.4904 61.7217L71.4904 61.3761C71.4904 61.3608 71.4844 61.3462 71.4736 61.3354C71.4628 61.3246 71.4481 61.3185 71.4328 61.3185C71.4176 61.3185 71.4029 61.3246 71.3921 61.3354C71.3813 61.3462 71.3752 61.3608 71.3752 61.3761L71.3752 61.7217C71.3752 61.737 71.3813 61.7516 71.3921 61.7624C71.4029 61.7732 71.4176 61.7793 71.4328 61.7793C71.4481 61.7793 71.4628 61.7732 71.4736 61.7624C71.4844 61.7516 71.4904 61.737 71.4904 61.7217Z" fill="#383630"/>
<path d="M71.7201 61.8351L71.7201 61.2608C71.7201 61.2455 71.7141 61.2309 71.7033 61.2201C71.6925 61.2094 71.6779 61.2033 71.6627 61.2033C71.6474 61.2033 71.6328 61.2094 71.622 61.2201C71.6113 61.2309 71.6052 61.2455 71.6052 61.2608L71.6052 61.8351C71.6052 61.8504 71.6113 61.865 71.622 61.8758C71.6328 61.8865 71.6474 61.8926 71.6627 61.8926C71.6779 61.8926 71.6925 61.8865 71.7033 61.8758C71.7141 61.865 71.7201 61.8504 71.7201 61.8351Z" fill="#383630"/>
<path d="M72.1799 61.2589L72.1799 61.4893C72.1799 61.5046 72.186 61.5192 72.1968 61.53C72.2076 61.5408 72.2223 61.5469 72.2375 61.5469L72.5831 61.5469C72.5984 61.5469 72.6131 61.5408 72.6239 61.53C72.6347 61.5192 72.6407 61.5046 72.6407 61.4893L72.6407 61.2589C72.6407 61.2436 72.6347 61.2289 72.6239 61.2181C72.6131 61.2073 72.5984 61.2013 72.5831 61.2013L72.2375 61.2013C72.2223 61.2013 72.2076 61.2073 72.1968 61.2181C72.186 61.2289 72.1799 61.2436 72.1799 61.2589ZM72.5255 61.3165L72.5255 61.4317L72.2951 61.4317L72.2951 61.3165L72.5255 61.3165Z" fill="#383630"/>
<path d="M71.4904 60.6856L71.4904 60.34C71.4904 60.3247 71.4844 60.31 71.4736 60.2992C71.4628 60.2884 71.4481 60.2824 71.4328 60.2824C71.4176 60.2824 71.4029 60.2884 71.3921 60.2992C71.3813 60.31 71.3752 60.3247 71.3752 60.34L71.3752 60.6856C71.3752 60.7008 71.3813 60.7155 71.3921 60.7263C71.4029 60.7371 71.4176 60.7432 71.4328 60.7432C71.4481 60.7432 71.4628 60.7371 71.4736 60.7263C71.4844 60.7155 71.4904 60.7008 71.4904 60.6856Z" fill="#383630"/>
<path d="M71.7201 60.8019L71.7201 60.2276C71.7201 60.2123 71.7141 60.1977 71.7033 60.1869C71.6925 60.1762 71.6779 60.1701 71.6627 60.1701C71.6474 60.1701 71.6328 60.1762 71.622 60.1869C71.6113 60.1977 71.6052 60.2123 71.6052 60.2276L71.6052 60.8019C71.6052 60.8172 71.6113 60.8318 71.622 60.8426C71.6328 60.8533 71.6474 60.8594 71.6627 60.8594C71.6779 60.8594 71.6925 60.8533 71.7033 60.8426C71.7141 60.8318 71.7201 60.8172 71.7201 60.8019Z" fill="#383630"/>
<path d="M72.1799 60.2266L72.1799 60.457C72.1799 60.4723 72.186 60.487 72.1968 60.4978C72.2076 60.5086 72.2223 60.5146 72.2375 60.5146L72.5831 60.5146C72.5984 60.5146 72.6131 60.5086 72.6239 60.4978C72.6347 60.487 72.6407 60.4723 72.6407 60.457L72.6407 60.2266C72.6407 60.2114 72.6347 60.1967 72.6239 60.1859C72.6131 60.1751 72.5984 60.169 72.5831 60.169L72.2375 60.169C72.2223 60.169 72.2076 60.1751 72.1968 60.1859C72.186 60.1967 72.1799 60.2114 72.1799 60.2266ZM72.5255 60.2842L72.5255 60.3994L72.2951 60.3994L72.2951 60.2842L72.5255 60.2842Z" fill="#383630"/>
<path d="M71.4904 59.6543L71.4904 59.3087C71.4904 59.2934 71.4844 59.2788 71.4736 59.268C71.4628 59.2572 71.4481 59.2511 71.4328 59.2511C71.4176 59.2511 71.4029 59.2572 71.3921 59.268C71.3813 59.2788 71.3752 59.2934 71.3752 59.3087L71.3752 59.6543C71.3752 59.6696 71.3813 59.6842 71.3921 59.695C71.4029 59.7058 71.4176 59.7119 71.4328 59.7119C71.4481 59.7119 71.4628 59.7058 71.4736 59.695C71.4844 59.6842 71.4904 59.6696 71.4904 59.6543Z" fill="#383630"/>
<path d="M71.7201 59.7678L71.7201 59.1934C71.7201 59.1781 71.7141 59.1635 71.7033 59.1528C71.6925 59.142 71.6779 59.1359 71.6627 59.1359C71.6474 59.1359 71.6328 59.142 71.622 59.1528C71.6113 59.1635 71.6052 59.1781 71.6052 59.1934L71.6052 59.7678C71.6052 59.783 71.6113 59.7976 71.622 59.8084C71.6328 59.8191 71.6474 59.8252 71.6627 59.8252C71.6779 59.8252 71.6925 59.8191 71.7033 59.8084C71.7141 59.7976 71.7201 59.783 71.7201 59.7678Z" fill="#383630"/>
<path d="M72.1799 59.1934L72.1799 59.4238C72.1799 59.4391 72.186 59.4538 72.1968 59.4646C72.2076 59.4754 72.2223 59.4814 72.2375 59.4814L72.5831 59.4814C72.5984 59.4814 72.6131 59.4754 72.6239 59.4646C72.6347 59.4538 72.6407 59.4391 72.6407 59.4238L72.6407 59.1934C72.6407 59.1782 72.6347 59.1635 72.6239 59.1527C72.6131 59.1419 72.5984 59.1358 72.5831 59.1358L72.2375 59.1358C72.2223 59.1358 72.2076 59.1419 72.1968 59.1527C72.186 59.1635 72.1799 59.1782 72.1799 59.1934ZM72.5255 59.251L72.5255 59.3662L72.2951 59.3662L72.2951 59.251L72.5255 59.251Z" fill="#383630"/>
<path d="M73.1567 61.7217L73.1567 61.3761C73.1567 61.3608 73.1506 61.3462 73.1398 61.3354C73.129 61.3246 73.1144 61.3185 73.0991 61.3185C73.0838 61.3185 73.0692 61.3246 73.0584 61.3354C73.0476 61.3462 73.0415 61.3608 73.0415 61.3761L73.0415 61.7217C73.0415 61.737 73.0476 61.7516 73.0584 61.7624C73.0692 61.7732 73.0838 61.7793 73.0991 61.7793C73.1144 61.7793 73.129 61.7732 73.1398 61.7624C73.1506 61.7516 73.1567 61.737 73.1567 61.7217Z" fill="#383630"/>
<path d="M73.3866 61.8351L73.3866 61.2608C73.3866 61.2455 73.3806 61.2309 73.3698 61.2201C73.359 61.2094 73.3444 61.2033 73.3292 61.2033C73.3139 61.2033 73.2993 61.2094 73.2886 61.2201C73.2778 61.2309 73.2717 61.2455 73.2717 61.2608L73.2717 61.8351C73.2717 61.8504 73.2778 61.865 73.2886 61.8758C73.2993 61.8865 73.3139 61.8926 73.3292 61.8926C73.3444 61.8926 73.359 61.8865 73.3698 61.8758C73.3806 61.865 73.3866 61.8504 73.3866 61.8351Z" fill="#383630"/>
<path d="M73.8456 61.2589L73.8456 61.4893C73.8456 61.5046 73.8516 61.5192 73.8625 61.53C73.8733 61.5408 73.8879 61.5469 73.9032 61.5469L74.2488 61.5469C74.2641 61.5469 74.2787 61.5408 74.2895 61.53C74.3003 61.5192 74.3064 61.5046 74.3064 61.4893L74.3064 61.2589C74.3064 61.2436 74.3003 61.2289 74.2895 61.2181C74.2787 61.2073 74.2641 61.2013 74.2488 61.2013L73.9032 61.2013C73.8879 61.2013 73.8733 61.2073 73.8625 61.2181C73.8516 61.2289 73.8456 61.2436 73.8456 61.2589ZM74.1912 61.3165L74.1912 61.4317L73.9608 61.4317L73.9608 61.3165L74.1912 61.3165Z" fill="#383630"/>
<path d="M73.1567 60.6856L73.1567 60.34C73.1567 60.3247 73.1506 60.31 73.1398 60.2992C73.129 60.2884 73.1144 60.2824 73.0991 60.2824C73.0838 60.2824 73.0692 60.2884 73.0584 60.2992C73.0476 60.31 73.0415 60.3247 73.0415 60.34L73.0415 60.6856C73.0415 60.7008 73.0476 60.7155 73.0584 60.7263C73.0692 60.7371 73.0838 60.7432 73.0991 60.7432C73.1144 60.7432 73.129 60.7371 73.1398 60.7263C73.1506 60.7155 73.1567 60.7008 73.1567 60.6856Z" fill="#383630"/>
<path d="M73.3292 60.1701C73.3139 60.1701 73.2993 60.1762 73.2886 60.1869C73.2778 60.1977 73.2717 60.2123 73.2717 60.2276L73.2717 60.8019C73.2717 60.8172 73.2778 60.8318 73.2886 60.8426C73.2993 60.8533 73.3139 60.8594 73.3292 60.8594C73.3444 60.8594 73.359 60.8533 73.3698 60.8426C73.3806 60.8318 73.3866 60.8172 73.3866 60.8019L73.3866 60.2276C73.3866 60.2123 73.3806 60.1977 73.3698 60.1869C73.359 60.1762 73.3444 60.1701 73.3292 60.1701Z" fill="#383630"/>
<path d="M73.8456 60.2266L73.8456 60.457C73.8456 60.4723 73.8516 60.487 73.8625 60.4978C73.8733 60.5086 73.8879 60.5146 73.9032 60.5146L74.2488 60.5146C74.2641 60.5146 74.2787 60.5086 74.2895 60.4978C74.3003 60.487 74.3064 60.4723 74.3064 60.457L74.3064 60.2266C74.3064 60.2114 74.3003 60.1967 74.2895 60.1859C74.2787 60.1751 74.2641 60.169 74.2488 60.169L73.9032 60.169C73.8879 60.169 73.8733 60.1751 73.8625 60.1859C73.8516 60.1967 73.8456 60.2114 73.8456 60.2266ZM74.1912 60.2842L74.1912 60.3994L73.9608 60.3994L73.9608 60.2842L74.1912 60.2842Z" fill="#383630"/>
<path d="M71.1461 58.9075C71.1308 58.9075 71.1162 58.9135 71.1054 58.9243C71.0947 58.9351 71.0886 58.9497 71.0886 58.9649L71.0886 62.0666C71.0886 62.0818 71.0947 62.0964 71.1054 62.1072C71.1162 62.118 71.1308 62.124 71.1461 62.124L74.4775 62.124C74.4927 62.124 74.5073 62.118 74.5181 62.1072C74.5289 62.0964 74.5349 62.0818 74.5349 62.0666L74.5349 58.9649C74.5349 58.9497 74.5289 58.9351 74.5181 58.9243C74.5073 58.9135 74.4927 58.9075 74.4775 58.9075L71.1461 58.9075ZM71.2035 59.0223L72.7543 59.0223L72.7543 59.9414L71.2035 59.9414L71.2035 59.0223ZM72.8692 60.9753L72.8692 60.0562L74.4201 60.0562L74.4201 60.9753L72.8692 60.9753ZM71.2035 60.0562L72.7543 60.0562L72.7543 60.9753L71.2035 60.9753L71.2035 60.0562ZM71.2035 61.0901L72.7543 61.0901L72.7543 62.0091L71.2035 62.0091L71.2035 61.0901ZM74.4201 61.0901L74.4201 62.0091L72.8692 62.0091L72.8692 61.0901L74.4201 61.0901ZM74.4201 59.0223L74.4201 59.9414L72.8692 59.9414L72.8692 59.0223L74.4201 59.0223Z" fill="#383630"/>
<path d="M73.1567 59.6543L73.1567 59.3087C73.1567 59.2934 73.1506 59.2788 73.1398 59.268C73.129 59.2572 73.1144 59.2511 73.0991 59.2511C73.0838 59.2511 73.0692 59.2572 73.0584 59.268C73.0476 59.2788 73.0415 59.2934 73.0415 59.3087L73.0415 59.6543C73.0415 59.6696 73.0476 59.6842 73.0584 59.695C73.0692 59.7058 73.0838 59.7119 73.0991 59.7119C73.1144 59.7119 73.129 59.7058 73.1398 59.695C73.1506 59.6842 73.1567 59.6696 73.1567 59.6543Z" fill="#383630"/>
<path d="M73.3866 59.7678L73.3866 59.1934C73.3866 59.1781 73.3806 59.1635 73.3698 59.1528C73.359 59.142 73.3444 59.1359 73.3292 59.1359C73.3139 59.1359 73.2993 59.142 73.2886 59.1528C73.2778 59.1635 73.2717 59.1781 73.2717 59.1934L73.2717 59.7678C73.2717 59.783 73.2778 59.7976 73.2886 59.8084C73.2993 59.8191 73.3139 59.8252 73.3292 59.8252C73.3444 59.8252 73.359 59.8191 73.3698 59.8084C73.3806 59.7976 73.3866 59.783 73.3866 59.7678Z" fill="#383630"/>
<path d="M73.8456 59.1934L73.8456 59.4238C73.8456 59.4391 73.8516 59.4538 73.8625 59.4646C73.8733 59.4754 73.8879 59.4814 73.9032 59.4814L74.2488 59.4814C74.2641 59.4814 74.2787 59.4754 74.2895 59.4646C74.3003 59.4538 74.3064 59.4391 74.3064 59.4238L74.3064 59.1934C74.3064 59.1782 74.3003 59.1635 74.2895 59.1527C74.2787 59.1419 74.2641 59.1358 74.2488 59.1358L73.9032 59.1358C73.8879 59.1358 73.8733 59.1419 73.8625 59.1527C73.8516 59.1635 73.8456 59.1782 73.8456 59.1934ZM74.1912 59.251L74.1912 59.3662L73.9608 59.3662L73.9608 59.251L74.1912 59.251Z" fill="#383630"/>
</g>
<g clip-path="url(#clip3_367_3625)">
<path d="M72.6559 98.5849H73.0015C73.0167 98.5849 73.0314 98.5789 73.0422 98.5681C73.053 98.5573 73.0591 98.5426 73.0591 98.5273C73.0591 98.5121 73.053 98.4974 73.0422 98.4866C73.0314 98.4758 73.0167 98.4697 73.0015 98.4697H72.6559C72.6406 98.4697 72.6259 98.4758 72.6151 98.4866C72.6043 98.4974 72.5983 98.5121 72.5983 98.5273C72.5983 98.5426 72.6043 98.5573 72.6151 98.5681C72.6259 98.5789 72.6406 98.5849 72.6559 98.5849Z" fill="#383630"/>
<path d="M72.5408 98.8131H73.1152C73.1305 98.8131 73.1451 98.8071 73.1558 98.7963C73.1666 98.7855 73.1727 98.7709 73.1727 98.7557C73.1727 98.7404 73.1666 98.7258 73.1558 98.7151C73.1451 98.7043 73.1305 98.6982 73.1152 98.6982H72.5408C72.5256 98.6982 72.511 98.7043 72.5002 98.7151C72.4895 98.7258 72.4834 98.7404 72.4834 98.7557C72.4834 98.7709 72.4895 98.7855 72.5002 98.7963C72.511 98.8071 72.5256 98.8131 72.5408 98.8131Z" fill="#383630"/>
<path d="M73.1159 99.2734H72.8855C72.8702 99.2734 72.8556 99.2795 72.8448 99.2903C72.8339 99.3011 72.8279 99.3158 72.8279 99.331V99.6766C72.8279 99.6919 72.8339 99.7066 72.8448 99.7174C72.8556 99.7282 72.8702 99.7342 72.8855 99.7342H73.1159C73.1312 99.7342 73.1458 99.7282 73.1566 99.7174C73.1674 99.7066 73.1735 99.6919 73.1735 99.6766V99.331C73.1735 99.3158 73.1674 99.3011 73.1566 99.2903C73.1458 99.2795 73.1312 99.2734 73.1159 99.2734ZM73.0583 99.619H72.9431V99.3886H73.0583V99.619Z" fill="#383630"/>
<path d="M73.69 98.5849H74.0356C74.0509 98.5849 74.0656 98.5789 74.0764 98.5681C74.0872 98.5573 74.0932 98.5426 74.0932 98.5273C74.0932 98.5121 74.0872 98.4974 74.0764 98.4866C74.0656 98.4758 74.0509 98.4697 74.0356 98.4697H73.69C73.6748 98.4697 73.6601 98.4758 73.6493 98.4866C73.6385 98.4974 73.6324 98.5121 73.6324 98.5273C73.6324 98.5426 73.6385 98.5573 73.6493 98.5681C73.6601 98.5789 73.6748 98.5849 73.69 98.5849Z" fill="#383630"/>
<path d="M73.5753 98.8131H74.1496C74.1649 98.8131 74.1795 98.8071 74.1903 98.7963C74.201 98.7855 74.2071 98.7709 74.2071 98.7557C74.2071 98.7404 74.201 98.7258 74.1903 98.7151C74.1795 98.7043 74.1649 98.6982 74.1496 98.6982H73.5753C73.56 98.6982 73.5454 98.7043 73.5346 98.7151C73.5239 98.7258 73.5178 98.7404 73.5178 98.7557C73.5178 98.7709 73.5239 98.7855 73.5346 98.7963C73.5454 98.8071 73.56 98.8131 73.5753 98.8131Z" fill="#383630"/>
<path d="M74.1498 99.2734H73.9194C73.9041 99.2734 73.8895 99.2795 73.8787 99.2903C73.8679 99.3011 73.8618 99.3158 73.8618 99.331V99.6766C73.8618 99.6919 73.8679 99.7066 73.8787 99.7174C73.8895 99.7282 73.9041 99.7342 73.9194 99.7342H74.1498C74.1651 99.7342 74.1797 99.7282 74.1905 99.7174C74.2013 99.7066 74.2074 99.6919 74.2074 99.6766V99.331C74.2074 99.3158 74.2013 99.3011 74.1905 99.2903C74.1797 99.2795 74.1651 99.2734 74.1498 99.2734ZM74.0922 99.619H73.977V99.3886H74.0922V99.619Z" fill="#383630"/>
<path d="M74.724 98.5849H75.0696C75.0849 98.5849 75.0995 98.5789 75.1103 98.5681C75.1211 98.5573 75.1272 98.5426 75.1272 98.5273C75.1272 98.5121 75.1211 98.4974 75.1103 98.4866C75.0995 98.4758 75.0849 98.4697 75.0696 98.4697H74.724C74.7087 98.4697 74.6941 98.4758 74.6833 98.4866C74.6725 98.4974 74.6664 98.5121 74.6664 98.5273C74.6664 98.5426 74.6725 98.5573 74.6833 98.5681C74.6941 98.5789 74.7087 98.5849 74.724 98.5849Z" fill="#383630"/>
<path d="M74.6086 98.8131H75.183C75.1982 98.8131 75.2128 98.8071 75.2236 98.7963C75.2344 98.7855 75.2404 98.7709 75.2404 98.7557C75.2404 98.7404 75.2344 98.7258 75.2236 98.7151C75.2128 98.7043 75.1982 98.6982 75.183 98.6982H74.6086C74.5934 98.6982 74.5787 98.7043 74.568 98.7151C74.5572 98.7258 74.5511 98.7404 74.5511 98.7557C74.5511 98.7709 74.5572 98.7855 74.568 98.7963C74.5787 98.8071 74.5934 98.8131 74.6086 98.8131Z" fill="#383630"/>
<path d="M75.184 99.2734H74.9536C74.9383 99.2734 74.9237 99.2795 74.9129 99.2903C74.9021 99.3011 74.896 99.3158 74.896 99.331V99.6766C74.896 99.6919 74.9021 99.7066 74.9129 99.7174C74.9237 99.7282 74.9383 99.7342 74.9536 99.7342H75.184C75.1993 99.7342 75.2139 99.7282 75.2247 99.7174C75.2355 99.7066 75.2416 99.6919 75.2416 99.6766V99.331C75.2416 99.3158 75.2355 99.3011 75.2247 99.2903C75.2139 99.2795 75.1993 99.2734 75.184 99.2734ZM75.1264 99.619H75.0112V99.3886H75.1264V99.619Z" fill="#383630"/>
<path d="M72.6559 100.25H73.0015C73.0167 100.25 73.0314 100.244 73.0422 100.233C73.053 100.222 73.0591 100.208 73.0591 100.192C73.0591 100.177 73.053 100.162 73.0422 100.152C73.0314 100.141 73.0167 100.135 73.0015 100.135H72.6559C72.6406 100.135 72.6259 100.141 72.6151 100.152C72.6043 100.162 72.5983 100.177 72.5983 100.192C72.5983 100.208 72.6043 100.222 72.6151 100.233C72.6259 100.244 72.6406 100.25 72.6559 100.25Z" fill="#383630"/>
<path d="M72.5408 100.481H73.1152C73.1305 100.481 73.1451 100.475 73.1558 100.464C73.1666 100.453 73.1727 100.439 73.1727 100.424C73.1727 100.408 73.1666 100.394 73.1558 100.383C73.1451 100.372 73.1305 100.366 73.1152 100.366H72.5408C72.5256 100.366 72.511 100.372 72.5002 100.383C72.4895 100.394 72.4834 100.408 72.4834 100.424C72.4834 100.439 72.4895 100.453 72.5002 100.464C72.511 100.475 72.5256 100.481 72.5408 100.481Z" fill="#383630"/>
<path d="M73.1159 100.938H72.8855C72.8702 100.938 72.8556 100.945 72.8448 100.955C72.8339 100.966 72.8279 100.981 72.8279 100.996V101.342C72.8279 101.357 72.8339 101.372 72.8448 101.382C72.8556 101.393 72.8702 101.399 72.8855 101.399H73.1159C73.1312 101.399 73.1458 101.393 73.1566 101.382C73.1674 101.372 73.1735 101.357 73.1735 101.342V100.996C73.1735 100.981 73.1674 100.966 73.1566 100.955C73.1458 100.945 73.1312 100.938 73.1159 100.938ZM73.0583 101.284H72.9431V101.054H73.0583V101.284Z" fill="#383630"/>
<path d="M73.69 100.25H74.0356C74.0509 100.25 74.0656 100.244 74.0764 100.233C74.0872 100.222 74.0932 100.208 74.0932 100.192C74.0932 100.177 74.0872 100.162 74.0764 100.152C74.0656 100.141 74.0509 100.135 74.0356 100.135H73.69C73.6748 100.135 73.6601 100.141 73.6493 100.152C73.6385 100.162 73.6324 100.177 73.6324 100.192C73.6324 100.208 73.6385 100.222 73.6493 100.233C73.6601 100.244 73.6748 100.25 73.69 100.25Z" fill="#383630"/>
<path d="M74.2071 100.424C74.2071 100.408 74.201 100.394 74.1903 100.383C74.1795 100.372 74.1649 100.366 74.1496 100.366H73.5753C73.56 100.366 73.5454 100.372 73.5346 100.383C73.5239 100.394 73.5178 100.408 73.5178 100.424C73.5178 100.439 73.5239 100.453 73.5346 100.464C73.5454 100.475 73.56 100.481 73.5753 100.481H74.1496C74.1649 100.481 74.1795 100.475 74.1903 100.464C74.201 100.453 74.2071 100.439 74.2071 100.424Z" fill="#383630"/>
<path d="M74.1498 100.938H73.9194C73.9041 100.938 73.8895 100.945 73.8787 100.955C73.8679 100.966 73.8618 100.981 73.8618 100.996V101.342C73.8618 101.357 73.8679 101.372 73.8787 101.382C73.8895 101.393 73.9041 101.399 73.9194 101.399H74.1498C74.1651 101.399 74.1797 101.393 74.1905 101.382C74.2013 101.372 74.2074 101.357 74.2074 101.342V100.996C74.2074 100.981 74.2013 100.966 74.1905 100.955C74.1797 100.945 74.1651 100.938 74.1498 100.938ZM74.0922 101.284H73.977V101.054H74.0922V101.284Z" fill="#383630"/>
<path d="M75.4706 98.2391C75.4706 98.2238 75.4645 98.2092 75.4538 98.1985C75.443 98.1877 75.4284 98.1816 75.4132 98.1816H72.3115C72.2962 98.1816 72.2816 98.1877 72.2709 98.1985C72.2601 98.2092 72.254 98.2238 72.254 98.2391V101.571C72.254 101.586 72.2601 101.6 72.2709 101.611C72.2816 101.622 72.2962 101.628 72.3115 101.628H75.4132C75.4284 101.628 75.443 101.622 75.4538 101.611C75.4645 101.6 75.4706 101.586 75.4706 101.571V98.2391ZM75.3557 98.2965V99.8474H74.4367V98.2965H75.3557ZM73.4028 99.9622H74.3218V101.513H73.4028V99.9622ZM74.3218 98.2965V99.8474H73.4028V98.2965H74.3218ZM73.2879 98.2965V99.8474H72.3689V98.2965H73.2879ZM73.2879 101.513H72.3689V99.9622H73.2879V101.513ZM75.3557 101.513H74.4367V99.9622H75.3557V101.513Z" fill="#383630"/>
<path d="M74.724 100.25H75.0696C75.0849 100.25 75.0995 100.244 75.1103 100.233C75.1211 100.222 75.1272 100.208 75.1272 100.192C75.1272 100.177 75.1211 100.162 75.1103 100.152C75.0995 100.141 75.0849 100.135 75.0696 100.135H74.724C74.7087 100.135 74.6941 100.141 74.6833 100.152C74.6725 100.162 74.6664 100.177 74.6664 100.192C74.6664 100.208 74.6725 100.222 74.6833 100.233C74.6941 100.244 74.7087 100.25 74.724 100.25Z" fill="#383630"/>
<path d="M74.6086 100.481H75.183C75.1982 100.481 75.2128 100.475 75.2236 100.464C75.2344 100.453 75.2404 100.439 75.2404 100.424C75.2404 100.408 75.2344 100.394 75.2236 100.383C75.2128 100.372 75.1982 100.366 75.183 100.366H74.6086C74.5934 100.366 74.5787 100.372 74.568 100.383C74.5572 100.394 74.5511 100.408 74.5511 100.424C74.5511 100.439 74.5572 100.453 74.568 100.464C74.5787 100.475 74.5934 100.481 74.6086 100.481Z" fill="#383630"/>
<path d="M75.184 100.938H74.9536C74.9383 100.938 74.9237 100.945 74.9129 100.955C74.9021 100.966 74.896 100.981 74.896 100.996V101.342C74.896 101.357 74.9021 101.372 74.9129 101.382C74.9237 101.393 74.9383 101.399 74.9536 101.399H75.184C75.1993 101.399 75.2139 101.393 75.2247 101.382C75.2355 101.372 75.2416 101.357 75.2416 101.342V100.996C75.2416 100.981 75.2355 100.966 75.2247 100.955C75.2139 100.945 75.1993 100.938 75.184 100.938ZM75.1264 101.284H75.0112V101.054H75.1264V101.284Z" fill="#383630"/>
</g>
<g clip-path="url(#clip4_367_3625)">
<path d="M79.1819 61.4248C78.6186 61.4248 78.6108 61.4248 78.1423 61.4248C77.8913 61.4248 77.6861 61.629 77.6849 61.8799L77.6777 63.2998C77.6772 63.4065 77.7633 63.4935 77.87 63.494C77.8704 63.494 77.8707 63.494 77.871 63.494C77.9773 63.494 78.0637 63.4081 78.0643 63.3017L78.0714 61.8818C78.0714 61.8817 78.0714 61.8815 78.0714 61.8813C78.0717 61.8603 78.0889 61.8433 78.11 61.8435C78.1311 61.8436 78.1481 61.8607 78.1481 61.8818L78.1482 65.1307C78.1482 65.2588 78.252 65.3627 78.3801 65.3627C78.5082 65.3627 78.612 65.2588 78.612 65.1307V63.277H78.7122V65.1307C78.7122 65.2588 78.816 65.3627 78.9441 65.3627C79.0722 65.3627 79.176 65.2588 79.176 65.1307C79.176 62.065 79.1719 63.8182 79.1718 61.8846C79.1718 61.8629 79.189 61.845 79.2107 61.8442C79.2324 61.8433 79.251 61.8598 79.2527 61.8814V61.8815L79.2514 63.3005C79.2513 63.4073 79.3377 63.4939 79.4444 63.494C79.4445 63.494 79.4446 63.494 79.4446 63.494C79.5513 63.494 79.6378 63.4076 79.6379 63.3009L79.6392 61.881C79.6392 61.8806 79.6392 61.8803 79.6392 61.8799C79.638 61.629 79.4328 61.4248 79.1819 61.4248Z" fill="#383630"/>
<path d="M78.6617 61.2981C78.8829 61.2981 79.0622 61.1188 79.0622 60.8976C79.0622 60.6764 78.8829 60.4971 78.6617 60.4971C78.4405 60.4971 78.2612 60.6764 78.2612 60.8976C78.2612 61.1188 78.4405 61.2981 78.6617 61.2981Z" fill="#383630"/>
<path d="M82.6055 63.0003C82.602 62.9902 82.2505 61.9878 82.1953 61.8269C82.1062 61.5679 81.957 61.4365 81.7517 61.4365C81.4642 61.4365 81.3703 61.4365 81.0834 61.4365C80.878 61.4365 80.7288 61.5679 80.6398 61.8269C80.5845 61.9878 80.233 62.9902 80.2295 63.0003C80.1944 63.1003 80.2471 63.2098 80.3471 63.2449C80.4472 63.2799 80.5566 63.2272 80.5916 63.1273C80.6029 63.0949 80.8144 62.5074 80.9323 62.1694C80.92 62.2703 80.9556 62.0609 80.6581 63.5967C80.6453 63.6627 80.6962 63.7237 80.7627 63.7237C80.8041 63.7237 80.8536 63.7237 80.9091 63.7237V65.1153C80.9091 65.2424 81.0122 65.3455 81.1394 65.3455C81.2665 65.3455 81.3696 65.2425 81.3696 65.1153V63.7236C81.4027 63.7236 81.4359 63.7236 81.469 63.7236V65.1153C81.469 65.2424 81.5721 65.3455 81.6992 65.3455C81.8264 65.3455 81.9295 65.2425 81.9295 65.1153V63.7236C81.985 63.7236 82.0345 63.7236 82.0759 63.7236C82.1427 63.7236 82.1933 63.6626 82.1805 63.5967C81.8857 62.0749 81.9182 62.2516 81.9082 62.1694C82.0271 62.51 82.2323 63.0954 82.2435 63.1273C82.2786 63.2273 82.3881 63.2799 82.488 63.2448C82.588 63.2098 82.6406 63.1003 82.6055 63.0003Z" fill="#383630"/>
<path d="M81.4192 61.3099C81.6388 61.3099 81.8169 61.1319 81.8169 60.9123C81.8169 60.6927 81.6388 60.5146 81.4192 60.5146C81.1996 60.5146 81.0216 60.6927 81.0216 60.9123C81.0216 61.1319 81.1996 61.3099 81.4192 61.3099Z" fill="#383630"/>
<path d="M79.9284 60.7529C79.8467 60.7529 79.7804 60.8192 79.7804 60.9009V64.9553C79.7804 65.037 79.8467 65.1033 79.9284 65.1033C80.0102 65.1033 80.0764 65.0371 80.0764 64.9553V60.9009C80.0764 60.8192 80.0101 60.7529 79.9284 60.7529Z" fill="#383630"/>
</g>
<mask id="path-47-inside-1_367_3625" fill="white">
<path d="M-14.1011 14.042H10.056V36.6236H-14.1011V14.042Z"/>
</mask>
<path d="M-14.1011 14.042V13.7794H-14.3637V14.042H-14.1011ZM10.056 14.042H10.3186V13.7794H10.056V14.042ZM-14.1011 14.042V14.3046H10.056V14.042V13.7794H-14.1011V14.042ZM10.056 14.042H9.7934V36.6236H10.056H10.3186V14.042H10.056ZM-14.1011 36.6236H-13.8385V14.042H-14.1011H-14.3637V36.6236H-14.1011Z" fill="#383630" mask="url(#path-47-inside-1_367_3625)"/>
<mask id="path-49-inside-2_367_3625" fill="white">
<path d="M-14.1011 79.1611H10.056V104.368H-14.1011V79.1611Z"/>
</mask>
<path d="M-14.1011 104.368H-14.3637V104.631H-14.1011V104.368ZM10.056 104.368V104.106H-14.1011V104.368V104.631H10.056V104.368ZM-14.1011 104.368H-13.8385V79.1611H-14.1011H-14.3637V104.368H-14.1011Z" fill="#383630" mask="url(#path-49-inside-2_367_3625)"/>
<mask id="path-51-inside-3_367_3625" fill="white">
<path d="M10.0563 79.1611H36.3139V104.368H10.0563V79.1611Z"/>
</mask>
<path d="M10.0563 79.1611V79.4237H36.3139V79.1611V78.8986H10.0563V79.1611ZM36.3139 104.368V104.106H10.0563V104.368V104.631H36.3139V104.368Z" fill="#383630" mask="url(#path-51-inside-3_367_3625)"/>
<mask id="path-53-inside-4_367_3625" fill="white">
<path d="M85.1532 78.1113H111.411V104.369H85.1532V78.1113Z"/>
</mask>
<path d="M85.1532 78.1113V78.3739H111.411V78.1113V77.8488H85.1532V78.1113ZM111.411 104.369V104.106H85.1532V104.369V104.632H111.411V104.369Z" fill="#383630" mask="url(#path-53-inside-4_367_3625)"/>
<mask id="path-55-inside-5_367_3625" fill="white">
<path d="M111.41 14.5664H135.567V104.368H111.41V14.5664Z"/>
</mask>
<path d="M135.567 14.5664H135.83V14.3038H135.567V14.5664ZM135.567 104.368V104.63H135.83V104.368H135.567ZM111.41 14.5664V14.829H135.567V14.5664V14.3038H111.41V14.5664ZM135.567 14.5664H135.305V104.368H135.567H135.83V14.5664H135.567ZM135.567 104.368V104.105H111.41V104.368V104.63H135.567V104.368Z" fill="#383630" mask="url(#path-55-inside-5_367_3625)"/>
<rect x="75.358" y="58.6635" width="9.8915" height="15.8643" stroke="#383630" stroke-width="0.262577"/>
<mask id="path-58-inside-6_367_3625" fill="white">
<path d="M50.3844 36.25H70.8437V74.4934H50.3844V36.25Z"/>
</mask>
<path d="M50.3844 36.25V35.9874H50.1218V36.25H50.3844ZM70.8437 36.25H71.1063V35.9874H70.8437V36.25ZM50.3844 36.25V36.5126H70.8437V36.25V35.9874H50.3844V36.25ZM70.8437 36.25H70.5811V74.4934H70.8437H71.1063V36.25H70.8437ZM50.3844 74.4934H50.647V36.25H50.3844H50.1218V74.4934H50.3844Z" fill="#383630" mask="url(#path-58-inside-6_367_3625)"/>
<mask id="path-60-inside-7_367_3625" fill="white">
<path d="M-14.1011 35.5742H10.056V79.1619H-14.1011V35.5742Z"/>
</mask>
<path d="M10.056 35.5742H9.7934V79.1619H10.056H10.3186V35.5742H10.056ZM-14.1011 79.1619H-13.8385V35.5742H-14.1011H-14.3637V79.1619H-14.1011Z" fill="#383630" mask="url(#path-60-inside-7_367_3625)"/>
<line x1="70.8099" y1="58.6597" x2="75.6878" y2="58.6597" stroke="#383630" stroke-width="0.262577"/>
<path d="M36.184 79.1611L36.184 74.4348" stroke="#383630" stroke-width="0.262577"/>
<line x1="36.0515" y1="74.3619" x2="50.6244" y2="74.3619" stroke="#383630" stroke-width="0.262577"/>
<rect x="35.9197" y="95.0463" width="14.4417" height="9.19018" stroke="#383630" stroke-width="0.262577"/>
<line x1="70.5805" y1="95.4414" x2="70.5805" y2="104.238" stroke="#383630" stroke-width="0.262577"/>
<line x1="85.2845" y1="95.4414" x2="85.2845" y2="104.133" stroke="#383630" stroke-width="0.262577"/>
<line x1="70.4492" y1="95.3101" x2="75.9994" y2="95.3101" stroke="#383630" stroke-width="0.262577"/>
<line x1="80.4266" y1="95.3101" x2="85.4006" y2="95.3101" stroke="#383630" stroke-width="0.262577"/>
<line x1="50.4929" y1="104.236" x2="85.153" y2="104.236" stroke="#383630" stroke-width="0.262577"/>
<line x1="85.2582" y1="74.6602" x2="85.2582" y2="79.1717" stroke="#383630" stroke-width="0.262577"/>
<g clip-path="url(#clip5_367_3625)">
<path d="M49.5523 90.1812L48.7212 90.1819C48.5965 90.182 48.5135 90.2652 48.5136 90.3898C48.5137 90.5145 48.5969 90.5975 48.7215 90.5974L49.3449 90.5969L49.3454 91.2202C49.3455 91.3449 49.4287 91.4279 49.5533 91.4278L50.1766 91.4273L50.1772 92.0506C50.1773 92.1752 50.2604 92.2583 50.3851 92.2582L51.0084 92.2576L51.0089 92.881C51.009 93.0056 51.0922 93.0887 51.2169 93.0886L52.0479 93.0879C52.1726 93.0877 52.2556 93.0046 52.2555 92.8799C52.2554 92.7552 52.1723 92.6722 52.0476 92.6723L51.4243 92.6728L51.4238 92.0495C51.4237 91.9249 51.3405 91.8418 51.2158 91.8419L50.5925 91.8425L50.592 91.2191C50.5919 91.0945 50.5087 91.0114 50.384 91.0116L49.7607 91.0121L49.7602 90.3888C49.7601 90.2641 49.6769 90.1811 49.5523 90.1812Z" fill="#383630"/>
</g>
<path d="M69.855 90.1772L70.686 90.1772C70.8107 90.1772 70.8938 90.2603 70.8938 90.3849C70.8938 90.5096 70.8107 90.5927 70.686 90.5927L70.0627 90.5927L70.0627 91.216C70.0627 91.3407 69.9796 91.4238 69.855 91.4238L69.2316 91.4238L69.2316 92.0471C69.2316 92.1718 69.1485 92.2549 69.0239 92.2549L68.4006 92.2549L68.4006 92.8782C68.4006 93.0028 68.3175 93.0859 68.1928 93.0859L67.3617 93.0859C67.2371 93.0859 67.1539 93.0028 67.1539 92.8782C67.1539 92.7535 67.2371 92.6704 67.3617 92.6704L67.985 92.6704L67.985 92.0471C67.985 91.9224 68.0681 91.8393 68.1928 91.8393L68.8161 91.8393L68.8161 91.216C68.8161 91.0913 68.8992 91.0082 69.0239 91.0082L69.6472 91.0082L69.6472 90.3849C69.6472 90.2603 69.7303 90.1772 69.855 90.1772Z" fill="#383630"/>
<g clip-path="url(#clip6_367_3625)">
<path d="M45.4037 84.0204C45.5951 84.0204 45.7503 83.8764 45.7503 83.6987C45.7503 83.521 45.5951 83.377 45.4037 83.377C45.2124 83.377 45.0571 83.521 45.0571 83.6987C45.0571 83.8764 45.2124 84.0204 45.4037 84.0204Z" fill="#383630"/>
<path d="M45.4039 84.0635C44.989 84.0635 44.8685 84.2254 44.8178 84.8509C44.8133 84.9071 44.8587 84.9561 44.9192 84.9603C44.922 84.9605 44.9248 84.9606 44.9276 84.9606C44.9845 84.9606 45.0327 84.9198 45.0371 84.8662C45.0558 84.6353 45.0802 84.4937 45.1164 84.4066C45.1127 84.4239 45.1107 84.4416 45.1107 84.4599V84.8526C45.1107 84.8737 45.1135 84.8941 45.1184 84.9138V85.7762C45.1184 85.842 45.1758 85.8953 45.2467 85.8953C45.3175 85.8953 45.3749 85.842 45.3749 85.7762V85.1235C45.3845 85.1243 45.3941 85.1248 45.4039 85.1248C45.4136 85.1248 45.4232 85.1243 45.4327 85.1235V85.7762C45.4327 85.842 45.4901 85.8953 45.5609 85.8953C45.6318 85.8953 45.6892 85.842 45.6892 85.7762V84.9143C45.6942 84.8945 45.697 84.8738 45.697 84.8526V84.4599C45.697 84.4417 45.695 84.4239 45.6914 84.4067C45.7275 84.4938 45.752 84.6354 45.7706 84.8662C45.7752 84.9224 45.828 84.9645 45.8885 84.9603C45.949 84.9561 45.9944 84.9071 45.9899 84.8509C45.9393 84.2254 45.8188 84.0635 45.4039 84.0635Z" fill="#383630"/>
<path d="M46.7031 84.0204C46.8944 84.0204 47.0497 83.8764 47.0497 83.6987C47.0497 83.521 46.8944 83.377 46.7031 83.377C46.5117 83.377 46.3566 83.521 46.3566 83.6987C46.3566 83.8764 46.5117 84.0204 46.7031 84.0204Z" fill="#383630"/>
<path d="M46.7024 84.0635C46.2875 84.0635 46.167 84.2254 46.1164 84.8509C46.1119 84.9071 46.1572 84.9561 46.2178 84.9603C46.2206 84.9605 46.2234 84.9606 46.2262 84.9606C46.2831 84.9606 46.3313 84.9198 46.3357 84.8662C46.3534 84.6477 46.3762 84.5092 46.4093 84.4211V84.7332L46.3001 85.1885C46.298 85.1974 46.3004 85.2066 46.3065 85.2137C46.3126 85.2208 46.3218 85.2249 46.3316 85.2249H46.417V85.7762C46.417 85.842 46.4744 85.8953 46.5453 85.8953C46.6161 85.8953 46.6735 85.842 46.6735 85.7762V85.2249H46.7313V85.7762C46.7313 85.842 46.7887 85.8953 46.8596 85.8953C46.9304 85.8953 46.9878 85.842 46.9878 85.7762V85.2249H47.0734C47.0735 85.2249 47.0736 85.2249 47.0737 85.2249C47.0915 85.2249 47.1059 85.2115 47.1059 85.195C47.1059 85.1912 47.1052 85.1875 47.1038 85.1841L46.9956 84.7329V84.4209C47.0287 84.509 47.0515 84.6475 47.0692 84.8662C47.0738 84.9224 47.1266 84.9646 47.1871 84.9604C47.2476 84.9561 47.293 84.9071 47.2885 84.8509C47.2379 84.2254 47.1174 84.0635 46.7024 84.0635Z" fill="#383630"/>
<path d="M47.5354 82.6387H44.5721C44.2385 82.6387 43.967 82.8907 43.967 83.2005V85.9521C43.967 86.2619 44.2385 86.514 44.5721 86.514H47.5354C47.869 86.514 48.1405 86.2619 48.1405 85.9521V83.2005C48.1405 82.8907 47.869 82.6387 47.5354 82.6387ZM47.7682 85.9521C47.7682 86.0713 47.6638 86.1683 47.5354 86.1683H44.5721C44.4437 86.1683 44.3393 86.0714 44.3393 85.9521V83.2005C44.3393 83.0813 44.4437 82.9843 44.5721 82.9843H47.5354C47.6638 82.9843 47.7682 83.0813 47.7682 83.2005V85.9521H47.7682Z" fill="#383630"/>
<path d="M45.1629 81.5524C45.1811 81.5355 45.1993 81.5187 45.2175 81.5018V82.1335C45.2175 82.1619 45.2165 82.1899 45.2257 82.2177C45.2507 82.2926 45.3297 82.3434 45.414 82.3391C45.4979 82.3348 45.5703 82.2763 45.5863 82.1996C45.5913 82.1759 45.5897 82.1509 45.5897 82.1268V81.5018C45.6331 81.5421 45.673 81.5863 45.7361 81.5991C45.831 81.6182 45.9287 81.564 45.955 81.4771C45.9739 81.4148 45.9528 81.35 45.9041 81.3048L45.5353 80.9623C45.478 80.9092 45.3873 80.8967 45.3158 80.9321C45.2863 80.9468 45.264 80.9697 45.2407 80.9914L44.9139 81.2948C44.8977 81.3099 44.882 81.3248 44.8703 81.3434C44.8407 81.3906 44.8372 81.4497 44.8608 81.4997C44.9126 81.6093 45.0719 81.6369 45.1629 81.5524Z" fill="#383630"/>
<path d="M46.5717 82.2891C46.6289 82.3423 46.7197 82.3547 46.7911 82.3193C46.8206 82.3046 46.8429 82.2818 46.8663 82.2601L47.193 81.9566C47.2092 81.9416 47.2249 81.9267 47.2366 81.908C47.2662 81.8608 47.2697 81.8018 47.2461 81.7518C47.1943 81.6421 47.035 81.6145 46.944 81.699C46.9258 81.7159 46.9076 81.7328 46.8894 81.7496V81.118C46.8894 81.0895 46.8904 81.0615 46.8812 81.0338C46.8562 80.9588 46.7773 80.9081 46.6929 80.9124C46.609 80.9166 46.5366 80.9752 46.5206 81.0518C46.5156 81.0756 46.5172 81.1006 46.5172 81.1247V81.7497C46.4738 81.7094 46.4339 81.6651 46.3708 81.6524C46.2759 81.6332 46.1782 81.6875 46.1519 81.7744C46.133 81.8367 46.1541 81.9014 46.2028 81.9467L46.5717 82.2891Z" fill="#383630"/>
</g>
<mask id="path-81-inside-8_367_3625" fill="white">
<path d="M36.3134 77.5859H42.6152V88.2382H36.3134V77.5859Z"/>
</mask>
<path d="M36.3134 77.5859H42.6152V88.2382H36.3134V77.5859Z" fill="#FAF5F0"/>
<path d="M42.6152 77.5859H42.8778V77.3234H42.6152V77.5859ZM36.3134 77.5859V77.8485H42.6152V77.5859V77.3234H36.3134V77.5859ZM42.6152 77.5859H42.3526V88.2382H42.6152H42.8778V77.5859H42.6152Z" fill="#383630" mask="url(#path-81-inside-8_367_3625)"/>
<line x1="42.353" y1="88.1002" x2="48.1402" y2="88.1002" stroke="#383630" stroke-width="0.262577"/>
<line x1="47.5618" y1="88.106" x2="50.2824" y2="88.106" stroke="#383630" stroke-width="0.262577"/>
<line x1="50.1835" y1="88.2378" x2="50.151" y2="79.7061" stroke="#383630" stroke-width="0.262577"/>
<line x1="45.0574" y1="79.8373" x2="42.3763" y2="79.8373" stroke="#383630" stroke-width="0.262577"/>
<line x1="50.2823" y1="79.8373" x2="47.0913" y2="79.8373" stroke="#383630" stroke-width="0.262577"/>
<g clip-path="url(#clip7_367_3625)">
<path d="M40.1369 84.4131L40.9684 84.4138C41.0931 84.4139 41.1762 84.4971 41.1761 84.6219C41.176 84.7466 41.0928 84.8297 40.9681 84.8296L40.3444 84.829L40.3439 85.4527C40.3438 85.5774 40.2606 85.6605 40.1359 85.6604L39.5122 85.6598L39.5117 86.2835C39.5116 86.4082 39.4284 86.4913 39.3037 86.4912L38.68 86.4906L38.6795 87.1142C38.6794 87.239 38.5962 87.3221 38.4715 87.3219L37.64 87.3212C37.5153 87.3211 37.4322 87.2379 37.4323 87.1132C37.4324 86.9885 37.5156 86.9054 37.6403 86.9055L38.264 86.906L38.2645 86.2824C38.2646 86.1577 38.3478 86.0746 38.4725 86.0747L39.0961 86.0752L39.0967 85.4516C39.0968 85.3269 39.18 85.2438 39.3047 85.2439L39.9283 85.2444L39.9289 84.6208C39.929 84.4961 40.0122 84.413 40.1369 84.4131Z" fill="#383630"/>
</g>
<line x1="54.1794" y1="76.2076" x2="67.0483" y2="76.2076" stroke="#383630" stroke-width="0.262577"/>
<line x1="54.3064" y1="76.3054" x2="55.6136" y2="81.2626" stroke="#383630" stroke-width="0.262577"/>
<line x1="55.4867" y1="81.1646" x2="66.0125" y2="81.1646" stroke="#383630" stroke-width="0.262577"/>
<line x1="56.0044" y1="79.9009" x2="65.0802" y2="79.9009" stroke="#383630" stroke-width="0.262577"/>
<line x1="57.0112" y1="78.5836" x2="64.1259" y2="78.5836" stroke="#383630" stroke-width="0.262577"/>
<line x1="57.8671" y1="77.3736" x2="63.3469" y2="77.3736" stroke="#383630" stroke-width="0.262577"/>
<line x1="65.8836" y1="81.269" x2="66.9194" y2="76.3119" stroke="#383630" stroke-width="0.262577"/>
<line x1="64.953" y1="80.0001" x2="65.885" y2="76.3091" stroke="#383630" stroke-width="0.262577"/>
<line x1="63.9987" y1="78.6807" x2="64.6794" y2="76.1544" stroke="#383630" stroke-width="0.262577"/>
<line x1="63.2205" y1="77.4707" x2="63.5745" y2="76.1563" stroke="#383630" stroke-width="0.262577"/>
<line x1="57.9944" y1="77.463" x2="57.67" y2="76.2993" stroke="#383630" stroke-width="0.262577"/>
<line x1="57.1393" y1="78.6841" x2="56.4878" y2="76.2291" stroke="#383630" stroke-width="0.262577"/>
<line x1="56.1328" y1="80.0011" x2="55.3581" y2="76.3747" stroke="#383630" stroke-width="0.262577"/>
<line x1="111.542" y1="14.5664" x2="111.529" y2="78.5218" stroke="#383630" stroke-width="0.262577"/>
<g clip-path="url(#clip8_367_3625)">
<path d="M80.9599 71.1197C80.8642 71.0775 80.7527 71.122 80.7115 71.2178C80.5171 71.6655 80.0753 71.9547 79.5859 71.9547C78.9083 71.9547 78.357 71.4034 78.357 70.7259C78.357 70.2865 78.5937 69.8787 78.9744 69.6611C79.0654 69.6095 79.0968 69.494 79.045 69.4032C78.9934 69.3125 78.8777 69.2804 78.7871 69.3329C78.2886 69.6174 77.9789 70.1511 77.9789 70.7259C77.9789 71.612 78.6997 72.3328 79.5859 72.3328C80.2262 72.3328 80.8041 71.9542 81.0582 71.3683C81.0998 71.2726 81.0559 71.1613 80.9599 71.1197Z" fill="#383630"/>
<path d="M82.3135 71.3155C82.2746 71.2183 82.1653 71.171 82.0677 71.21L81.7849 71.3232L81.3733 70.0059C81.3486 69.9268 81.2754 69.8732 81.1926 69.8732H79.8424L79.7836 69.495H80.5309C80.6355 69.495 80.72 69.4105 80.72 69.306C80.72 69.2014 80.6355 69.1169 80.5309 69.1169H79.725L79.6272 68.4872C79.7709 68.4059 79.8692 68.2537 79.8692 68.0771C79.8692 67.8164 79.6573 67.6045 79.3966 67.6045C79.1361 67.6045 78.924 67.8164 78.924 68.0771C78.924 68.2864 79.0616 68.4622 79.2504 68.5242L79.4934 70.0911C79.5078 70.1834 79.587 70.2513 79.6802 70.2513H81.0537L81.4847 71.631C81.5006 71.6813 81.5365 71.7227 81.5841 71.7454C81.6097 71.7576 81.6376 71.7637 81.6652 71.7637C81.6891 71.7637 81.7129 71.7594 81.7356 71.7503L82.2082 71.5612C82.3052 71.5225 82.3523 71.4124 82.3135 71.3155Z" fill="#383630"/>
</g>
<mask id="path-105-inside-9_367_3625" fill="white">
<path d="M85.1532 77.5859H78.8514V88.089H85.1532V77.5859Z"/>
</mask>
<path d="M85.1532 77.5859H78.8514V88.089H85.1532V77.5859Z" fill="#FAF5F0"/>
<path d="M78.8514 77.5859H78.5888V77.3234H78.8514V77.5859ZM85.1532 77.5859V77.8485H78.8514V77.5859V77.3234H85.1532V77.5859ZM78.8514 77.5859H79.1139V88.089H78.8514H78.5888V77.5859H78.8514Z" fill="#383630" mask="url(#path-105-inside-9_367_3625)"/>
<line y1="-0.131288" x2="2.62577" y2="-0.131288" transform="matrix(1 0 0 -1 76.2255 79.6865)" stroke="#383630" stroke-width="0.262577"/>
<line y1="-0.131288" x2="3.15092" y2="-0.131288" transform="matrix(1 0 0 -1 70.9735 79.6865)" stroke="#383630" stroke-width="0.262577"/>
<line x1="70.8422" y1="88.0898" x2="70.8422" y2="79.6874" stroke="#383630" stroke-width="0.262577"/>
<g clip-path="url(#clip9_367_3625)">
<path d="M75.8241 83.9315C75.6327 83.9315 75.4775 83.7875 75.4775 83.6099C75.4775 83.4322 75.6327 83.2881 75.8241 83.2881C76.0154 83.2881 76.1707 83.4322 76.1707 83.6099C76.1707 83.7875 76.0154 83.9315 75.8241 83.9315Z" fill="#383630"/>
<path d="M75.8243 83.9756C76.2392 83.9756 76.3597 84.1375 76.4103 84.763C76.4149 84.8192 76.3695 84.8682 76.3089 84.8724C76.3061 84.8726 76.3034 84.8727 76.3006 84.8727C76.2436 84.8727 76.1954 84.8319 76.1911 84.7783C76.1724 84.5474 76.1479 84.4058 76.1117 84.3187C76.1154 84.336 76.1174 84.3537 76.1174 84.372V84.7647C76.1174 84.7858 76.1146 84.8062 76.1097 84.8259V85.6883C76.1097 85.7541 76.0523 85.8074 75.9815 85.8074C75.9106 85.8074 75.8532 85.7541 75.8532 85.6883V85.0356C75.8437 85.0364 75.834 85.0369 75.8243 85.0369C75.8145 85.0369 75.8049 85.0364 75.7955 85.0356V85.6883C75.7955 85.7541 75.738 85.8074 75.6672 85.8074C75.5964 85.8074 75.5389 85.7541 75.5389 85.6883V84.8264C75.534 84.8066 75.5311 84.786 75.5311 84.7647V84.372C75.5311 84.3538 75.5331 84.336 75.5368 84.3188C75.5006 84.4059 75.4762 84.5475 75.4575 84.7783C75.453 84.8345 75.4001 84.8766 75.3397 84.8724C75.2791 84.8682 75.2337 84.8192 75.2383 84.763C75.2889 84.1375 75.4094 83.9756 75.8243 83.9756Z" fill="#383630"/>
<path d="M74.5251 83.9315C74.3337 83.9315 74.1785 83.7875 74.1785 83.6099C74.1785 83.4322 74.3337 83.2881 74.5251 83.2881C74.7164 83.2881 74.8716 83.4322 74.8716 83.6099C74.8716 83.7875 74.7164 83.9315 74.5251 83.9315Z" fill="#383630"/>
<path d="M74.5251 83.9756C74.94 83.9756 75.0605 84.1375 75.1111 84.763C75.1157 84.8192 75.0703 84.8682 75.0097 84.8724C75.0069 84.8726 75.0041 84.8727 75.0014 84.8727C74.9444 84.8727 74.8962 84.8319 74.8919 84.7783C74.8742 84.5598 74.8514 84.4213 74.8183 84.3332V84.6453L74.9274 85.1006C74.9295 85.1095 74.9272 85.1187 74.9211 85.1258C74.915 85.1329 74.9057 85.137 74.8959 85.137H74.8105V85.6883C74.8105 85.7541 74.7531 85.8074 74.6823 85.8074C74.6114 85.8074 74.554 85.7541 74.554 85.6883V85.137H74.4962V85.6883C74.4962 85.7541 74.4388 85.8074 74.368 85.8074C74.2971 85.8074 74.2397 85.7541 74.2397 85.6883V85.137H74.1542C74.1541 85.137 74.1539 85.137 74.1538 85.137C74.136 85.137 74.1216 85.1236 74.1216 85.1071C74.1216 85.1033 74.1224 85.0996 74.1238 85.0962L74.232 84.645V84.333C74.1988 84.4211 74.176 84.5596 74.1583 84.7783C74.1538 84.8345 74.1009 84.8767 74.0404 84.8725C73.9799 84.8682 73.9345 84.8192 73.939 84.763C73.9896 84.1375 74.1101 83.9756 74.5251 83.9756Z" fill="#383630"/>
<path d="M73.6934 82.5508H76.6566C76.9903 82.5508 77.2617 82.8028 77.2617 83.1126V85.8642C77.2617 86.174 76.9903 86.4261 76.6566 86.4261H73.6934C73.3597 86.4261 73.0883 86.174 73.0883 85.8642V83.1126C73.0883 82.8028 73.3597 82.5508 73.6934 82.5508ZM73.4606 85.8642C73.4606 85.9834 73.565 86.0804 73.6934 86.0804H76.6566C76.785 86.0804 76.8895 85.9835 76.8895 85.8642V83.1126C76.8895 82.9934 76.785 82.8965 76.6566 82.8965H73.6934C73.565 82.8965 73.4605 82.9934 73.4605 83.1126V85.8642H73.4606Z" fill="#383630"/>
<path d="M76.0646 81.4635C76.0464 81.4467 76.0283 81.4298 76.0101 81.4129V82.0446C76.0101 82.0731 76.011 82.1011 76.0018 82.1288C75.9768 82.2038 75.8979 82.2545 75.8136 82.2502C75.7296 82.2459 75.6573 82.1874 75.6412 82.1108C75.6363 82.087 75.6378 82.062 75.6378 82.0379V81.4129C75.5944 81.4532 75.5545 81.4975 75.4915 81.5102C75.3965 81.5294 75.2988 81.4751 75.2725 81.3882C75.2536 81.3259 75.2748 81.2612 75.3235 81.2159L75.6923 80.8734C75.7495 80.8203 75.8403 80.8079 75.9117 80.8433C75.9413 80.8579 75.9635 80.8808 75.9869 80.9025L76.3136 81.2059C76.3299 81.221 76.3456 81.2359 76.3572 81.2546C76.3868 81.3018 76.3903 81.3608 76.3667 81.4108C76.3149 81.5204 76.1556 81.5481 76.0646 81.4635Z" fill="#383630"/>
<path d="M74.657 82.2002C74.5997 82.2534 74.509 82.2658 74.4375 82.2305C74.408 82.2158 74.3857 82.1929 74.3624 82.1712L74.0356 81.8678C74.0194 81.8527 74.0037 81.8378 73.992 81.8191C73.9625 81.7719 73.9589 81.7129 73.9826 81.6629C74.0343 81.5533 74.1936 81.5256 74.2847 81.6102C74.3028 81.627 74.321 81.6439 74.3392 81.6608V81.0291C74.3392 81.0006 74.3382 80.9727 74.3475 80.9449C74.3724 80.87 74.4514 80.8192 74.5357 80.8235C74.6197 80.8278 74.692 80.8863 74.708 80.963C74.713 80.9867 74.7114 81.0117 74.7114 81.0358V81.6608C74.7549 81.6205 74.7948 81.5763 74.8578 81.5635C74.9527 81.5444 75.0505 81.5986 75.0768 81.6855C75.0956 81.7478 75.0745 81.8126 75.0258 81.8578L74.657 82.2002Z" fill="#383630"/>
</g>
<g clip-path="url(#clip10_367_3625)">
<path d="M81.5645 83.8765L80.7334 83.8772C80.6087 83.8773 80.5257 83.9605 80.5258 84.0851C80.5259 84.2098 80.6091 84.2928 80.7338 84.2927L81.3571 84.2922L81.3576 84.9155C81.3577 85.0402 81.4409 85.1232 81.5655 85.1231L82.1888 85.1226L82.1894 85.7459C82.1895 85.8706 82.2726 85.9536 82.3973 85.9535L83.0206 85.953L83.0211 86.5763C83.0212 86.7009 83.1044 86.784 83.2291 86.7839L84.0602 86.7832C84.1848 86.7831 84.2679 86.6999 84.2678 86.5752C84.2676 86.4506 84.1845 86.3675 84.0598 86.3676L83.4365 86.3681L83.436 85.7448C83.4359 85.6202 83.3527 85.5371 83.228 85.5372L82.6047 85.5378L82.6042 84.9145C82.6041 84.7898 82.5209 84.7068 82.3963 84.7069L81.7729 84.7074L81.7724 84.0841C81.7723 83.9594 81.6891 83.8764 81.5645 83.8765Z" fill="#383630"/>
</g>
<path d="M1.1283 14.3047H-5.17354V19.1936H1.1283V14.3047Z" fill="#FAF5F0"/>
<line y1="-0.131288" x2="2.62577" y2="-0.131288" transform="matrix(-1 0 0 1 78.8513 88.0898)" stroke="#383630" stroke-width="0.262577"/>
<line x1="78.771" y1="87.9604" x2="70.8937" y2="87.9604" stroke="#383630" stroke-width="0.262577"/>
<line x1="111.542" y1="78.1113" x2="111.542" y2="89.1395" stroke="#383630" stroke-width="0.262577"/>
<line x1="111.542" y1="92.8145" x2="111.542" y2="103.843" stroke="#383630" stroke-width="0.262577"/>
<line x1="9.9245" y1="79.1611" x2="9.9245" y2="89.6642" stroke="#383630" stroke-width="0.262577"/>
<line x1="9.9245" y1="93.3389" x2="9.9245" y2="104.367" stroke="#383630" stroke-width="0.262577"/>
<line x1="10.0565" y1="79.2905" x2="-0.296502" y2="79.2905" stroke="#383630" stroke-width="0.262577"/>
<line x1="10.0565" y1="30.4555" x2="-0.296502" y2="30.4555" stroke="#383630" stroke-width="0.262577"/>
<g clip-path="url(#clip11_367_3625)">
<path d="M54.7846 96.8887C53.4783 96.8887 52.4214 97.9457 52.4214 99.2519C52.4214 100.558 53.4784 101.615 54.7846 101.615C56.0908 101.615 57.1478 100.558 57.1478 99.2519C57.1478 97.9456 56.0907 96.8887 54.7846 96.8887ZM54.7846 101.246C53.6824 101.246 52.7906 100.354 52.7906 99.2519C52.7906 98.1497 53.6825 97.2579 54.7846 97.2579C55.8867 97.2579 56.7785 98.1498 56.7785 99.2519C56.7785 100.354 55.8866 101.246 54.7846 101.246Z" fill="#383630"/>
<path d="M54.7846 98.8691C54.6826 98.8691 54.6 98.9518 54.6 99.0538V100.243C54.6 100.345 54.6826 100.427 54.7846 100.427C54.8866 100.427 54.9692 100.345 54.9692 100.243V99.0538C54.9692 98.9518 54.8866 98.8691 54.7846 98.8691Z" fill="#383630"/>
<path d="M54.7847 98.6444C54.9228 98.6444 55.0347 98.5325 55.0347 98.3945C55.0347 98.2564 54.9228 98.1445 54.7847 98.1445C54.6467 98.1445 54.5348 98.2564 54.5348 98.3945C54.5348 98.5325 54.6467 98.6444 54.7847 98.6444Z" fill="#383630"/>
</g>
<circle cx="73.1569" cy="67.8847" r="4.4911" fill="#DA4F64"/>
</g>
<rect x="1.57391" y="1.73895" width="114.933" height="114.933" rx="57.4666" stroke="black" stroke-width="1.98572"/>
</g>
<defs>
<filter id="filter0_d_367_3625" x="0.581055" y="0.746094" width="125.919" height="130.919" filterUnits="userSpaceOnUse" color-interpolation-filters="sRGB">
<feFlood flood-opacity="0" result="BackgroundImageFix"/>
<feColorMatrix in="SourceAlpha" type="matrix" values="0 0 0 0 0 0 0 0 0 0 0 0 0 0 0 0 0 0 127 0" result="hardAlpha"/>
<feOffset dx="5" dy="10"/>
<feGaussianBlur stdDeviation="2"/>
<feComposite in2="hardAlpha" operator="out"/>
<feColorMatrix type="matrix" values="0 0 0 0 0 0 0 0 0 0 0 0 0 0 0 0 0 0 0.25 0"/>
<feBlend mode="normal" in2="BackgroundImageFix" result="effect1_dropShadow_367_3625"/>
<feBlend mode="normal" in="SourceGraphic" in2="effect1_dropShadow_367_3625" result="shape"/>
</filter>
<clipPath id="clip0_367_3625">
<rect x="0.581055" y="0.746094" width="116.919" height="116.919" rx="58.4595" fill="white"/>
</clipPath>
<clipPath id="clip1_367_3625">
<rect width="3.67607" height="3.67607" fill="white" transform="translate(79.9011 98.0664)"/>
</clipPath>
<clipPath id="clip2_367_3625">
<rect width="3.67607" height="3.67607" fill="white" transform="translate(70.9735 62.3535) rotate(-90)"/>
</clipPath>
<clipPath id="clip3_367_3625">
<rect width="3.67607" height="3.67607" fill="white" transform="translate(72.0239 98.0664)"/>
</clipPath>
<clipPath id="clip4_367_3625">
<rect width="5.25153" height="5.25153" fill="white" transform="translate(77.678 60.3047)"/>
</clipPath>
<clipPath id="clip5_367_3625">
<rect width="4.98647" height="4.98647" fill="white" transform="matrix(1 -0.000840325 -0.000840325 -1 47.8931 94.1299)"/>
</clipPath>
<clipPath id="clip6_367_3625">
<rect width="7.35214" height="6.82699" fill="white" transform="translate(42.3774 80.2988)"/>
</clipPath>
<clipPath id="clip7_367_3625">
<rect width="4.98896" height="4.98896" fill="white" transform="translate(41.7964 88.3652) rotate(-179.952)"/>
</clipPath>
<clipPath id="clip8_367_3625">
<rect width="4.72638" height="4.72638" fill="white" transform="translate(77.7897 67.6074)"/>
</clipPath>
<clipPath id="clip9_367_3625">
<rect width="7.35214" height="6.82699" fill="white" transform="matrix(-1 0 0 1 78.8513 80.2109)"/>
</clipPath>
<clipPath id="clip10_367_3625">
<rect width="4.98647" height="4.98647" fill="white" transform="matrix(1 -0.000840325 -0.000840325 -1 79.9056 87.8291)"/>
</clipPath>
<clipPath id="clip11_367_3625">
<rect width="4.72638" height="4.72638" fill="white" transform="translate(52.4216 96.8916)"/>
</clipPath>
</defs>
</svg>
