<svg width="127" height="131" viewBox="0 0 127 131" fill="none" xmlns="http://www.w3.org/2000/svg">
<g filter="url(#filter0_d_335_4227)">
<g clip-path="url(#clip0_335_4227)">
<rect x="0.540527" width="116.919" height="116.919" rx="58.4595" fill="white"/>
<g clip-path="url(#clip1_335_4227)">
<path d="M83.3437 99.8028L81.8063 98.9119V98.8457C81.8063 98.7701 81.8495 98.6998 81.9189 98.6622C82.0754 98.5775 82.1684 98.4144 82.1616 98.2365C82.1525 97.996 81.957 97.8005 81.7166 97.7914C81.5894 97.7865 81.4689 97.8324 81.3774 97.9205C81.2858 98.0087 81.2353 98.1273 81.2353 98.2544C81.2353 98.3139 81.2835 98.3621 81.343 98.3621C81.4025 98.3621 81.4507 98.3139 81.4507 98.2544C81.4507 98.1864 81.4777 98.1229 81.5267 98.0757C81.5757 98.0286 81.6402 98.0039 81.7084 98.0066C81.837 98.0115 81.9415 98.116 81.9464 98.2446C81.95 98.34 81.9002 98.4274 81.8164 98.4727C81.6773 98.548 81.5909 98.6909 81.5909 98.8457V98.9119L80.0536 99.8028C79.9345 99.8718 79.8606 100 79.8606 100.138C79.8606 100.351 80.0342 100.525 80.2476 100.525H83.1496C83.363 100.525 83.5367 100.351 83.5367 100.138C83.5367 100 83.4627 99.8718 83.3437 99.8028ZM83.1496 100.309H80.2476C80.153 100.309 80.076 100.232 80.076 100.138C80.076 100.077 80.1088 100.02 80.1616 99.9892L81.6986 99.0985L83.2357 99.9892C83.2885 100.02 83.3213 100.077 83.3213 100.138C83.3213 100.232 83.2443 100.309 83.1496 100.309Z" fill="#383630"/>
</g>
<g clip-path="url(#clip2_335_4227)">
<path d="M71.4502 60.9756L71.4502 60.63C71.4502 60.6147 71.4441 60.6001 71.4333 60.5893C71.4225 60.5785 71.4078 60.5724 71.3926 60.5724C71.3773 60.5724 71.3626 60.5785 71.3518 60.5893C71.341 60.6001 71.335 60.6147 71.335 60.63L71.335 60.9756C71.335 60.9909 71.341 61.0055 71.3518 61.0163C71.3626 61.0271 71.3773 61.0332 71.3926 61.0332C71.4078 61.0332 71.4225 61.0271 71.4333 61.0163C71.4441 61.0055 71.4502 60.9909 71.4502 60.9756Z" fill="#383630"/>
<path d="M71.6796 61.089L71.6796 60.5147C71.6796 60.4994 71.6735 60.4848 71.6628 60.474C71.652 60.4633 71.6374 60.4572 71.6221 60.4572C71.6069 60.4572 71.5923 60.4633 71.5815 60.474C71.5707 60.4848 71.5647 60.4994 71.5647 60.5147L71.5647 61.089C71.5647 61.1043 71.5707 61.1189 71.5815 61.1297C71.5923 61.1404 71.6069 61.1465 71.6221 61.1465C71.6374 61.1465 71.652 61.1404 71.6628 61.1297C71.6735 61.1189 71.6796 61.1043 71.6796 61.089Z" fill="#383630"/>
<path d="M72.1394 60.5128L72.1394 60.7432C72.1394 60.7585 72.1455 60.7731 72.1563 60.7839C72.1671 60.7947 72.1817 60.8008 72.197 60.8008L72.5426 60.8008C72.5579 60.8008 72.5725 60.7947 72.5833 60.7839C72.5941 60.7731 72.6002 60.7585 72.6002 60.7432L72.6002 60.5128C72.6002 60.4975 72.5941 60.4829 72.5833 60.4721C72.5725 60.4612 72.5579 60.4552 72.5426 60.4552L72.197 60.4552C72.1817 60.4552 72.1671 60.4612 72.1563 60.4721C72.1455 60.4829 72.1394 60.4975 72.1394 60.5128ZM72.485 60.5704L72.485 60.6856L72.2546 60.6856L72.2546 60.5704L72.485 60.5704Z" fill="#383630"/>
<path d="M71.4502 59.9395L71.4502 59.5939C71.4502 59.5786 71.4441 59.5639 71.4333 59.5531C71.4225 59.5423 71.4078 59.5363 71.3926 59.5363C71.3773 59.5363 71.3626 59.5423 71.3518 59.5531C71.341 59.5639 71.335 59.5786 71.335 59.5939L71.335 59.9395C71.335 59.9547 71.341 59.9694 71.3518 59.9802C71.3626 59.991 71.3773 59.9971 71.3926 59.9971C71.4078 59.9971 71.4225 59.991 71.4333 59.9802C71.4441 59.9694 71.4502 59.9547 71.4502 59.9395Z" fill="#383630"/>
<path d="M71.6796 60.0558L71.6796 59.4815C71.6796 59.4662 71.6735 59.4516 71.6628 59.4408C71.652 59.4301 71.6374 59.424 71.6221 59.424C71.6069 59.424 71.5923 59.4301 71.5815 59.4408C71.5707 59.4516 71.5647 59.4662 71.5647 59.4815L71.5647 60.0558C71.5647 60.0711 71.5707 60.0857 71.5815 60.0965C71.5923 60.1072 71.6069 60.1133 71.6221 60.1133C71.6374 60.1133 71.652 60.1072 71.6628 60.0965C71.6735 60.0857 71.6796 60.0711 71.6796 60.0558Z" fill="#383630"/>
<path d="M72.1394 59.4806L72.1394 59.711C72.1394 59.7262 72.1455 59.7409 72.1563 59.7517C72.1671 59.7625 72.1817 59.7686 72.197 59.7686L72.5426 59.7686C72.5579 59.7686 72.5725 59.7625 72.5833 59.7517C72.5941 59.7409 72.6002 59.7262 72.6002 59.711L72.6002 59.4806C72.6002 59.4653 72.5941 59.4506 72.5833 59.4398C72.5725 59.429 72.5579 59.423 72.5426 59.423L72.197 59.423C72.1817 59.423 72.1671 59.429 72.1563 59.4398C72.1455 59.4506 72.1394 59.4653 72.1394 59.4806ZM72.485 59.5382L72.485 59.6534L72.2546 59.6534L72.2546 59.5382L72.485 59.5382Z" fill="#383630"/>
<path d="M71.4502 58.9082L71.4502 58.5626C71.4502 58.5473 71.4441 58.5327 71.4333 58.5219C71.4225 58.5111 71.4078 58.505 71.3926 58.505C71.3773 58.505 71.3626 58.5111 71.3518 58.5219C71.341 58.5327 71.335 58.5473 71.335 58.5626L71.335 58.9082C71.335 58.9235 71.341 58.9381 71.3518 58.9489C71.3626 58.9598 71.3773 58.9658 71.3926 58.9658C71.4078 58.9658 71.4225 58.9598 71.4333 58.9489C71.4441 58.9381 71.4502 58.9235 71.4502 58.9082Z" fill="#383630"/>
<path d="M71.6796 59.0217L71.6796 58.4473C71.6796 58.432 71.6735 58.4174 71.6628 58.4067C71.652 58.3959 71.6374 58.3898 71.6221 58.3898C71.6069 58.3898 71.5923 58.3959 71.5815 58.4067C71.5707 58.4174 71.5647 58.432 71.5647 58.4473L71.5647 59.0217C71.5647 59.0369 71.5707 59.0515 71.5815 59.0623C71.5923 59.0731 71.6069 59.0791 71.6221 59.0791C71.6374 59.0791 71.652 59.0731 71.6628 59.0623C71.6735 59.0515 71.6796 59.0369 71.6796 59.0217Z" fill="#383630"/>
<path d="M72.1394 58.4474L72.1394 58.6778C72.1394 58.693 72.1455 58.7077 72.1563 58.7185C72.1671 58.7293 72.1817 58.7354 72.197 58.7354L72.5426 58.7354C72.5579 58.7354 72.5725 58.7293 72.5833 58.7185C72.5941 58.7077 72.6002 58.693 72.6002 58.6778L72.6002 58.4474C72.6002 58.4321 72.5941 58.4174 72.5833 58.4066C72.5725 58.3958 72.5579 58.3898 72.5426 58.3898L72.197 58.3898C72.1817 58.3898 72.1671 58.3958 72.1563 58.4066C72.1455 58.4174 72.1394 58.4321 72.1394 58.4474ZM72.485 58.505L72.485 58.6202L72.2546 58.6202L72.2546 58.505L72.485 58.505Z" fill="#383630"/>
<path d="M73.1164 60.9756L73.1164 60.63C73.1164 60.6147 73.1104 60.6001 73.0996 60.5893C73.0887 60.5785 73.0741 60.5724 73.0588 60.5724C73.0435 60.5724 73.0289 60.5785 73.0181 60.5893C73.0073 60.6001 73.0012 60.6147 73.0012 60.63L73.0012 60.9756C73.0012 60.9909 73.0073 61.0055 73.0181 61.0163C73.0289 61.0271 73.0435 61.0332 73.0588 61.0332C73.0741 61.0332 73.0887 61.0271 73.0996 61.0163C73.1104 61.0055 73.1164 60.9909 73.1164 60.9756Z" fill="#383630"/>
<path d="M73.3461 61.089L73.3461 60.5147C73.3461 60.4994 73.34 60.4848 73.3293 60.474C73.3185 60.4633 73.3039 60.4572 73.2886 60.4572C73.2734 60.4572 73.2588 60.4633 73.248 60.474C73.2373 60.4848 73.2312 60.4994 73.2312 60.5147L73.2312 61.089C73.2312 61.1043 73.2373 61.1189 73.248 61.1297C73.2588 61.1404 73.2734 61.1465 73.2886 61.1465C73.3039 61.1465 73.3185 61.1404 73.3293 61.1297C73.34 61.1189 73.3461 61.1043 73.3461 61.089Z" fill="#383630"/>
<path d="M73.8052 60.5128L73.8052 60.7432C73.8052 60.7585 73.8112 60.7731 73.822 60.7839C73.8328 60.7947 73.8475 60.8008 73.8628 60.8008L74.2084 60.8008C74.2237 60.8008 74.2383 60.7947 74.2491 60.7839C74.2599 60.7731 74.266 60.7585 74.266 60.7432L74.266 60.5128C74.266 60.4975 74.2599 60.4829 74.2491 60.4721C74.2383 60.4612 74.2237 60.4552 74.2084 60.4552L73.8628 60.4552C73.8475 60.4552 73.8328 60.4612 73.822 60.4721C73.8112 60.4829 73.8052 60.4975 73.8052 60.5128ZM74.1508 60.5704L74.1508 60.6856L73.9204 60.6856L73.9204 60.5704L74.1508 60.5704Z" fill="#383630"/>
<path d="M73.1164 59.9395L73.1164 59.5939C73.1164 59.5786 73.1104 59.5639 73.0996 59.5531C73.0887 59.5423 73.0741 59.5363 73.0588 59.5363C73.0435 59.5363 73.0289 59.5423 73.0181 59.5531C73.0073 59.5639 73.0012 59.5786 73.0012 59.5939L73.0012 59.9395C73.0012 59.9547 73.0073 59.9694 73.0181 59.9802C73.0289 59.991 73.0435 59.9971 73.0588 59.9971C73.0741 59.9971 73.0887 59.991 73.0996 59.9802C73.1104 59.9694 73.1164 59.9547 73.1164 59.9395Z" fill="#383630"/>
<path d="M73.2886 59.424C73.2734 59.424 73.2588 59.4301 73.248 59.4408C73.2373 59.4516 73.2312 59.4662 73.2312 59.4815L73.2312 60.0558C73.2312 60.0711 73.2373 60.0857 73.248 60.0965C73.2588 60.1072 73.2734 60.1133 73.2886 60.1133C73.3039 60.1133 73.3185 60.1072 73.3293 60.0965C73.34 60.0857 73.3461 60.0711 73.3461 60.0558L73.3461 59.4815C73.3461 59.4662 73.34 59.4516 73.3293 59.4408C73.3185 59.4301 73.3039 59.424 73.2886 59.424Z" fill="#383630"/>
<path d="M73.8052 59.4806L73.8052 59.711C73.8052 59.7262 73.8112 59.7409 73.822 59.7517C73.8328 59.7625 73.8475 59.7686 73.8628 59.7686L74.2084 59.7686C74.2237 59.7686 74.2383 59.7625 74.2491 59.7517C74.2599 59.7409 74.266 59.7262 74.266 59.711L74.266 59.4806C74.266 59.4653 74.2599 59.4506 74.2491 59.4398C74.2383 59.429 74.2237 59.423 74.2084 59.423L73.8628 59.423C73.8475 59.423 73.8328 59.429 73.822 59.4398C73.8112 59.4506 73.8052 59.4653 73.8052 59.4806ZM74.1508 59.5382L74.1508 59.6534L73.9204 59.6534L73.9204 59.5382L74.1508 59.5382Z" fill="#383630"/>
<path d="M71.1058 58.1614C71.0905 58.1614 71.0759 58.1674 71.0652 58.1782C71.0544 58.189 71.0483 58.2036 71.0483 58.2188L71.0483 61.3205C71.0483 61.3357 71.0544 61.3503 71.0652 61.3611C71.0759 61.3719 71.0905 61.3779 71.1058 61.3779L74.4372 61.3779C74.4525 61.3779 74.4671 61.3719 74.4778 61.3611C74.4886 61.3503 74.4947 61.3357 74.4947 61.3205L74.4947 58.2188C74.4947 58.2036 74.4886 58.189 74.4778 58.1782C74.4671 58.1674 74.4525 58.1614 74.4372 58.1614L71.1058 58.1614ZM71.1632 58.2762L72.7141 58.2762L72.7141 59.1953L71.1632 59.1953L71.1632 58.2762ZM72.8289 60.2292L72.8289 59.3101L74.3798 59.3101L74.3798 60.2292L72.8289 60.2292ZM71.1632 59.3101L72.7141 59.3101L72.7141 60.2292L71.1632 60.2292L71.1632 59.3101ZM71.1632 60.344L72.7141 60.344L72.7141 61.2631L71.1632 61.2631L71.1632 60.344ZM74.3798 60.344L74.3798 61.2631L72.8289 61.2631L72.8289 60.344L74.3798 60.344ZM74.3798 58.2762L74.3798 59.1953L72.8289 59.1953L72.8289 58.2762L74.3798 58.2762Z" fill="#383630"/>
<path d="M73.1164 58.9082L73.1164 58.5626C73.1164 58.5473 73.1104 58.5327 73.0996 58.5219C73.0887 58.5111 73.0741 58.505 73.0588 58.505C73.0435 58.505 73.0289 58.5111 73.0181 58.5219C73.0073 58.5327 73.0012 58.5473 73.0012 58.5626L73.0012 58.9082C73.0012 58.9235 73.0073 58.9381 73.0181 58.9489C73.0289 58.9598 73.0435 58.9658 73.0588 58.9658C73.0741 58.9658 73.0887 58.9598 73.0996 58.9489C73.1104 58.9381 73.1164 58.9235 73.1164 58.9082Z" fill="#383630"/>
<path d="M73.3461 59.0217L73.3461 58.4473C73.3461 58.432 73.34 58.4174 73.3293 58.4067C73.3185 58.3959 73.3039 58.3898 73.2886 58.3898C73.2734 58.3898 73.2588 58.3959 73.248 58.4067C73.2373 58.4174 73.2312 58.432 73.2312 58.4473L73.2312 59.0217C73.2312 59.0369 73.2373 59.0515 73.248 59.0623C73.2588 59.0731 73.2734 59.0791 73.2886 59.0791C73.3039 59.0791 73.3185 59.0731 73.3293 59.0623C73.34 59.0515 73.3461 59.0369 73.3461 59.0217Z" fill="#383630"/>
<path d="M73.8052 58.4474L73.8052 58.6778C73.8052 58.693 73.8112 58.7077 73.822 58.7185C73.8328 58.7293 73.8475 58.7354 73.8628 58.7354L74.2084 58.7354C74.2237 58.7354 74.2383 58.7293 74.2491 58.7185C74.2599 58.7077 74.266 58.693 74.266 58.6778L74.266 58.4474C74.266 58.4321 74.2599 58.4174 74.2491 58.4066C74.2383 58.3958 74.2237 58.3898 74.2084 58.3898L73.8628 58.3898C73.8475 58.3898 73.8328 58.3958 73.822 58.4066C73.8112 58.4174 73.8052 58.4321 73.8052 58.4474ZM74.1508 58.505L74.1508 58.6202L73.9204 58.6202L73.9204 58.505L74.1508 58.505Z" fill="#383630"/>
</g>
<g clip-path="url(#clip3_335_4227)">
<path d="M72.6155 97.8388H72.9611C72.9763 97.8388 72.991 97.8328 73.0018 97.822C73.0126 97.8112 73.0187 97.7965 73.0187 97.7812C73.0187 97.766 73.0126 97.7513 73.0018 97.7405C72.991 97.7297 72.9763 97.7236 72.9611 97.7236H72.6155C72.6002 97.7236 72.5855 97.7297 72.5747 97.7405C72.5639 97.7513 72.5579 97.766 72.5579 97.7812C72.5579 97.7965 72.5639 97.8112 72.5747 97.822C72.5855 97.8328 72.6002 97.8388 72.6155 97.8388Z" fill="#383630"/>
<path d="M72.5003 98.067H73.0747C73.0899 98.067 73.1045 98.061 73.1153 98.0502C73.1261 98.0394 73.1321 98.0248 73.1321 98.0096C73.1321 97.9944 73.1261 97.9797 73.1153 97.969C73.1045 97.9582 73.0899 97.9521 73.0747 97.9521H72.5003C72.4851 97.9521 72.4705 97.9582 72.4597 97.969C72.4489 97.9797 72.4429 97.9944 72.4429 98.0096C72.4429 98.0248 72.4489 98.0394 72.4597 98.0502C72.4705 98.061 72.4851 98.067 72.5003 98.067Z" fill="#383630"/>
<path d="M73.0754 98.5273H72.845C72.8297 98.5273 72.815 98.5334 72.8042 98.5442C72.7934 98.555 72.7874 98.5697 72.7874 98.5849V98.9305C72.7874 98.9458 72.7934 98.9605 72.8042 98.9713C72.815 98.9821 72.8297 98.9881 72.845 98.9881H73.0754C73.0906 98.9881 73.1053 98.9821 73.1161 98.9713C73.1269 98.9605 73.133 98.9458 73.133 98.9305V98.5849C73.133 98.5697 73.1269 98.555 73.1161 98.5442C73.1053 98.5334 73.0906 98.5273 73.0754 98.5273ZM73.0178 98.8729H72.9026V98.6425H73.0178V98.8729Z" fill="#383630"/>
<path d="M73.6496 97.8388H73.9952C74.0105 97.8388 74.0252 97.8328 74.036 97.822C74.0468 97.8112 74.0528 97.7965 74.0528 97.7812C74.0528 97.766 74.0468 97.7513 74.036 97.7405C74.0252 97.7297 74.0105 97.7236 73.9952 97.7236H73.6496C73.6344 97.7236 73.6197 97.7297 73.6089 97.7405C73.5981 97.7513 73.592 97.766 73.592 97.7812C73.592 97.7965 73.5981 97.8112 73.6089 97.822C73.6197 97.8328 73.6344 97.8388 73.6496 97.8388Z" fill="#383630"/>
<path d="M73.5347 98.067H74.1091C74.1244 98.067 74.139 98.061 74.1497 98.0502C74.1605 98.0394 74.1666 98.0248 74.1666 98.0096C74.1666 97.9944 74.1605 97.9797 74.1497 97.969C74.139 97.9582 74.1244 97.9521 74.1091 97.9521H73.5347C73.5195 97.9521 73.5049 97.9582 73.4941 97.969C73.4833 97.9797 73.4773 97.9944 73.4773 98.0096C73.4773 98.0248 73.4833 98.0394 73.4941 98.0502C73.5049 98.061 73.5195 98.067 73.5347 98.067Z" fill="#383630"/>
<path d="M74.1093 98.5273H73.8789C73.8636 98.5273 73.849 98.5334 73.8382 98.5442C73.8274 98.555 73.8213 98.5697 73.8213 98.5849V98.9305C73.8213 98.9458 73.8274 98.9605 73.8382 98.9713C73.849 98.9821 73.8636 98.9881 73.8789 98.9881H74.1093C74.1246 98.9881 74.1392 98.9821 74.15 98.9713C74.1608 98.9605 74.1669 98.9458 74.1669 98.9305V98.5849C74.1669 98.5697 74.1608 98.555 74.15 98.5442C74.1392 98.5334 74.1246 98.5273 74.1093 98.5273ZM74.0517 98.8729H73.9365V98.6425H74.0517V98.8729Z" fill="#383630"/>
<path d="M74.6836 97.8388H75.0292C75.0445 97.8388 75.0591 97.8328 75.0699 97.822C75.0807 97.8112 75.0868 97.7965 75.0868 97.7812C75.0868 97.766 75.0807 97.7513 75.0699 97.7405C75.0591 97.7297 75.0445 97.7236 75.0292 97.7236H74.6836C74.6683 97.7236 74.6536 97.7297 74.6428 97.7405C74.632 97.7513 74.626 97.766 74.626 97.7812C74.626 97.7965 74.632 97.8112 74.6428 97.822C74.6536 97.8328 74.6683 97.8388 74.6836 97.8388Z" fill="#383630"/>
<path d="M74.5682 98.067H75.1426C75.1578 98.067 75.1724 98.061 75.1832 98.0502C75.194 98.0394 75.2 98.0248 75.2 98.0096C75.2 97.9944 75.194 97.9797 75.1832 97.969C75.1724 97.9582 75.1578 97.9521 75.1426 97.9521H74.5682C74.5529 97.9521 74.5383 97.9582 74.5276 97.969C74.5168 97.9797 74.5107 97.9944 74.5107 98.0096C74.5107 98.0248 74.5168 98.0394 74.5276 98.0502C74.5383 98.061 74.5529 98.067 74.5682 98.067Z" fill="#383630"/>
<path d="M75.1435 98.5273H74.9131C74.8978 98.5273 74.8831 98.5334 74.8723 98.5442C74.8615 98.555 74.8555 98.5697 74.8555 98.5849V98.9305C74.8555 98.9458 74.8615 98.9605 74.8723 98.9713C74.8831 98.9821 74.8978 98.9881 74.9131 98.9881H75.1435C75.1587 98.9881 75.1734 98.9821 75.1842 98.9713C75.195 98.9605 75.2011 98.9458 75.2011 98.9305V98.5849C75.2011 98.5697 75.195 98.555 75.1842 98.5442C75.1734 98.5334 75.1587 98.5273 75.1435 98.5273ZM75.0859 98.8729H74.9707V98.6425H75.0859V98.8729Z" fill="#383630"/>
<path d="M72.6155 99.5039H72.9611C72.9763 99.5039 72.991 99.4978 73.0018 99.487C73.0126 99.4762 73.0187 99.4615 73.0187 99.4463C73.0187 99.431 73.0126 99.4163 73.0018 99.4055C72.991 99.3947 72.9763 99.3887 72.9611 99.3887H72.6155C72.6002 99.3887 72.5855 99.3947 72.5747 99.4055C72.5639 99.4163 72.5579 99.431 72.5579 99.4463C72.5579 99.4615 72.5639 99.4762 72.5747 99.487C72.5855 99.4978 72.6002 99.5039 72.6155 99.5039Z" fill="#383630"/>
<path d="M72.5003 99.735H73.0747C73.0899 99.735 73.1045 99.7289 73.1153 99.7182C73.1261 99.7074 73.1321 99.6928 73.1321 99.6776C73.1321 99.6623 73.1261 99.6477 73.1153 99.6369C73.1045 99.6262 73.0899 99.6201 73.0747 99.6201H72.5003C72.4851 99.6201 72.4705 99.6262 72.4597 99.6369C72.4489 99.6477 72.4429 99.6623 72.4429 99.6776C72.4429 99.6928 72.4489 99.7074 72.4597 99.7182C72.4705 99.7289 72.4851 99.735 72.5003 99.735Z" fill="#383630"/>
<path d="M73.0754 100.192H72.845C72.8297 100.192 72.815 100.198 72.8042 100.209C72.7934 100.22 72.7874 100.235 72.7874 100.25V100.596C72.7874 100.611 72.7934 100.626 72.8042 100.636C72.815 100.647 72.8297 100.653 72.845 100.653H73.0754C73.0906 100.653 73.1053 100.647 73.1161 100.636C73.1269 100.626 73.133 100.611 73.133 100.596V100.25C73.133 100.235 73.1269 100.22 73.1161 100.209C73.1053 100.198 73.0906 100.192 73.0754 100.192ZM73.0178 100.538H72.9026V100.308H73.0178V100.538Z" fill="#383630"/>
<path d="M73.6496 99.5039H73.9952C74.0105 99.5039 74.0252 99.4978 74.036 99.487C74.0468 99.4762 74.0528 99.4615 74.0528 99.4463C74.0528 99.431 74.0468 99.4163 74.036 99.4055C74.0252 99.3947 74.0105 99.3887 73.9952 99.3887H73.6496C73.6344 99.3887 73.6197 99.3947 73.6089 99.4055C73.5981 99.4163 73.592 99.431 73.592 99.4463C73.592 99.4615 73.5981 99.4762 73.6089 99.487C73.6197 99.4978 73.6344 99.5039 73.6496 99.5039Z" fill="#383630"/>
<path d="M74.1666 99.6776C74.1666 99.6623 74.1605 99.6477 74.1497 99.6369C74.139 99.6262 74.1244 99.6201 74.1091 99.6201H73.5347C73.5195 99.6201 73.5049 99.6262 73.4941 99.6369C73.4833 99.6477 73.4773 99.6623 73.4773 99.6776C73.4773 99.6928 73.4833 99.7074 73.4941 99.7182C73.5049 99.7289 73.5195 99.735 73.5347 99.735H74.1091C74.1244 99.735 74.139 99.7289 74.1497 99.7182C74.1605 99.7074 74.1666 99.6928 74.1666 99.6776Z" fill="#383630"/>
<path d="M74.1093 100.192H73.8789C73.8636 100.192 73.849 100.198 73.8382 100.209C73.8274 100.22 73.8213 100.235 73.8213 100.25V100.596C73.8213 100.611 73.8274 100.626 73.8382 100.636C73.849 100.647 73.8636 100.653 73.8789 100.653H74.1093C74.1246 100.653 74.1392 100.647 74.15 100.636C74.1608 100.626 74.1669 100.611 74.1669 100.596V100.25C74.1669 100.235 74.1608 100.22 74.15 100.209C74.1392 100.198 74.1246 100.192 74.1093 100.192ZM74.0517 100.538H73.9365V100.308H74.0517V100.538Z" fill="#383630"/>
<path d="M75.4302 97.493C75.4302 97.4778 75.4241 97.4631 75.4134 97.4524C75.4026 97.4416 75.388 97.4355 75.3727 97.4355H72.2711C72.2558 97.4355 72.2412 97.4416 72.2304 97.4524C72.2197 97.4631 72.2136 97.4778 72.2136 97.493V100.824C72.2136 100.84 72.2197 100.854 72.2304 100.865C72.2412 100.876 72.2558 100.882 72.2711 100.882H75.3727C75.388 100.882 75.4026 100.876 75.4134 100.865C75.4241 100.854 75.4302 100.84 75.4302 100.824V97.493ZM75.3153 97.5504V99.1013H74.3963V97.5504H75.3153ZM73.3624 99.2161H74.2814V100.767H73.3624V99.2161ZM74.2814 97.5504V99.1013H73.3624V97.5504H74.2814ZM73.2475 97.5504V99.1013H72.3285V97.5504H73.2475ZM73.2475 100.767H72.3285V99.2161H73.2475V100.767ZM75.3153 100.767H74.3963V99.2161H75.3153V100.767Z" fill="#383630"/>
<path d="M74.6836 99.5039H75.0292C75.0445 99.5039 75.0591 99.4978 75.0699 99.487C75.0807 99.4762 75.0868 99.4615 75.0868 99.4463C75.0868 99.431 75.0807 99.4163 75.0699 99.4055C75.0591 99.3947 75.0445 99.3887 75.0292 99.3887H74.6836C74.6683 99.3887 74.6536 99.3947 74.6428 99.4055C74.632 99.4163 74.626 99.431 74.626 99.4463C74.626 99.4615 74.632 99.4762 74.6428 99.487C74.6536 99.4978 74.6683 99.5039 74.6836 99.5039Z" fill="#383630"/>
<path d="M74.5682 99.735H75.1426C75.1578 99.735 75.1724 99.7289 75.1832 99.7182C75.194 99.7074 75.2 99.6928 75.2 99.6776C75.2 99.6623 75.194 99.6477 75.1832 99.6369C75.1724 99.6262 75.1578 99.6201 75.1426 99.6201H74.5682C74.5529 99.6201 74.5383 99.6262 74.5276 99.6369C74.5168 99.6477 74.5107 99.6623 74.5107 99.6776C74.5107 99.6928 74.5168 99.7074 74.5276 99.7182C74.5383 99.7289 74.5529 99.735 74.5682 99.735Z" fill="#383630"/>
<path d="M75.1435 100.192H74.9131C74.8978 100.192 74.8831 100.198 74.8723 100.209C74.8615 100.22 74.8555 100.235 74.8555 100.25V100.596C74.8555 100.611 74.8615 100.626 74.8723 100.636C74.8831 100.647 74.8978 100.653 74.9131 100.653H75.1435C75.1587 100.653 75.1734 100.647 75.1842 100.636C75.195 100.626 75.2011 100.611 75.2011 100.596V100.25C75.2011 100.235 75.195 100.22 75.1842 100.209C75.1734 100.198 75.1587 100.192 75.1435 100.192ZM75.0859 100.538H74.9707V100.308H75.0859V100.538Z" fill="#383630"/>
</g>
<g clip-path="url(#clip4_335_4227)">
<path d="M79.1413 60.6787C78.578 60.6787 78.5703 60.6787 78.1017 60.6787C77.8508 60.6787 77.6456 60.8829 77.6444 61.1338L77.6372 62.5537C77.6367 62.6604 77.7228 62.7474 77.8295 62.7479C77.8298 62.7479 77.8302 62.7479 77.8305 62.7479C77.9368 62.7479 78.0232 62.662 78.0238 62.5556L78.0309 61.1357C78.0309 61.1356 78.0309 61.1354 78.0309 61.1353C78.0311 61.1142 78.0484 61.0972 78.0694 61.0974C78.0905 61.0975 78.1075 61.1146 78.1075 61.1357L78.1076 64.3847C78.1076 64.5127 78.2115 64.6166 78.3396 64.6166C78.4676 64.6166 78.5715 64.5127 78.5715 64.3847V62.5309H78.6716V64.3847C78.6716 64.5127 78.7755 64.6166 78.9035 64.6166C79.0316 64.6166 79.1355 64.5127 79.1355 64.3847C79.1355 61.3189 79.1314 63.0721 79.1313 61.1385C79.1313 61.1168 79.1484 61.0989 79.1702 61.0981C79.1919 61.0972 79.2105 61.1137 79.2121 61.1353V61.1354L79.2108 62.5545C79.2107 62.6612 79.2972 62.7478 79.4039 62.7479C79.404 62.7479 79.404 62.7479 79.4041 62.7479C79.5107 62.7479 79.5973 62.6615 79.5974 62.5548L79.5987 61.1349C79.5987 61.1345 79.5987 61.1342 79.5987 61.1338C79.5974 60.8829 79.3923 60.6787 79.1413 60.6787Z" fill="#383630"/>
<path d="M78.6212 60.552C78.8424 60.552 79.0217 60.3727 79.0217 60.1515C79.0217 59.9303 78.8424 59.751 78.6212 59.751C78.4 59.751 78.2207 59.9303 78.2207 60.1515C78.2207 60.3727 78.4 60.552 78.6212 60.552Z" fill="#383630"/>
<path d="M82.5649 62.2542C82.5613 62.2441 82.2099 61.2417 82.1546 61.0808C82.0656 60.8218 81.9163 60.6904 81.711 60.6904C81.4236 60.6904 81.3296 60.6904 81.0427 60.6904C80.8374 60.6904 80.6881 60.8218 80.5991 61.0808C80.5438 61.2417 80.1924 62.2441 80.1888 62.2542C80.1538 62.3542 80.2064 62.4637 80.3064 62.4988C80.4065 62.5338 80.5159 62.4811 80.5509 62.3812C80.5623 62.3488 80.7737 61.7613 80.8917 61.4233C80.8794 61.5242 80.9149 61.3148 80.6175 62.8506C80.6047 62.9166 80.6555 62.9776 80.7221 62.9776C80.7634 62.9776 80.813 62.9776 80.8685 62.9776V64.3692C80.8685 64.4964 80.9716 64.5994 81.0987 64.5994C81.2259 64.5994 81.3289 64.4964 81.3289 64.3692V62.9776C81.362 62.9776 81.3953 62.9776 81.4284 62.9776V64.3692C81.4284 64.4964 81.5314 64.5994 81.6586 64.5994C81.7857 64.5994 81.8888 64.4964 81.8888 64.3692V62.9776C81.9443 62.9776 81.9939 62.9776 82.0352 62.9776C82.1021 62.9776 82.1526 62.9165 82.1398 62.8506C81.8451 61.3288 81.8776 61.5055 81.8675 61.4233C81.9864 61.7639 82.1916 62.3493 82.2028 62.3812C82.2379 62.4812 82.3475 62.5338 82.4473 62.4987C82.5473 62.4637 82.6 62.3542 82.5649 62.2542Z" fill="#383630"/>
<path d="M81.3786 60.5638C81.5982 60.5638 81.7762 60.3858 81.7762 60.1662C81.7762 59.9466 81.5982 59.7686 81.3786 59.7686C81.159 59.7686 80.981 59.9466 80.981 60.1662C80.981 60.3858 81.159 60.5638 81.3786 60.5638Z" fill="#383630"/>
<path d="M79.888 60.0068C79.8063 60.0068 79.74 60.0731 79.74 60.1548V64.2092C79.74 64.2909 79.8062 64.3572 79.888 64.3572C79.9697 64.3572 80.036 64.291 80.036 64.2092V60.1548C80.036 60.0731 79.9697 60.0068 79.888 60.0068Z" fill="#383630"/>
</g>
<mask id="path-47-inside-1_335_4227" fill="white">
<path d="M-14.1416 13.2959H10.0154V35.8775H-14.1416V13.2959Z"/>
</mask>
<path d="M-14.1416 13.2959V13.0333H-14.4042V13.2959H-14.1416ZM10.0154 13.2959H10.278V13.0333H10.0154V13.2959ZM-14.1416 13.5585H10.0154V13.0333H-14.1416V13.5585ZM9.75287 13.2959V35.8775H10.278V13.2959H9.75287ZM-13.879 35.8775V13.2959H-14.4042V35.8775H-13.879Z" fill="#383630" mask="url(#path-47-inside-1_335_4227)"/>
<mask id="path-49-inside-2_335_4227" fill="white">
<path d="M-14.1416 78.415H10.0154V103.622H-14.1416V78.415Z"/>
</mask>
<path d="M-14.1416 103.622H-14.4042V103.885H-14.1416V103.622ZM10.0154 103.36H-14.1416V103.885H10.0154V103.36ZM-13.879 103.622V78.415H-14.4042V103.622H-13.879Z" fill="#383630" mask="url(#path-49-inside-2_335_4227)"/>
<mask id="path-51-inside-3_335_4227" fill="white">
<path d="M10.0156 78.415H36.2733V103.622H10.0156V78.415Z"/>
</mask>
<path d="M10.0156 78.6776H36.2733V78.1525H10.0156V78.6776ZM36.2733 103.36H10.0156V103.885H36.2733V103.36Z" fill="#383630" mask="url(#path-51-inside-3_335_4227)"/>
<mask id="path-53-inside-4_335_4227" fill="white">
<path d="M85.1125 77.3652H111.37V103.623H85.1125V77.3652Z"/>
</mask>
<path d="M85.1125 77.6278H111.37V77.1027H85.1125V77.6278ZM111.37 103.36H85.1125V103.885H111.37V103.36Z" fill="#383630" mask="url(#path-53-inside-4_335_4227)"/>
<mask id="path-55-inside-5_335_4227" fill="white">
<path d="M111.37 13.8203H135.527V103.622H111.37V13.8203Z"/>
</mask>
<path d="M135.527 13.8203H135.789V13.5577H135.527V13.8203ZM135.527 103.622V103.884H135.789V103.622H135.527ZM111.37 14.0829H135.527V13.5577H111.37V14.0829ZM135.264 13.8203V103.622H135.789V13.8203H135.264ZM135.527 103.359H111.37V103.884H135.527V103.359Z" fill="#383630" mask="url(#path-55-inside-5_335_4227)"/>
<rect x="75.3173" y="57.9174" width="9.8915" height="15.8643" stroke="#383630" stroke-width="0.262577"/>
<mask id="path-58-inside-6_335_4227" fill="white">
<path d="M50.344 35.5039H70.8033V73.7473H50.344V35.5039Z"/>
</mask>
<path d="M50.344 35.5039V35.2413H50.0814V35.5039H50.344ZM70.8033 35.5039H71.0659V35.2413H70.8033V35.5039ZM50.344 35.7665H70.8033V35.2413H50.344V35.7665ZM70.5407 35.5039V73.7473H71.0659V35.5039H70.5407ZM50.6066 73.7473V35.5039H50.0814V73.7473H50.6066Z" fill="#383630" mask="url(#path-58-inside-6_335_4227)"/>
<mask id="path-60-inside-7_335_4227" fill="white">
<path d="M-14.1416 34.8281H10.0154V78.4158H-14.1416V34.8281Z"/>
</mask>
<path d="M9.75287 34.8281V78.4158H10.278V34.8281H9.75287ZM-13.879 78.4158V34.8281H-14.4042V78.4158H-13.879Z" fill="#383630" mask="url(#path-60-inside-7_335_4227)"/>
<line x1="70.7693" y1="57.9136" x2="75.6472" y2="57.9136" stroke="#383630" stroke-width="0.262577"/>
<path d="M36.1436 78.415L36.1436 73.6887" stroke="#383630" stroke-width="0.262577"/>
<line x1="36.011" y1="73.6158" x2="50.5839" y2="73.6158" stroke="#383630" stroke-width="0.262577"/>
<rect x="35.8793" y="94.3002" width="14.4417" height="9.19018" stroke="#383630" stroke-width="0.262577"/>
<line x1="70.54" y1="94.6953" x2="70.54" y2="103.492" stroke="#383630" stroke-width="0.262577"/>
<line x1="85.2438" y1="94.6953" x2="85.2438" y2="103.387" stroke="#383630" stroke-width="0.262577"/>
<line x1="70.4087" y1="94.564" x2="75.9588" y2="94.564" stroke="#383630" stroke-width="0.262577"/>
<line x1="80.386" y1="94.564" x2="85.3599" y2="94.564" stroke="#383630" stroke-width="0.262577"/>
<line x1="50.4524" y1="103.49" x2="85.1125" y2="103.49" stroke="#383630" stroke-width="0.262577"/>
<line x1="85.2177" y1="73.9141" x2="85.2177" y2="78.4256" stroke="#383630" stroke-width="0.262577"/>
<g clip-path="url(#clip5_335_4227)">
<path d="M49.5117 89.4351L48.6807 89.4358C48.556 89.4359 48.473 89.5191 48.4731 89.6437C48.4732 89.7684 48.5564 89.8514 48.681 89.8513L49.3043 89.8508L49.3048 90.4741C49.305 90.5988 49.3881 90.6818 49.5128 90.6817L50.1361 90.6812L50.1366 91.3045C50.1367 91.4291 50.2199 91.5122 50.3446 91.5121L50.9679 91.5116L50.9684 92.1349C50.9685 92.2595 51.0517 92.3426 51.1763 92.3425L52.0074 92.3418C52.1321 92.3417 52.2151 92.2585 52.215 92.1338C52.2149 92.0092 52.1317 91.9261 52.0071 91.9262L51.3838 91.9267L51.3832 91.3034C51.3831 91.1788 51.3 91.0957 51.1753 91.0958L50.552 91.0964L50.5515 90.4731C50.5514 90.3484 50.4682 90.2654 50.3435 90.2655L49.7202 90.266L49.7197 89.6427C49.7196 89.518 49.6364 89.435 49.5117 89.4351Z" fill="#383630"/>
</g>
<path d="M69.8144 89.4311L70.6455 89.4311C70.7702 89.4311 70.8533 89.5142 70.8533 89.6388C70.8533 89.7635 70.7702 89.8466 70.6455 89.8466L70.0222 89.8466L70.0222 90.4699C70.0222 90.5946 69.9391 90.6777 69.8144 90.6777L69.1911 90.6777L69.1911 91.301C69.1911 91.4257 69.108 91.5088 68.9833 91.5088L68.36 91.5088L68.36 92.1321C68.36 92.2567 68.2769 92.3398 68.1523 92.3398L67.3212 92.3398C67.1965 92.3398 67.1134 92.2567 67.1134 92.1321C67.1134 92.0074 67.1965 91.9243 67.3212 91.9243L67.9445 91.9243L67.9445 91.301C67.9445 91.1763 68.0276 91.0932 68.1523 91.0932L68.7756 91.0932L68.7756 90.4699C68.7756 90.3453 68.8587 90.2621 68.9833 90.2621L69.6067 90.2621L69.6067 89.6388C69.6067 89.5142 69.6898 89.4311 69.8144 89.4311Z" fill="#383630"/>
<g clip-path="url(#clip6_335_4227)">
<path d="M54.744 96.1426C53.4378 96.1426 52.3809 97.1996 52.3809 98.5058C52.3809 99.812 53.4379 100.869 54.744 100.869C56.0503 100.869 57.1072 99.8119 57.1072 98.5058C57.1072 97.1995 56.0502 96.1426 54.744 96.1426ZM54.744 100.5C53.6419 100.5 52.7501 99.6078 52.7501 98.5058C52.7501 97.4036 53.642 96.5118 54.744 96.5118C55.8462 96.5118 56.738 97.4037 56.738 98.5058C56.738 99.6079 55.8461 100.5 54.744 100.5Z" fill="#383630"/>
<path d="M54.744 98.123C54.642 98.123 54.5593 98.2057 54.5593 98.3077V99.4966C54.5593 99.5986 54.642 99.6812 54.744 99.6812C54.8459 99.6812 54.9286 99.5985 54.9286 99.4966V98.3077C54.9286 98.2057 54.8459 98.123 54.744 98.123Z" fill="#383630"/>
<path d="M54.7443 97.8983C54.8824 97.8983 54.9943 97.7864 54.9943 97.6484C54.9943 97.5103 54.8824 97.3984 54.7443 97.3984C54.6063 97.3984 54.4944 97.5103 54.4944 97.6484C54.4944 97.7864 54.6063 97.8983 54.7443 97.8983Z" fill="#383630"/>
</g>
<path d="M45.3632 83.2743C45.5546 83.2743 45.7097 83.1303 45.7097 82.9526C45.7097 82.775 45.5546 82.6309 45.3632 82.6309C45.1719 82.6309 45.0166 82.775 45.0166 82.9526C45.0166 83.1303 45.1719 83.2743 45.3632 83.2743Z" fill="#383630"/>
<path d="M45.3632 83.3174C44.9483 83.3174 44.8278 83.4793 44.7772 84.1048C44.7726 84.161 44.818 84.21 44.8786 84.2142C44.8814 84.2144 44.8841 84.2145 44.8869 84.2145C44.9439 84.2145 44.9921 84.1737 44.9964 84.1201C45.0151 83.8892 45.0396 83.7476 45.0758 83.6605C45.0721 83.6778 45.0701 83.6955 45.0701 83.7138V84.1065C45.0701 84.1276 45.0729 84.148 45.0778 84.1677V85.0301C45.0778 85.0959 45.1352 85.1492 45.206 85.1492C45.2769 85.1492 45.3343 85.0959 45.3343 85.0301V84.3774C45.3438 84.3782 45.3535 84.3787 45.3632 84.3787C45.373 84.3787 45.3826 84.3782 45.392 84.3774V85.0301C45.392 85.0959 45.4495 85.1492 45.5203 85.1492C45.5911 85.1492 45.6486 85.0959 45.6486 85.0301V84.1682C45.6535 84.1484 45.6564 84.1278 45.6564 84.1065V83.7138C45.6564 83.6956 45.6544 83.6778 45.6507 83.6606C45.6869 83.7477 45.7113 83.8893 45.73 84.1201C45.7345 84.1763 45.7874 84.2184 45.8478 84.2142C45.9084 84.21 45.9538 84.161 45.9492 84.1048C45.8986 83.4793 45.7781 83.3174 45.3632 83.3174Z" fill="#383630"/>
<path d="M46.6624 83.2743C46.8538 83.2743 47.009 83.1303 47.009 82.9526C47.009 82.775 46.8538 82.6309 46.6624 82.6309C46.4711 82.6309 46.3159 82.775 46.3159 82.9526C46.3159 83.1303 46.4711 83.2743 46.6624 83.2743Z" fill="#383630"/>
<path d="M46.6618 83.3174C46.2469 83.3174 46.1264 83.4793 46.0758 84.1048C46.0712 84.161 46.1166 84.21 46.1772 84.2142C46.1799 84.2144 46.1827 84.2145 46.1855 84.2145C46.2425 84.2145 46.2907 84.1737 46.295 84.1201C46.3127 83.9016 46.3355 83.7631 46.3686 83.675V83.9871L46.2595 84.4424C46.2574 84.4513 46.2597 84.4605 46.2658 84.4676C46.2719 84.4747 46.2812 84.4788 46.291 84.4788H46.3764V85.0301C46.3764 85.0959 46.4338 85.1492 46.5046 85.1492C46.5755 85.1492 46.6329 85.0959 46.6329 85.0301V84.4788H46.6907V85.0301C46.6907 85.0959 46.7481 85.1492 46.8189 85.1492C46.8898 85.1492 46.9472 85.0959 46.9472 85.0301V84.4788H47.0327C47.0328 84.4788 47.0329 84.4788 47.0331 84.4788C47.0509 84.4788 47.0653 84.4654 47.0653 84.4489C47.0653 84.4451 47.0645 84.4414 47.0631 84.438L46.9549 83.9868V83.6748C46.9881 83.7629 47.0109 83.9014 47.0286 84.1201C47.0331 84.1763 47.086 84.2185 47.1464 84.2143C47.207 84.21 47.2524 84.161 47.2479 84.1048C47.1973 83.4793 47.0768 83.3174 46.6618 83.3174Z" fill="#383630"/>
<path d="M47.4946 81.8926H44.5313C44.1977 81.8926 43.9263 82.1446 43.9263 82.4544V85.206C43.9263 85.5158 44.1977 85.7679 44.5313 85.7679H47.4946C47.8282 85.7679 48.0997 85.5158 48.0997 85.206V82.4544C48.0997 82.1446 47.8282 81.8926 47.4946 81.8926ZM47.7274 85.206C47.7274 85.3252 47.623 85.4222 47.4946 85.4222H44.5313C44.403 85.4222 44.2985 85.3253 44.2985 85.206V82.4544C44.2985 82.3352 44.403 82.2382 44.5313 82.2382H47.4946C47.623 82.2382 47.7274 82.3352 47.7274 82.4544V85.206H47.7274Z" fill="#383630"/>
<path d="M45.1223 80.8063C45.1405 80.7894 45.1586 80.7726 45.1768 80.7557V81.3874C45.1768 81.4159 45.1759 81.4439 45.1851 81.4716C45.21 81.5465 45.289 81.5973 45.3733 81.593C45.4573 81.5887 45.5296 81.5302 45.5456 81.4535C45.5506 81.4298 45.5491 81.4048 45.5491 81.3807V80.7557C45.5925 80.796 45.6324 80.8402 45.6954 80.853C45.7903 80.8721 45.8881 80.8179 45.9144 80.731C45.9333 80.6687 45.9121 80.6039 45.8634 80.5587L45.4946 80.2162C45.4373 80.1631 45.3466 80.1506 45.2752 80.186C45.2456 80.2007 45.2234 80.2236 45.2 80.2453L44.8732 80.5487C44.857 80.5638 44.8413 80.5787 44.8297 80.5973C44.8001 80.6445 44.7966 80.7036 44.8202 80.7536C44.872 80.8632 45.0313 80.8908 45.1223 80.8063Z" fill="#383630"/>
<path d="M46.5311 81.543C46.5884 81.5962 46.6791 81.6086 46.7506 81.5732C46.7801 81.5585 46.8024 81.5357 46.8257 81.514L47.1525 81.2105C47.1687 81.1955 47.1844 81.1806 47.1961 81.1619C47.2256 81.1147 47.2292 81.0557 47.2055 81.0057C47.1538 80.896 46.9945 80.8684 46.9034 80.9529C46.8853 80.9698 46.8671 80.9867 46.8489 81.0036V80.3719C46.8489 80.3434 46.8499 80.3154 46.8406 80.2877C46.8157 80.2127 46.7367 80.162 46.6524 80.1663C46.5684 80.1706 46.4961 80.2291 46.4801 80.3057C46.4751 80.3295 46.4767 80.3545 46.4767 80.3786V81.0036C46.4333 80.9633 46.3933 80.9191 46.3303 80.9063C46.2354 80.8871 46.1376 80.9414 46.1113 81.0283C46.0925 81.0906 46.1136 81.1553 46.1623 81.2006L46.5311 81.543Z" fill="#383630"/>
<mask id="path-84-inside-8_335_4227" fill="white">
<path d="M36.2729 76.8398H42.5748V87.4921H36.2729V76.8398Z"/>
</mask>
<path d="M36.2729 76.8398H42.5748V87.4921H36.2729V76.8398Z" fill="#FAF5F0"/>
<path d="M42.5748 76.8398H42.8374V76.5773H42.5748V76.8398ZM36.2729 77.1024H42.5748V76.5773H36.2729V77.1024ZM42.3122 76.8398V87.4921H42.8374V76.8398H42.3122Z" fill="#383630" mask="url(#path-84-inside-8_335_4227)"/>
<line x1="42.3125" y1="87.3541" x2="48.0997" y2="87.3541" stroke="#383630" stroke-width="0.262577"/>
<line x1="47.5212" y1="87.3599" x2="50.2419" y2="87.3599" stroke="#383630" stroke-width="0.262577"/>
<line x1="50.1431" y1="87.4917" x2="50.1106" y2="78.96" stroke="#383630" stroke-width="0.262577"/>
<line x1="45.0168" y1="79.0912" x2="42.3358" y2="79.0912" stroke="#383630" stroke-width="0.262577"/>
<line x1="50.2417" y1="79.0912" x2="47.0507" y2="79.0912" stroke="#383630" stroke-width="0.262577"/>
<g clip-path="url(#clip7_335_4227)">
<path d="M40.0964 83.667L40.9279 83.6677C41.0526 83.6678 41.1357 83.7511 41.1356 83.8758C41.1355 84.0005 41.0522 84.0836 40.9275 84.0835L40.3039 84.0829L40.3034 84.7066C40.3033 84.8313 40.2201 84.9144 40.0953 84.9143L39.4717 84.9137L39.4712 85.5374C39.4711 85.6621 39.3879 85.7452 39.2631 85.7451L38.6395 85.7445L38.639 86.3682C38.6389 86.4929 38.5557 86.576 38.431 86.5759L37.5995 86.5752C37.4747 86.5751 37.3917 86.4918 37.3918 86.3671C37.3919 86.2424 37.4751 86.1593 37.5998 86.1594L38.2234 86.1599L38.224 85.5363C38.2241 85.4116 38.3073 85.3285 38.432 85.3286L39.0556 85.3291L39.0561 84.7055C39.0562 84.5808 39.1395 84.4977 39.2642 84.4978L39.8878 84.4983L39.8883 83.8747C39.8884 83.75 39.9717 83.6669 40.0964 83.667Z" fill="#383630"/>
</g>
<line x1="54.1389" y1="75.4615" x2="67.0077" y2="75.4615" stroke="#383630" stroke-width="0.262577"/>
<line x1="54.2659" y1="75.5593" x2="55.5731" y2="80.5165" stroke="#383630" stroke-width="0.262577"/>
<line x1="55.4463" y1="80.4185" x2="65.972" y2="80.4185" stroke="#383630" stroke-width="0.262577"/>
<line x1="55.9639" y1="79.1548" x2="65.0397" y2="79.1548" stroke="#383630" stroke-width="0.262577"/>
<line x1="56.9707" y1="77.8375" x2="64.0854" y2="77.8375" stroke="#383630" stroke-width="0.262577"/>
<line x1="57.8267" y1="76.6275" x2="63.3065" y2="76.6275" stroke="#383630" stroke-width="0.262577"/>
<line x1="65.8432" y1="80.523" x2="66.879" y2="75.5658" stroke="#383630" stroke-width="0.262577"/>
<line x1="64.9125" y1="79.254" x2="65.8445" y2="75.563" stroke="#383630" stroke-width="0.262577"/>
<line x1="63.9582" y1="77.9346" x2="64.6389" y2="75.4083" stroke="#383630" stroke-width="0.262577"/>
<line x1="63.1799" y1="76.7246" x2="63.5339" y2="75.4102" stroke="#383630" stroke-width="0.262577"/>
<line x1="57.9539" y1="76.7169" x2="57.6295" y2="75.5532" stroke="#383630" stroke-width="0.262577"/>
<line x1="57.0987" y1="77.938" x2="56.4471" y2="75.483" stroke="#383630" stroke-width="0.262577"/>
<line x1="56.0923" y1="79.255" x2="55.3176" y2="75.6287" stroke="#383630" stroke-width="0.262577"/>
<line x1="111.501" y1="13.8203" x2="111.488" y2="77.7757" stroke="#383630" stroke-width="0.262577"/>
<g clip-path="url(#clip8_335_4227)">
<path d="M80.919 70.3736C80.8234 70.3314 80.7118 70.3759 80.6706 70.4717C80.4762 70.9194 80.0344 71.2086 79.545 71.2086C78.8674 71.2086 78.3161 70.6574 78.3161 69.9798C78.3161 69.5404 78.5528 69.1326 78.9336 68.915C79.0245 68.8634 79.0559 68.7479 79.0041 68.6572C78.9525 68.5664 78.8368 68.5343 78.7462 68.5868C78.2477 68.8713 77.938 69.405 77.938 69.9798C77.938 70.8659 78.6589 71.5868 79.545 71.5868C80.1853 71.5868 80.7632 71.2081 81.0173 70.6222C81.0589 70.5265 81.015 70.4152 80.919 70.3736Z" fill="#383630"/>
<path d="M82.2729 70.5694C82.2339 70.4722 82.1247 70.4249 82.0271 70.4639L81.7443 70.5771L81.3327 69.2598C81.3079 69.1807 81.2348 69.1271 81.152 69.1271H79.8017L79.7429 68.7489H80.4903C80.5948 68.7489 80.6793 68.6644 80.6793 68.5599C80.6793 68.4554 80.5948 68.3708 80.4903 68.3708H79.6843L79.5866 67.7411C79.7303 67.6598 79.8286 67.5076 79.8286 67.331C79.8286 67.0703 79.6166 66.8584 79.3559 66.8584C79.0954 66.8584 78.8833 67.0703 78.8833 67.331C78.8833 67.5403 79.0209 67.7161 79.2098 67.7781L79.4527 69.345C79.4671 69.4373 79.5463 69.5052 79.6395 69.5052H81.013L81.444 70.8849C81.4599 70.9352 81.4959 70.9766 81.5435 70.9993C81.569 71.0116 81.597 71.0176 81.6246 71.0176C81.6484 71.0176 81.6722 71.0133 81.6949 71.0042L82.1676 70.8151C82.2646 70.7764 82.3116 70.6663 82.2729 70.5694Z" fill="#383630"/>
</g>
<mask id="path-108-inside-9_335_4227" fill="white">
<path d="M85.1125 76.8398H78.8107V87.3429H85.1125V76.8398Z"/>
</mask>
<path d="M85.1125 76.8398H78.8107V87.3429H85.1125V76.8398Z" fill="#FAF5F0"/>
<path d="M78.8107 76.8398H78.5481V76.5773H78.8107V76.8398ZM85.1125 77.1024H78.8107V76.5773H85.1125V77.1024ZM79.0733 76.8398V87.3429H78.5481V76.8398H79.0733Z" fill="#383630" mask="url(#path-108-inside-9_335_4227)"/>
<line y1="-0.131288" x2="2.62577" y2="-0.131288" transform="matrix(1 0 0 -1 76.1851 78.9404)" stroke="#383630" stroke-width="0.262577"/>
<line y1="-0.131288" x2="3.15092" y2="-0.131288" transform="matrix(1 0 0 -1 70.9331 78.9404)" stroke="#383630" stroke-width="0.262577"/>
<line x1="70.8018" y1="87.3438" x2="70.8018" y2="78.9413" stroke="#383630" stroke-width="0.262577"/>
<path d="M75.7836 83.1854C75.5922 83.1854 75.437 83.0415 75.437 82.8638C75.437 82.6861 75.5922 82.542 75.7836 82.542C75.9749 82.542 76.1301 82.6861 76.1301 82.8638C76.1301 83.0415 75.9749 83.1854 75.7836 83.1854Z" fill="#383630"/>
<path d="M75.7837 83.2295C76.1987 83.2295 76.3192 83.3914 76.3698 84.0169C76.3744 84.0731 76.329 84.1221 76.2684 84.1264C76.2656 84.1265 76.2628 84.1266 76.2601 84.1266C76.2031 84.1266 76.1549 84.0858 76.1505 84.0322C76.1319 83.8013 76.1074 83.6597 76.0712 83.5726C76.0749 83.5899 76.0769 83.6077 76.0769 83.6259V84.0186C76.0769 84.0397 76.0741 84.0601 76.0692 84.0798V84.9422C76.0692 85.008 76.0118 85.0613 75.9409 85.0613C75.8701 85.0613 75.8127 85.008 75.8127 84.9422V84.2895C75.8031 84.2904 75.7935 84.2908 75.7837 84.2908C75.774 84.2908 75.7644 84.2904 75.7549 84.2895V84.9422C75.7549 85.008 75.6975 85.0613 75.6267 85.0613C75.5558 85.0613 75.4984 85.008 75.4984 84.9422V84.0803C75.4934 84.0605 75.4906 84.0399 75.4906 84.0186V83.6259C75.4906 83.6077 75.4926 83.5899 75.4963 83.5727C75.4601 83.6598 75.4357 83.8014 75.417 84.0322C75.4124 84.0884 75.3596 84.1305 75.2991 84.1264C75.2386 84.1221 75.1932 84.0731 75.1977 84.0169C75.2483 83.3914 75.3688 83.2295 75.7837 83.2295Z" fill="#383630"/>
<path d="M74.4845 83.1854C74.2932 83.1854 74.1379 83.0415 74.1379 82.8638C74.1379 82.6861 74.2932 82.542 74.4845 82.542C74.6759 82.542 74.8311 82.6861 74.8311 82.8638C74.8311 83.0415 74.6759 83.1854 74.4845 83.1854Z" fill="#383630"/>
<path d="M74.4845 83.2295C74.8994 83.2295 75.0199 83.3914 75.0705 84.0169C75.075 84.0731 75.0297 84.1221 74.9691 84.1264C74.9663 84.1265 74.9635 84.1266 74.9607 84.1266C74.9038 84.1266 74.8556 84.0858 74.8512 84.0322C74.8335 83.8137 74.8107 83.6752 74.7776 83.5871V83.8992L74.8867 84.3545C74.8889 84.3634 74.8865 84.3726 74.8804 84.3797C74.8743 84.3868 74.8651 84.3909 74.8553 84.3909H74.7699V84.9422C74.7699 85.008 74.7124 85.0613 74.6416 85.0613C74.5708 85.0613 74.5133 85.008 74.5133 84.9422V84.3909H74.4556V84.9422C74.4556 85.008 74.3981 85.0613 74.3273 85.0613C74.2565 85.0613 74.199 85.008 74.199 84.9422V84.3909H74.1135C74.1134 84.3909 74.1133 84.3909 74.1132 84.3909C74.0954 84.3909 74.0809 84.3775 74.0809 84.361C74.0809 84.3572 74.0817 84.3535 74.0831 84.3502L74.1913 83.8989V83.5869C74.1582 83.675 74.1354 83.8135 74.1177 84.0322C74.1131 84.0884 74.0603 84.1306 73.9998 84.1264C73.9392 84.1222 73.8938 84.0731 73.8984 84.0169C73.949 83.3914 74.0695 83.2295 74.4845 83.2295Z" fill="#383630"/>
<path d="M73.6529 81.8047H76.6161C76.9498 81.8047 77.2212 82.0567 77.2212 82.3665V85.1181C77.2212 85.428 76.9498 85.68 76.6161 85.68H73.6529C73.3192 85.68 73.0478 85.428 73.0478 85.1181V82.3665C73.0478 82.0567 73.3192 81.8047 73.6529 81.8047ZM73.42 85.1181C73.42 85.2374 73.5245 85.3343 73.6529 85.3343H76.6161C76.7445 85.3343 76.8489 85.2374 76.8489 85.1181V82.3665C76.8489 82.2474 76.7445 82.1504 76.6161 82.1504H73.6529C73.5245 82.1504 73.42 82.2473 73.42 82.3665V85.1181H73.42Z" fill="#383630"/>
<path d="M76.0242 80.7174C76.006 80.7006 75.9878 80.6837 75.9697 80.6668V81.2985C75.9697 81.327 75.9706 81.355 75.9614 81.3827C75.9364 81.4577 75.8575 81.5084 75.7732 81.5041C75.6892 81.4998 75.6169 81.4413 75.6008 81.3647C75.5959 81.3409 75.5974 81.3159 75.5974 81.2918V80.6668C75.554 80.7071 75.5141 80.7514 75.451 80.7641C75.3561 80.7833 75.2584 80.729 75.2321 80.6421C75.2132 80.5798 75.2344 80.5151 75.2831 80.4698L75.6519 80.1274C75.7091 80.0742 75.7999 80.0618 75.8713 80.0972C75.9008 80.1119 75.9231 80.1347 75.9465 80.1564L76.2732 80.4599C76.2895 80.4749 76.3052 80.4898 76.3168 80.5085C76.3464 80.5557 76.3499 80.6147 76.3263 80.6647C76.2745 80.7743 76.1152 80.802 76.0242 80.7174Z" fill="#383630"/>
<path d="M74.6163 81.4542C74.5591 81.5073 74.4683 81.5197 74.3969 81.4844C74.3674 81.4697 74.3451 81.4468 74.3217 81.4251L73.995 81.1217C73.9787 81.1066 73.963 81.0917 73.9514 81.0731C73.9218 81.0258 73.9183 80.9668 73.9419 80.9168C73.9937 80.8072 74.153 80.7795 74.244 80.8641C74.2622 80.8809 74.2804 80.8978 74.2985 80.9147V80.283C74.2985 80.2545 74.2976 80.2266 74.3068 80.1989C74.3318 80.1239 74.4107 80.0731 74.4951 80.0774C74.579 80.0817 74.6514 80.1402 74.6674 80.2169C74.6723 80.2406 74.6708 80.2656 74.6708 80.2897V80.9147C74.7142 80.8744 74.7541 80.8302 74.8172 80.8174C74.9121 80.7983 75.0098 80.8525 75.0361 80.9394C75.055 81.0017 75.0339 81.0665 74.9852 81.1117L74.6163 81.4542Z" fill="#383630"/>
<g clip-path="url(#clip9_335_4227)">
<path d="M81.524 83.1304L80.6929 83.1311C80.5682 83.1312 80.4852 83.2144 80.4853 83.339C80.4854 83.4637 80.5686 83.5467 80.6932 83.5466L81.3165 83.5461L81.3171 84.1694C81.3172 84.2941 81.4003 84.3771 81.525 84.377L82.1483 84.3765L82.1488 84.9998C82.1489 85.1245 82.2321 85.2075 82.3568 85.2074L82.9801 85.2069L82.9806 85.8302C82.9807 85.9548 83.0639 86.0379 83.1886 86.0378L84.0196 86.0371C84.1443 86.037 84.2273 85.9538 84.2272 85.8291C84.2271 85.7045 84.1439 85.6214 84.0193 85.6215L83.396 85.6221L83.3954 84.9987C83.3953 84.8741 83.3122 84.791 83.1875 84.7912L82.5642 84.7917L82.5637 84.1684C82.5636 84.0437 82.4804 83.9607 82.3557 83.9608L81.7324 83.9613L81.7319 83.338C81.7318 83.2133 81.6486 83.1303 81.524 83.1304Z" fill="#383630"/>
</g>
<path d="M1.08789 13.5586H-5.21395V18.4475H1.08789V13.5586Z" fill="#FAF5F0"/>
<line y1="-0.131288" x2="2.62577" y2="-0.131288" transform="matrix(-1 0 0 1 78.8108 87.3438)" stroke="#383630" stroke-width="0.262577"/>
<line x1="78.7305" y1="87.2143" x2="70.8532" y2="87.2143" stroke="#383630" stroke-width="0.262577"/>
<line x1="111.501" y1="77.3652" x2="111.501" y2="88.3934" stroke="#383630" stroke-width="0.262577"/>
<line x1="111.501" y1="92.0684" x2="111.501" y2="103.097" stroke="#383630" stroke-width="0.262577"/>
<line x1="9.88397" y1="78.415" x2="9.88397" y2="88.9181" stroke="#383630" stroke-width="0.262577"/>
<line x1="9.88397" y1="92.5928" x2="9.88397" y2="103.621" stroke="#383630" stroke-width="0.262577"/>
<line x1="10.0159" y1="78.5444" x2="-0.337152" y2="78.5444" stroke="#383630" stroke-width="0.262577"/>
<line x1="10.0159" y1="29.7094" x2="-0.337152" y2="29.7094" stroke="#383630" stroke-width="0.262577"/>
<path d="M61.0591 114.956V98.8896H57.2971" stroke="#346B8A"/>
<circle cx="61.0651" cy="105.487" r="4.4911" fill="#DA4F64"/>
</g>
<rect x="1.53339" y="0.99286" width="114.933" height="114.933" rx="57.4666" stroke="black" stroke-width="1.98572"/>
</g>
<defs>
<filter id="filter0_d_335_4227" x="0.540527" y="0" width="125.919" height="130.919" filterUnits="userSpaceOnUse" color-interpolation-filters="sRGB">
<feFlood flood-opacity="0" result="BackgroundImageFix"/>
<feColorMatrix in="SourceAlpha" type="matrix" values="0 0 0 0 0 0 0 0 0 0 0 0 0 0 0 0 0 0 127 0" result="hardAlpha"/>
<feOffset dx="5" dy="10"/>
<feGaussianBlur stdDeviation="2"/>
<feComposite in2="hardAlpha" operator="out"/>
<feColorMatrix type="matrix" values="0 0 0 0 0 0 0 0 0 0 0 0 0 0 0 0 0 0 0.25 0"/>
<feBlend mode="normal" in2="BackgroundImageFix" result="effect1_dropShadow_335_4227"/>
<feBlend mode="normal" in="SourceGraphic" in2="effect1_dropShadow_335_4227" result="shape"/>
</filter>
<clipPath id="clip0_335_4227">
<rect x="0.540527" width="116.919" height="116.919" rx="58.4595" fill="white"/>
</clipPath>
<clipPath id="clip1_335_4227">
<rect width="3.67607" height="3.67607" fill="white" transform="translate(79.8606 97.3203)"/>
</clipPath>
<clipPath id="clip2_335_4227">
<rect width="3.67607" height="3.67607" fill="white" transform="translate(70.9331 61.6074) rotate(-90)"/>
</clipPath>
<clipPath id="clip3_335_4227">
<rect width="3.67607" height="3.67607" fill="white" transform="translate(71.9834 97.3203)"/>
</clipPath>
<clipPath id="clip4_335_4227">
<rect width="5.25153" height="5.25153" fill="white" transform="translate(77.6375 59.5586)"/>
</clipPath>
<clipPath id="clip5_335_4227">
<rect width="4.98647" height="4.98647" fill="white" transform="matrix(1 -0.000840325 -0.000840325 -1 47.8525 93.3838)"/>
</clipPath>
<clipPath id="clip6_335_4227">
<rect width="4.72638" height="4.72638" fill="white" transform="translate(52.3811 96.1455)"/>
</clipPath>
<clipPath id="clip7_335_4227">
<rect width="4.98896" height="4.98896" fill="white" transform="translate(41.7559 87.6191) rotate(-179.952)"/>
</clipPath>
<clipPath id="clip8_335_4227">
<rect width="4.72638" height="4.72638" fill="white" transform="translate(77.749 66.8613)"/>
</clipPath>
<clipPath id="clip9_335_4227">
<rect width="4.98647" height="4.98647" fill="white" transform="matrix(1 -0.000840325 -0.000840325 -1 79.865 87.083)"/>
</clipPath>
</defs>
</svg>
