<svg width="126" height="131" viewBox="0 0 126 131" fill="none" xmlns="http://www.w3.org/2000/svg">
<g filter="url(#filter0_d_335_4398)">
<g clip-path="url(#clip0_335_4398)">
<rect width="116.919" height="116.919" rx="58.4595" fill="white"/>
<g clip-path="url(#clip1_335_4398)">
<path d="M82.8031 99.8028L81.2658 98.9119V98.8457C81.2658 98.7701 81.3089 98.6998 81.3784 98.6622C81.5348 98.5775 81.6278 98.4144 81.6211 98.2365C81.6119 97.996 81.4165 97.8005 81.1761 97.7914C81.0488 97.7865 80.9284 97.8324 80.8368 97.9205C80.7452 98.0087 80.6948 98.1273 80.6948 98.2544C80.6948 98.3139 80.743 98.3621 80.8025 98.3621C80.862 98.3621 80.9102 98.3139 80.9102 98.2544C80.9102 98.1864 80.9372 98.1229 80.9862 98.0757C81.0352 98.0286 81.0996 98.0039 81.1679 98.0066C81.2964 98.0115 81.401 98.116 81.4058 98.2446C81.4095 98.34 81.3596 98.4274 81.2759 98.4727C81.1368 98.548 81.0504 98.6909 81.0504 98.8457V98.9119L79.5131 99.8028C79.394 99.8718 79.3201 100 79.3201 100.138C79.3201 100.351 79.4937 100.525 79.7071 100.525H82.6091C82.8225 100.525 82.9961 100.351 82.9961 100.138C82.9961 100 82.9222 99.8718 82.8031 99.8028ZM82.6091 100.309H79.7071C79.6125 100.309 79.5355 100.232 79.5355 100.138C79.5355 100.077 79.5683 100.02 79.6211 99.9892L81.1581 99.0985L82.6951 99.9892C82.7479 100.02 82.7807 100.077 82.7807 100.138C82.7807 100.232 82.7037 100.309 82.6091 100.309Z" fill="#383630"/>
</g>
<g clip-path="url(#clip2_335_4398)">
<path d="M70.9096 60.9756L70.9096 60.63C70.9096 60.6147 70.9036 60.6001 70.8928 60.5893C70.882 60.5785 70.8673 60.5724 70.852 60.5724C70.8368 60.5724 70.8221 60.5785 70.8113 60.5893C70.8005 60.6001 70.7944 60.6147 70.7944 60.63L70.7944 60.9756C70.7944 60.9909 70.8005 61.0055 70.8113 61.0163C70.8221 61.0271 70.8368 61.0332 70.852 61.0332C70.8673 61.0332 70.882 61.0271 70.8928 61.0163C70.9036 61.0055 70.9096 60.9909 70.9096 60.9756Z" fill="#383630"/>
<path d="M71.139 61.089L71.139 60.5147C71.139 60.4994 71.133 60.4848 71.1222 60.474C71.1115 60.4633 71.0968 60.4572 71.0816 60.4572C71.0664 60.4572 71.0518 60.4633 71.041 60.474C71.0302 60.4848 71.0242 60.4994 71.0242 60.5147L71.0242 61.089C71.0242 61.1043 71.0302 61.1189 71.041 61.1297C71.0518 61.1404 71.0664 61.1465 71.0816 61.1465C71.0968 61.1465 71.1115 61.1404 71.1222 61.1297C71.133 61.1189 71.139 61.1043 71.139 61.089Z" fill="#383630"/>
<path d="M71.5989 60.5128L71.5989 60.7432C71.5989 60.7585 71.6049 60.7731 71.6157 60.7839C71.6265 60.7947 71.6412 60.8008 71.6565 60.8008L72.0021 60.8008C72.0174 60.8008 72.032 60.7947 72.0428 60.7839C72.0536 60.7731 72.0597 60.7585 72.0597 60.7432L72.0597 60.5128C72.0597 60.4975 72.0536 60.4829 72.0428 60.4721C72.032 60.4612 72.0174 60.4552 72.0021 60.4552L71.6565 60.4552C71.6412 60.4552 71.6265 60.4612 71.6157 60.4721C71.6049 60.4829 71.5989 60.4975 71.5989 60.5128ZM71.9445 60.5704L71.9445 60.6856L71.7141 60.6856L71.7141 60.5704L71.9445 60.5704Z" fill="#383630"/>
<path d="M70.9096 59.9395L70.9096 59.5939C70.9096 59.5786 70.9036 59.5639 70.8928 59.5531C70.882 59.5423 70.8673 59.5363 70.852 59.5363C70.8368 59.5363 70.8221 59.5423 70.8113 59.5531C70.8005 59.5639 70.7944 59.5786 70.7944 59.5939L70.7944 59.9395C70.7944 59.9547 70.8005 59.9694 70.8113 59.9802C70.8221 59.991 70.8368 59.9971 70.852 59.9971C70.8673 59.9971 70.882 59.991 70.8928 59.9802C70.9036 59.9694 70.9096 59.9547 70.9096 59.9395Z" fill="#383630"/>
<path d="M71.139 60.0558L71.139 59.4815C71.139 59.4662 71.133 59.4516 71.1222 59.4408C71.1115 59.4301 71.0968 59.424 71.0816 59.424C71.0664 59.424 71.0518 59.4301 71.041 59.4408C71.0302 59.4516 71.0242 59.4662 71.0242 59.4815L71.0242 60.0558C71.0242 60.0711 71.0302 60.0857 71.041 60.0965C71.0518 60.1072 71.0664 60.1133 71.0816 60.1133C71.0968 60.1133 71.1115 60.1072 71.1222 60.0965C71.133 60.0857 71.139 60.0711 71.139 60.0558Z" fill="#383630"/>
<path d="M71.5989 59.4806L71.5989 59.711C71.5989 59.7262 71.6049 59.7409 71.6157 59.7517C71.6265 59.7625 71.6412 59.7686 71.6565 59.7686L72.0021 59.7686C72.0174 59.7686 72.032 59.7625 72.0428 59.7517C72.0536 59.7409 72.0597 59.7262 72.0597 59.711L72.0597 59.4806C72.0597 59.4653 72.0536 59.4506 72.0428 59.4398C72.032 59.429 72.0174 59.423 72.0021 59.423L71.6565 59.423C71.6412 59.423 71.6265 59.429 71.6157 59.4398C71.6049 59.4506 71.5989 59.4653 71.5989 59.4806ZM71.9445 59.5382L71.9445 59.6534L71.7141 59.6534L71.7141 59.5382L71.9445 59.5382Z" fill="#383630"/>
<path d="M70.9096 58.9082L70.9096 58.5626C70.9096 58.5473 70.9036 58.5327 70.8928 58.5219C70.882 58.5111 70.8673 58.505 70.852 58.505C70.8368 58.505 70.8221 58.5111 70.8113 58.5219C70.8005 58.5327 70.7944 58.5473 70.7944 58.5626L70.7944 58.9082C70.7944 58.9235 70.8005 58.9381 70.8113 58.9489C70.8221 58.9598 70.8368 58.9658 70.852 58.9658C70.8673 58.9658 70.882 58.9598 70.8928 58.9489C70.9036 58.9381 70.9096 58.9235 70.9096 58.9082Z" fill="#383630"/>
<path d="M71.139 59.0217L71.139 58.4473C71.139 58.432 71.133 58.4174 71.1222 58.4067C71.1115 58.3959 71.0968 58.3898 71.0816 58.3898C71.0664 58.3898 71.0518 58.3959 71.041 58.4067C71.0302 58.4174 71.0242 58.432 71.0242 58.4473L71.0242 59.0217C71.0242 59.0369 71.0302 59.0515 71.041 59.0623C71.0518 59.0731 71.0664 59.0791 71.0816 59.0791C71.0968 59.0791 71.1115 59.0731 71.1222 59.0623C71.133 59.0515 71.139 59.0369 71.139 59.0217Z" fill="#383630"/>
<path d="M71.5989 58.4474L71.5989 58.6778C71.5989 58.693 71.6049 58.7077 71.6157 58.7185C71.6265 58.7293 71.6412 58.7354 71.6565 58.7354L72.0021 58.7354C72.0174 58.7354 72.032 58.7293 72.0428 58.7185C72.0536 58.7077 72.0597 58.693 72.0597 58.6778L72.0597 58.4474C72.0597 58.4321 72.0536 58.4174 72.0428 58.4066C72.032 58.3958 72.0174 58.3898 72.0021 58.3898L71.6565 58.3898C71.6412 58.3898 71.6265 58.3958 71.6157 58.4066C71.6049 58.4174 71.5989 58.4321 71.5989 58.4474ZM71.9445 58.505L71.9445 58.6202L71.7141 58.6202L71.7141 58.505L71.9445 58.505Z" fill="#383630"/>
<path d="M72.5759 60.9756L72.5759 60.63C72.5759 60.6147 72.5698 60.6001 72.559 60.5893C72.5482 60.5785 72.5336 60.5724 72.5183 60.5724C72.503 60.5724 72.4884 60.5785 72.4776 60.5893C72.4668 60.6001 72.4607 60.6147 72.4607 60.63L72.4607 60.9756C72.4607 60.9909 72.4668 61.0055 72.4776 61.0163C72.4884 61.0271 72.503 61.0332 72.5183 61.0332C72.5336 61.0332 72.5482 61.0271 72.559 61.0163C72.5698 61.0055 72.5759 60.9909 72.5759 60.9756Z" fill="#383630"/>
<path d="M72.8056 61.089L72.8056 60.5147C72.8056 60.4994 72.7995 60.4848 72.7887 60.474C72.778 60.4633 72.7633 60.4572 72.7481 60.4572C72.7329 60.4572 72.7183 60.4633 72.7075 60.474C72.6967 60.4848 72.6907 60.4994 72.6907 60.5147L72.6907 61.089C72.6907 61.1043 72.6967 61.1189 72.7075 61.1297C72.7183 61.1404 72.7329 61.1465 72.7481 61.1465C72.7633 61.1465 72.778 61.1404 72.7887 61.1297C72.7995 61.1189 72.8056 61.1043 72.8056 61.089Z" fill="#383630"/>
<path d="M73.2646 60.5128L73.2646 60.7432C73.2646 60.7585 73.2707 60.7731 73.2815 60.7839C73.2923 60.7947 73.307 60.8008 73.3222 60.8008L73.6678 60.8008C73.6831 60.8008 73.6978 60.7947 73.7086 60.7839C73.7194 60.7731 73.7254 60.7585 73.7254 60.7432L73.7254 60.5128C73.7254 60.4975 73.7194 60.4829 73.7086 60.4721C73.6978 60.4612 73.6831 60.4552 73.6678 60.4552L73.3222 60.4552C73.307 60.4552 73.2923 60.4612 73.2815 60.4721C73.2707 60.4829 73.2646 60.4975 73.2646 60.5128ZM73.6102 60.5704L73.6102 60.6856L73.3798 60.6856L73.3798 60.5704L73.6102 60.5704Z" fill="#383630"/>
<path d="M72.5759 59.9395L72.5759 59.5939C72.5759 59.5786 72.5698 59.5639 72.559 59.5531C72.5482 59.5423 72.5336 59.5363 72.5183 59.5363C72.503 59.5363 72.4884 59.5423 72.4776 59.5531C72.4668 59.5639 72.4607 59.5786 72.4607 59.5939L72.4607 59.9395C72.4607 59.9547 72.4668 59.9694 72.4776 59.9802C72.4884 59.991 72.503 59.9971 72.5183 59.9971C72.5336 59.9971 72.5482 59.991 72.559 59.9802C72.5698 59.9694 72.5759 59.9547 72.5759 59.9395Z" fill="#383630"/>
<path d="M72.7481 59.424C72.7329 59.424 72.7183 59.4301 72.7075 59.4408C72.6967 59.4516 72.6907 59.4662 72.6907 59.4815L72.6907 60.0558C72.6907 60.0711 72.6967 60.0857 72.7075 60.0965C72.7183 60.1072 72.7329 60.1133 72.7481 60.1133C72.7633 60.1133 72.778 60.1072 72.7887 60.0965C72.7995 60.0857 72.8056 60.0711 72.8056 60.0558L72.8056 59.4815C72.8056 59.4662 72.7995 59.4516 72.7887 59.4408C72.778 59.4301 72.7633 59.424 72.7481 59.424Z" fill="#383630"/>
<path d="M73.2646 59.4806L73.2646 59.711C73.2646 59.7262 73.2707 59.7409 73.2815 59.7517C73.2923 59.7625 73.307 59.7686 73.3222 59.7686L73.6678 59.7686C73.6831 59.7686 73.6978 59.7625 73.7086 59.7517C73.7194 59.7409 73.7254 59.7262 73.7254 59.711L73.7254 59.4806C73.7254 59.4653 73.7194 59.4506 73.7086 59.4398C73.6978 59.429 73.6831 59.423 73.6678 59.423L73.3222 59.423C73.307 59.423 73.2923 59.429 73.2815 59.4398C73.2707 59.4506 73.2646 59.4653 73.2646 59.4806ZM73.6102 59.5382L73.6102 59.6534L73.3798 59.6534L73.3798 59.5382L73.6102 59.5382Z" fill="#383630"/>
<path d="M70.5653 58.1614C70.55 58.1614 70.5354 58.1674 70.5246 58.1782C70.5139 58.189 70.5078 58.2036 70.5078 58.2188L70.5078 61.3205C70.5078 61.3357 70.5139 61.3503 70.5246 61.3611C70.5354 61.3719 70.55 61.3779 70.5653 61.3779L73.8967 61.3779C73.9119 61.3779 73.9265 61.3719 73.9373 61.3611C73.9481 61.3503 73.9541 61.3357 73.9541 61.3205L73.9541 58.2188C73.9541 58.2036 73.9481 58.189 73.9373 58.1782C73.9265 58.1674 73.9119 58.1614 73.8967 58.1614L70.5653 58.1614ZM70.6227 58.2762L72.1735 58.2762L72.1735 59.1953L70.6227 59.1953L70.6227 58.2762ZM72.2884 60.2292L72.2884 59.3101L73.8393 59.3101L73.8393 60.2292L72.2884 60.2292ZM70.6227 59.3101L72.1735 59.3101L72.1735 60.2292L70.6227 60.2292L70.6227 59.3101ZM70.6227 60.344L72.1735 60.344L72.1735 61.2631L70.6227 61.2631L70.6227 60.344ZM73.8393 60.344L73.8393 61.2631L72.2884 61.2631L72.2884 60.344L73.8393 60.344ZM73.8393 58.2762L73.8393 59.1953L72.2884 59.1953L72.2884 58.2762L73.8393 58.2762Z" fill="#383630"/>
<path d="M72.5759 58.9082L72.5759 58.5626C72.5759 58.5473 72.5698 58.5327 72.559 58.5219C72.5482 58.5111 72.5336 58.505 72.5183 58.505C72.503 58.505 72.4884 58.5111 72.4776 58.5219C72.4668 58.5327 72.4607 58.5473 72.4607 58.5626L72.4607 58.9082C72.4607 58.9235 72.4668 58.9381 72.4776 58.9489C72.4884 58.9598 72.503 58.9658 72.5183 58.9658C72.5336 58.9658 72.5482 58.9598 72.559 58.9489C72.5698 58.9381 72.5759 58.9235 72.5759 58.9082Z" fill="#383630"/>
<path d="M72.8056 59.0217L72.8056 58.4473C72.8056 58.432 72.7995 58.4174 72.7887 58.4067C72.778 58.3959 72.7633 58.3898 72.7481 58.3898C72.7329 58.3898 72.7183 58.3959 72.7075 58.4067C72.6967 58.4174 72.6907 58.432 72.6907 58.4473L72.6907 59.0217C72.6907 59.0369 72.6967 59.0515 72.7075 59.0623C72.7183 59.0731 72.7329 59.0791 72.7481 59.0791C72.7633 59.0791 72.778 59.0731 72.7887 59.0623C72.7995 59.0515 72.8056 59.0369 72.8056 59.0217Z" fill="#383630"/>
<path d="M73.2646 58.4474L73.2646 58.6778C73.2646 58.693 73.2707 58.7077 73.2815 58.7185C73.2923 58.7293 73.307 58.7354 73.3222 58.7354L73.6678 58.7354C73.6831 58.7354 73.6978 58.7293 73.7086 58.7185C73.7194 58.7077 73.7254 58.693 73.7254 58.6778L73.7254 58.4474C73.7254 58.4321 73.7194 58.4174 73.7086 58.4066C73.6978 58.3958 73.6831 58.3898 73.6678 58.3898L73.3222 58.3898C73.307 58.3898 73.2923 58.3958 73.2815 58.4066C73.2707 58.4174 73.2646 58.4321 73.2646 58.4474ZM73.6102 58.505L73.6102 58.6202L73.3798 58.6202L73.3798 58.505L73.6102 58.505Z" fill="#383630"/>
</g>
<g clip-path="url(#clip3_335_4398)">
<path d="M72.0749 97.8388H72.4205C72.4358 97.8388 72.4505 97.8328 72.4613 97.822C72.4721 97.8112 72.4781 97.7965 72.4781 97.7812C72.4781 97.766 72.4721 97.7513 72.4613 97.7405C72.4505 97.7297 72.4358 97.7236 72.4205 97.7236H72.0749C72.0597 97.7236 72.045 97.7297 72.0342 97.7405C72.0234 97.7513 72.0173 97.766 72.0173 97.7812C72.0173 97.7965 72.0234 97.8112 72.0342 97.822C72.045 97.8328 72.0597 97.8388 72.0749 97.8388Z" fill="#383630"/>
<path d="M71.9598 98.067H72.5342C72.5494 98.067 72.564 98.061 72.5748 98.0502C72.5856 98.0394 72.5916 98.0248 72.5916 98.0096C72.5916 97.9944 72.5856 97.9797 72.5748 97.969C72.564 97.9582 72.5494 97.9521 72.5342 97.9521H71.9598C71.9445 97.9521 71.9299 97.9582 71.9192 97.969C71.9084 97.9797 71.9023 97.9944 71.9023 98.0096C71.9023 98.0248 71.9084 98.0394 71.9192 98.0502C71.9299 98.061 71.9445 98.067 71.9598 98.067Z" fill="#383630"/>
<path d="M72.5348 98.5273H72.3044C72.2891 98.5273 72.2745 98.5334 72.2637 98.5442C72.2529 98.555 72.2468 98.5697 72.2468 98.5849V98.9305C72.2468 98.9458 72.2529 98.9605 72.2637 98.9713C72.2745 98.9821 72.2891 98.9881 72.3044 98.9881H72.5348C72.5501 98.9881 72.5648 98.9821 72.5756 98.9713C72.5864 98.9605 72.5924 98.9458 72.5924 98.9305V98.5849C72.5924 98.5697 72.5864 98.555 72.5756 98.5442C72.5648 98.5334 72.5501 98.5273 72.5348 98.5273ZM72.4772 98.8729H72.362V98.6425H72.4772V98.8729Z" fill="#383630"/>
<path d="M73.1091 97.8388H73.4547C73.47 97.8388 73.4846 97.8328 73.4954 97.822C73.5062 97.8112 73.5123 97.7965 73.5123 97.7812C73.5123 97.766 73.5062 97.7513 73.4954 97.7405C73.4846 97.7297 73.47 97.7236 73.4547 97.7236H73.1091C73.0938 97.7236 73.0792 97.7297 73.0684 97.7405C73.0576 97.7513 73.0515 97.766 73.0515 97.7812C73.0515 97.7965 73.0576 97.8112 73.0684 97.822C73.0792 97.8328 73.0938 97.8388 73.1091 97.8388Z" fill="#383630"/>
<path d="M72.9942 98.067H73.5686C73.5838 98.067 73.5984 98.061 73.6092 98.0502C73.62 98.0394 73.626 98.0248 73.626 98.0096C73.626 97.9944 73.62 97.9797 73.6092 97.969C73.5984 97.9582 73.5838 97.9521 73.5686 97.9521H72.9942C72.979 97.9521 72.9644 97.9582 72.9536 97.969C72.9428 97.9797 72.9368 97.9944 72.9368 98.0096C72.9368 98.0248 72.9428 98.0394 72.9536 98.0502C72.9644 98.061 72.979 98.067 72.9942 98.067Z" fill="#383630"/>
<path d="M73.5688 98.5273H73.3384C73.3231 98.5273 73.3084 98.5334 73.2976 98.5442C73.2868 98.555 73.2808 98.5697 73.2808 98.5849V98.9305C73.2808 98.9458 73.2868 98.9605 73.2976 98.9713C73.3084 98.9821 73.3231 98.9881 73.3384 98.9881H73.5688C73.584 98.9881 73.5987 98.9821 73.6095 98.9713C73.6203 98.9605 73.6264 98.9458 73.6264 98.9305V98.5849C73.6264 98.5697 73.6203 98.555 73.6095 98.5442C73.5987 98.5334 73.584 98.5273 73.5688 98.5273ZM73.5112 98.8729H73.396V98.6425H73.5112V98.8729Z" fill="#383630"/>
<path d="M74.143 97.8388H74.4886C74.5039 97.8388 74.5186 97.8328 74.5294 97.822C74.5402 97.8112 74.5462 97.7965 74.5462 97.7812C74.5462 97.766 74.5402 97.7513 74.5294 97.7405C74.5186 97.7297 74.5039 97.7236 74.4886 97.7236H74.143C74.1278 97.7236 74.1131 97.7297 74.1023 97.7405C74.0915 97.7513 74.0854 97.766 74.0854 97.7812C74.0854 97.7965 74.0915 97.8112 74.1023 97.822C74.1131 97.8328 74.1278 97.8388 74.143 97.8388Z" fill="#383630"/>
<path d="M74.0277 98.067H74.602C74.6173 98.067 74.6319 98.061 74.6427 98.0502C74.6534 98.0394 74.6595 98.0248 74.6595 98.0096C74.6595 97.9944 74.6534 97.9797 74.6427 97.969C74.6319 97.9582 74.6173 97.9521 74.602 97.9521H74.0277C74.0124 97.9521 73.9978 97.9582 73.987 97.969C73.9763 97.9797 73.9702 97.9944 73.9702 98.0096C73.9702 98.0248 73.9763 98.0394 73.987 98.0502C73.9978 98.061 74.0124 98.067 74.0277 98.067Z" fill="#383630"/>
<path d="M74.6029 98.5273H74.3725C74.3573 98.5273 74.3426 98.5334 74.3318 98.5442C74.321 98.555 74.3149 98.5697 74.3149 98.5849V98.9305C74.3149 98.9458 74.321 98.9605 74.3318 98.9713C74.3426 98.9821 74.3573 98.9881 74.3725 98.9881H74.6029C74.6182 98.9881 74.6329 98.9821 74.6437 98.9713C74.6545 98.9605 74.6605 98.9458 74.6605 98.9305V98.5849C74.6605 98.5697 74.6545 98.555 74.6437 98.5442C74.6329 98.5334 74.6182 98.5273 74.6029 98.5273ZM74.5453 98.8729H74.4301V98.6425H74.5453V98.8729Z" fill="#383630"/>
<path d="M72.0749 99.5039H72.4205C72.4358 99.5039 72.4505 99.4978 72.4613 99.487C72.4721 99.4762 72.4781 99.4615 72.4781 99.4463C72.4781 99.431 72.4721 99.4163 72.4613 99.4055C72.4505 99.3947 72.4358 99.3887 72.4205 99.3887H72.0749C72.0597 99.3887 72.045 99.3947 72.0342 99.4055C72.0234 99.4163 72.0173 99.431 72.0173 99.4463C72.0173 99.4615 72.0234 99.4762 72.0342 99.487C72.045 99.4978 72.0597 99.5039 72.0749 99.5039Z" fill="#383630"/>
<path d="M71.9598 99.735H72.5342C72.5494 99.735 72.564 99.7289 72.5748 99.7182C72.5856 99.7074 72.5916 99.6928 72.5916 99.6776C72.5916 99.6623 72.5856 99.6477 72.5748 99.6369C72.564 99.6262 72.5494 99.6201 72.5342 99.6201H71.9598C71.9445 99.6201 71.9299 99.6262 71.9192 99.6369C71.9084 99.6477 71.9023 99.6623 71.9023 99.6776C71.9023 99.6928 71.9084 99.7074 71.9192 99.7182C71.9299 99.7289 71.9445 99.735 71.9598 99.735Z" fill="#383630"/>
<path d="M72.5348 100.192H72.3044C72.2891 100.192 72.2745 100.198 72.2637 100.209C72.2529 100.22 72.2468 100.235 72.2468 100.25V100.596C72.2468 100.611 72.2529 100.626 72.2637 100.636C72.2745 100.647 72.2891 100.653 72.3044 100.653H72.5348C72.5501 100.653 72.5648 100.647 72.5756 100.636C72.5864 100.626 72.5924 100.611 72.5924 100.596V100.25C72.5924 100.235 72.5864 100.22 72.5756 100.209C72.5648 100.198 72.5501 100.192 72.5348 100.192ZM72.4772 100.538H72.362V100.308H72.4772V100.538Z" fill="#383630"/>
<path d="M73.1091 99.5039H73.4547C73.47 99.5039 73.4846 99.4978 73.4954 99.487C73.5062 99.4762 73.5123 99.4615 73.5123 99.4463C73.5123 99.431 73.5062 99.4163 73.4954 99.4055C73.4846 99.3947 73.47 99.3887 73.4547 99.3887H73.1091C73.0938 99.3887 73.0792 99.3947 73.0684 99.4055C73.0576 99.4163 73.0515 99.431 73.0515 99.4463C73.0515 99.4615 73.0576 99.4762 73.0684 99.487C73.0792 99.4978 73.0938 99.5039 73.1091 99.5039Z" fill="#383630"/>
<path d="M73.626 99.6776C73.626 99.6623 73.62 99.6477 73.6092 99.6369C73.5984 99.6262 73.5838 99.6201 73.5686 99.6201H72.9942C72.979 99.6201 72.9644 99.6262 72.9536 99.6369C72.9428 99.6477 72.9368 99.6623 72.9368 99.6776C72.9368 99.6928 72.9428 99.7074 72.9536 99.7182C72.9644 99.7289 72.979 99.735 72.9942 99.735H73.5686C73.5838 99.735 73.5984 99.7289 73.6092 99.7182C73.62 99.7074 73.626 99.6928 73.626 99.6776Z" fill="#383630"/>
<path d="M73.5688 100.192H73.3384C73.3231 100.192 73.3084 100.198 73.2976 100.209C73.2868 100.22 73.2808 100.235 73.2808 100.25V100.596C73.2808 100.611 73.2868 100.626 73.2976 100.636C73.3084 100.647 73.3231 100.653 73.3384 100.653H73.5688C73.584 100.653 73.5987 100.647 73.6095 100.636C73.6203 100.626 73.6264 100.611 73.6264 100.596V100.25C73.6264 100.235 73.6203 100.22 73.6095 100.209C73.5987 100.198 73.584 100.192 73.5688 100.192ZM73.5112 100.538H73.396V100.308H73.5112V100.538Z" fill="#383630"/>
<path d="M74.8897 97.493C74.8897 97.4778 74.8836 97.4631 74.8728 97.4524C74.8621 97.4416 74.8475 97.4355 74.8322 97.4355H71.7305C71.7153 97.4355 71.7007 97.4416 71.6899 97.4524C71.6791 97.4631 71.6731 97.4778 71.6731 97.493V100.824C71.6731 100.84 71.6791 100.854 71.6899 100.865C71.7007 100.876 71.7153 100.882 71.7305 100.882H74.8322C74.8475 100.882 74.8621 100.876 74.8728 100.865C74.8836 100.854 74.8897 100.84 74.8897 100.824V97.493ZM74.7748 97.5504V99.1013H73.8558V97.5504H74.7748ZM72.8219 99.2161H73.7409V100.767H72.8219V99.2161ZM73.7409 97.5504V99.1013H72.8219V97.5504H73.7409ZM72.707 97.5504V99.1013H71.788V97.5504H72.707ZM72.707 100.767H71.788V99.2161H72.707V100.767ZM74.7748 100.767H73.8558V99.2161H74.7748V100.767Z" fill="#383630"/>
<path d="M74.143 99.5039H74.4886C74.5039 99.5039 74.5186 99.4978 74.5294 99.487C74.5402 99.4762 74.5462 99.4615 74.5462 99.4463C74.5462 99.431 74.5402 99.4163 74.5294 99.4055C74.5186 99.3947 74.5039 99.3887 74.4886 99.3887H74.143C74.1278 99.3887 74.1131 99.3947 74.1023 99.4055C74.0915 99.4163 74.0854 99.431 74.0854 99.4463C74.0854 99.4615 74.0915 99.4762 74.1023 99.487C74.1131 99.4978 74.1278 99.5039 74.143 99.5039Z" fill="#383630"/>
<path d="M74.0277 99.735H74.602C74.6173 99.735 74.6319 99.7289 74.6427 99.7182C74.6534 99.7074 74.6595 99.6928 74.6595 99.6776C74.6595 99.6623 74.6534 99.6477 74.6427 99.6369C74.6319 99.6262 74.6173 99.6201 74.602 99.6201H74.0277C74.0124 99.6201 73.9978 99.6262 73.987 99.6369C73.9763 99.6477 73.9702 99.6623 73.9702 99.6776C73.9702 99.6928 73.9763 99.7074 73.987 99.7182C73.9978 99.7289 74.0124 99.735 74.0277 99.735Z" fill="#383630"/>
<path d="M74.6029 100.192H74.3725C74.3573 100.192 74.3426 100.198 74.3318 100.209C74.321 100.22 74.3149 100.235 74.3149 100.25V100.596C74.3149 100.611 74.321 100.626 74.3318 100.636C74.3426 100.647 74.3573 100.653 74.3725 100.653H74.6029C74.6182 100.653 74.6329 100.647 74.6437 100.636C74.6545 100.626 74.6605 100.611 74.6605 100.596V100.25C74.6605 100.235 74.6545 100.22 74.6437 100.209C74.6329 100.198 74.6182 100.192 74.6029 100.192ZM74.5453 100.538H74.4301V100.308H74.5453V100.538Z" fill="#383630"/>
</g>
<g clip-path="url(#clip4_335_4398)">
<path d="M78.6008 60.6787C78.0375 60.6787 78.0298 60.6787 77.5612 60.6787C77.3103 60.6787 77.1051 60.8829 77.1038 61.1338L77.0967 62.5537C77.0961 62.6604 77.1822 62.7474 77.289 62.7479C77.2893 62.7479 77.2896 62.7479 77.29 62.7479C77.3963 62.7479 77.4827 62.662 77.4832 62.5556L77.4904 61.1357C77.4904 61.1356 77.4904 61.1354 77.4904 61.1353C77.4906 61.1142 77.5078 61.0972 77.5289 61.0974C77.55 61.0975 77.567 61.1146 77.567 61.1357L77.5671 64.3847C77.5671 64.5127 77.6709 64.6166 77.799 64.6166C77.9271 64.6166 78.031 64.5127 78.031 64.3847V62.5309H78.1311V64.3847C78.1311 64.5127 78.2349 64.6166 78.363 64.6166C78.4911 64.6166 78.5949 64.5127 78.5949 64.3847C78.5949 61.3189 78.5908 63.0721 78.5907 61.1385C78.5907 61.1168 78.6079 61.0989 78.6296 61.0981C78.6514 61.0972 78.6699 61.1137 78.6716 61.1353V61.1354L78.6703 62.5545C78.6702 62.6612 78.7567 62.7478 78.8634 62.7479C78.8635 62.7479 78.8635 62.7479 78.8636 62.7479C78.9702 62.7479 79.0567 62.6615 79.0568 62.5548L79.0582 61.1349C79.0582 61.1345 79.0582 61.1342 79.0582 61.1338C79.0569 60.8829 78.8517 60.6787 78.6008 60.6787Z" fill="#383630"/>
<path d="M78.0807 60.552C78.3019 60.552 78.4812 60.3727 78.4812 60.1515C78.4812 59.9303 78.3019 59.751 78.0807 59.751C77.8595 59.751 77.6802 59.9303 77.6802 60.1515C77.6802 60.3727 77.8595 60.552 78.0807 60.552Z" fill="#383630"/>
<path d="M82.0244 62.2542C82.0208 62.2441 81.6694 61.2417 81.6141 61.0808C81.5251 60.8218 81.3758 60.6904 81.1705 60.6904C80.883 60.6904 80.7891 60.6904 80.5022 60.6904C80.2969 60.6904 80.1476 60.8218 80.0586 61.0808C80.0033 61.2417 79.6519 62.2441 79.6483 62.2542C79.6133 62.3542 79.6659 62.4637 79.7659 62.4988C79.866 62.5338 79.9754 62.4811 80.0104 62.3812C80.0218 62.3488 80.2332 61.7613 80.3512 61.4233C80.3388 61.5242 80.3744 61.3148 80.0769 62.8506C80.0642 62.9166 80.115 62.9776 80.1816 62.9776C80.2229 62.9776 80.2725 62.9776 80.328 62.9776V64.3692C80.328 64.4964 80.431 64.5994 80.5582 64.5994C80.6853 64.5994 80.7884 64.4964 80.7884 64.3692V62.9776C80.8215 62.9776 80.8547 62.9776 80.8878 62.9776V64.3692C80.8878 64.4964 80.9909 64.5994 81.1181 64.5994C81.2452 64.5994 81.3483 64.4964 81.3483 64.3692V62.9776C81.4038 62.9776 81.4534 62.9776 81.4947 62.9776C81.5616 62.9776 81.6121 62.9165 81.5993 62.8506C81.3046 61.3288 81.337 61.5055 81.327 61.4233C81.4459 61.7639 81.6511 62.3493 81.6623 62.3812C81.6974 62.4812 81.8069 62.5338 81.9068 62.4987C82.0068 62.4637 82.0594 62.3542 82.0244 62.2542Z" fill="#383630"/>
<path d="M80.8381 60.5638C81.0577 60.5638 81.2357 60.3858 81.2357 60.1662C81.2357 59.9466 81.0577 59.7686 80.8381 59.7686C80.6185 59.7686 80.4404 59.9466 80.4404 60.1662C80.4404 60.3858 80.6185 60.5638 80.8381 60.5638Z" fill="#383630"/>
<path d="M79.3475 60.0068C79.2657 60.0068 79.1995 60.0731 79.1995 60.1548V64.2092C79.1995 64.2909 79.2657 64.3572 79.3475 64.3572C79.4292 64.3572 79.4955 64.291 79.4955 64.2092V60.1548C79.4955 60.0731 79.4292 60.0068 79.3475 60.0068Z" fill="#383630"/>
</g>
<mask id="path-47-inside-1_335_4398" fill="white">
<path d="M-14.6821 13.2959H9.47492V35.8775H-14.6821V13.2959Z"/>
</mask>
<path d="M-14.6821 13.2959V13.0333H-14.9447V13.2959H-14.6821ZM9.47492 13.2959H9.7375V13.0333H9.47492V13.2959ZM-14.6821 13.5585H9.47492V13.0333H-14.6821V13.5585ZM9.21234 13.2959V35.8775H9.7375V13.2959H9.21234ZM-14.4196 35.8775V13.2959H-14.9447V35.8775H-14.4196Z" fill="#383630" mask="url(#path-47-inside-1_335_4398)"/>
<mask id="path-49-inside-2_335_4398" fill="white">
<path d="M-14.6821 78.415H9.47492V103.622H-14.6821V78.415Z"/>
</mask>
<path d="M-14.6821 103.622H-14.9447V103.885H-14.6821V103.622ZM9.47492 103.36H-14.6821V103.885H9.47492V103.36ZM-14.4196 103.622V78.415H-14.9447V103.622H-14.4196Z" fill="#383630" mask="url(#path-49-inside-2_335_4398)"/>
<mask id="path-51-inside-3_335_4398" fill="white">
<path d="M9.4751 78.415H35.7328V103.622H9.4751V78.415Z"/>
</mask>
<path d="M9.4751 78.6776H35.7328V78.1525H9.4751V78.6776ZM35.7328 103.36H9.4751V103.885H35.7328V103.36Z" fill="#383630" mask="url(#path-51-inside-3_335_4398)"/>
<mask id="path-53-inside-4_335_4398" fill="white">
<path d="M84.572 77.3652H110.83V103.623H84.572V77.3652Z"/>
</mask>
<path d="M84.572 77.6278H110.83V77.1027H84.572V77.6278ZM110.83 103.36H84.572V103.885H110.83V103.36Z" fill="#383630" mask="url(#path-53-inside-4_335_4398)"/>
<mask id="path-55-inside-5_335_4398" fill="white">
<path d="M110.829 13.8203H134.986V103.622H110.829V13.8203Z"/>
</mask>
<path d="M134.986 13.8203H135.249V13.5577H134.986V13.8203ZM134.986 103.622V103.884H135.249V103.622H134.986ZM110.829 14.0829H134.986V13.5577H110.829V14.0829ZM134.724 13.8203V103.622H135.249V13.8203H134.724ZM134.986 103.359H110.829V103.884H134.986V103.359Z" fill="#383630" mask="url(#path-55-inside-5_335_4398)"/>
<rect x="74.7768" y="57.9174" width="9.8915" height="15.8643" stroke="#383630" stroke-width="0.262577"/>
<mask id="path-58-inside-6_335_4398" fill="white">
<path d="M49.8035 35.5039H70.2628V73.7473H49.8035V35.5039Z"/>
</mask>
<path d="M49.8035 35.5039V35.2413H49.5409V35.5039H49.8035ZM70.2628 35.5039H70.5254V35.2413H70.2628V35.5039ZM49.8035 35.7665H70.2628V35.2413H49.8035V35.7665ZM70.0002 35.5039V73.7473H70.5254V35.5039H70.0002ZM50.066 73.7473V35.5039H49.5409V73.7473H50.066Z" fill="#383630" mask="url(#path-58-inside-6_335_4398)"/>
<mask id="path-60-inside-7_335_4398" fill="white">
<path d="M-14.6821 34.8281H9.47492V78.4158H-14.6821V34.8281Z"/>
</mask>
<path d="M9.21234 34.8281V78.4158H9.7375V34.8281H9.21234ZM-14.4196 78.4158V34.8281H-14.9447V78.4158H-14.4196Z" fill="#383630" mask="url(#path-60-inside-7_335_4398)"/>
<line x1="70.2288" y1="57.9136" x2="75.1066" y2="57.9136" stroke="#383630" stroke-width="0.262577"/>
<path d="M35.603 78.415L35.603 73.6887" stroke="#383630" stroke-width="0.262577"/>
<line x1="35.4705" y1="73.6158" x2="50.0433" y2="73.6158" stroke="#383630" stroke-width="0.262577"/>
<rect x="35.3388" y="94.3002" width="14.4417" height="9.19018" stroke="#383630" stroke-width="0.262577"/>
<line x1="69.9995" y1="94.6953" x2="69.9995" y2="103.492" stroke="#383630" stroke-width="0.262577"/>
<line x1="84.7033" y1="94.6953" x2="84.7033" y2="103.387" stroke="#383630" stroke-width="0.262577"/>
<line x1="69.8682" y1="94.564" x2="75.4183" y2="94.564" stroke="#383630" stroke-width="0.262577"/>
<line x1="79.8455" y1="94.564" x2="84.8194" y2="94.564" stroke="#383630" stroke-width="0.262577"/>
<line x1="49.9119" y1="103.49" x2="84.572" y2="103.49" stroke="#383630" stroke-width="0.262577"/>
<line x1="84.6772" y1="73.9141" x2="84.6772" y2="78.4256" stroke="#383630" stroke-width="0.262577"/>
<g clip-path="url(#clip5_335_4398)">
<path d="M48.9712 89.4351L48.1401 89.4358C48.0155 89.4359 47.9324 89.5191 47.9325 89.6437C47.9326 89.7684 48.0158 89.8514 48.1405 89.8513L48.7638 89.8508L48.7643 90.4741C48.7644 90.5988 48.8476 90.6818 48.9723 90.6817L49.5956 90.6812L49.5961 91.3045C49.5962 91.4291 49.6794 91.5122 49.804 91.5121L50.4273 91.5116L50.4279 92.1349C50.428 92.2595 50.5112 92.3426 50.6358 92.3425L51.4669 92.3418C51.5916 92.3417 51.6746 92.2585 51.6745 92.1338C51.6744 92.0092 51.5912 91.9261 51.4665 91.9262L50.8432 91.9267L50.8427 91.3034C50.8426 91.1788 50.7594 91.0957 50.6348 91.0958L50.0115 91.0964L50.0109 90.4731C50.0108 90.3484 49.9277 90.2654 49.803 90.2655L49.1797 90.266L49.1792 89.6427C49.1791 89.518 49.0959 89.435 48.9712 89.4351Z" fill="#383630"/>
</g>
<g clip-path="url(#clip6_335_4398)">
<path d="M69.2739 89.4311L70.105 89.4311C70.2296 89.4311 70.3127 89.5142 70.3127 89.6388C70.3127 89.7635 70.2296 89.8466 70.105 89.8466L69.4817 89.8466L69.4817 90.4699C69.4817 90.5946 69.3986 90.6777 69.2739 90.6777L68.6506 90.6777L68.6506 91.301C68.6506 91.4257 68.5675 91.5088 68.4428 91.5088L67.8195 91.5088L67.8195 92.1321C67.8195 92.2567 67.7364 92.3398 67.6117 92.3398L66.7807 92.3398C66.656 92.3398 66.5729 92.2567 66.5729 92.1321C66.5729 92.0074 66.656 91.9243 66.7807 91.9243L67.404 91.9243L67.404 91.301C67.404 91.1763 67.4871 91.0932 67.6117 91.0932L68.235 91.0932L68.235 90.4699C68.235 90.3453 68.3182 90.2621 68.4428 90.2621L69.0661 90.2621L69.0661 89.6388C69.0661 89.5142 69.1492 89.4311 69.2739 89.4311Z" fill="#383630"/>
</g>
<g clip-path="url(#clip7_335_4398)">
<path d="M54.2035 96.1426C52.8973 96.1426 51.8403 97.1996 51.8403 98.5058C51.8403 99.812 52.8974 100.869 54.2035 100.869C55.5098 100.869 56.5667 99.8119 56.5667 98.5058C56.5667 97.1995 55.5097 96.1426 54.2035 96.1426ZM54.2035 100.5C53.1014 100.5 52.2096 99.6078 52.2096 98.5058C52.2096 97.4036 53.1015 96.5118 54.2035 96.5118C55.3057 96.5118 56.1975 97.4037 56.1975 98.5058C56.1975 99.6079 55.3056 100.5 54.2035 100.5Z" fill="#383630"/>
<path d="M54.2034 98.123C54.1015 98.123 54.0188 98.2057 54.0188 98.3077V99.4966C54.0188 99.5986 54.1015 99.6812 54.2034 99.6812C54.3054 99.6812 54.388 99.5985 54.388 99.4966V98.3077C54.388 98.2057 54.3054 98.123 54.2034 98.123Z" fill="#383630"/>
<path d="M54.2038 97.8983C54.3418 97.8983 54.4537 97.7864 54.4537 97.6484C54.4537 97.5103 54.3418 97.3984 54.2038 97.3984C54.0658 97.3984 53.9539 97.5103 53.9539 97.6484C53.9539 97.7864 54.0658 97.8983 54.2038 97.8983Z" fill="#383630"/>
</g>
<path d="M44.8226 83.2743C45.014 83.2743 45.1692 83.1303 45.1692 82.9526C45.1692 82.775 45.014 82.6309 44.8226 82.6309C44.6313 82.6309 44.4761 82.775 44.4761 82.9526C44.4761 83.1303 44.6313 83.2743 44.8226 83.2743Z" fill="#383630"/>
<path d="M44.8227 83.3174C44.4078 83.3174 44.2873 83.4793 44.2366 84.1048C44.2321 84.161 44.2775 84.21 44.338 84.2142C44.3408 84.2144 44.3436 84.2145 44.3464 84.2145C44.4034 84.2145 44.4515 84.1737 44.4559 84.1201C44.4746 83.8892 44.499 83.7476 44.5352 83.6605C44.5315 83.6778 44.5295 83.6955 44.5295 83.7138V84.1065C44.5295 84.1276 44.5324 84.148 44.5372 84.1677V85.0301C44.5372 85.0959 44.5947 85.1492 44.6655 85.1492C44.7363 85.1492 44.7938 85.0959 44.7938 85.0301V84.3774C44.8033 84.3782 44.8129 84.3787 44.8227 84.3787C44.8324 84.3787 44.842 84.3782 44.8515 84.3774V85.0301C44.8515 85.0959 44.9089 85.1492 44.9798 85.1492C45.0506 85.1492 45.108 85.0959 45.108 85.0301V84.1682C45.113 84.1484 45.1159 84.1278 45.1159 84.1065V83.7138C45.1159 83.6956 45.1139 83.6778 45.1102 83.6606C45.1464 83.7477 45.1708 83.8893 45.1894 84.1201C45.194 84.1763 45.2469 84.2184 45.3073 84.2142C45.3679 84.21 45.4132 84.161 45.4087 84.1048C45.3581 83.4793 45.2376 83.3174 44.8227 83.3174Z" fill="#383630"/>
<path d="M46.1219 83.2743C46.3133 83.2743 46.4685 83.1303 46.4685 82.9526C46.4685 82.775 46.3133 82.6309 46.1219 82.6309C45.9306 82.6309 45.7754 82.775 45.7754 82.9526C45.7754 83.1303 45.9306 83.2743 46.1219 83.2743Z" fill="#383630"/>
<path d="M46.1212 83.3174C45.7063 83.3174 45.5858 83.4793 45.5352 84.1048C45.5307 84.161 45.5761 84.21 45.6366 84.2142C45.6394 84.2144 45.6422 84.2145 45.645 84.2145C45.702 84.2145 45.7501 84.1737 45.7545 84.1201C45.7722 83.9016 45.795 83.7631 45.8281 83.675V83.9871L45.719 84.4424C45.7169 84.4513 45.7192 84.4605 45.7253 84.4676C45.7314 84.4747 45.7406 84.4788 45.7504 84.4788H45.8358V85.0301C45.8358 85.0959 45.8933 85.1492 45.9641 85.1492C46.0349 85.1492 46.0924 85.0959 46.0924 85.0301V84.4788H46.1501V85.0301C46.1501 85.0959 46.2076 85.1492 46.2784 85.1492C46.3492 85.1492 46.4067 85.0959 46.4067 85.0301V84.4788H46.4922C46.4923 84.4788 46.4924 84.4788 46.4925 84.4788C46.5103 84.4788 46.5248 84.4654 46.5248 84.4489C46.5248 84.4451 46.524 84.4414 46.5226 84.438L46.4144 83.9868V83.6748C46.4475 83.7629 46.4704 83.9014 46.488 84.1201C46.4926 84.1763 46.5454 84.2185 46.6059 84.2143C46.6665 84.21 46.7119 84.161 46.7073 84.1048C46.6567 83.4793 46.5362 83.3174 46.1212 83.3174Z" fill="#383630"/>
<path d="M46.9541 81.8926H43.9908C43.6572 81.8926 43.3857 82.1446 43.3857 82.4544V85.206C43.3857 85.5158 43.6572 85.7679 43.9908 85.7679H46.9541C47.2877 85.7679 47.5592 85.5158 47.5592 85.206V82.4544C47.5592 82.1446 47.2877 81.8926 46.9541 81.8926ZM47.1869 85.206C47.1869 85.3252 47.0825 85.4222 46.9541 85.4222H43.9908C43.8624 85.4222 43.758 85.3253 43.758 85.206V82.4544C43.758 82.3352 43.8624 82.2382 43.9908 82.2382H46.9541C47.0825 82.2382 47.1869 82.3352 47.1869 82.4544V85.206H47.1869Z" fill="#383630"/>
<path d="M44.5818 80.8063C44.5999 80.7894 44.6181 80.7726 44.6363 80.7557V81.3874C44.6363 81.4159 44.6353 81.4439 44.6446 81.4716C44.6695 81.5465 44.7485 81.5973 44.8328 81.593C44.9168 81.5887 44.9891 81.5302 45.0051 81.4535C45.0101 81.4298 45.0085 81.4048 45.0085 81.3807V80.7557C45.0519 80.796 45.0919 80.8402 45.1549 80.853C45.2498 80.8721 45.3476 80.8179 45.3739 80.731C45.3927 80.6687 45.3716 80.6039 45.3229 80.5587L44.9541 80.2162C44.8968 80.1631 44.8061 80.1506 44.7346 80.186C44.7051 80.2007 44.6828 80.2236 44.6595 80.2453L44.3327 80.5487C44.3165 80.5638 44.3008 80.5787 44.2891 80.5973C44.2596 80.6445 44.2561 80.7036 44.2797 80.7536C44.3314 80.8632 44.4907 80.8908 44.5818 80.8063Z" fill="#383630"/>
<path d="M45.9906 81.543C46.0479 81.5962 46.1386 81.6086 46.21 81.5732C46.2396 81.5585 46.2618 81.5357 46.2852 81.514L46.612 81.2105C46.6282 81.1955 46.6439 81.1806 46.6556 81.1619C46.6851 81.1147 46.6886 81.0557 46.665 81.0057C46.6132 80.896 46.4539 80.8684 46.3629 80.9529C46.3447 80.9698 46.3266 80.9867 46.3084 81.0036V80.3719C46.3084 80.3434 46.3093 80.3154 46.3001 80.2877C46.2752 80.2127 46.1962 80.162 46.1119 80.1663C46.0279 80.1706 45.9556 80.2291 45.9396 80.3057C45.9346 80.3295 45.9361 80.3545 45.9361 80.3786V81.0036C45.8927 80.9633 45.8528 80.9191 45.7898 80.9063C45.6949 80.8871 45.5971 80.9414 45.5708 81.0283C45.5519 81.0906 45.5731 81.1553 45.6218 81.2006L45.9906 81.543Z" fill="#383630"/>
<mask id="path-84-inside-8_335_4398" fill="white">
<path d="M35.7324 76.8398H42.0343V87.4921H35.7324V76.8398Z"/>
</mask>
<path d="M35.7324 76.8398H42.0343V87.4921H35.7324V76.8398Z" fill="#FAF5F0"/>
<path d="M42.0343 76.8398H42.2968V76.5773H42.0343V76.8398ZM35.7324 77.1024H42.0343V76.5773H35.7324V77.1024ZM41.7717 76.8398V87.4921H42.2968V76.8398H41.7717Z" fill="#383630" mask="url(#path-84-inside-8_335_4398)"/>
<line x1="41.772" y1="87.3541" x2="47.5592" y2="87.3541" stroke="#383630" stroke-width="0.262577"/>
<line x1="46.9807" y1="87.3599" x2="49.7014" y2="87.3599" stroke="#383630" stroke-width="0.262577"/>
<line x1="49.6026" y1="87.4917" x2="49.57" y2="78.96" stroke="#383630" stroke-width="0.262577"/>
<line x1="44.4763" y1="79.0912" x2="41.7953" y2="79.0912" stroke="#383630" stroke-width="0.262577"/>
<line x1="49.7012" y1="79.0912" x2="46.5101" y2="79.0912" stroke="#383630" stroke-width="0.262577"/>
<g clip-path="url(#clip8_335_4398)">
<path d="M39.5559 83.667L40.3873 83.6677C40.5121 83.6678 40.5951 83.7511 40.595 83.8758C40.5949 84.0005 40.5117 84.0836 40.387 84.0835L39.7634 84.0829L39.7629 84.7066C39.7627 84.8313 39.6795 84.9144 39.5548 84.9143L38.9312 84.9137L38.9307 85.5374C38.9306 85.6621 38.8473 85.7452 38.7226 85.7451L38.099 85.7445L38.0985 86.3682C38.0984 86.4929 38.0151 86.576 37.8904 86.5759L37.0589 86.5752C36.9342 86.5751 36.8511 86.4918 36.8512 86.3671C36.8513 86.2424 36.9346 86.1593 37.0593 86.1594L37.6829 86.1599L37.6834 85.5363C37.6835 85.4116 37.7667 85.3285 37.8915 85.3286L38.5151 85.3291L38.5156 84.7055C38.5157 84.5808 38.5989 84.4977 38.7237 84.4978L39.3473 84.4983L39.3478 83.8747C39.3479 83.75 39.4311 83.6669 39.5559 83.667Z" fill="#383630"/>
</g>
<line x1="53.5984" y1="75.4615" x2="66.4672" y2="75.4615" stroke="#383630" stroke-width="0.262577"/>
<line x1="53.7253" y1="75.5593" x2="55.0326" y2="80.5165" stroke="#383630" stroke-width="0.262577"/>
<line x1="54.9058" y1="80.4185" x2="65.4315" y2="80.4185" stroke="#383630" stroke-width="0.262577"/>
<line x1="55.4233" y1="79.1548" x2="64.4992" y2="79.1548" stroke="#383630" stroke-width="0.262577"/>
<line x1="56.4302" y1="77.8375" x2="63.5449" y2="77.8375" stroke="#383630" stroke-width="0.262577"/>
<line x1="57.2861" y1="76.6275" x2="62.766" y2="76.6275" stroke="#383630" stroke-width="0.262577"/>
<line x1="65.3026" y1="80.523" x2="66.3385" y2="75.5658" stroke="#383630" stroke-width="0.262577"/>
<line x1="64.372" y1="79.254" x2="65.3039" y2="75.563" stroke="#383630" stroke-width="0.262577"/>
<line x1="63.4177" y1="77.9346" x2="64.0983" y2="75.4083" stroke="#383630" stroke-width="0.262577"/>
<line x1="62.6393" y1="76.7246" x2="62.9933" y2="75.4102" stroke="#383630" stroke-width="0.262577"/>
<line x1="57.4133" y1="76.7169" x2="57.089" y2="75.5532" stroke="#383630" stroke-width="0.262577"/>
<line x1="56.5582" y1="77.938" x2="55.9066" y2="75.483" stroke="#383630" stroke-width="0.262577"/>
<line x1="55.5518" y1="79.255" x2="54.777" y2="75.6287" stroke="#383630" stroke-width="0.262577"/>
<line x1="110.961" y1="13.8203" x2="110.948" y2="77.7757" stroke="#383630" stroke-width="0.262577"/>
<g clip-path="url(#clip9_335_4398)">
<path d="M80.3785 70.3736C80.2828 70.3314 80.1713 70.3759 80.1301 70.4717C79.9357 70.9194 79.4939 71.2086 79.0044 71.2086C78.3269 71.2086 77.7756 70.6574 77.7756 69.9798C77.7756 69.5404 78.0123 69.1326 78.393 68.915C78.484 68.8634 78.5154 68.7479 78.4635 68.6572C78.4119 68.5664 78.2962 68.5343 78.2057 68.5868C77.7071 68.8713 77.3975 69.405 77.3975 69.9798C77.3975 70.8659 78.1183 71.5868 79.0044 71.5868C79.6448 71.5868 80.2227 71.2081 80.4768 70.6222C80.5184 70.5265 80.4745 70.4152 80.3785 70.3736Z" fill="#383630"/>
<path d="M81.7323 70.5694C81.6934 70.4722 81.5841 70.4249 81.4866 70.4639L81.2037 70.5771L80.7922 69.2598C80.7674 69.1807 80.6942 69.1271 80.6114 69.1271H79.2612L79.2024 68.7489H79.9497C80.0543 68.7489 80.1388 68.6644 80.1388 68.5599C80.1388 68.4554 80.0543 68.3708 79.9497 68.3708H79.1438L79.0461 67.7411C79.1897 67.6598 79.288 67.5076 79.288 67.331C79.288 67.0703 79.0761 66.8584 78.8154 66.8584C78.5549 66.8584 78.3428 67.0703 78.3428 67.331C78.3428 67.5403 78.4804 67.7161 78.6693 67.7781L78.9122 69.345C78.9266 69.4373 79.0058 69.5052 79.099 69.5052H80.4725L80.9035 70.8849C80.9194 70.9352 80.9553 70.9766 81.003 70.9993C81.0285 71.0116 81.0565 71.0176 81.0841 71.0176C81.1079 71.0176 81.1317 71.0133 81.1544 71.0042L81.627 70.8151C81.724 70.7764 81.7711 70.6663 81.7323 70.5694Z" fill="#383630"/>
</g>
<mask id="path-108-inside-9_335_4398" fill="white">
<path d="M84.572 76.8398H78.2702V87.3429H84.572V76.8398Z"/>
</mask>
<path d="M84.572 76.8398H78.2702V87.3429H84.572V76.8398Z" fill="#FAF5F0"/>
<path d="M78.2702 76.8398H78.0076V76.5773H78.2702V76.8398ZM84.572 77.1024H78.2702V76.5773H84.572V77.1024ZM78.5328 76.8398V87.3429H78.0076V76.8398H78.5328Z" fill="#383630" mask="url(#path-108-inside-9_335_4398)"/>
<line y1="-0.131288" x2="2.62577" y2="-0.131288" transform="matrix(1 0 0 -1 75.6445 78.9404)" stroke="#383630" stroke-width="0.262577"/>
<line y1="-0.131288" x2="3.15092" y2="-0.131288" transform="matrix(1 0 0 -1 70.3926 78.9404)" stroke="#383630" stroke-width="0.262577"/>
<line x1="70.2613" y1="87.3438" x2="70.2613" y2="78.9413" stroke="#383630" stroke-width="0.262577"/>
<path d="M75.243 83.1854C75.0516 83.1854 74.8965 83.0415 74.8965 82.8638C74.8965 82.6861 75.0516 82.542 75.243 82.542C75.4343 82.542 75.5896 82.6861 75.5896 82.8638C75.5896 83.0415 75.4343 83.1854 75.243 83.1854Z" fill="#383630"/>
<path d="M75.2432 83.2295C75.6581 83.2295 75.7786 83.3914 75.8293 84.0169C75.8338 84.0731 75.7884 84.1221 75.7279 84.1264C75.7251 84.1265 75.7223 84.1266 75.7195 84.1266C75.6626 84.1266 75.6144 84.0858 75.61 84.0322C75.5913 83.8013 75.5669 83.6597 75.5307 83.5726C75.5344 83.5899 75.5364 83.6077 75.5364 83.6259V84.0186C75.5364 84.0397 75.5336 84.0601 75.5287 84.0798V84.9422C75.5287 85.008 75.4713 85.0613 75.4004 85.0613C75.3296 85.0613 75.2721 85.008 75.2721 84.9422V84.2895C75.2626 84.2904 75.253 84.2908 75.2432 84.2908C75.2335 84.2908 75.2239 84.2904 75.2144 84.2895V84.9422C75.2144 85.008 75.157 85.0613 75.0861 85.0613C75.0153 85.0613 74.9579 85.008 74.9579 84.9422V84.0803C74.9529 84.0605 74.9501 84.0399 74.9501 84.0186V83.6259C74.9501 83.6077 74.9521 83.5899 74.9557 83.5727C74.9196 83.6598 74.8951 83.8014 74.8765 84.0322C74.8719 84.0884 74.8191 84.1305 74.7586 84.1264C74.6981 84.1221 74.6527 84.0731 74.6572 84.0169C74.7078 83.3914 74.8283 83.2295 75.2432 83.2295Z" fill="#383630"/>
<path d="M73.944 83.1854C73.7527 83.1854 73.5974 83.0415 73.5974 82.8638C73.5974 82.6861 73.7527 82.542 73.944 82.542C74.1354 82.542 74.2905 82.6861 74.2905 82.8638C74.2905 83.0415 74.1354 83.1854 73.944 83.1854Z" fill="#383630"/>
<path d="M73.9439 83.2295C74.3589 83.2295 74.4794 83.3914 74.53 84.0169C74.5345 84.0731 74.4891 84.1221 74.4286 84.1264C74.4258 84.1265 74.423 84.1266 74.4202 84.1266C74.3632 84.1266 74.315 84.0858 74.3107 84.0322C74.293 83.8137 74.2702 83.6752 74.2371 83.5871V83.8992L74.3462 84.3545C74.3483 84.3634 74.346 84.3726 74.3399 84.3797C74.3338 84.3868 74.3245 84.3909 74.3148 84.3909H74.2293V84.9422C74.2293 85.008 74.1719 85.0613 74.1011 85.0613C74.0302 85.0613 73.9728 85.008 73.9728 84.9422V84.3909H73.915V84.9422C73.915 85.008 73.8576 85.0613 73.7868 85.0613C73.7159 85.0613 73.6585 85.008 73.6585 84.9422V84.3909H73.573C73.5729 84.3909 73.5728 84.3909 73.5726 84.3909C73.5548 84.3909 73.5404 84.3775 73.5404 84.361C73.5404 84.3572 73.5412 84.3535 73.5426 84.3502L73.6508 83.8989V83.5869C73.6177 83.675 73.5948 83.8135 73.5771 84.0322C73.5726 84.0884 73.5198 84.1306 73.4593 84.1264C73.3987 84.1222 73.3533 84.0731 73.3579 84.0169C73.4085 83.3914 73.529 83.2295 73.9439 83.2295Z" fill="#383630"/>
<path d="M73.1123 81.8047H76.0756C76.4092 81.8047 76.6807 82.0567 76.6807 82.3665V85.1181C76.6807 85.428 76.4092 85.68 76.0756 85.68H73.1123C72.7787 85.68 72.5072 85.428 72.5072 85.1181V82.3665C72.5073 82.0567 72.7787 81.8047 73.1123 81.8047ZM72.8795 85.1181C72.8795 85.2374 72.9839 85.3343 73.1123 85.3343H76.0756C76.204 85.3343 76.3084 85.2374 76.3084 85.1181V82.3665C76.3084 82.2474 76.204 82.1504 76.0756 82.1504H73.1123C72.9839 82.1504 72.8795 82.2473 72.8795 82.3665V85.1181H72.8795Z" fill="#383630"/>
<path d="M75.4837 80.7174C75.4655 80.7006 75.4473 80.6837 75.4292 80.6668V81.2985C75.4292 81.327 75.4301 81.355 75.4209 81.3827C75.3959 81.4577 75.317 81.5084 75.2326 81.5041C75.1487 81.4998 75.0763 81.4413 75.0603 81.3647C75.0553 81.3409 75.0569 81.3159 75.0569 81.2918V80.6668C75.0135 80.7071 74.9736 80.7514 74.9105 80.7641C74.8156 80.7833 74.7179 80.729 74.6916 80.6421C74.6727 80.5798 74.6938 80.5151 74.7425 80.4698L75.1114 80.1274C75.1686 80.0742 75.2593 80.0618 75.3308 80.0972C75.3603 80.1119 75.3826 80.1347 75.4059 80.1564L75.7327 80.4599C75.7489 80.4749 75.7646 80.4898 75.7763 80.5085C75.8059 80.5557 75.8094 80.6147 75.7858 80.6647C75.734 80.7743 75.5747 80.802 75.4837 80.7174Z" fill="#383630"/>
<path d="M74.0758 81.4542C74.0185 81.5073 73.9278 81.5197 73.8564 81.4844C73.8268 81.4697 73.8046 81.4468 73.7812 81.4251L73.4544 81.1217C73.4382 81.1066 73.4225 81.0917 73.4108 81.0731C73.3813 81.0258 73.3778 80.9668 73.4014 80.9168C73.4532 80.8072 73.6125 80.7795 73.7035 80.8641C73.7217 80.8809 73.7398 80.8978 73.758 80.9147V80.283C73.758 80.2545 73.7571 80.2266 73.7663 80.1989C73.7913 80.1239 73.8702 80.0731 73.9545 80.0774C74.0385 80.0817 74.1108 80.1402 74.1268 80.2169C74.1318 80.2406 74.1303 80.2656 74.1303 80.2897V80.9147C74.1737 80.8744 74.2136 80.8302 74.2766 80.8174C74.3716 80.7983 74.4693 80.8525 74.4956 80.9394C74.5145 81.0017 74.4933 81.0665 74.4446 81.1117L74.0758 81.4542Z" fill="#383630"/>
<g clip-path="url(#clip10_335_4398)">
<path d="M80.9834 83.1304L80.1523 83.1311C80.0277 83.1312 79.9446 83.2144 79.9448 83.339C79.9449 83.4637 80.028 83.5467 80.1527 83.5466L80.776 83.5461L80.7765 84.1694C80.7766 84.2941 80.8598 84.3771 80.9845 84.377L81.6078 84.3765L81.6083 84.9998C81.6084 85.1245 81.6916 85.2075 81.8162 85.2074L82.4396 85.2069L82.4401 85.8302C82.4402 85.9548 82.5234 86.0379 82.648 86.0378L83.4791 86.0371C83.6038 86.037 83.6868 85.9538 83.6867 85.8291C83.6866 85.7045 83.6034 85.6214 83.4788 85.6215L82.8554 85.6221L82.8549 84.9987C82.8548 84.8741 82.7716 84.791 82.647 84.7912L82.0237 84.7917L82.0231 84.1684C82.023 84.0437 81.9399 83.9607 81.8152 83.9608L81.1919 83.9613L81.1914 83.338C81.1913 83.2133 81.1081 83.1303 80.9834 83.1304Z" fill="#383630"/>
</g>
<path d="M0.547363 13.5586H-5.75447V18.4475H0.547363V13.5586Z" fill="#FAF5F0"/>
<line y1="-0.131288" x2="2.62577" y2="-0.131288" transform="matrix(-1 0 0 1 78.2703 87.3438)" stroke="#383630" stroke-width="0.262577"/>
<line x1="78.1899" y1="87.2143" x2="70.3126" y2="87.2143" stroke="#383630" stroke-width="0.262577"/>
<line x1="110.961" y1="77.3652" x2="110.961" y2="88.3934" stroke="#383630" stroke-width="0.262577"/>
<line x1="110.961" y1="92.0684" x2="110.961" y2="103.097" stroke="#383630" stroke-width="0.262577"/>
<line x1="9.34345" y1="78.415" x2="9.34345" y2="88.9181" stroke="#383630" stroke-width="0.262577"/>
<line x1="9.34345" y1="92.5928" x2="9.34345" y2="103.621" stroke="#383630" stroke-width="0.262577"/>
<line x1="9.47534" y1="78.5444" x2="-0.877679" y2="78.5444" stroke="#383630" stroke-width="0.262577"/>
<line x1="9.47534" y1="29.7094" x2="-0.877679" y2="29.7094" stroke="#383630" stroke-width="0.262577"/>
<path d="M59.4422 114.824V98.7578H55.6802" stroke="#346B8A"/>
<circle cx="59.3969" cy="98.8954" r="4.4911" fill="#DA4F64"/>
</g>
<rect x="0.99286" y="0.99286" width="114.933" height="114.933" rx="57.4666" stroke="black" stroke-width="1.98572"/>
</g>
<defs>
<filter id="filter0_d_335_4398" x="0" y="0" width="125.919" height="130.919" filterUnits="userSpaceOnUse" color-interpolation-filters="sRGB">
<feFlood flood-opacity="0" result="BackgroundImageFix"/>
<feColorMatrix in="SourceAlpha" type="matrix" values="0 0 0 0 0 0 0 0 0 0 0 0 0 0 0 0 0 0 127 0" result="hardAlpha"/>
<feOffset dx="5" dy="10"/>
<feGaussianBlur stdDeviation="2"/>
<feComposite in2="hardAlpha" operator="out"/>
<feColorMatrix type="matrix" values="0 0 0 0 0 0 0 0 0 0 0 0 0 0 0 0 0 0 0.25 0"/>
<feBlend mode="normal" in2="BackgroundImageFix" result="effect1_dropShadow_335_4398"/>
<feBlend mode="normal" in="SourceGraphic" in2="effect1_dropShadow_335_4398" result="shape"/>
</filter>
<clipPath id="clip0_335_4398">
<rect width="116.919" height="116.919" rx="58.4595" fill="white"/>
</clipPath>
<clipPath id="clip1_335_4398">
<rect width="3.67607" height="3.67607" fill="white" transform="translate(79.3201 97.3203)"/>
</clipPath>
<clipPath id="clip2_335_4398">
<rect width="3.67607" height="3.67607" fill="white" transform="translate(70.3926 61.6074) rotate(-90)"/>
</clipPath>
<clipPath id="clip3_335_4398">
<rect width="3.67607" height="3.67607" fill="white" transform="translate(71.4429 97.3203)"/>
</clipPath>
<clipPath id="clip4_335_4398">
<rect width="5.25153" height="5.25153" fill="white" transform="translate(77.0969 59.5586)"/>
</clipPath>
<clipPath id="clip5_335_4398">
<rect width="4.98647" height="4.98647" fill="white" transform="matrix(1 -0.000840325 -0.000840325 -1 47.312 93.3838)"/>
</clipPath>
<clipPath id="clip6_335_4398">
<rect width="4.98647" height="4.98647" fill="white" transform="translate(70.936 93.3809) rotate(-180)"/>
</clipPath>
<clipPath id="clip7_335_4398">
<rect width="4.72638" height="4.72638" fill="white" transform="translate(51.8406 96.1455)"/>
</clipPath>
<clipPath id="clip8_335_4398">
<rect width="4.98896" height="4.98896" fill="white" transform="translate(41.2153 87.6191) rotate(-179.952)"/>
</clipPath>
<clipPath id="clip9_335_4398">
<rect width="4.72638" height="4.72638" fill="white" transform="translate(77.2085 66.8613)"/>
</clipPath>
<clipPath id="clip10_335_4398">
<rect width="4.98647" height="4.98647" fill="white" transform="matrix(1 -0.000840325 -0.000840325 -1 79.3245 87.083)"/>
</clipPath>
</defs>
</svg>
