<svg width="117" height="117" viewBox="0 0 117 117" fill="none" xmlns="http://www.w3.org/2000/svg">
<g clip-path="url(#clip0_335_3501)">
<rect width="116.919" height="116.919" rx="58.4595" fill="white"/>
<rect x="120.826" y="36.7178" width="3.16621" height="53.6865" transform="rotate(90 120.826 36.7178)" fill="#AEAEAE"/>
<rect x="67.8083" y="37.3779" width="2" height="15.7571" transform="rotate(90 67.8083 37.3779)" fill="#AEAEAE"/>
<rect x="52.8188" y="37.5312" width="2" height="18.1212" transform="rotate(112.569 52.8188 37.5312)" fill="#AEAEAE"/>
<rect x="-0.376465" y="60.4834" width="2" height="56.915" transform="rotate(-65 -0.376465 60.4834)" fill="#AEAEAE"/>
<rect x="31.092" y="39.4453" width="3.16621" height="99.7874" transform="rotate(-65 31.092 39.4453)" fill="#AEAEAE"/>
<rect x="51.8899" y="-7.31055" width="3.16621" height="108.489" transform="rotate(25 51.8899 -7.31055)" fill="#AEAEAE"/>
<rect x="82.3662" y="-34.4512" width="3.16621" height="93.2808" transform="rotate(12.4617 82.3662 -34.4512)" fill="#AEAEAE"/>
<rect x="62.4595" y="55.9619" width="3.16621" height="70.2745" transform="rotate(25 62.4595 55.9619)" fill="#AEAEAE"/>
<rect x="16.5759" y="16.2549" width="3.16621" height="86.4774" transform="rotate(-86.928 16.5759 16.2549)" fill="#AEAEAE"/>
<path d="M70.4981 134.021L46.0251 102.805L53.2671 88.0713L85.4816 105.552V134.021H70.4981Z" fill="#F1E5CF"/>
<rect x="4.60986" y="102.486" width="20.5398" height="27.0147" transform="rotate(-65 4.60986 102.486)" fill="#F1E5CF"/>
<rect x="58.4595" y="81.3379" width="20.5398" height="27.0147" transform="rotate(-65 58.4595 81.3379)" fill="#F1E5CF"/>
<rect x="22.4321" y="67.9453" width="18.5446" height="27.0147" transform="rotate(-65 22.4321 67.9453)" fill="#D4F1CF"/>
<rect x="14.6738" y="82.8223" width="13.3076" height="27.0147" transform="rotate(-65 14.6738 82.8223)" fill="#D4F1CF"/>
<g clip-path="url(#clip1_335_3501)">
<path d="M21.7935 69.8369C17.4266 69.8369 13.8779 73.3857 13.8779 77.7524C13.8779 79.23 14.287 80.668 15.0653 81.9081L21.2569 92.0406C21.3625 92.2121 21.5208 92.3177 21.7056 92.3441C21.9561 92.3836 22.2333 92.2781 22.3784 92.0275L28.5877 81.8026C29.3264 80.5889 29.709 79.1773 29.709 77.7524C29.709 73.3857 26.1603 69.8369 21.7935 69.8369ZM21.7935 81.7102C19.5772 81.7102 17.8357 79.916 17.8357 77.7524C17.8357 75.5756 19.6166 73.7947 21.7935 73.7947C23.9703 73.7947 25.7512 75.5756 25.7512 77.7524C25.7512 79.9028 24.0362 81.7102 21.7935 81.7102Z" fill="#FD003A"/>
<path d="M21.7937 69.8369V73.7947C23.9705 73.7947 25.7515 75.5756 25.7515 77.7524C25.7515 79.9028 24.0364 81.7102 21.7937 81.7102V92.3518C22.0188 92.357 22.2503 92.2491 22.3786 92.0275L28.5879 81.8026C29.3266 80.5889 29.7092 79.1773 29.7092 77.7524C29.7092 73.3857 26.1605 69.8369 21.7937 69.8369Z" fill="#E50027"/>
</g>
<rect x="149.942" y="128.231" width="3.16621" height="107.955" transform="rotate(115.149 149.942 128.231)" fill="#AEAEAE"/>
<circle cx="85.4816" cy="14.6903" r="4.4911" fill="#DA4F64"/>
<path d="M25.5752 89.826L32.8502 75.1329L51.1098 83.9773L64.8043 53.8778L72.0795 18.5L86.0594 19.6414" stroke="#9CD8FA" stroke-width="1.10369"/>
</g>
<rect x="0.99286" y="0.99286" width="114.933" height="114.933" rx="57.4666" stroke="black" stroke-width="1.98572"/>
<defs>
<clipPath id="clip0_335_3501">
<rect width="116.919" height="116.919" rx="58.4595" fill="white"/>
</clipPath>
<clipPath id="clip1_335_3501">
<rect width="22.5153" height="22.5153" fill="white" transform="translate(13.8779 69.8369)"/>
</clipPath>
</defs>
</svg>
