<svg width="118" height="118" viewBox="0 0 118 118" fill="none" xmlns="http://www.w3.org/2000/svg">
<g clip-path="url(#clip0_611_10872)">
<rect x="0.540527" y="0.618164" width="116.919" height="116.919" rx="58.4595" fill="white"/>
<rect x="121.367" y="37.3359" width="3.16621" height="53.6865" transform="rotate(90 121.367 37.3359)" fill="#AEAEAE"/>
<rect x="68.3489" y="37.9961" width="2" height="15.7571" transform="rotate(90 68.3489 37.9961)" fill="#AEAEAE"/>
<rect x="53.3594" y="38.1494" width="2" height="18.1212" transform="rotate(112.569 53.3594 38.1494)" fill="#AEAEAE"/>
<rect x="0.164307" y="61.1016" width="2" height="56.915" transform="rotate(-65 0.164307 61.1016)" fill="#AEAEAE"/>
<rect x="31.6326" y="40.0635" width="3.16621" height="99.7874" transform="rotate(-65 31.6326 40.0635)" fill="#AEAEAE"/>
<rect x="52.4304" y="-6.69238" width="3.16621" height="108.489" transform="rotate(25 52.4304 -6.69238)" fill="#AEAEAE"/>
<rect x="82.9067" y="-33.833" width="3.16621" height="93.2808" transform="rotate(12.4617 82.9067 -33.833)" fill="#AEAEAE"/>
<rect x="63" y="56.5801" width="3.16621" height="70.2745" transform="rotate(25 63 56.5801)" fill="#AEAEAE"/>
<rect x="17.1165" y="16.873" width="3.16621" height="86.4774" transform="rotate(-86.928 17.1165 16.873)" fill="#AEAEAE"/>
<path d="M71.0386 134.639L46.5657 103.423L53.8077 88.6895L86.0221 106.17V134.639H71.0386Z" fill="#F1E5CF"/>
<rect x="5.15039" y="103.104" width="20.5398" height="27.0147" transform="rotate(-65 5.15039 103.104)" fill="#F1E5CF"/>
<rect x="59" y="81.9561" width="20.5398" height="27.0147" transform="rotate(-65 59 81.9561)" fill="#F1E5CF"/>
<rect x="22.9727" y="68.5635" width="18.5446" height="27.0147" transform="rotate(-65 22.9727 68.5635)" fill="#D4F1CF"/>
<rect x="15.2144" y="83.4404" width="13.3076" height="27.0147" transform="rotate(-65 15.2144 83.4404)" fill="#D4F1CF"/>
<g clip-path="url(#clip1_611_10872)">
<path d="M22.334 70.4551C17.9672 70.4551 14.4185 74.0039 14.4185 78.3706C14.4185 79.8482 14.8275 81.2862 15.6058 82.5263L21.7974 92.6588C21.903 92.8303 22.0613 92.9359 22.2461 92.9623C22.4967 93.0018 22.7738 92.8963 22.9189 92.6457L29.1282 82.4207C29.8669 81.2071 30.2495 79.7954 30.2495 78.3706C30.2495 74.0039 26.7008 70.4551 22.334 70.4551ZM22.334 82.3284C20.1177 82.3284 18.3762 80.5342 18.3762 78.3706C18.3762 76.1938 20.1572 74.4128 22.334 74.4128C24.5108 74.4128 26.2918 76.1938 26.2918 78.3706C26.2918 80.521 24.5767 82.3284 22.334 82.3284Z" fill="#FD003A"/>
<path d="M22.3342 70.4551V74.4128C24.511 74.4128 26.292 76.1938 26.292 78.3706C26.292 80.521 24.5769 82.3284 22.3342 82.3284V92.97C22.5593 92.9752 22.7908 92.8673 22.9191 92.6457L29.1284 82.4207C29.8671 81.2071 30.2498 79.7954 30.2498 78.3706C30.2498 74.0039 26.7011 70.4551 22.3342 70.4551Z" fill="#E50027"/>
</g>
<rect x="150.483" y="128.85" width="3.16621" height="107.955" transform="rotate(115.149 150.483 128.85)" fill="#AEAEAE"/>
<path d="M26.292 89.9803L33.567 75.2872L51.8266 84.1316L65.5211 54.0321L72.7963 18.6543L86.7762 19.7957" stroke="#9CD8FA" stroke-width="1.10369"/>
<circle cx="73.0297" cy="21.5077" r="4.4911" fill="#DA4F64"/>
</g>
<rect x="1.53339" y="1.61102" width="114.933" height="114.933" rx="57.4666" stroke="black" stroke-width="1.98572"/>
<defs>
<clipPath id="clip0_611_10872">
<rect x="0.540527" y="0.618164" width="116.919" height="116.919" rx="58.4595" fill="white"/>
</clipPath>
<clipPath id="clip1_611_10872">
<rect width="22.5153" height="22.5153" fill="white" transform="translate(14.4185 70.4551)"/>
</clipPath>
</defs>
</svg>
