<svg width="117" height="118" viewBox="0 0 117 118" fill="none" xmlns="http://www.w3.org/2000/svg">
<g clip-path="url(#clip0_611_10894)">
<rect y="0.618164" width="116.919" height="116.919" rx="58.4595" fill="white"/>
<rect x="120.826" y="37.3359" width="3.16621" height="53.6865" transform="rotate(90 120.826 37.3359)" fill="#AEAEAE"/>
<rect x="67.8083" y="37.9961" width="2" height="15.7571" transform="rotate(90 67.8083 37.9961)" fill="#AEAEAE"/>
<rect x="52.8188" y="38.1494" width="2" height="18.1212" transform="rotate(112.569 52.8188 38.1494)" fill="#AEAEAE"/>
<rect x="-0.376221" y="61.1016" width="2" height="56.915" transform="rotate(-65 -0.376221 61.1016)" fill="#AEAEAE"/>
<rect x="31.092" y="40.0635" width="3.16621" height="99.7874" transform="rotate(-65 31.092 40.0635)" fill="#AEAEAE"/>
<rect x="51.8899" y="-6.69238" width="3.16621" height="108.489" transform="rotate(25 51.8899 -6.69238)" fill="#AEAEAE"/>
<rect x="82.3662" y="-33.833" width="3.16621" height="93.2808" transform="rotate(12.4617 82.3662 -33.833)" fill="#AEAEAE"/>
<rect x="62.4595" y="56.5801" width="3.16621" height="70.2745" transform="rotate(25 62.4595 56.5801)" fill="#AEAEAE"/>
<rect x="16.5759" y="16.873" width="3.16621" height="86.4774" transform="rotate(-86.928 16.5759 16.873)" fill="#AEAEAE"/>
<path d="M70.4981 134.639L46.0251 103.423L53.2671 88.6895L85.4816 106.17V134.639H70.4981Z" fill="#F1E5CF"/>
<rect x="4.60986" y="103.104" width="20.5398" height="27.0147" transform="rotate(-65 4.60986 103.104)" fill="#F1E5CF"/>
<rect x="58.4595" y="81.9561" width="20.5398" height="27.0147" transform="rotate(-65 58.4595 81.9561)" fill="#F1E5CF"/>
<rect x="22.4321" y="68.5635" width="18.5446" height="27.0147" transform="rotate(-65 22.4321 68.5635)" fill="#D4F1CF"/>
<rect x="14.6738" y="83.4404" width="13.3076" height="27.0147" transform="rotate(-65 14.6738 83.4404)" fill="#D4F1CF"/>
<g clip-path="url(#clip1_611_10894)">
<path d="M21.7935 70.4551C17.4266 70.4551 13.8779 74.0039 13.8779 78.3706C13.8779 79.8482 14.287 81.2862 15.0653 82.5263L21.2569 92.6588C21.3625 92.8303 21.5208 92.9359 21.7056 92.9623C21.9561 93.0018 22.2333 92.8963 22.3784 92.6457L28.5877 82.4207C29.3264 81.2071 29.709 79.7954 29.709 78.3706C29.709 74.0039 26.1603 70.4551 21.7935 70.4551ZM21.7935 82.3284C19.5772 82.3284 17.8357 80.5342 17.8357 78.3706C17.8357 76.1938 19.6166 74.4128 21.7935 74.4128C23.9703 74.4128 25.7512 76.1938 25.7512 78.3706C25.7512 80.521 24.0362 82.3284 21.7935 82.3284Z" fill="#FD003A"/>
<path d="M21.7937 70.4551V74.4128C23.9705 74.4128 25.7515 76.1938 25.7515 78.3706C25.7515 80.521 24.0364 82.3284 21.7937 82.3284V92.97C22.0188 92.9752 22.2503 92.8673 22.3786 92.6457L28.5879 82.4207C29.3266 81.2071 29.7092 79.7954 29.7092 78.3706C29.7092 74.0039 26.1605 70.4551 21.7937 70.4551Z" fill="#E50027"/>
</g>
<rect x="149.942" y="128.85" width="3.16621" height="107.955" transform="rotate(115.149 149.942 128.85)" fill="#AEAEAE"/>
<path d="M25.7515 90.0887L33.0265 75.3956L51.2861 84.24L64.9805 54.1405L72.2558 18.7627L86.2356 19.904" stroke="#9CD8FA" stroke-width="1.10369"/>
<circle cx="65.7533" cy="47.6298" r="4.4911" fill="#DA4F64"/>
</g>
<rect x="0.99286" y="1.61102" width="114.933" height="114.933" rx="57.4666" stroke="black" stroke-width="1.98572"/>
<defs>
<clipPath id="clip0_611_10894">
<rect y="0.618164" width="116.919" height="116.919" rx="58.4595" fill="white"/>
</clipPath>
<clipPath id="clip1_611_10894">
<rect width="22.5153" height="22.5153" fill="white" transform="translate(13.8779 70.4551)"/>
</clipPath>
</defs>
</svg>
