<svg width="117" height="117" viewBox="0 0 117 117" fill="none" xmlns="http://www.w3.org/2000/svg">
<g clip-path="url(#clip0_611_10916)">
<rect x="0.0585938" width="116.919" height="116.919" rx="58.4595" fill="white"/>
<rect x="120.885" y="36.7178" width="3.16621" height="53.6865" transform="rotate(90 120.885 36.7178)" fill="#AEAEAE"/>
<rect x="67.8671" y="37.3779" width="2" height="15.7571" transform="rotate(90 67.8671 37.3779)" fill="#AEAEAE"/>
<rect x="52.8776" y="37.5312" width="2" height="18.1212" transform="rotate(112.569 52.8776 37.5312)" fill="#AEAEAE"/>
<rect x="-0.317627" y="60.4834" width="2" height="56.915" transform="rotate(-65 -0.317627 60.4834)" fill="#AEAEAE"/>
<rect x="31.1508" y="39.4453" width="3.16621" height="99.7874" transform="rotate(-65 31.1508 39.4453)" fill="#AEAEAE"/>
<rect x="51.9486" y="-7.31055" width="3.16621" height="108.489" transform="rotate(25 51.9486 -7.31055)" fill="#AEAEAE"/>
<rect x="82.4248" y="-34.4512" width="3.16621" height="93.2808" transform="rotate(12.4617 82.4248 -34.4512)" fill="#AEAEAE"/>
<rect x="62.5181" y="55.9619" width="3.16621" height="70.2745" transform="rotate(25 62.5181 55.9619)" fill="#AEAEAE"/>
<rect x="16.6345" y="16.2549" width="3.16621" height="86.4774" transform="rotate(-86.928 16.6345 16.2549)" fill="#AEAEAE"/>
<path d="M70.5567 134.021L46.0837 102.805L53.3257 88.0713L85.5401 105.552V134.021H70.5567Z" fill="#F1E5CF"/>
<rect x="4.66846" y="102.486" width="20.5398" height="27.0147" transform="rotate(-65 4.66846 102.486)" fill="#F1E5CF"/>
<rect x="58.5181" y="81.3379" width="20.5398" height="27.0147" transform="rotate(-65 58.5181 81.3379)" fill="#F1E5CF"/>
<rect x="22.4907" y="67.9453" width="18.5446" height="27.0147" transform="rotate(-65 22.4907 67.9453)" fill="#D4F1CF"/>
<rect x="14.7323" y="82.8223" width="13.3076" height="27.0147" transform="rotate(-65 14.7323 82.8223)" fill="#D4F1CF"/>
<g clip-path="url(#clip1_611_10916)">
<path d="M21.8521 69.8369C17.4852 69.8369 13.9365 73.3857 13.9365 77.7524C13.9365 79.23 14.3456 80.668 15.1239 81.9081L21.3155 92.0406C21.4211 92.2121 21.5794 92.3177 21.7641 92.3441C22.0147 92.3836 22.2919 92.2781 22.437 92.0275L28.6463 81.8026C29.385 80.5889 29.7676 79.1773 29.7676 77.7524C29.7676 73.3857 26.2189 69.8369 21.8521 69.8369ZM21.8521 81.7102C19.6358 81.7102 17.8943 79.916 17.8943 77.7524C17.8943 75.5756 19.6752 73.7947 21.8521 73.7947C24.0289 73.7947 25.8098 75.5756 25.8098 77.7524C25.8098 79.9028 24.0947 81.7102 21.8521 81.7102Z" fill="#FD003A"/>
<path d="M21.8523 69.8369V73.7947C24.0291 73.7947 25.8101 75.5756 25.8101 77.7524C25.8101 79.9028 24.095 81.7102 21.8523 81.7102V92.3518C22.0774 92.357 22.3089 92.2491 22.4372 92.0275L28.6465 81.8026C29.3852 80.5889 29.7678 79.1773 29.7678 77.7524C29.7678 73.3857 26.2191 69.8369 21.8523 69.8369Z" fill="#E50027"/>
</g>
<rect x="150.001" y="128.231" width="3.16621" height="107.955" transform="rotate(115.149 150.001 128.231)" fill="#AEAEAE"/>
<path d="M25.8962 89.3817L33.1713 74.6885L51.4308 83.533L65.1253 53.4334L72.4006 18.0557L86.3804 19.197" stroke="#9CD8FA" stroke-width="1.10369"/>
<circle cx="53.5942" cy="77.1259" r="4.4911" fill="#DA4F64"/>
</g>
<rect x="1.05145" y="0.99286" width="114.933" height="114.933" rx="57.4666" stroke="black" stroke-width="1.98572"/>
<defs>
<clipPath id="clip0_611_10916">
<rect x="0.0585938" width="116.919" height="116.919" rx="58.4595" fill="white"/>
</clipPath>
<clipPath id="clip1_611_10916">
<rect width="22.5153" height="22.5153" fill="white" transform="translate(13.9365 69.8369)"/>
</clipPath>
</defs>
</svg>
