<svg width="28" height="28" viewBox="0 0 28 28" fill="none" xmlns="http://www.w3.org/2000/svg">
<g id="accessibility-2 1" clip-path="url(#clip0_113_1210)">
<g id="Group">
<path id="Vector" d="M13.6455 6.11963C15.275 6.11963 16.5986 4.796 16.5986 3.1665C16.5986 1.53701 15.275 0.213379 13.6455 0.213379C12.016 0.213379 10.6924 1.53701 10.6924 3.1665C10.6924 4.796 12.016 6.11963 13.6455 6.11963Z" fill="#383630" fill-opacity="0.8"/>
<path id="Vector_2" d="M22.9271 6.16185L22.9008 6.16713L22.8797 6.1724C22.827 6.18822 22.7742 6.20404 22.7215 6.21986C21.7406 6.5099 16.9787 7.84935 13.6195 7.84935C10.5029 7.84935 6.16816 6.6892 4.78125 6.29369C4.64414 6.24096 4.50176 6.19349 4.35937 6.15658C3.35742 5.89291 2.67188 6.91068 2.67188 7.83881C2.67188 8.76166 3.4998 9.19935 4.33301 9.51576V9.53158L9.35332 11.0978C9.86484 11.2929 10.002 11.4933 10.0705 11.6673C10.2867 12.2263 10.1127 13.3337 10.0547 13.7187L9.74883 16.0917L8.05605 25.3888C8.05078 25.4152 8.04551 25.4415 8.04023 25.4679L8.02969 25.5365C7.9084 26.3855 8.53066 27.2134 9.71719 27.2134C10.7508 27.2134 11.2096 26.5015 11.4047 25.5312C11.4047 25.5312 12.8812 17.2203 13.6195 17.2203C14.3578 17.2203 15.8766 25.5312 15.8766 25.5312C16.077 26.5015 16.5305 27.2134 17.5641 27.2134C18.7506 27.2134 19.3781 26.3855 19.2516 25.5312C19.241 25.4574 19.2252 25.3888 19.2094 25.315L17.4955 16.1023L17.1896 13.7292C16.9682 12.3476 17.1475 11.8888 17.2055 11.7833C17.2055 11.7833 17.2107 11.7781 17.2107 11.7728C17.2687 11.6673 17.5271 11.43 18.1336 11.2033L22.8428 9.55795C22.8691 9.55267 22.9008 9.54213 22.9271 9.53158C23.7709 9.21517 24.6146 8.77748 24.6146 7.84935C24.6146 6.92123 23.9291 5.89818 22.9271 6.16185Z" fill="#383630" fill-opacity="0.8"/>
</g>
</g>
<defs>
<clipPath id="clip0_113_1210">
<rect width="27" height="27" fill="white" transform="translate(0.145508 0.213379)"/>
</clipPath>
</defs>
</svg>
