<svg width="357" height="482" viewBox="0 0 357 482" fill="none" xmlns="http://www.w3.org/2000/svg">
<g clip-path="url(#clip0_111_1129)">
<rect width="352" height="352" transform="translate(0.198242 176.185) rotate(-30)" fill="#FAF5F0"/>
<path fill-rule="evenodd" clip-rule="evenodd" d="M166.795 105.405L42.9529 176.905C37.904 179.82 34.2043 184.631 32.7103 190.257C31.1864 195.904 31.9836 201.905 34.9004 206.957L177.9 454.64C183.976 465.164 197.442 468.761 207.953 462.693L398.479 352.693C408.989 346.625 412.607 333.164 406.531 322.64C387.958 290.47 340.531 208.325 340.531 208.325C338.507 204.819 334.007 203.624 330.514 205.641C327.021 207.658 325.805 212.153 327.829 215.658L393.829 329.974C395.855 333.483 394.67 337.956 391.145 339.991L200.62 449.991C197.095 452.026 192.628 450.816 190.602 447.307C164.18 401.543 74.0241 245.388 47.6021 199.624C46.6304 197.941 46.3644 195.939 46.8835 194.052C47.3709 192.183 48.6033 190.578 50.2863 189.606L174.128 118.106C177.621 116.09 178.836 111.594 176.812 108.089C174.788 104.583 170.288 103.388 166.795 105.405ZM197.786 375.417L327.979 300.25C331.472 298.234 332.687 293.738 330.663 290.233C328.639 286.727 324.138 285.532 320.645 287.549L190.453 362.715C186.96 364.732 185.745 369.227 187.769 372.733C189.793 376.238 194.293 377.434 197.786 375.417ZM177.619 340.487L307.812 265.321C311.305 263.304 312.52 258.809 310.496 255.303C308.472 251.797 303.972 250.602 300.479 252.619L170.286 327.786C166.793 329.802 165.578 334.297 167.602 337.803C169.626 341.309 174.127 342.504 177.619 340.487ZM174.032 198.606L116.874 231.606C113.381 233.623 112.166 238.118 114.19 241.624C116.214 245.129 120.714 246.324 124.207 244.308L146.435 231.474L183.102 294.983C185.126 298.489 189.626 299.684 193.119 297.667C196.612 295.651 197.828 291.155 195.804 287.65L159.137 224.141L181.365 211.308C184.858 209.291 186.073 204.796 184.049 201.29C182.025 197.785 177.525 196.589 174.032 198.606ZM225.97 270.233L289.479 233.566C292.972 231.55 294.187 227.054 292.163 223.549C290.139 220.043 285.638 218.848 282.145 220.865L218.637 257.531C215.144 259.548 213.929 264.043 215.953 267.549C217.977 271.054 222.477 272.25 225.97 270.233ZM310.137 112.853C307.777 110.892 304.44 110.613 301.804 112.135C299.137 113.675 297.711 116.704 298.229 119.728L302.472 144.532L286.388 163.899C284.445 166.253 284.164 169.582 285.699 172.24C287.233 174.898 290.256 176.32 293.267 175.814L318.081 171.568L337.44 187.644C339.8 189.605 343.137 189.885 345.804 188.345C348.44 186.823 349.866 183.794 349.348 180.769L345.104 155.966L361.189 136.599C363.164 134.227 363.444 130.898 361.909 128.24C360.375 125.582 357.352 124.16 354.31 124.685L329.495 128.931L310.137 112.853ZM225.102 228.395L250.505 213.729C253.998 211.712 255.213 207.217 253.189 203.711C251.165 200.206 246.665 199.01 243.172 201.027L217.768 215.694C214.275 217.71 213.06 222.206 215.084 225.711C217.108 229.217 221.609 230.412 225.102 228.395ZM316.036 136.786L322.729 142.363C324.368 143.737 326.556 144.299 328.642 143.954L337.236 142.485L331.667 149.193C330.325 150.828 329.718 153.003 330.088 155.11L331.572 163.694L324.848 158.135C323.208 156.761 321.053 156.181 318.934 156.545L310.34 158.013L315.909 151.305C317.283 149.652 317.858 147.495 317.489 145.389L316.036 136.786ZM205.439 63.2194C203.079 61.2583 199.742 60.9787 197.075 62.5187C194.408 64.0587 192.982 67.0879 193.5 70.1123L202.07 120.23L169.612 159.344C167.637 161.716 167.357 165.045 168.891 167.703C170.426 170.361 173.448 171.782 176.491 171.258L226.593 162.705L265.711 195.186C268.071 197.147 271.408 197.427 274.075 195.887C276.742 194.347 278.169 191.317 277.65 188.293L269.08 138.175L301.538 99.0616C303.513 96.6892 303.794 93.3605 302.259 90.7027C300.725 88.0448 297.702 86.6231 294.66 87.1473L244.557 95.7005L205.439 63.2194ZM211.307 87.1696L237.791 109.133C239.43 110.507 241.586 111.087 243.704 110.724L277.618 104.929L255.643 131.402C254.269 133.055 253.694 135.212 254.063 137.319L259.843 171.236L233.36 149.272C231.72 147.898 229.564 147.318 227.446 147.682L193.532 153.476L215.507 127.003C216.881 125.35 217.456 123.194 217.087 121.087L211.307 87.1696ZM206.768 196.641L219.47 189.308C222.963 187.291 224.178 182.796 222.154 179.29C220.13 175.785 215.63 174.589 212.137 176.606L199.435 183.939C195.942 185.956 194.727 190.451 196.751 193.957C198.775 197.463 203.275 198.658 206.768 196.641ZM260.715 55.4134L254.364 59.08C250.871 61.0967 249.656 65.5919 251.68 69.0976C253.704 72.6032 258.205 73.7984 261.698 71.7817L268.049 68.1151L271.715 74.4659C273.739 77.9716 278.24 79.1668 281.733 77.1501C285.226 75.1335 286.441 70.6383 284.417 67.1326L280.75 60.7817L287.101 57.1151C290.594 55.0984 291.809 50.6032 289.785 47.0976C287.761 43.5919 283.261 42.3967 279.768 44.4134L273.417 48.08L269.75 41.7292C267.726 38.2235 263.226 37.0283 259.733 39.045C256.24 41.0617 255.025 45.5569 257.049 49.0625L260.715 55.4134Z" fill="#180F06" fill-opacity="0.16"/>
</g>
<defs>
<clipPath id="clip0_111_1129">
<rect width="352" height="352" fill="white" transform="translate(0.198242 176.185) rotate(-30)"/>
</clipPath>
</defs>
</svg>
