<svg width="29" height="40" viewBox="0 0 29 40" fill="none" xmlns="http://www.w3.org/2000/svg">
<g clip-path="url(#clip0_735_5381)">
<mask id="mask0_735_5381" style="mask-type:luminance" maskUnits="userSpaceOnUse" x="0" y="0" width="40" height="40">
<path d="M24.7786 0.0152849L0.015625 14.6211L14.3125 39.9191L39.0755 25.3133L24.7786 0.0152849Z" fill="white"/>
</mask>
<g mask="url(#mask0_735_5381)">
<path fill-rule="evenodd" clip-rule="evenodd" d="M13.5483 8.74704L3.48831 14.6807C3.07817 14.9226 2.77763 15.3218 2.65627 15.7887C2.53248 16.2573 2.59724 16.7553 2.83418 17.1746L14.4504 37.7292C14.944 38.6026 16.0378 38.9011 16.8917 38.3975L32.3686 29.2689C33.2223 28.7653 33.5162 27.6482 33.0227 26.7748C31.5139 24.1051 27.6613 17.2881 27.6613 17.2881C27.4969 16.9972 27.1314 16.898 26.8476 17.0654C26.5639 17.2328 26.4651 17.6058 26.6295 17.8967L31.9908 27.3835C32.1554 27.6747 32.0592 28.0459 31.7728 28.2148L16.296 37.3434C16.0097 37.5123 15.6468 37.4119 15.4822 37.1207C13.3359 33.3228 6.0123 20.3639 3.86597 16.566C3.78704 16.4264 3.76543 16.2602 3.8076 16.1036C3.84719 15.9485 3.9473 15.8153 4.08402 15.7347L14.144 9.80107C14.4277 9.63376 14.5264 9.26065 14.362 8.96978C14.1976 8.67882 13.8321 8.57965 13.5483 8.74704ZM16.0658 31.1547L26.6417 24.9168C26.9254 24.7494 27.0241 24.3763 26.8597 24.0855C26.6953 23.7945 26.3297 23.6953 26.0459 23.8627L15.4701 30.1006C15.1864 30.268 15.0877 30.641 15.2521 30.9319C15.4165 31.2228 15.782 31.3221 16.0658 31.1547ZM14.4276 28.2559L25.0035 22.0181C25.2872 21.8507 25.3859 21.4777 25.2215 21.1867C25.0571 20.8958 24.6915 20.7966 24.4078 20.964L13.8319 27.2019C13.5481 27.3692 13.4494 27.7422 13.6139 28.0332C13.7783 28.3241 14.1439 28.4233 14.4276 28.2559ZM14.1362 16.4816L9.4931 19.2202C9.20936 19.3875 9.11066 19.7606 9.27507 20.0515C9.43949 20.3424 9.80503 20.4416 10.0888 20.2743L11.8944 19.2092L14.873 24.4797C15.0374 24.7706 15.4029 24.8698 15.6867 24.7024C15.9704 24.5351 16.0692 24.162 15.9048 23.8711L12.9262 18.6007L14.7319 17.5357C15.0156 17.3683 15.1143 16.9953 14.9499 16.7043C14.7855 16.4134 14.4199 16.3142 14.1362 16.4816ZM18.3552 22.4257L23.5142 19.3828C23.798 19.2155 23.8967 18.8424 23.7323 18.5515C23.5678 18.2606 23.2022 18.1614 22.9185 18.3288L17.7596 21.3716C17.4758 21.539 17.3771 21.912 17.5415 22.203C17.706 22.4938 18.0715 22.5931 18.3552 22.4257ZM25.1923 9.36513C25.0006 9.20239 24.7296 9.17924 24.5154 9.30555C24.2988 9.43335 24.1829 9.68472 24.225 9.93567L24.5697 11.9941L23.2631 13.6013C23.1053 13.7967 23.0825 14.0729 23.2072 14.2935C23.3318 14.5141 23.5774 14.6321 23.8219 14.5901L25.8376 14.2377L27.4102 15.5719C27.6019 15.7346 27.873 15.7578 28.0897 15.63C28.3038 15.5037 28.4196 15.2524 28.3775 15.0013L28.0328 12.943L29.3394 11.3358C29.4999 11.1389 29.5226 10.8626 29.3979 10.6421C29.2733 10.4215 29.0277 10.3035 28.7806 10.347L26.7648 10.6994L25.1923 9.36513ZM18.2847 18.9537L20.3483 17.7366C20.632 17.5692 20.7307 17.1962 20.5663 16.9052C20.4019 16.6143 20.0363 16.5151 19.7526 16.6825L17.689 17.8997C17.4052 18.067 17.3065 18.4401 17.4709 18.7309C17.6354 19.0219 18.001 19.1211 18.2847 18.9537ZM25.6715 11.3513L26.2152 11.8141C26.3484 11.9281 26.5261 11.9748 26.6955 11.9461L27.3937 11.8242L26.9413 12.3809C26.8323 12.5166 26.783 12.6971 26.813 12.8719L26.9336 13.5843L26.3873 13.123C26.2541 13.0089 26.0791 12.9608 25.9069 12.991L25.2088 13.1129L25.6612 12.5562C25.7728 12.419 25.8195 12.24 25.7896 12.0652L25.6715 11.3513ZM16.6875 5.24616C16.4957 5.08341 16.2247 5.06021 16.008 5.18801C15.7914 5.31581 15.6755 5.5672 15.7176 5.81819L16.4138 9.97733L13.7771 13.2233C13.6167 13.4202 13.594 13.6964 13.7186 13.917C13.8433 14.1376 14.0887 14.2555 14.3359 14.212L18.4058 13.5022L21.5835 16.1977C21.7752 16.3605 22.0463 16.3837 22.2629 16.2559C22.4796 16.1281 22.5955 15.8767 22.5533 15.6257L21.8572 11.4665L24.4938 8.22062C24.6543 8.02374 24.6771 7.7475 24.5524 7.52693C24.4278 7.30636 24.1822 7.18838 23.9351 7.23188L19.8651 7.94169L16.6875 5.24616ZM17.1641 7.23373L19.3155 9.05642C19.4486 9.17044 19.6238 9.21858 19.7958 9.18845L22.5507 8.70754L20.7657 10.9045C20.654 11.0416 20.6073 11.2207 20.6373 11.3955L21.1068 14.2102L18.9555 12.3875C18.8223 12.2734 18.6472 12.2253 18.4751 12.2555L15.7202 12.7363L17.5053 10.5394C17.6169 10.4022 17.6636 10.2233 17.6337 10.0485L17.1641 7.23373ZM16.7954 16.3185L17.8272 15.7099C18.111 15.5426 18.2097 15.1695 18.0453 14.8786C17.8808 14.5877 17.5153 14.4885 17.2316 14.6558L16.1997 15.2644C15.916 15.4318 15.8173 15.8048 15.9817 16.0958C16.1461 16.3867 16.5117 16.4859 16.7954 16.3185ZM21.1777 4.59836L20.6618 4.90264C20.378 5.07 20.2793 5.44305 20.4437 5.73398C20.6081 6.0249 20.9738 6.12409 21.2575 5.95673L21.7734 5.65244L22.0712 6.17948C22.2356 6.47041 22.6013 6.5696 22.885 6.40224C23.1688 6.23488 23.2675 5.86184 23.103 5.57091L22.8052 5.04386L23.3211 4.73958C23.6048 4.57222 23.7035 4.19917 23.5391 3.90825C23.3747 3.61732 23.0091 3.51814 22.7254 3.6855L22.2095 3.98978L21.9116 3.46274C21.7472 3.17181 21.3816 3.07263 21.0979 3.23999C20.8141 3.40735 20.7155 3.78039 20.8799 4.07131L21.1777 4.59836Z" fill="#F9DB15"/>
</g>
</g>
<defs>
<clipPath id="clip0_735_5381">
<rect width="29" height="40" fill="white"/>
</clipPath>
</defs>
</svg>
