<svg width="19" height="15" viewBox="0 0 19 15" fill="none" xmlns="http://www.w3.org/2000/svg">
<path d="M18.074 6.96466L12.4471 0.779294C12.2955 0.618335 12.0925 0.52927 11.8817 0.531283C11.6709 0.533297 11.4693 0.626227 11.3203 0.790058C11.1713 0.953889 11.0867 1.17551 11.0849 1.4072C11.0831 1.63888 11.1641 1.86208 11.3105 2.02874L15.5652 6.70576H1.42884C1.21565 6.70576 1.01119 6.79885 0.86044 6.96456C0.70969 7.13028 0.625 7.35503 0.625 7.58938C0.625 7.82373 0.70969 8.04848 0.86044 8.2142C1.01119 8.37991 1.21565 8.473 1.42884 8.473H15.5652L11.3105 13.15C11.2337 13.2315 11.1725 13.329 11.1304 13.4368C11.0882 13.5446 11.0661 13.6606 11.0651 13.7779C11.0642 13.8953 11.0845 14.0116 11.125 14.1202C11.1654 14.2288 11.2251 14.3275 11.3005 14.4104C11.376 14.4934 11.4658 14.559 11.5646 14.6034C11.6633 14.6479 11.7692 14.6702 11.8759 14.6692C11.9827 14.6682 12.0881 14.6438 12.1862 14.5975C12.2843 14.5512 12.373 14.4839 12.4471 14.3995L18.074 8.2141C18.2247 8.0484 18.3094 7.82369 18.3094 7.58938C18.3094 7.35507 18.2247 7.13036 18.074 6.96466Z" fill="#383630"/>
</svg>
