<svg width="53" height="53" viewBox="0 0 53 53" fill="none" xmlns="http://www.w3.org/2000/svg">
<path d="M34.7815 20.6369L28.8355 26.5L34.7815 32.3631C34.947 32.5181 35.0789 32.7053 35.1692 32.9133C35.2593 33.1213 35.3058 33.3455 35.3058 33.5722C35.3058 33.7989 35.2593 34.0231 35.1692 34.2312C35.0789 34.4391 34.947 34.6263 34.7815 34.7812C34.6267 34.9348 34.4432 35.0562 34.2414 35.1386C34.0397 35.2211 33.8236 35.2628 33.6055 35.2616C33.1711 35.2597 32.7548 35.0872 32.4462 34.7812L26.5002 28.8353L20.6371 34.7812C20.3286 35.0872 19.9123 35.2597 19.4777 35.2616C19.2598 35.2628 19.0437 35.2211 18.8419 35.1386C18.6402 35.0562 18.4566 34.9348 18.3018 34.7812C17.9933 34.4709 17.8202 34.0512 17.8202 33.6136C17.8202 33.176 17.9933 32.7563 18.3018 32.4459L24.1649 26.5L18.3018 20.6369C18.0305 20.32 17.8888 19.9125 17.9048 19.4956C17.921 19.0788 18.0937 18.6834 18.3886 18.3884C18.6837 18.0935 19.0791 17.9206 19.496 17.9046C19.9127 17.8884 20.3204 18.0302 20.6371 18.3016L26.5002 24.1647L32.3634 18.3016C32.5168 18.1428 32.6999 18.0158 32.9023 17.9278C33.1047 17.8398 33.3225 17.7925 33.5432 17.7886C33.7639 17.7848 33.9832 17.8245 34.1885 17.9054C34.3939 17.9863 34.5814 18.1068 34.7401 18.2602C34.8989 18.4135 35.0259 18.5966 35.114 18.7991C35.202 19.0014 35.2492 19.2192 35.2531 19.4399C35.2569 19.6606 35.2173 19.88 35.1363 20.0853C35.0554 20.2907 34.9349 20.4781 34.7815 20.6369ZM42.8971 42.8969C39.6543 46.1395 35.5227 48.3476 31.0247 49.2422C26.5268 50.1367 21.8648 49.6774 17.6279 47.9222C13.3911 46.1671 9.76985 43.1952 7.22209 39.382C4.67432 35.5689 3.31445 31.0859 3.31445 26.5C3.31445 21.9141 4.67432 17.4311 7.22209 13.618C9.76985 9.80485 13.3911 6.83286 17.6279 5.07778C21.8648 3.32271 26.5268 2.86338 31.0247 3.75788C35.5227 4.65239 39.6543 6.86054 42.8971 10.1031C45.0505 12.2564 46.7588 14.8126 47.9241 17.626C49.0896 20.4394 49.6895 23.4548 49.6895 26.5C49.6895 29.5452 49.0896 32.5606 47.9241 35.374C46.7588 38.1874 45.0505 40.7436 42.8971 42.8969ZM40.5618 12.4384C37.7795 9.66578 34.238 7.77973 30.3846 7.01843C26.5311 6.25715 22.5384 6.65476 18.9108 8.16108C15.2831 9.6674 12.1831 12.2148 10.0023 15.4818C7.82142 18.7487 6.65751 22.5886 6.65751 26.5166C6.65751 30.4446 7.82142 34.2845 10.0023 37.5513C12.1831 40.8183 15.2831 43.3658 18.9108 44.8721C22.5384 46.3784 26.5311 46.776 30.3846 46.0147C34.238 45.2534 37.7795 43.3674 40.5618 40.5947C42.4147 38.7483 43.8849 36.5542 44.888 34.1383C45.8911 31.7225 46.4075 29.1324 46.4075 26.5166C46.4075 23.9007 45.8911 21.3107 44.888 18.8948C43.8849 16.479 42.4147 14.2849 40.5618 12.4384Z" fill="#F9DB15"/>
</svg>
