<svg width="512" height="512" viewBox="0 0 512 512" fill="none" xmlns="http://www.w3.org/2000/svg">
<path d="M336 199.36L278.56 256L336 312.64C337.599 314.137 338.873 315.946 339.745 317.955C340.616 319.964 341.065 322.13 341.065 324.32C341.065 326.51 340.616 328.676 339.745 330.686C338.873 332.695 337.599 334.503 336 336C334.505 337.483 332.732 338.656 330.783 339.452C328.834 340.249 326.746 340.652 324.64 340.64C320.443 340.622 316.421 338.956 313.44 336L256 278.56L199.36 336C196.38 338.956 192.358 340.622 188.16 340.64C186.055 340.652 183.967 340.249 182.018 339.452C180.069 338.656 178.295 337.483 176.8 336C173.82 333.002 172.148 328.947 172.148 324.72C172.148 320.493 173.82 316.438 176.8 313.44L233.44 256L176.8 199.36C174.179 196.299 172.81 192.362 172.965 188.335C173.121 184.308 174.79 180.489 177.639 177.639C180.489 174.79 184.309 173.12 188.336 172.965C192.362 172.809 196.3 174.179 199.36 176.8L256 233.44L312.64 176.8C314.122 175.266 315.891 174.039 317.846 173.189C319.802 172.339 321.906 171.882 324.038 171.845C326.17 171.808 328.288 172.191 330.272 172.973C332.256 173.754 334.067 174.919 335.6 176.4C337.134 177.881 338.361 179.65 339.212 181.606C340.062 183.561 340.518 185.665 340.556 187.797C340.593 189.929 340.21 192.048 339.428 194.032C338.646 196.016 337.482 197.826 336 199.36ZM414.4 414.4C383.073 445.725 343.16 467.056 299.708 475.698C256.257 484.339 211.22 479.902 170.29 462.947C129.361 445.992 94.3782 417.282 69.7658 380.445C45.1534 343.609 32.0166 300.302 32.0166 256C32.0166 211.698 45.1534 168.391 69.7658 131.555C94.3782 94.7186 129.361 66.008 170.29 49.0533C211.22 32.0986 256.257 27.6613 299.708 36.3025C343.16 44.9438 383.073 66.2754 414.4 97.6001C435.203 118.401 451.705 143.095 462.963 170.274C474.222 197.452 480.017 226.582 480.017 256C480.017 285.418 474.222 314.548 462.963 341.726C451.705 368.905 435.203 393.599 414.4 414.4ZM391.84 120.16C364.962 93.3751 330.75 75.1551 293.524 67.8007C256.298 60.4464 217.727 64.2875 182.683 78.8391C147.638 93.3907 117.691 118 96.6234 149.56C75.5556 181.12 64.3118 218.214 64.3118 256.16C64.3118 294.106 75.5556 331.201 96.6234 362.76C117.691 394.32 147.638 418.93 182.683 433.481C217.727 448.033 256.298 451.874 293.524 444.519C330.75 437.165 364.962 418.945 391.84 392.16C409.74 374.323 423.942 353.127 433.633 329.789C443.323 306.451 448.312 281.43 448.312 256.16C448.312 230.89 443.323 205.869 433.633 182.531C423.942 159.193 409.74 137.998 391.84 120.16Z" fill="#383630" fill-opacity="0.8"/>
</svg>
