<svg width="512" height="513" viewBox="0 0 512 513" fill="none" xmlns="http://www.w3.org/2000/svg">
<mask id="mask0_752_4796" style="mask-type:luminance" maskUnits="userSpaceOnUse" x="0" y="0" width="512" height="513">
<path d="M511.999 0.5H0V512.499H511.999V0.5Z" fill="white"/>
</mask>
<g mask="url(#mask0_752_4796)">
<path d="M508.745 246.541C504.171 240.284 395.188 93.335 255.997 93.335C116.806 93.335 7.818 240.284 3.249 246.535C-1.083 252.471 -1.083 260.522 3.249 266.458C7.818 272.715 116.806 419.664 255.997 419.664C395.188 419.664 504.171 272.714 508.745 266.463C513.083 260.528 513.083 252.471 508.745 246.541ZM255.997 385.906C153.468 385.906 64.667 288.373 38.38 256.488C64.633 224.575 153.248 127.093 255.997 127.093C358.521 127.093 447.316 224.609 473.614 256.511C447.361 288.423 358.746 385.906 255.997 385.906Z" fill="#F9DB15"/>
<path d="M255.997 155.225C200.155 155.225 154.722 200.658 154.722 256.5C154.722 312.342 200.155 357.775 255.997 357.775C311.839 357.775 357.272 312.342 357.272 256.5C357.272 200.658 311.839 155.225 255.997 155.225ZM255.997 324.016C218.767 324.016 188.481 293.729 188.481 256.5C188.481 219.271 218.768 188.984 255.997 188.984C293.226 188.984 323.513 219.271 323.513 256.5C323.513 293.729 293.227 324.016 255.997 324.016Z" fill="#F9DB15"/>
</g>
</svg>
