<svg width="512" height="512" viewBox="0 0 512 512" fill="none" xmlns="http://www.w3.org/2000/svg">
<g clip-path="url(#clip0_730_4753)">
<path d="M508.745 246.041C504.171 239.784 395.188 92.835 255.997 92.835C116.806 92.835 7.818 239.784 3.249 246.035C-1.083 251.971 -1.083 260.022 3.249 265.958C7.818 272.215 116.806 419.164 255.997 419.164C395.188 419.164 504.171 272.214 508.745 265.963C513.083 260.028 513.083 251.971 508.745 246.041ZM255.997 385.406C153.468 385.406 64.667 287.873 38.38 255.988C64.633 224.075 153.248 126.593 255.997 126.593C358.521 126.593 447.316 224.109 473.614 256.011C447.361 287.923 358.746 385.406 255.997 385.406Z" fill="#383630"/>
<path d="M255.997 154.725C200.155 154.725 154.722 200.158 154.722 256C154.722 311.842 200.155 357.275 255.997 357.275C311.839 357.275 357.272 311.842 357.272 256C357.272 200.158 311.839 154.725 255.997 154.725ZM255.997 323.516C218.767 323.516 188.481 293.229 188.481 256C188.481 218.771 218.768 188.484 255.997 188.484C293.226 188.484 323.513 218.771 323.513 256C323.513 293.229 293.227 323.516 255.997 323.516Z" fill="#383630"/>
</g>
<defs>
<clipPath id="clip0_730_4753">
<rect width="511.999" height="511.999" fill="white"/>
</clipPath>
</defs>
</svg>
