<svg width="191" height="190" viewBox="0 0 191 190" fill="none" xmlns="http://www.w3.org/2000/svg">
<g clip-path="url(#clip0_731_4813)">
<path d="M175.5 0H15.5C7.216 0 0.5 6.716 0.5 15V53.99C0.5 62.274 7.216 68.99 15.5 68.99C23.784 68.99 30.5 62.274 30.5 53.99V30H80.5V160H57.336C49.052 160 42.336 166.716 42.336 175C42.336 183.284 49.052 190 57.336 190H133.664C141.948 190 148.664 183.284 148.664 175C148.664 166.716 141.948 160 133.664 160H110.5V30H160.5V53.99C160.5 62.274 167.216 68.99 175.5 68.99C183.784 68.99 190.5 62.274 190.5 53.99V15C190.5 6.716 183.784 0 175.5 0Z" fill="#383630"/>
</g>
<defs>
<clipPath id="clip0_731_4813">
<rect width="190" height="190" fill="white" transform="translate(0.5)"/>
</clipPath>
</defs>
</svg>
