<svg width="206" height="206" viewBox="0 0 206 206" fill="none" xmlns="http://www.w3.org/2000/svg">
<g clip-path="url(#clip0_711_4721)">
<path d="M193.125 206L125.74 206C122.326 206 119.051 204.644 116.636 202.229C114.222 199.814 112.865 196.54 112.865 193.125C112.865 189.71 114.222 186.436 116.636 184.021C119.051 181.606 122.326 180.25 125.74 180.25L162.042 180.25L114.109 132.317C111.71 129.899 110.366 126.63 110.373 123.224C110.379 119.817 111.735 116.553 114.144 114.144C116.552 111.736 119.817 110.38 123.223 110.373C126.629 110.367 129.899 111.71 132.317 114.109L180.25 162.042L180.25 125.74C180.25 122.326 181.606 119.051 184.021 116.636C186.436 114.222 189.71 112.865 193.125 112.865C196.54 112.865 199.814 114.222 202.229 116.636C204.644 119.051 206 122.326 206 125.74L206 193.125C206 196.54 204.644 199.814 202.229 202.229C199.814 204.644 196.54 206 193.125 206ZM12.875 -8.44176e-06C9.46034 -8.59102e-06 6.18553 1.35646 3.771 3.77099C1.35647 6.18552 -4.13524e-07 9.46033 -5.62784e-07 12.875L-3.50826e-06 80.2595C-3.65752e-06 83.6742 1.35647 86.949 3.771 89.3635C6.18553 91.7781 9.46033 93.1345 12.875 93.1345C16.2897 93.1345 19.5645 91.7781 21.979 89.3635C24.3935 86.949 25.75 83.6742 25.75 80.2595L25.75 43.9585L73.6828 91.8909C76.0974 94.3054 79.3722 95.6619 82.7869 95.6619C86.2015 95.6619 89.4763 94.3054 91.8909 91.8909C94.3054 89.4763 95.6619 86.2015 95.6619 82.7869C95.6619 79.3722 94.3054 76.0974 91.8909 73.6828L43.9577 25.75L80.2591 25.75C83.6738 25.75 86.9486 24.3935 89.3631 21.979C91.7777 19.5645 93.1341 16.2897 93.1341 12.875C93.1341 9.46033 91.7777 6.18553 89.3631 3.771C86.9486 1.35646 83.6738 -5.34705e-06 80.2591 -5.49631e-06L12.875 -8.44176e-06Z" fill="#383630" fill-opacity="0.7"/>
</g>
<defs>
<clipPath id="clip0_711_4721">
<rect width="206" height="206" fill="white" transform="translate(206) rotate(90)"/>
</clipPath>
</defs>
</svg>
