<svg width="19" height="18" viewBox="0 0 19 18" fill="none" xmlns="http://www.w3.org/2000/svg">
<g clip-path="url(#clip0_736_5388)">
<mask id="mask0_736_5388" style="mask-type:luminance" maskUnits="userSpaceOnUse" x="0" y="0" width="19" height="18">
<path d="M18.5 18V0L0.5 0V18H18.5Z" fill="white"/>
</mask>
<g mask="url(#mask0_736_5388)">
<path d="M17.375 18H11.487C11.1887 18 10.9025 17.8815 10.6915 17.6705C10.4806 17.4595 10.362 17.1734 10.362 16.875C10.362 16.5766 10.4806 16.2905 10.6915 16.0795C10.9025 15.8685 11.1887 15.75 11.487 15.75H14.659L10.4707 11.5617C10.2611 11.3504 10.1436 11.0648 10.1442 10.7671C10.1448 10.4694 10.2633 10.1842 10.4737 9.97375C10.6842 9.76334 10.9694 9.64486 11.2671 9.64424C11.5647 9.64372 11.8504 9.76107 12.0617 9.97069L16.25 14.159V10.987C16.25 10.6887 16.3685 10.4025 16.5795 10.1915C16.7905 9.98056 17.0766 9.86199 17.375 9.86199C17.6734 9.86199 17.9595 9.98056 18.1705 10.1915C18.3815 10.4025 18.5 10.6887 18.5 10.987V16.875C18.5 17.1734 18.3815 17.4595 18.1705 17.6705C17.9595 17.8815 17.6734 18 17.375 18ZM1.625 0C1.32663 -1.30421e-08 1.04048 0.118526 0.829505 0.329505C0.618527 0.540483 0.5 0.826632 0.5 1.125L0.5 7.01297C0.5 7.31134 0.618527 7.59749 0.829505 7.80846C1.04048 8.01945 1.32663 8.13797 1.625 8.13797C1.92337 8.13797 2.20952 8.01945 2.4205 7.80846C2.63147 7.59749 2.75 7.31134 2.75 7.01297V3.84103L6.9383 8.0293C7.14929 8.24028 7.43544 8.35881 7.73381 8.35881C8.03217 8.35881 8.31832 8.24028 8.5293 8.0293C8.74028 7.81832 8.85881 7.53217 8.85881 7.23381C8.85881 6.93544 8.74028 6.64929 8.5293 6.4383L4.34096 2.25H7.51293C7.8113 2.25 8.09745 2.13147 8.30843 1.9205C8.51941 1.70952 8.63793 1.42337 8.63793 1.125C8.63793 0.826632 8.51941 0.540484 8.30843 0.329506C8.09745 0.118526 7.8113 2.70412e-07 7.51293 2.57369e-07L1.625 0Z" fill="#F9DB15"/>
</g>
</g>
<defs>
<clipPath id="clip0_736_5388">
<rect width="18" height="18" fill="white" transform="translate(0.5)"/>
</clipPath>
</defs>
</svg>
