<svg width="25" height="25" viewBox="0 0 25 25" fill="none" xmlns="http://www.w3.org/2000/svg">
<path d="M21.7856 17.7894C22.8151 16.1121 23.3588 14.1819 23.3561 12.2138C23.3588 10.2457 22.8151 8.31521 21.7856 6.63789L21.7797 6.62874C20.8246 5.07195 19.4861 3.78611 17.8923 2.8941C16.2985 2.00208 14.5026 1.53369 12.6761 1.53369C10.8497 1.53368 9.05374 2.00205 7.45993 2.89406C5.86611 3.78606 4.52767 5.07188 3.5725 6.62866L3.56657 6.63793C2.53957 8.31641 1.9961 10.2459 1.99609 12.2136C1.99609 14.1813 2.53954 16.1109 3.56652 17.7893L3.57256 17.7987C4.52773 19.3555 5.86617 20.6413 7.45997 21.5333C9.05378 22.4253 10.8497 22.8936 12.6761 22.8936C14.5026 22.8936 16.2985 22.4252 17.8923 21.5332C19.4861 20.6412 20.8245 19.3554 21.7797 17.7987L21.7856 17.7894ZM14.0412 21.0632C13.8377 21.2596 13.6035 21.4214 13.3478 21.5422C13.1379 21.6419 12.9085 21.6936 12.6761 21.6936C12.4437 21.6936 12.2143 21.6419 12.0044 21.5422C11.5178 21.2936 11.1012 20.9271 10.7928 20.476C10.163 19.5659 9.69624 18.5531 9.41342 17.4831C10.4999 17.4162 11.5874 17.3821 12.6761 17.3809C13.7643 17.3809 14.8519 17.415 15.9389 17.4831C15.7824 18.0333 15.5869 18.5716 15.3538 19.094C15.047 19.8287 14.6013 20.4973 14.0412 21.0632ZM3.21697 12.8136H7.52473C7.55278 14.0157 7.68307 15.2131 7.91419 16.393C6.73662 16.4967 5.56205 16.639 4.39049 16.82C3.70445 15.5892 3.30342 14.2201 3.21697 12.8136ZM4.39049 7.60731C5.56158 7.78879 6.73656 7.93114 7.91542 8.03437C7.68385 9.21422 7.55327 10.4116 7.52512 11.6136H3.21697C3.30342 10.2072 3.70445 8.83813 4.39049 7.60731ZM11.3109 3.36408C11.5144 3.16771 11.7487 3.00593 12.0044 2.88514C12.2143 2.78541 12.4437 2.73367 12.6761 2.73367C12.9085 2.73367 13.1379 2.78541 13.3478 2.88514C13.8344 3.13369 14.2509 3.50024 14.5593 3.95129C15.1892 4.86143 15.6559 5.87417 15.9387 6.94425C14.8523 7.0111 13.7647 7.04516 12.6761 7.04642C11.5879 7.04641 10.5003 7.01234 9.41323 6.94423C9.56977 6.39405 9.76531 5.85571 9.99836 5.33332C10.3052 4.59863 10.7509 3.93001 11.3109 3.36408ZM22.1352 11.6136H17.8275C17.7994 10.4116 17.6691 9.2142 17.438 8.03427C18.6156 7.93064 19.7901 7.78832 20.9617 7.60731C21.6477 8.83813 22.0488 10.2072 22.1352 11.6136ZM9.12111 16.2998C8.88643 15.1517 8.75389 13.9851 8.72504 12.8136H16.6273C16.5987 13.9851 16.4664 15.1517 16.2319 16.2998C15.0479 16.2221 13.8627 16.1825 12.6761 16.1809C11.4904 16.1809 10.3054 16.2205 9.12111 16.2998ZM16.2311 8.12755C16.4657 9.27563 16.5983 10.4422 16.6271 11.6136H8.72491C8.7535 10.4422 8.88579 9.27561 9.12025 8.1275C10.3042 8.20518 11.4895 8.24482 12.6761 8.24641C13.8618 8.24641 15.0468 8.20678 16.2311 8.12755ZM17.827 12.8136H22.1352C22.0488 14.2201 21.6477 15.5892 20.9617 16.82C19.7906 16.6385 18.6156 16.4962 17.4368 16.3929C17.6683 15.2131 17.7989 14.0157 17.827 12.8136ZM20.2422 6.50283C19.2183 6.65056 18.1913 6.76752 17.1612 6.85371C16.9761 6.16445 16.7373 5.49073 16.4471 4.83872C16.1822 4.23871 15.8488 3.67132 15.4536 3.14785C17.3635 3.73358 19.0394 4.9078 20.2422 6.50283ZM5.97269 5.51028C7.06827 4.41366 8.41613 3.60253 9.8981 3.14799C9.87562 3.17711 9.85249 3.20494 9.83033 3.23466C9.06859 4.33122 8.51374 5.55779 8.19313 6.8539C7.16303 6.76665 6.13531 6.64963 5.10999 6.50283C5.37443 6.15257 5.66268 5.82093 5.97269 5.51028ZM5.10999 17.9245C6.13389 17.7767 7.16088 17.6598 8.19093 17.5736C8.37606 18.2629 8.61482 18.9366 8.90504 19.5886C9.17001 20.1886 9.50341 20.756 9.8986 21.2795C7.98872 20.6937 6.31274 19.5195 5.10999 17.9245ZM19.3795 18.917C18.2839 20.0137 16.936 20.8248 15.4541 21.2793C15.4766 21.2502 15.4997 21.2224 15.5218 21.1927C16.2836 20.0961 16.8384 18.8695 17.1591 17.5734C18.1892 17.6607 19.2169 17.7777 20.2422 17.9245C19.9778 18.2748 19.6895 18.6064 19.3795 18.917Z" fill="#F9DB15"/>
</svg>
