<svg width="25" height="25" viewBox="0 0 25 25" fill="none" xmlns="http://www.w3.org/2000/svg">
<g id="internet 2">
<g id="Layer 2">
<path id="Vector" d="M21.7856 17.7892C22.8151 16.1119 23.3588 14.1817 23.3561 12.2136V12.2133C23.3588 10.2452 22.8151 8.31497 21.7856 6.63765L21.7797 6.6285C20.8246 5.07171 19.4861 3.78587 17.8923 2.89386C16.2985 2.00184 14.5026 1.53345 12.6761 1.53345C10.8497 1.53344 9.05374 2.00181 7.45993 2.89382C5.86611 3.78582 4.52767 5.07164 3.5725 6.62842L3.56657 6.63769C2.53957 8.31617 1.9961 10.2457 1.99609 12.2134C1.99609 14.1811 2.53954 16.1107 3.56652 17.7891L3.57256 17.7985C4.52773 19.3553 5.86617 20.6411 7.45997 21.5331C9.05378 22.4251 10.8497 22.8934 12.6761 22.8934C14.5026 22.8934 16.2985 22.425 17.8923 21.533C19.4861 20.641 20.8245 19.3552 21.7797 17.7985L21.7856 17.7892ZM14.0412 21.063C13.8377 21.2594 13.6035 21.4212 13.3478 21.542C13.1379 21.6417 12.9085 21.6934 12.6761 21.6934C12.4437 21.6934 12.2143 21.6417 12.0044 21.542C11.5178 21.2934 11.1012 20.9269 10.7928 20.4758C10.163 19.5657 9.69624 18.5529 9.41342 17.4829C10.4999 17.416 11.5874 17.3819 12.6761 17.3807C13.7643 17.3807 14.8519 17.4148 15.9389 17.4829C15.7824 18.0331 15.5869 18.5714 15.3538 19.0938C15.047 19.8285 14.6013 20.4971 14.0412 21.063ZM3.21697 12.8134H7.52473C7.55278 14.0155 7.68307 15.2129 7.91419 16.3928C6.73662 16.4965 5.56205 16.6388 4.39049 16.8198C3.70445 15.589 3.30342 14.2199 3.21697 12.8134ZM4.39049 7.60707C5.56158 7.78855 6.73656 7.9309 7.91542 8.03413C7.68385 9.21398 7.55327 10.4114 7.52512 11.6134H3.21697C3.30342 10.207 3.70445 8.83789 4.39049 7.60707ZM11.3109 3.36384C11.5144 3.16747 11.7487 3.00569 12.0044 2.8849C12.2143 2.78517 12.4437 2.73343 12.6761 2.73343C12.9085 2.73343 13.1379 2.78517 13.3478 2.8849C13.8344 3.13345 14.2509 3.5 14.5593 3.95105C15.1892 4.86119 15.6559 5.87393 15.9387 6.94401C14.8523 7.01086 13.7647 7.04492 12.6761 7.04618C11.5879 7.04617 10.5003 7.0121 9.41323 6.94399C9.56977 6.39381 9.76531 5.85547 9.99836 5.33308C10.3052 4.59839 10.7509 3.92977 11.3109 3.36384ZM22.1352 11.6134H17.8275C17.7994 10.4114 17.6691 9.21396 17.438 8.03403C18.6156 7.9304 19.7901 7.78808 20.9617 7.60707C21.6477 8.83789 22.0488 10.207 22.1352 11.6134ZM9.12111 16.2996C8.88643 15.1515 8.75389 13.9849 8.72504 12.8134H16.6273C16.5987 13.9849 16.4664 15.1515 16.2319 16.2996C15.0479 16.2219 13.8627 16.1823 12.6761 16.1807C11.4904 16.1807 10.3054 16.2203 9.12111 16.2996ZM16.2311 8.12731C16.4657 9.27539 16.5983 10.442 16.6271 11.6134H8.72491C8.7535 10.442 8.88579 9.27537 9.12025 8.12726C10.3042 8.20494 11.4895 8.24458 12.6761 8.24617C13.8618 8.24617 15.0468 8.20654 16.2311 8.12731ZM17.827 12.8134H22.1352C22.0488 14.2199 21.6477 15.589 20.9617 16.8198C19.7906 16.6383 18.6156 16.496 17.4368 16.3927C17.6683 15.2129 17.7989 14.0155 17.827 12.8134ZM20.2422 6.50259C19.2183 6.65032 18.1913 6.76728 17.1612 6.85347C16.9761 6.16421 16.7373 5.49049 16.4471 4.83848C16.1822 4.23847 15.8488 3.67108 15.4536 3.14761C17.3635 3.73334 19.0394 4.90756 20.2422 6.50259ZM5.97269 5.51004C7.06827 4.41342 8.41613 3.60229 9.8981 3.14775C9.87562 3.17687 9.85249 3.2047 9.83033 3.23442C9.06859 4.33098 8.51374 5.55755 8.19313 6.85366C7.16303 6.76641 6.13531 6.64939 5.10999 6.50259C5.37443 6.15233 5.66268 5.82069 5.97269 5.51004ZM5.10999 17.9243C6.13389 17.7765 7.16088 17.6596 8.19093 17.5734C8.37606 18.2627 8.61482 18.9364 8.90504 19.5884C9.17001 20.1884 9.50341 20.7558 9.8986 21.2793C7.98872 20.6935 6.31274 19.5193 5.10999 17.9243ZM19.3795 18.9168C18.2839 20.0135 16.936 20.8246 15.4541 21.2791C15.4766 21.25 15.4997 21.2222 15.5218 21.1925C16.2836 20.0959 16.8384 18.8693 17.1591 17.5732C18.1892 17.6605 19.2169 17.7775 20.2422 17.9243C19.9778 18.2746 19.6895 18.6062 19.3795 18.9168Z" fill="#383630" fill-opacity="0.8"/>
</g>
</g>
</svg>
