<svg width="502" height="303" viewBox="0 0 502 303" fill="none" xmlns="http://www.w3.org/2000/svg">
<rect x="216.495" y="202.88" width="68.498" height="99.2296" fill="#F5C0CD"/>
<rect x="216.495" y="76.0889" width="68.498" height="127.296" fill="#F4F4A6"/>
<rect x="420.768" y="2.24414" width="80.9215" height="300.656" fill="#F4F4A6"/>
<rect x="0.595703" y="2.24414" width="80.9215" height="216.261" fill="#ADE8D9"/>
<rect x="80.5947" y="218.505" width="88.7901" height="83.6047" fill="#F5C0CD"/>
<rect x="332.813" y="216.367" width="88.7901" height="86.5322" fill="#F5C0CD"/>
<rect x="0.595703" y="218.26" width="79.9995" height="83.6047" fill="#F4F4A6"/>
<rect x="167.295" y="248.872" width="87.0319" height="22.3795" fill="#F5C0CD"/>
<rect x="246.63" y="248.395" width="87.0319" height="23.4973" fill="#F5C0CD"/>
<g clip-path="url(#clip0_718_4727)">
<path d="M326.979 290.114L321.832 287.132V286.91C321.832 286.657 321.976 286.421 322.209 286.296C322.732 286.012 323.044 285.466 323.021 284.87C322.991 284.065 322.336 283.411 321.531 283.38C321.105 283.364 320.702 283.517 320.396 283.813C320.089 284.108 319.92 284.505 319.92 284.93C319.92 285.13 320.081 285.291 320.281 285.291C320.48 285.291 320.641 285.13 320.641 284.93C320.641 284.703 320.731 284.49 320.896 284.332C321.06 284.174 321.275 284.092 321.504 284.101C321.934 284.117 322.284 284.467 322.301 284.898C322.313 285.217 322.146 285.509 321.865 285.661C321.4 285.913 321.111 286.392 321.111 286.91V287.132L315.964 290.114C315.565 290.345 315.317 290.775 315.317 291.236C315.317 291.951 315.899 292.532 316.613 292.532H326.329C327.044 292.532 327.625 291.95 327.625 291.236C327.625 290.775 327.377 290.345 326.979 290.114ZM326.329 291.811H316.613C316.296 291.811 316.039 291.553 316.039 291.236C316.039 291.031 316.148 290.841 316.325 290.738L321.471 287.756L326.617 290.738C326.794 290.841 326.904 291.031 326.904 291.236C326.904 291.553 326.646 291.811 326.329 291.811Z" fill="#383630"/>
</g>
<g clip-path="url(#clip1_718_4727)">
<path d="M287.159 160.116L287.159 158.962C287.159 158.911 287.138 158.863 287.102 158.826C287.066 158.79 287.017 158.77 286.966 158.77C286.915 158.77 286.866 158.79 286.83 158.826C286.794 158.863 286.774 158.911 286.774 158.962L286.774 160.116C286.774 160.167 286.794 160.216 286.83 160.252C286.866 160.288 286.915 160.309 286.966 160.309C287.017 160.309 287.066 160.288 287.102 160.252C287.138 160.216 287.159 160.167 287.159 160.116Z" fill="#383630"/>
<path d="M287.928 160.501L287.928 158.578C287.928 158.527 287.907 158.478 287.871 158.442C287.835 158.406 287.786 158.386 287.735 158.386C287.684 158.386 287.635 158.406 287.599 158.442C287.563 158.478 287.543 158.527 287.543 158.578L287.543 160.501C287.543 160.552 287.563 160.601 287.599 160.637C287.635 160.673 287.684 160.693 287.735 160.693C287.786 160.693 287.835 160.673 287.871 160.637C287.907 160.601 287.928 160.552 287.928 160.501Z" fill="#383630"/>
<path d="M289.466 158.578L289.466 159.347C289.466 159.398 289.486 159.447 289.522 159.483C289.558 159.519 289.607 159.539 289.658 159.539L290.812 159.539C290.863 159.539 290.912 159.519 290.948 159.483C290.984 159.447 291.004 159.398 291.004 159.347L291.004 158.578C291.004 158.527 290.984 158.478 290.948 158.442C290.912 158.405 290.863 158.385 290.812 158.385L289.658 158.385C289.607 158.385 289.558 158.405 289.522 158.442C289.486 158.478 289.466 158.527 289.466 158.578ZM290.62 158.77L290.62 159.154L289.85 159.154L289.85 158.77L290.62 158.77Z" fill="#383630"/>
<path d="M287.159 156.654L287.159 155.501C287.159 155.45 287.138 155.401 287.102 155.365C287.066 155.328 287.017 155.308 286.966 155.308C286.915 155.308 286.866 155.328 286.83 155.365C286.794 155.401 286.774 155.45 286.774 155.501L286.774 156.654C286.774 156.705 286.794 156.754 286.83 156.79C286.866 156.826 286.915 156.847 286.966 156.847C287.017 156.847 287.066 156.826 287.102 156.79C287.138 156.754 287.159 156.705 287.159 156.654Z" fill="#383630"/>
<path d="M287.928 157.039L287.928 155.116C287.928 155.065 287.907 155.016 287.871 154.98C287.835 154.944 287.786 154.924 287.735 154.924C287.684 154.924 287.635 154.944 287.599 154.98C287.563 155.016 287.543 155.065 287.543 155.116L287.543 157.039C287.543 157.09 287.563 157.139 287.599 157.175C287.635 157.211 287.684 157.231 287.735 157.231C287.786 157.231 287.835 157.211 287.871 157.175C287.907 157.139 287.928 157.09 287.928 157.039Z" fill="#383630"/>
<path d="M289.466 155.117L289.466 155.886C289.466 155.937 289.486 155.986 289.522 156.022C289.558 156.058 289.607 156.078 289.658 156.078L290.812 156.078C290.863 156.078 290.912 156.058 290.948 156.022C290.984 155.986 291.004 155.937 291.004 155.886L291.004 155.117C291.004 155.066 290.984 155.017 290.948 154.981C290.912 154.945 290.863 154.924 290.812 154.924L289.658 154.924C289.607 154.924 289.558 154.945 289.522 154.981C289.486 155.017 289.466 155.066 289.466 155.117ZM290.62 155.309L290.62 155.694L289.85 155.694L289.85 155.309L290.62 155.309Z" fill="#383630"/>
<path d="M287.159 153.193L287.159 152.04C287.159 151.989 287.138 151.94 287.102 151.904C287.066 151.868 287.017 151.847 286.966 151.847C286.915 151.847 286.866 151.868 286.83 151.904C286.794 151.94 286.774 151.989 286.774 152.04L286.774 153.193C286.774 153.244 286.794 153.293 286.83 153.329C286.866 153.365 286.915 153.386 286.966 153.386C287.017 153.386 287.066 153.365 287.102 153.329C287.138 153.293 287.159 153.244 287.159 153.193Z" fill="#383630"/>
<path d="M287.928 153.578L287.928 151.655C287.928 151.604 287.907 151.555 287.871 151.519C287.835 151.483 287.786 151.463 287.735 151.463C287.684 151.463 287.635 151.483 287.599 151.519C287.563 151.555 287.543 151.604 287.543 151.655L287.543 153.578C287.543 153.629 287.563 153.678 287.599 153.714C287.635 153.75 287.684 153.771 287.735 153.771C287.786 153.771 287.835 153.75 287.871 153.714C287.907 153.678 287.928 153.629 287.928 153.578Z" fill="#383630"/>
<path d="M289.466 151.655L289.466 152.424C289.466 152.475 289.486 152.524 289.522 152.56C289.558 152.596 289.607 152.616 289.658 152.616L290.812 152.616C290.863 152.616 290.912 152.596 290.948 152.56C290.984 152.524 291.004 152.475 291.004 152.424L291.004 151.655C291.004 151.604 290.984 151.555 290.948 151.519C290.912 151.483 290.863 151.462 290.812 151.462L289.658 151.462C289.607 151.462 289.558 151.483 289.522 151.519C289.486 151.555 289.466 151.604 289.466 151.655ZM290.62 151.847L290.62 152.232L289.85 152.232L289.85 151.847L290.62 151.847Z" fill="#383630"/>
<path d="M292.735 160.116L292.735 158.962C292.735 158.911 292.715 158.863 292.679 158.826C292.643 158.79 292.594 158.77 292.543 158.77C292.492 158.77 292.443 158.79 292.407 158.826C292.371 158.863 292.351 158.911 292.351 158.962L292.351 160.116C292.351 160.167 292.371 160.216 292.407 160.252C292.443 160.288 292.492 160.309 292.543 160.309C292.594 160.309 292.643 160.288 292.679 160.252C292.715 160.216 292.735 160.167 292.735 160.116Z" fill="#383630"/>
<path d="M293.504 160.501L293.504 158.578C293.504 158.527 293.484 158.478 293.448 158.442C293.412 158.406 293.363 158.386 293.312 158.386C293.261 158.386 293.212 158.406 293.176 158.442C293.14 158.478 293.12 158.527 293.12 158.578L293.12 160.501C293.12 160.552 293.14 160.601 293.176 160.637C293.212 160.673 293.261 160.693 293.312 160.693C293.363 160.693 293.412 160.673 293.448 160.637C293.484 160.601 293.504 160.552 293.504 160.501Z" fill="#383630"/>
<path d="M295.043 158.578L295.043 159.347C295.043 159.398 295.063 159.447 295.099 159.483C295.135 159.519 295.184 159.539 295.235 159.539L296.389 159.539C296.44 159.539 296.489 159.519 296.525 159.483C296.561 159.447 296.581 159.398 296.581 159.347L296.581 158.578C296.581 158.527 296.561 158.478 296.525 158.442C296.489 158.405 296.44 158.385 296.389 158.385L295.235 158.385C295.184 158.385 295.135 158.405 295.099 158.442C295.063 158.478 295.043 158.527 295.043 158.578ZM296.197 158.77L296.197 159.154L295.428 159.154L295.428 158.77L296.197 158.77Z" fill="#383630"/>
<path d="M292.735 156.654L292.735 155.501C292.735 155.45 292.715 155.401 292.679 155.365C292.643 155.328 292.594 155.308 292.543 155.308C292.492 155.308 292.443 155.328 292.407 155.365C292.371 155.401 292.351 155.45 292.351 155.501L292.351 156.654C292.351 156.705 292.371 156.754 292.407 156.79C292.443 156.826 292.492 156.847 292.543 156.847C292.594 156.847 292.643 156.826 292.679 156.79C292.715 156.754 292.735 156.705 292.735 156.654Z" fill="#383630"/>
<path d="M293.312 154.924C293.261 154.924 293.212 154.944 293.176 154.98C293.14 155.016 293.12 155.065 293.12 155.116L293.12 157.039C293.12 157.09 293.14 157.139 293.176 157.175C293.212 157.211 293.261 157.231 293.312 157.231C293.363 157.231 293.412 157.211 293.448 157.175C293.484 157.139 293.504 157.09 293.504 157.039L293.504 155.116C293.504 155.065 293.484 155.016 293.448 154.98C293.412 154.944 293.363 154.924 293.312 154.924Z" fill="#383630"/>
<path d="M295.043 155.117L295.043 155.886C295.043 155.937 295.063 155.986 295.099 156.022C295.135 156.058 295.184 156.078 295.235 156.078L296.389 156.078C296.44 156.078 296.489 156.058 296.525 156.022C296.561 155.986 296.581 155.937 296.581 155.886L296.581 155.117C296.581 155.066 296.561 155.017 296.525 154.981C296.489 154.945 296.44 154.924 296.389 154.924L295.235 154.924C295.184 154.924 295.135 154.945 295.099 154.981C295.063 155.017 295.043 155.066 295.043 155.117ZM296.197 155.309L296.197 155.694L295.428 155.694L295.428 155.309L296.197 155.309Z" fill="#383630"/>
<path d="M286.004 150.694C285.953 150.694 285.904 150.714 285.868 150.75C285.832 150.786 285.812 150.835 285.812 150.886L285.812 161.271C285.812 161.322 285.832 161.371 285.868 161.407C285.904 161.443 285.953 161.463 286.004 161.463L297.158 161.463C297.209 161.463 297.258 161.443 297.294 161.407C297.33 161.371 297.35 161.322 297.35 161.271L297.35 150.886C297.35 150.835 297.33 150.786 297.294 150.75C297.258 150.714 297.209 150.694 297.158 150.694L286.004 150.694ZM286.197 151.078L291.389 151.078L291.389 154.155L286.197 154.155L286.197 151.078ZM291.773 157.617L291.773 154.54L296.966 154.54L296.966 157.617L291.773 157.617ZM286.197 154.54L291.389 154.54L291.389 157.617L286.197 157.617L286.197 154.54ZM286.197 158.001L291.389 158.001L291.389 161.078L286.197 161.078L286.197 158.001ZM296.966 158.001L296.966 161.078L291.773 161.078L291.773 158.001L296.966 158.001ZM296.966 151.078L296.966 154.155L291.773 154.155L291.773 151.078L296.966 151.078Z" fill="#383630"/>
<path d="M292.735 153.193L292.735 152.04C292.735 151.989 292.715 151.94 292.679 151.904C292.643 151.868 292.594 151.847 292.543 151.847C292.492 151.847 292.443 151.868 292.407 151.904C292.371 151.94 292.351 151.989 292.351 152.04L292.351 153.193C292.351 153.244 292.371 153.293 292.407 153.329C292.443 153.365 292.492 153.386 292.543 153.386C292.594 153.386 292.643 153.365 292.679 153.329C292.715 153.293 292.735 153.244 292.735 153.193Z" fill="#383630"/>
<path d="M293.504 153.578L293.504 151.655C293.504 151.604 293.484 151.555 293.448 151.519C293.412 151.483 293.363 151.463 293.312 151.463C293.261 151.463 293.212 151.483 293.176 151.519C293.14 151.555 293.12 151.604 293.12 151.655L293.12 153.578C293.12 153.629 293.14 153.678 293.176 153.714C293.212 153.75 293.261 153.771 293.312 153.771C293.363 153.771 293.412 153.75 293.448 153.714C293.484 153.678 293.504 153.629 293.504 153.578Z" fill="#383630"/>
<path d="M295.043 151.655L295.043 152.424C295.043 152.475 295.063 152.524 295.099 152.56C295.135 152.596 295.184 152.616 295.235 152.616L296.389 152.616C296.44 152.616 296.489 152.596 296.525 152.56C296.561 152.524 296.581 152.475 296.581 152.424L296.581 151.655C296.581 151.604 296.561 151.555 296.525 151.519C296.489 151.483 296.44 151.462 296.389 151.462L295.235 151.462C295.184 151.462 295.135 151.483 295.099 151.519C295.063 151.555 295.043 151.604 295.043 151.655ZM296.197 151.847L296.197 152.232L295.428 152.232L295.428 151.847L296.197 151.847Z" fill="#383630"/>
</g>
<path d="M291.059 283.532H292.213C292.264 283.532 292.313 283.512 292.349 283.476C292.385 283.44 292.406 283.391 292.406 283.34C292.406 283.289 292.385 283.24 292.349 283.204C292.313 283.168 292.264 283.147 292.213 283.147H291.059C291.008 283.147 290.96 283.168 290.924 283.204C290.887 283.24 290.867 283.289 290.867 283.34C290.867 283.391 290.887 283.44 290.924 283.476C290.96 283.512 291.008 283.532 291.059 283.532Z" fill="#383630"/>
<path d="M290.675 284.301H292.598C292.649 284.301 292.698 284.28 292.734 284.244C292.77 284.208 292.79 284.159 292.79 284.108C292.79 284.057 292.77 284.008 292.734 283.972C292.698 283.936 292.649 283.916 292.598 283.916H290.675C290.624 283.916 290.575 283.936 290.539 283.972C290.503 284.008 290.482 284.057 290.482 284.108C290.482 284.159 290.503 284.208 290.539 284.244C290.575 284.28 290.624 284.301 290.675 284.301Z" fill="#383630"/>
<path d="M292.598 285.84H291.829C291.778 285.84 291.729 285.86 291.693 285.896C291.656 285.932 291.636 285.981 291.636 286.032V287.186C291.636 287.237 291.656 287.286 291.693 287.322C291.729 287.358 291.778 287.378 291.829 287.378H292.598C292.649 287.378 292.698 287.358 292.734 287.322C292.77 287.286 292.79 287.237 292.79 287.186V286.032C292.79 285.981 292.77 285.932 292.734 285.896C292.698 285.86 292.649 285.84 292.598 285.84ZM292.405 286.994H292.021V286.224H292.405V286.994Z" fill="#383630"/>
<path d="M294.521 283.532H295.675C295.726 283.532 295.775 283.512 295.811 283.476C295.847 283.44 295.867 283.391 295.867 283.34C295.867 283.289 295.847 283.24 295.811 283.204C295.775 283.168 295.726 283.147 295.675 283.147H294.521C294.47 283.147 294.421 283.168 294.385 283.204C294.349 283.24 294.329 283.289 294.329 283.34C294.329 283.391 294.349 283.44 294.385 283.476C294.421 283.512 294.47 283.532 294.521 283.532Z" fill="#383630"/>
<path d="M294.136 284.301H296.059C296.11 284.301 296.159 284.28 296.195 284.244C296.231 284.208 296.252 284.159 296.252 284.108C296.252 284.057 296.231 284.008 296.195 283.972C296.159 283.936 296.11 283.916 296.059 283.916H294.136C294.085 283.916 294.036 283.936 294 283.972C293.964 284.008 293.944 284.057 293.944 284.108C293.944 284.159 293.964 284.208 294 284.244C294.036 284.28 294.085 284.301 294.136 284.301Z" fill="#383630"/>
<path d="M296.059 285.84H295.29C295.239 285.84 295.19 285.86 295.154 285.896C295.118 285.932 295.098 285.981 295.098 286.032V287.186C295.098 287.237 295.118 287.286 295.154 287.322C295.19 287.358 295.239 287.378 295.29 287.378H296.059C296.11 287.378 296.159 287.358 296.195 287.322C296.231 287.286 296.251 287.237 296.251 287.186V286.032C296.251 285.981 296.231 285.932 296.195 285.896C296.159 285.86 296.11 285.84 296.059 285.84ZM295.867 286.994H295.482V286.224H295.867V286.994Z" fill="#383630"/>
<path d="M297.982 283.532H299.136C299.187 283.532 299.236 283.512 299.272 283.476C299.308 283.44 299.328 283.391 299.328 283.34C299.328 283.289 299.308 283.24 299.272 283.204C299.236 283.168 299.187 283.147 299.136 283.147H297.982C297.931 283.147 297.882 283.168 297.846 283.204C297.81 283.24 297.79 283.289 297.79 283.34C297.79 283.391 297.81 283.44 297.846 283.476C297.882 283.512 297.931 283.532 297.982 283.532Z" fill="#383630"/>
<path d="M297.598 284.301H299.521C299.572 284.301 299.621 284.28 299.657 284.244C299.693 284.208 299.713 284.159 299.713 284.108C299.713 284.057 299.693 284.008 299.657 283.972C299.621 283.936 299.572 283.916 299.521 283.916H297.598C297.547 283.916 297.498 283.936 297.462 283.972C297.426 284.008 297.405 284.057 297.405 284.108C297.405 284.159 297.426 284.208 297.462 284.244C297.498 284.28 297.547 284.301 297.598 284.301Z" fill="#383630"/>
<path d="M299.521 285.84H298.751C298.7 285.84 298.651 285.86 298.615 285.896C298.579 285.932 298.559 285.981 298.559 286.032V287.186C298.559 287.237 298.579 287.286 298.615 287.322C298.651 287.358 298.7 287.378 298.751 287.378H299.521C299.572 287.378 299.621 287.358 299.657 287.322C299.693 287.286 299.713 287.237 299.713 287.186V286.032C299.713 285.981 299.693 285.932 299.657 285.896C299.621 285.86 299.572 285.84 299.521 285.84ZM299.328 286.994H298.944V286.224H299.328V286.994Z" fill="#383630"/>
<path d="M291.059 289.108H292.213C292.264 289.108 292.313 289.088 292.349 289.052C292.385 289.016 292.406 288.967 292.406 288.916C292.406 288.865 292.385 288.816 292.349 288.78C292.313 288.744 292.264 288.724 292.213 288.724H291.059C291.008 288.724 290.96 288.744 290.924 288.78C290.887 288.816 290.867 288.865 290.867 288.916C290.867 288.967 290.887 289.016 290.924 289.052C290.96 289.088 291.008 289.108 291.059 289.108Z" fill="#383630"/>
<path d="M290.675 289.878H292.598C292.649 289.878 292.698 289.858 292.734 289.821C292.77 289.785 292.79 289.736 292.79 289.685C292.79 289.634 292.77 289.586 292.734 289.549C292.698 289.513 292.649 289.493 292.598 289.493H290.675C290.624 289.493 290.575 289.513 290.539 289.549C290.503 289.586 290.482 289.634 290.482 289.685C290.482 289.736 290.503 289.785 290.539 289.821C290.575 289.858 290.624 289.878 290.675 289.878Z" fill="#383630"/>
<path d="M292.598 291.416H291.829C291.778 291.416 291.729 291.436 291.693 291.472C291.656 291.508 291.636 291.557 291.636 291.608V292.762C291.636 292.813 291.656 292.862 291.693 292.898C291.729 292.934 291.778 292.954 291.829 292.954H292.598C292.649 292.954 292.698 292.934 292.734 292.898C292.77 292.862 292.79 292.813 292.79 292.762V291.608C292.79 291.557 292.77 291.508 292.734 291.472C292.698 291.436 292.649 291.416 292.598 291.416ZM292.405 292.57H292.021V291.801H292.405V292.57Z" fill="#383630"/>
<path d="M294.521 289.108H295.675C295.726 289.108 295.775 289.088 295.811 289.052C295.847 289.016 295.867 288.967 295.867 288.916C295.867 288.865 295.847 288.816 295.811 288.78C295.775 288.744 295.726 288.724 295.675 288.724H294.521C294.47 288.724 294.421 288.744 294.385 288.78C294.349 288.816 294.329 288.865 294.329 288.916C294.329 288.967 294.349 289.016 294.385 289.052C294.421 289.088 294.47 289.108 294.521 289.108Z" fill="#383630"/>
<path d="M296.252 289.685C296.252 289.634 296.231 289.586 296.195 289.549C296.159 289.513 296.11 289.493 296.059 289.493H294.136C294.085 289.493 294.036 289.513 294 289.549C293.964 289.586 293.944 289.634 293.944 289.685C293.944 289.736 293.964 289.785 294 289.821C294.036 289.858 294.085 289.878 294.136 289.878H296.059C296.11 289.878 296.159 289.858 296.195 289.821C296.231 289.785 296.252 289.736 296.252 289.685Z" fill="#383630"/>
<path d="M296.059 291.416H295.29C295.239 291.416 295.19 291.436 295.154 291.472C295.118 291.508 295.098 291.557 295.098 291.608V292.762C295.098 292.813 295.118 292.862 295.154 292.898C295.19 292.934 295.239 292.954 295.29 292.954H296.059C296.11 292.954 296.159 292.934 296.195 292.898C296.231 292.862 296.251 292.813 296.251 292.762V291.608C296.251 291.557 296.231 291.508 296.195 291.472C296.159 291.436 296.11 291.416 296.059 291.416ZM295.867 292.57H295.482V291.801H295.867V292.57Z" fill="#383630"/>
<path d="M300.482 282.378C300.482 282.327 300.462 282.278 300.426 282.242C300.39 282.206 300.341 282.186 300.29 282.186H289.906C289.855 282.186 289.806 282.206 289.77 282.242C289.734 282.278 289.713 282.327 289.713 282.378V293.532C289.713 293.583 289.734 293.631 289.77 293.668C289.806 293.704 289.855 293.724 289.906 293.724H300.29C300.341 293.724 300.39 293.704 300.426 293.668C300.462 293.631 300.482 293.583 300.482 293.532V282.378ZM300.098 282.57V287.762H297.021V282.57H300.098ZM293.559 288.147H296.636V293.339H293.559V288.147ZM296.636 282.57V287.762H293.559V282.57H296.636ZM293.175 282.57V287.762H290.098V282.57H293.175ZM293.175 293.339H290.098V288.147H293.175V293.339ZM300.098 293.339H297.021V288.147H300.098V293.339Z" fill="#383630"/>
<path d="M297.982 289.108H299.136C299.187 289.108 299.236 289.088 299.272 289.052C299.308 289.016 299.328 288.967 299.328 288.916C299.328 288.865 299.308 288.816 299.272 288.78C299.236 288.744 299.187 288.724 299.136 288.724H297.982C297.931 288.724 297.882 288.744 297.846 288.78C297.81 288.816 297.79 288.865 297.79 288.916C297.79 288.967 297.81 289.016 297.846 289.052C297.882 289.088 297.931 289.108 297.982 289.108Z" fill="#383630"/>
<path d="M297.598 289.878H299.521C299.572 289.878 299.621 289.858 299.657 289.821C299.693 289.785 299.713 289.736 299.713 289.685C299.713 289.634 299.693 289.586 299.657 289.549C299.621 289.513 299.572 289.493 299.521 289.493H297.598C297.547 289.493 297.498 289.513 297.462 289.549C297.426 289.586 297.405 289.634 297.405 289.685C297.405 289.736 297.426 289.785 297.462 289.821C297.498 289.858 297.547 289.878 297.598 289.878Z" fill="#383630"/>
<path d="M299.521 291.416H298.751C298.7 291.416 298.651 291.436 298.615 291.472C298.579 291.508 298.559 291.557 298.559 291.608V292.762C298.559 292.813 298.579 292.862 298.615 292.898C298.651 292.934 298.7 292.954 298.751 292.954H299.521C299.572 292.954 299.621 292.934 299.657 292.898C299.693 292.862 299.713 292.813 299.713 292.762V291.608C299.713 291.557 299.693 291.508 299.657 291.472C299.621 291.436 299.572 291.416 299.521 291.416ZM299.328 292.57H298.944V291.801H299.328V292.57Z" fill="#383630"/>
<g clip-path="url(#clip2_718_4727)">
<path d="M312.908 159.128C311.022 159.128 310.996 159.128 309.427 159.128C308.587 159.128 307.9 159.811 307.896 160.652L307.872 165.405C307.87 165.763 308.159 166.054 308.516 166.056C308.517 166.056 308.518 166.056 308.519 166.056C308.875 166.056 309.164 165.768 309.166 165.412L309.19 160.658C309.19 160.658 309.19 160.657 309.19 160.656C309.191 160.586 309.249 160.529 309.319 160.53C309.39 160.53 309.447 160.587 309.447 160.658L309.447 171.535C309.447 171.964 309.795 172.312 310.224 172.312C310.652 172.312 311 171.964 311 171.535V165.329H311.335V171.535C311.335 171.964 311.683 172.312 312.112 172.312C312.541 172.312 312.888 171.964 312.888 171.535C312.888 161.271 312.875 167.141 312.874 160.667C312.874 160.595 312.932 160.535 313.004 160.532C313.077 160.529 313.139 160.584 313.145 160.657V160.657L313.141 165.408C313.14 165.765 313.43 166.055 313.787 166.056C313.787 166.056 313.787 166.056 313.788 166.056C314.145 166.056 314.434 165.766 314.435 165.409L314.439 160.655C314.439 160.654 314.439 160.653 314.439 160.652C314.435 159.811 313.748 159.128 312.908 159.128Z" fill="#383630"/>
<path d="M311.168 158.7C311.909 158.7 312.509 158.1 312.509 157.359C312.509 156.619 311.909 156.019 311.168 156.019C310.427 156.019 309.827 156.619 309.827 157.359C309.827 158.1 310.427 158.7 311.168 158.7Z" fill="#383630"/>
<path d="M324.37 164.4C324.358 164.366 323.181 161.01 322.996 160.471C322.698 159.604 322.198 159.164 321.511 159.164C320.549 159.164 320.234 159.164 319.274 159.164C318.586 159.164 318.086 159.604 317.788 160.471C317.603 161.01 316.427 164.366 316.415 164.4C316.297 164.734 316.474 165.101 316.808 165.218C317.144 165.336 317.51 165.159 317.627 164.825C317.665 164.716 318.373 162.749 318.768 161.618C318.727 161.956 318.846 161.255 317.85 166.396C317.807 166.617 317.977 166.821 318.2 166.821C318.338 166.821 318.504 166.821 318.69 166.821V171.481C318.69 171.906 319.035 172.251 319.461 172.251C319.887 172.251 320.232 171.906 320.232 171.481V166.821C320.343 166.821 320.454 166.821 320.565 166.821V171.481C320.565 171.906 320.91 172.251 321.335 172.251C321.761 172.251 322.106 171.906 322.106 171.481V166.821C322.292 166.821 322.458 166.821 322.596 166.821C322.82 166.821 322.989 166.617 322.947 166.396C321.96 161.301 322.069 161.893 322.035 161.618C322.433 162.758 323.12 164.718 323.158 164.825C323.275 165.16 323.642 165.336 323.976 165.218C324.311 165.101 324.487 164.734 324.37 164.4Z" fill="#383630"/>
<path d="M320.399 158.741C321.134 158.741 321.73 158.145 321.73 157.409C321.73 156.674 321.134 156.078 320.399 156.078C319.663 156.078 319.067 156.674 319.067 157.409C319.067 158.145 319.663 158.741 320.399 158.741Z" fill="#383630"/>
<path d="M315.409 156.882C315.135 156.882 314.914 157.104 314.914 157.377V170.951C314.914 171.225 315.135 171.447 315.409 171.447C315.683 171.447 315.905 171.225 315.905 170.951V157.377C315.905 157.104 315.683 156.882 315.409 156.882Z" fill="#383630"/>
</g>
<mask id="path-54-inside-1_718_4727" fill="white">
<path d="M0.595703 0.48584H81.4738V76.0893H0.595703V0.48584Z"/>
</mask>
<path d="M0.595703 0.48584V-0.39327H-0.283407V0.48584H0.595703ZM81.4738 0.48584H82.3529V-0.39327H81.4738V0.48584ZM0.595703 0.48584V1.36495H81.4738V0.48584V-0.39327H0.595703V0.48584ZM81.4738 0.48584H80.5947V76.0893H81.4738H82.3529V0.48584H81.4738ZM0.595703 76.0893H1.47481V0.48584H0.595703H-0.283407V76.0893H0.595703Z" fill="#383630" mask="url(#path-54-inside-1_718_4727)"/>
<mask id="path-56-inside-2_718_4727" fill="white">
<path d="M0.595703 218.505H81.4738V302.899H0.595703V218.505Z"/>
</mask>
<path d="M0.595703 302.899H-0.283407V303.779H0.595703V302.899ZM81.4738 302.899V302.02H0.595703V302.899V303.779H81.4738V302.899ZM0.595703 302.899H1.47481V218.505H0.595703H-0.283407V302.899H0.595703Z" fill="#383630" mask="url(#path-56-inside-2_718_4727)"/>
<mask id="path-58-inside-3_718_4727" fill="white">
<path d="M81.4741 218.505H169.385V302.899H81.4741V218.505Z"/>
</mask>
<path d="M81.4741 218.505V219.384H169.385V218.505V217.626H81.4741V218.505ZM169.385 302.899V302.02H81.4741V302.899V303.779H169.385V302.899Z" fill="#383630" mask="url(#path-58-inside-3_718_4727)"/>
<mask id="path-60-inside-4_718_4727" fill="white">
<path d="M332.899 214.988H420.81V302.899H332.899V214.988Z"/>
</mask>
<path d="M332.899 214.988V215.867H420.81V214.988V214.109H332.899V214.988ZM420.81 302.899V302.02H332.899V302.899V303.778H420.81V302.899Z" fill="#383630" mask="url(#path-60-inside-4_718_4727)"/>
<mask id="path-62-inside-5_718_4727" fill="white">
<path d="M420.811 2.24414H501.689V302.9H420.811V2.24414Z"/>
</mask>
<path d="M501.689 2.24414H502.568V1.36503H501.689V2.24414ZM501.689 302.9V303.779H502.568V302.9H501.689ZM420.811 2.24414V3.12325H501.689V2.24414V1.36503H420.811V2.24414ZM501.689 2.24414H500.81V302.9H501.689H502.568V2.24414H501.689ZM501.689 302.9V302.021H420.811V302.9V303.779H501.689V302.9Z" fill="#383630" mask="url(#path-62-inside-5_718_4727)"/>
<rect x="300.106" y="149.881" width="33.1169" height="53.114" stroke="#383630" stroke-width="0.87911"/>
<mask id="path-65-inside-6_718_4727" fill="white">
<path d="M216.495 74.8408H284.993V202.88H216.495V74.8408Z"/>
</mask>
<path d="M216.495 74.8408V73.9617H215.616V74.8408H216.495ZM284.993 74.8408H285.872V73.9617H284.993V74.8408ZM216.495 74.8408V75.7199H284.993V74.8408V73.9617H216.495V74.8408ZM284.993 74.8408H284.114V202.88H284.993H285.872V74.8408H284.993ZM216.495 202.88H217.374V74.8408H216.495H215.616V202.88H216.495Z" fill="#383630" mask="url(#path-65-inside-6_718_4727)"/>
<mask id="path-67-inside-7_718_4727" fill="white">
<path d="M0.595703 72.5732H81.4738V218.506H0.595703V72.5732Z"/>
</mask>
<path d="M81.4738 72.5732H80.5947V218.506H81.4738H82.3529V72.5732H81.4738ZM0.595703 218.506H1.47481V72.5732H0.595703H-0.283407V218.506H0.595703Z" fill="#383630" mask="url(#path-67-inside-7_718_4727)"/>
<line x1="284.878" y1="149.867" x2="301.209" y2="149.867" stroke="#383630" stroke-width="0.87911"/>
<path d="M168.949 218.505L168.949 202.681" stroke="#383630" stroke-width="0.87911"/>
<line x1="168.508" y1="202.44" x2="217.298" y2="202.44" stroke="#383630" stroke-width="0.87911"/>
<rect x="168.067" y="271.692" width="48.3511" height="30.7689" stroke="#383630" stroke-width="0.87911"/>
<line x1="284.109" y1="273.01" x2="284.109" y2="302.462" stroke="#383630" stroke-width="0.87911"/>
<line x1="333.339" y1="273.01" x2="333.339" y2="302.11" stroke="#383630" stroke-width="0.87911"/>
<line x1="283.669" y1="272.57" x2="302.251" y2="272.57" stroke="#383630" stroke-width="0.87911"/>
<line x1="317.076" y1="272.57" x2="333.729" y2="272.57" stroke="#383630" stroke-width="0.87911"/>
<line x1="216.857" y1="302.46" x2="332.899" y2="302.46" stroke="#383630" stroke-width="0.87911"/>
<line x1="333.253" y1="203.435" x2="333.253" y2="218.539" stroke="#383630" stroke-width="0.87911"/>
<path d="M213.708 255.399L210.925 255.401C210.508 255.402 210.23 255.68 210.23 256.098C210.231 256.515 210.509 256.793 210.926 256.793L213.013 256.791L213.015 258.878C213.015 259.295 213.294 259.573 213.711 259.573L215.798 259.571L215.8 261.658C215.8 262.075 216.079 262.353 216.496 262.353L218.583 262.351L218.585 264.438C218.585 264.855 218.863 265.133 219.281 265.133L222.063 265.131C222.481 265.13 222.759 264.852 222.758 264.434C222.758 264.017 222.479 263.739 222.062 263.739L219.975 263.741L219.973 261.654C219.973 261.237 219.695 260.959 219.277 260.959L217.19 260.961L217.189 258.874C217.188 258.457 216.91 258.179 216.492 258.179L214.406 258.181L214.404 256.094C214.404 255.677 214.125 255.399 213.708 255.399Z" fill="#383630"/>
<path d="M281.682 255.39L284.464 255.39C284.881 255.39 285.16 255.669 285.16 256.086C285.16 256.503 284.881 256.782 284.464 256.782L282.377 256.782L282.377 258.868C282.377 259.286 282.099 259.564 281.682 259.564L279.595 259.564L279.595 261.651C279.595 262.068 279.316 262.346 278.899 262.346L276.812 262.346L276.812 264.433C276.812 264.851 276.534 265.129 276.117 265.129L273.334 265.129C272.917 265.129 272.639 264.851 272.639 264.433C272.639 264.016 272.917 263.738 273.334 263.738L275.421 263.738L275.421 261.651C275.421 261.233 275.699 260.955 276.117 260.955L278.204 260.955L278.204 258.868C278.204 258.451 278.482 258.173 278.899 258.173L280.986 258.173L280.986 256.086C280.986 255.669 281.264 255.39 281.682 255.39Z" fill="#383630"/>
<g clip-path="url(#clip3_718_4727)">
<path d="M231.225 277.866C226.852 277.866 223.313 281.405 223.313 285.778C223.313 290.152 226.852 293.69 231.225 293.69C235.599 293.69 239.137 290.151 239.137 285.778C239.137 281.405 235.598 277.866 231.225 277.866ZM231.225 292.454C227.535 292.454 224.55 289.468 224.55 285.778C224.55 282.088 227.536 279.102 231.225 279.102C234.915 279.102 237.901 282.088 237.901 285.778C237.901 289.468 234.915 292.454 231.225 292.454Z" fill="#383630"/>
<path d="M231.226 284.489C230.884 284.489 230.607 284.766 230.607 285.107V289.088C230.607 289.429 230.884 289.706 231.226 289.706C231.567 289.706 231.844 289.429 231.844 289.088V285.107C231.844 284.766 231.567 284.489 231.226 284.489Z" fill="#383630"/>
<path d="M231.226 283.732C231.686 283.732 232.06 283.359 232.06 282.898C232.06 282.437 231.686 282.063 231.226 282.063C230.765 282.063 230.391 282.437 230.391 282.898C230.391 283.359 230.765 283.732 231.226 283.732Z" fill="#383630"/>
</g>
<path d="M199.82 234.767C200.461 234.767 200.981 234.285 200.981 233.691C200.981 233.096 200.461 232.613 199.82 232.613C199.18 232.613 198.66 233.096 198.66 233.691C198.66 234.285 199.18 234.767 199.82 234.767Z" fill="#383630"/>
<path d="M199.82 234.92C198.431 234.92 198.027 235.462 197.858 237.556C197.842 237.744 197.994 237.908 198.197 237.923C198.206 237.923 198.216 237.924 198.225 237.924C198.416 237.924 198.577 237.787 198.592 237.607C198.654 236.834 198.736 236.36 198.857 236.069C198.845 236.126 198.838 236.186 198.838 236.247V237.562C198.838 237.633 198.848 237.701 198.864 237.767V240.654C198.864 240.874 199.056 241.053 199.293 241.053C199.531 241.053 199.723 240.874 199.723 240.654V238.469C199.755 238.472 199.787 238.473 199.82 238.473C199.852 238.473 199.884 238.472 199.916 238.469V240.654C199.916 240.874 200.108 241.053 200.345 241.053C200.583 241.053 200.775 240.874 200.775 240.654V237.768C200.792 237.702 200.801 237.633 200.801 237.562V236.247C200.801 236.186 200.794 236.127 200.782 236.069C200.903 236.361 200.985 236.835 201.047 237.607C201.063 237.796 201.24 237.937 201.442 237.923C201.645 237.908 201.797 237.744 201.782 237.556C201.612 235.462 201.209 234.92 199.82 234.92Z" fill="#383630"/>
<path d="M204.17 234.767C204.811 234.767 205.331 234.285 205.331 233.691C205.331 233.096 204.811 232.613 204.17 232.613C203.53 232.613 203.01 233.096 203.01 233.691C203.01 234.285 203.53 234.767 204.17 234.767Z" fill="#383630"/>
<path d="M204.171 234.92C202.781 234.92 202.378 235.462 202.209 237.556C202.193 237.744 202.345 237.908 202.548 237.923C202.557 237.923 202.567 237.924 202.576 237.924C202.767 237.924 202.928 237.787 202.943 237.607C203.002 236.876 203.078 236.412 203.189 236.117V237.162L202.824 238.687C202.817 238.716 202.824 238.747 202.845 238.771C202.865 238.795 202.896 238.808 202.929 238.808H203.215V240.654C203.215 240.874 203.407 241.053 203.644 241.053C203.882 241.053 204.074 240.874 204.074 240.654V238.808H204.267V240.654C204.267 240.874 204.46 241.053 204.697 241.053C204.934 241.053 205.126 240.874 205.126 240.654V238.808H205.412C205.413 238.808 205.413 238.808 205.414 238.808C205.473 238.808 205.522 238.764 205.522 238.708C205.522 238.695 205.519 238.683 205.514 238.672L205.152 237.161V236.117C205.263 236.411 205.339 236.875 205.399 237.607C205.414 237.796 205.591 237.937 205.793 237.923C205.996 237.909 206.148 237.744 206.133 237.556C205.963 235.462 205.56 234.92 204.171 234.92Z" fill="#383630"/>
<path d="M206.956 230.146H197.035C195.918 230.146 195.009 230.99 195.009 232.028V241.24C195.009 242.277 195.918 243.121 197.035 243.121H206.956C208.073 243.121 208.981 242.277 208.981 241.24V232.028C208.981 230.99 208.073 230.146 206.956 230.146ZM207.735 241.24C207.735 241.639 207.385 241.964 206.956 241.964H197.035C196.605 241.964 196.255 241.639 196.255 241.24V232.028C196.255 231.629 196.605 231.304 197.035 231.304H206.956C207.385 231.304 207.735 231.628 207.735 232.028V241.24H207.735Z" fill="#383630"/>
<path d="M199.015 226.509C199.076 226.452 199.137 226.396 199.198 226.339V228.454C199.198 228.55 199.194 228.643 199.225 228.736C199.309 228.987 199.573 229.157 199.855 229.143C200.137 229.128 200.379 228.933 200.432 228.676C200.449 228.596 200.444 228.513 200.444 228.432V226.339C200.589 226.474 200.723 226.623 200.934 226.665C201.252 226.729 201.579 226.548 201.667 226.257C201.73 226.048 201.659 225.831 201.496 225.68L200.262 224.533C200.07 224.355 199.766 224.314 199.527 224.432C199.428 224.481 199.353 224.558 199.275 224.631L198.181 225.647C198.127 225.697 198.074 225.747 198.035 225.809C197.936 225.967 197.925 226.165 198.004 226.332C198.177 226.699 198.71 226.792 199.015 226.509Z" fill="#383630"/>
<path d="M203.73 228.975C203.921 229.153 204.225 229.195 204.464 229.077C204.563 229.027 204.638 228.951 204.716 228.878L205.81 227.862C205.864 227.812 205.917 227.762 205.956 227.7C206.055 227.541 206.067 227.344 205.988 227.176C205.814 226.809 205.281 226.717 204.976 227C204.915 227.056 204.854 227.113 204.794 227.169V225.055C204.794 224.959 204.797 224.865 204.766 224.773C204.682 224.522 204.418 224.352 204.136 224.366C203.855 224.38 203.612 224.576 203.559 224.833C203.542 224.913 203.547 224.996 203.547 225.077V227.169C203.402 227.034 203.268 226.886 203.057 226.844C202.739 226.78 202.412 226.961 202.324 227.252C202.261 227.461 202.332 227.677 202.495 227.829L203.73 228.975Z" fill="#383630"/>
<mask id="path-91-inside-8_718_4727" fill="white">
<path d="M169.385 213.23H190.484V248.895H169.385V213.23Z"/>
</mask>
<path d="M169.385 213.23H190.484V248.895H169.385V213.23Z" fill="#FAF5F0"/>
<path d="M190.484 213.23H191.363V212.351H190.484V213.23ZM169.385 213.23V214.11H190.484V213.23V212.351H169.385V213.23ZM190.484 213.23H189.605V248.895H190.484H191.363V213.23H190.484Z" fill="#383630" mask="url(#path-91-inside-8_718_4727)"/>
<line x1="189.605" y1="248.433" x2="208.981" y2="248.433" stroke="#383630" stroke-width="0.87911"/>
<line x1="207.044" y1="248.455" x2="216.153" y2="248.455" stroke="#383630" stroke-width="0.87911"/>
<line x1="215.823" y1="248.896" x2="215.714" y2="220.332" stroke="#383630" stroke-width="0.87911"/>
<line x1="198.659" y1="220.77" x2="189.683" y2="220.77" stroke="#383630" stroke-width="0.87911"/>
<line x1="216.153" y1="220.77" x2="205.469" y2="220.77" stroke="#383630" stroke-width="0.87911"/>
<g clip-path="url(#clip4_718_4727)">
<path d="M182.185 236.089L184.968 236.091C185.386 236.091 185.664 236.37 185.664 236.787C185.664 237.205 185.385 237.483 184.967 237.483L182.879 237.481L182.878 239.569C182.877 239.987 182.599 240.265 182.181 240.264L180.093 240.263L180.091 242.35C180.091 242.768 179.813 243.046 179.395 243.046L177.307 243.044L177.305 245.132C177.305 245.55 177.026 245.828 176.609 245.827L173.825 245.825C173.407 245.825 173.129 245.546 173.13 245.128C173.13 244.711 173.408 244.433 173.826 244.433L175.914 244.435L175.916 242.347C175.916 241.929 176.195 241.651 176.612 241.652L178.7 241.653L178.702 239.565C178.702 239.148 178.981 238.87 179.398 238.87L181.486 238.872L181.488 236.784C181.488 236.366 181.767 236.088 182.185 236.089Z" fill="#383630"/>
</g>
<line x1="229.201" y1="208.614" x2="272.286" y2="208.614" stroke="#383630" stroke-width="0.87911"/>
<line x1="229.626" y1="208.942" x2="234.002" y2="225.538" stroke="#383630" stroke-width="0.87911"/>
<line x1="233.577" y1="225.211" x2="268.818" y2="225.211" stroke="#383630" stroke-width="0.87911"/>
<line x1="235.312" y1="220.972" x2="265.697" y2="220.972" stroke="#383630" stroke-width="0.87911"/>
<line x1="238.68" y1="216.567" x2="262.5" y2="216.567" stroke="#383630" stroke-width="0.87911"/>
<line x1="241.546" y1="212.511" x2="259.893" y2="212.511" stroke="#383630" stroke-width="0.87911"/>
<line x1="268.387" y1="225.56" x2="271.855" y2="208.964" stroke="#383630" stroke-width="0.87911"/>
<line x1="265.271" y1="221.304" x2="268.391" y2="208.946" stroke="#383630" stroke-width="0.87911"/>
<line x1="262.076" y1="216.892" x2="264.355" y2="208.434" stroke="#383630" stroke-width="0.87911"/>
<line x1="259.469" y1="212.836" x2="260.654" y2="208.435" stroke="#383630" stroke-width="0.87911"/>
<line x1="241.973" y1="212.815" x2="240.887" y2="208.919" stroke="#383630" stroke-width="0.87911"/>
<line x1="239.11" y1="216.899" x2="236.929" y2="208.68" stroke="#383630" stroke-width="0.87911"/>
<line x1="235.741" y1="221.316" x2="233.147" y2="209.176" stroke="#383630" stroke-width="0.87911"/>
<line x1="421.25" y1="2.24423" x2="421.207" y2="216.368" stroke="#383630" stroke-width="0.87911"/>
<g clip-path="url(#clip5_718_4727)">
<path d="M318.862 191.586C318.542 191.445 318.168 191.594 318.03 191.915C317.379 193.414 315.9 194.382 314.262 194.382C311.993 194.382 310.147 192.536 310.147 190.268C310.147 188.797 310.94 187.432 312.215 186.703C312.519 186.53 312.624 186.144 312.451 185.84C312.278 185.536 311.89 185.428 311.587 185.604C309.918 186.557 308.881 188.344 308.881 190.268C308.881 193.235 311.295 195.648 314.262 195.648C316.405 195.648 318.34 194.38 319.191 192.419C319.33 192.098 319.183 191.726 318.862 191.586Z" fill="#383630"/>
<path d="M323.394 192.249C323.263 191.923 322.898 191.765 322.571 191.895L321.624 192.275L320.246 187.864C320.163 187.599 319.918 187.42 319.641 187.42H315.12L314.923 186.154H317.426C317.776 186.154 318.059 185.871 318.059 185.521C318.059 185.171 317.776 184.888 317.426 184.888H314.727L314.4 182.78C314.881 182.507 315.21 181.998 315.21 181.407C315.21 180.534 314.501 179.824 313.628 179.824C312.756 179.824 312.045 180.534 312.045 181.407C312.045 182.107 312.506 182.696 313.139 182.904L313.952 188.15C314 188.458 314.265 188.686 314.577 188.686H319.176L320.619 193.305C320.672 193.473 320.792 193.612 320.952 193.688C321.037 193.729 321.131 193.749 321.223 193.749C321.303 193.749 321.383 193.735 321.459 193.704L323.041 193.071C323.366 192.942 323.523 192.573 323.394 192.249Z" fill="#383630"/>
</g>
<mask id="path-115-inside-9_718_4727" fill="white">
<path d="M332.899 213.23H311.801V248.395H332.899V213.23Z"/>
</mask>
<path d="M332.899 213.23H311.801V248.395H332.899V213.23Z" fill="#FAF5F0"/>
<path d="M311.801 213.23H310.922V212.351H311.801V213.23ZM332.899 213.23V214.11H311.801V213.23V212.351H332.899V213.23ZM311.801 213.23H312.68V248.395H311.801H310.922V213.23H311.801Z" fill="#383630" mask="url(#path-115-inside-9_718_4727)"/>
<line y1="-0.439555" x2="8.7911" y2="-0.439555" transform="matrix(1 0 0 -1 303.01 220.264)" stroke="#383630" stroke-width="0.87911"/>
<line y1="-0.439555" x2="10.5493" y2="-0.439555" transform="matrix(1 0 0 -1 285.428 220.264)" stroke="#383630" stroke-width="0.87911"/>
<line x1="284.988" y1="248.395" x2="284.988" y2="220.263" stroke="#383630" stroke-width="0.87911"/>
<path d="M301.668 234.474C301.027 234.474 300.508 233.993 300.508 233.398C300.508 232.803 301.027 232.32 301.668 232.32C302.308 232.32 302.828 232.803 302.828 233.398C302.828 233.993 302.308 234.474 301.668 234.474Z" fill="#383630"/>
<path d="M301.669 234.627C303.058 234.627 303.461 235.169 303.631 237.263C303.646 237.451 303.494 237.615 303.291 237.63C303.282 237.63 303.273 237.631 303.263 237.631C303.073 237.631 302.911 237.494 302.897 237.314C302.834 236.541 302.752 236.067 302.631 235.776C302.643 235.834 302.65 235.893 302.65 235.954V237.269C302.65 237.34 302.641 237.408 302.624 237.474V240.361C302.624 240.581 302.432 240.76 302.195 240.76C301.958 240.76 301.766 240.581 301.766 240.361V238.176C301.734 238.179 301.701 238.18 301.669 238.18C301.636 238.18 301.604 238.179 301.572 238.176V240.361C301.572 240.581 301.38 240.76 301.143 240.76C300.906 240.76 300.713 240.581 300.713 240.361V237.475C300.697 237.409 300.687 237.34 300.687 237.269V235.954C300.687 235.893 300.694 235.834 300.706 235.776C300.585 236.068 300.503 236.542 300.441 237.314C300.426 237.503 300.249 237.644 300.046 237.63C299.843 237.615 299.691 237.451 299.707 237.263C299.876 235.169 300.28 234.627 301.669 234.627Z" fill="#383630"/>
<path d="M297.318 234.474C296.677 234.474 296.157 233.993 296.157 233.398C296.157 232.803 296.677 232.32 297.318 232.32C297.958 232.32 298.478 232.803 298.478 233.398C298.478 233.993 297.958 234.474 297.318 234.474Z" fill="#383630"/>
<path d="M297.318 234.627C298.707 234.627 299.11 235.169 299.28 237.263C299.295 237.451 299.143 237.615 298.94 237.63C298.931 237.63 298.922 237.631 298.912 237.631C298.721 237.631 298.56 237.494 298.546 237.314C298.486 236.583 298.41 236.119 298.299 235.824V236.869L298.665 238.394C298.672 238.423 298.664 238.454 298.643 238.478C298.623 238.502 298.592 238.515 298.559 238.515H298.273V240.361C298.273 240.581 298.081 240.76 297.844 240.76C297.607 240.76 297.414 240.581 297.414 240.361V238.515H297.221V240.361C297.221 240.581 297.029 240.76 296.792 240.76C296.554 240.76 296.362 240.581 296.362 240.361V238.515H296.076C296.075 238.515 296.075 238.515 296.075 238.515C296.015 238.515 295.967 238.471 295.967 238.415C295.967 238.402 295.969 238.39 295.974 238.379L296.336 236.868V235.824C296.225 236.118 296.149 236.582 296.09 237.314C296.074 237.503 295.898 237.644 295.695 237.63C295.492 237.616 295.34 237.451 295.356 237.263C295.525 235.169 295.928 234.627 297.318 234.627Z" fill="#383630"/>
<path d="M294.533 229.854H304.454C305.571 229.854 306.479 230.697 306.479 231.735V240.947C306.479 241.984 305.571 242.828 304.454 242.828H294.533C293.416 242.828 292.507 241.984 292.507 240.947V231.735C292.507 230.697 293.416 229.854 294.533 229.854ZM293.753 240.947C293.753 241.346 294.103 241.671 294.533 241.671H304.454C304.883 241.671 305.233 241.346 305.233 240.947V231.735C305.233 231.336 304.883 231.011 304.454 231.011H294.533C294.103 231.011 293.753 231.336 293.753 231.735V240.947H293.753Z" fill="#383630"/>
<path d="M302.473 226.216C302.412 226.159 302.352 226.103 302.291 226.047V228.161C302.291 228.257 302.294 228.35 302.263 228.443C302.179 228.694 301.915 228.864 301.633 228.85C301.352 228.835 301.109 228.64 301.056 228.383C301.039 228.303 301.044 228.22 301.044 228.139V226.047C300.899 226.181 300.765 226.33 300.554 226.372C300.237 226.436 299.909 226.255 299.821 225.964C299.758 225.755 299.829 225.538 299.992 225.387L301.227 224.24C301.418 224.062 301.722 224.021 301.961 224.139C302.06 224.188 302.135 224.265 302.213 224.338L303.307 225.354C303.361 225.404 303.414 225.454 303.453 225.516C303.552 225.674 303.564 225.872 303.485 226.039C303.311 226.406 302.778 226.499 302.473 226.216Z" fill="#383630"/>
<path d="M297.759 228.683C297.567 228.861 297.264 228.902 297.024 228.784C296.926 228.734 296.851 228.658 296.773 228.585L295.679 227.569C295.624 227.519 295.572 227.469 295.533 227.407C295.434 227.248 295.422 227.051 295.501 226.883C295.675 226.516 296.208 226.424 296.513 226.707C296.573 226.763 296.634 226.82 296.695 226.876V224.762C296.695 224.666 296.692 224.572 296.723 224.48C296.806 224.229 297.071 224.059 297.353 224.073C297.634 224.087 297.876 224.283 297.93 224.54C297.947 224.62 297.941 224.703 297.941 224.784V226.876C298.087 226.742 298.22 226.593 298.432 226.551C298.749 226.487 299.077 226.668 299.165 226.959C299.228 227.168 299.157 227.385 298.994 227.536L297.759 228.683Z" fill="#383630"/>
<path d="M320.885 234.299L318.103 234.302C317.686 234.302 317.408 234.581 317.408 234.998C317.408 235.415 317.687 235.693 318.104 235.693L320.191 235.691L320.193 237.778C320.193 238.196 320.472 238.474 320.889 238.473L322.976 238.471L322.978 240.558C322.978 240.976 323.256 241.254 323.674 241.253L325.761 241.252L325.762 243.338C325.763 243.756 326.041 244.034 326.459 244.033L329.241 244.031C329.658 244.031 329.936 243.752 329.936 243.335C329.936 242.918 329.657 242.639 329.24 242.64L327.153 242.642L327.151 240.555C327.151 240.137 326.872 239.859 326.455 239.86L324.368 239.861L324.366 237.775C324.366 237.357 324.088 237.079 323.67 237.08L321.583 237.081L321.582 234.995C321.581 234.577 321.303 234.299 320.885 234.299Z" fill="#383630"/>
<path d="M51.5845 1.36475H30.4858V17.733H51.5845V1.36475Z" fill="#FAF5F0"/>
<path d="M37.8122 3.97282L35.0297 3.97516C34.6123 3.97551 34.3343 4.25399 34.3347 4.67136C34.335 5.08873 34.6135 5.36674 35.0309 5.36639L37.1177 5.36464L37.1195 7.45148C37.1198 7.86885 37.3983 8.14686 37.8157 8.14651L39.9025 8.14476L39.9043 10.2316C39.9046 10.649 40.1831 10.927 40.6005 10.9266L42.6873 10.9249L42.6891 13.0117C42.6894 13.4291 42.9679 13.7071 43.3853 13.7068L46.1677 13.7044C46.5851 13.7041 46.8631 13.4256 46.8628 13.0082C46.8624 12.5908 46.5839 12.3128 46.1666 12.3132L44.0797 12.3149L44.078 10.2281C44.0776 9.81073 43.7991 9.53272 43.3818 9.53307L41.2949 9.53482L41.2932 7.44797C41.2928 7.03061 41.0143 6.75259 40.597 6.75294L38.5101 6.7547L38.5084 4.66785C38.508 4.25048 38.2295 3.97247 37.8122 3.97282Z" fill="#383630"/>
<line y1="-0.439555" x2="8.7911" y2="-0.439555" transform="matrix(-1 0 0 1 311.801 248.395)" stroke="#383630" stroke-width="0.87911"/>
<line x1="311.533" y1="247.96" x2="285.16" y2="247.96" stroke="#383630" stroke-width="0.87911"/>
<line x1="421.25" y1="214.988" x2="421.25" y2="251.911" stroke="#383630" stroke-width="0.87911"/>
<line x1="421.25" y1="264.219" x2="421.25" y2="301.141" stroke="#383630" stroke-width="0.87911"/>
<line x1="81.0343" y1="218.505" x2="81.0343" y2="253.669" stroke="#383630" stroke-width="0.87911"/>
<line x1="81.0343" y1="265.977" x2="81.0343" y2="302.899" stroke="#383630" stroke-width="0.87911"/>
<line x1="81.4741" y1="218.944" x2="46.8121" y2="218.944" stroke="#383630" stroke-width="0.87911"/>
<line x1="35.2583" y1="218.944" x2="0.596245" y2="218.944" stroke="#383630" stroke-width="0.87911"/>
<line x1="81.4741" y1="55.4308" x2="46.8121" y2="55.4308" stroke="#383630" stroke-width="0.87911"/>
<line x1="35.2583" y1="55.4308" x2="0.596245" y2="55.4308" stroke="#383630" stroke-width="0.87911"/>
<defs>
<clipPath id="clip0_718_4727">
<rect width="12.3075" height="12.3075" fill="white" transform="translate(315.317 281.801)"/>
</clipPath>
<clipPath id="clip1_718_4727">
<rect width="12.3075" height="12.3075" fill="white" transform="translate(285.428 162.231) rotate(-90)"/>
</clipPath>
<clipPath id="clip2_718_4727">
<rect width="17.5822" height="17.5822" fill="white" transform="translate(307.873 155.374)"/>
</clipPath>
<clipPath id="clip3_718_4727">
<rect width="15.824" height="15.824" fill="white" transform="translate(223.314 277.865)"/>
</clipPath>
<clipPath id="clip4_718_4727">
<rect width="16.7031" height="16.7031" fill="white" transform="translate(187.742 249.316) rotate(-179.952)"/>
</clipPath>
<clipPath id="clip5_718_4727">
<rect width="15.824" height="15.824" fill="white" transform="translate(308.249 179.824)"/>
</clipPath>
</defs>
</svg>
