<svg width="28" height="27" viewBox="0 0 28 27" fill="none" xmlns="http://www.w3.org/2000/svg">
<g clip-path="url(#clip0_717_4723)">
<path d="M7.11276 20.8474C5.31171 20.8474 3.70966 19.6942 3.12792 17.9775L3.08857 17.8481C2.95138 17.3934 2.8939 17.0111 2.8939 16.6286V8.95801L0.164627 18.0685C-0.186395 19.4085 0.613498 20.7978 1.95558 21.168L19.352 25.8268C19.5691 25.8831 19.7862 25.9101 20 25.9101C21.1205 25.9101 22.1443 25.1664 22.4312 24.0705L23.4447 20.8474H7.11276Z" fill="#383630" fill-opacity="0.6"/>
<path d="M10.2062 9.03492C11.4471 9.03492 12.4561 8.02573 12.4561 6.78479C12.4561 5.54386 11.4471 4.53467 10.2062 4.53467C8.96524 4.53467 7.95605 5.54386 7.95605 6.78479C7.95605 8.02573 8.96524 9.03492 10.2062 9.03492Z" fill="#383630" fill-opacity="0.6"/>
<path d="M24.269 1.15967H7.39356C5.84341 1.15967 4.58105 2.42203 4.58105 3.97237V16.3475C4.58105 17.8979 5.84341 19.1602 7.39356 19.1602H24.269C25.8193 19.1602 27.0817 17.8979 27.0817 16.3475V3.97237C27.0817 2.42203 25.8193 1.15967 24.269 1.15967ZM7.39356 3.40979H24.269C24.5796 3.40979 24.8316 3.66173 24.8316 3.97237V11.9589L21.2777 7.81198C20.9007 7.36991 20.355 7.13363 19.7689 7.12024C19.1862 7.12354 18.6394 7.38227 18.266 7.83011L14.0875 12.8454L12.7262 11.4874C11.9568 10.718 10.7046 10.718 9.9362 11.4874L6.83118 14.5914V3.97237C6.83118 3.66173 7.08312 3.40979 7.39356 3.40979Z" fill="#383630" fill-opacity="0.6"/>
</g>
<defs>
<clipPath id="clip0_717_4723">
<rect width="27" height="27" fill="white" transform="translate(0.0820312)"/>
</clipPath>
</defs>
</svg>
