<svg width="15" height="13" viewBox="0 0 15 13" fill="none" xmlns="http://www.w3.org/2000/svg">
<g id="Group 12">
<path id="Vector" d="M0.75 2.04602H9.75C9.94891 2.04602 10.1397 1.95513 10.2803 1.79336C10.421 1.63159 10.5 1.41219 10.5 1.18341C10.5 0.954631 10.421 0.735223 10.2803 0.573453C10.1397 0.411683 9.94891 0.320801 9.75 0.320801H0.75C0.551088 0.320801 0.360322 0.411683 0.21967 0.573453C0.0790176 0.735223 0 0.954631 0 1.18341C0 1.41219 0.0790176 1.63159 0.21967 1.79336C0.360322 1.95513 0.551088 2.04602 0.75 2.04602Z" fill="#383630" fill-opacity="0.8"/>
<path id="Vector_2" d="M0.75 7.22155H14.25C14.4489 7.22155 14.6397 7.13067 14.7803 6.9689C14.921 6.80713 15 6.58772 15 6.35895C15 6.13017 14.921 5.91076 14.7803 5.74899C14.6397 5.58722 14.4489 5.49634 14.25 5.49634H0.75C0.551088 5.49634 0.360322 5.58722 0.21967 5.74899C0.0790176 5.91076 0 6.13017 0 6.35895C0 6.58772 0.0790176 6.80713 0.21967 6.9689C0.360322 7.13067 0.551088 7.22155 0.75 7.22155Z" fill="#383630" fill-opacity="0.8"/>
<path id="Vector_3" d="M0.75 12.3973H9.75C9.94891 12.3973 10.1397 12.3065 10.2803 12.1447C10.421 11.9829 10.5 11.7635 10.5 11.5347C10.5 11.3059 10.421 11.0865 10.2803 10.9248C10.1397 10.763 9.94891 10.6721 9.75 10.6721H0.75C0.551088 10.6721 0.360322 10.763 0.21967 10.9248C0.0790176 11.0865 0 11.3059 0 11.5347C0 11.7635 0.0790176 11.9829 0.21967 12.1447C0.360322 12.3065 0.551088 12.3973 0.75 12.3973Z" fill="#383630" fill-opacity="0.8"/>
</g>
</svg>
