<svg width="15" height="13" viewBox="0 0 15 13" fill="none" xmlns="http://www.w3.org/2000/svg">
<g clip-path="url(#clip0_733_5368)">
<path d="M0.75 2.04602H9.75C9.94891 2.04602 10.1397 1.95513 10.2803 1.79336C10.421 1.63159 10.5 1.41219 10.5 1.18341C10.5 0.954631 10.421 0.735223 10.2803 0.573453C10.1397 0.411683 9.94891 0.320801 9.75 0.320801H0.75C0.551088 0.320801 0.360322 0.411683 0.21967 0.573453C0.0790176 0.735223 0 0.954631 0 1.18341C0 1.41219 0.0790176 1.63159 0.21967 1.79336C0.360322 1.95513 0.551088 2.04602 0.75 2.04602Z" fill="#F9DB15"/>
<path d="M0.75 7.22179H14.25C14.4489 7.22179 14.6397 7.13091 14.7803 6.96914C14.921 6.80737 15 6.58796 15 6.35919C15 6.13041 14.921 5.911 14.7803 5.74923C14.6397 5.58746 14.4489 5.49658 14.25 5.49658H0.75C0.551088 5.49658 0.360322 5.58746 0.21967 5.74923C0.0790176 5.911 0 6.13041 0 6.35919C0 6.58796 0.0790176 6.80737 0.21967 6.96914C0.360322 7.13091 0.551088 7.22179 0.75 7.22179Z" fill="#F9DB15"/>
<path d="M0.75 12.3971H9.75C9.94891 12.3971 10.1397 12.3063 10.2803 12.1445C10.421 11.9827 10.5 11.7633 10.5 11.5345C10.5 11.3057 10.421 11.0863 10.2803 10.9246C10.1397 10.7628 9.94891 10.6719 9.75 10.6719H0.75C0.551088 10.6719 0.360322 10.7628 0.21967 10.9246C0.0790176 11.0863 0 11.3057 0 11.5345C0 11.7633 0.0790176 11.9827 0.21967 12.1445C0.360322 12.3063 0.551088 12.3971 0.75 12.3971Z" fill="#F9DB15"/>
</g>
<defs>
<clipPath id="clip0_733_5368">
<rect width="15" height="13" fill="white"/>
</clipPath>
</defs>
</svg>
