<svg width="31" height="22" viewBox="0 0 31 22" fill="none" xmlns="http://www.w3.org/2000/svg">
<g clip-path="url(#clip0_737_5394)">
<path d="M27.816 0.915039H3.3916C1.95259 0.915039 0.787109 2.08122 0.787109 3.50502V19.0449C0.787109 20.4772 1.96116 21.6349 3.3916 21.6349H27.816C29.2429 21.6349 30.4204 20.4821 30.4204 19.0449V3.50502C30.4204 2.08375 29.2596 0.915039 27.816 0.915039ZM27.4512 2.6417C26.9191 3.16804 17.7616 12.2265 17.4454 12.5393C16.9535 13.0285 16.2995 13.2979 15.6038 13.2979C14.9081 13.2979 14.2541 13.0285 13.7605 12.5377C13.5478 12.3273 4.49145 3.36885 3.75635 2.6417H27.4512ZM2.52344 18.6935V3.85755L10.0266 11.2796L2.52344 18.6935ZM3.75745 19.9083L11.2576 12.4973L12.5344 13.7602C13.3542 14.5755 14.4443 15.0245 15.6038 15.0245C16.7632 15.0245 17.8533 14.5755 18.6716 13.7618L19.9499 12.4973L27.4501 19.9083H3.75745ZM28.6841 18.6935L21.181 11.2796L28.6841 3.85755V18.6935Z" fill="#F9DB15"/>
</g>
<defs>
<clipPath id="clip0_737_5394">
<rect width="31" height="22" fill="white"/>
</clipPath>
</defs>
</svg>
