<svg width="25" height="24" viewBox="0 0 25 24" fill="none" xmlns="http://www.w3.org/2000/svg">
<mask id="mask0_750_4729" style="mask-type:luminance" maskUnits="userSpaceOnUse" x="0" y="0" width="25" height="24">
<path d="M24.5264 0.126953H0.526367V23.2994H24.5264V0.126953Z" fill="white"/>
</mask>
<g mask="url(#mask0_750_4729)">
<path fill-rule="evenodd" clip-rule="evenodd" d="M23.12 12.5093V10.3559C23.12 9.98095 22.8052 9.677 22.4169 9.677C20.9643 9.677 19.6101 9.79535 18.3307 10.0371L16.617 10.4474C15.1749 10.8705 13.824 11.4724 12.5263 12.2631C11.2285 11.4724 9.87768 10.8705 8.43563 10.4474L6.72197 10.037C5.44252 9.79535 4.0883 9.67695 2.63574 9.67695C2.24743 9.67695 1.93262 9.98091 1.93262 10.3559V12.5093V14.5028V16.2737V17.7068V19.8602C1.93262 20.2351 2.24743 20.539 2.63574 20.539C6.3121 20.539 9.33098 21.3801 12.1364 23.1858C12.3714 23.3371 12.6811 23.3374 12.9164 23.1858C15.7218 21.3801 18.7406 20.539 22.417 20.539C22.8053 20.539 23.1201 20.2351 23.1201 19.8602V17.7068V15.2526L23.12 13.6956V12.5093ZM12.5263 9.677C16.0419 9.677 17.4482 6.38258 17.4482 4.92485C17.4482 2.27953 15.2402 0.127441 12.5263 0.127441C9.81239 0.127441 7.60444 2.27953 7.60444 4.92485C7.60444 6.38258 8.86718 9.57373 12.5263 9.677ZM9.01069 4.92485C9.01069 3.0282 10.5878 1.4852 12.5263 1.4852C14.4648 1.4852 16.0419 3.0282 16.0419 4.92485C16.0419 6.79652 14.4648 8.31924 12.5263 8.31924C10.5878 8.31924 9.01069 6.79652 9.01069 4.92485Z" fill="#F9DB15"/>
<path d="M9.01074 4.925C9.01074 3.02835 10.5879 1.48535 12.5264 1.48535C14.4649 1.48535 16.042 3.02835 16.042 4.925C16.042 6.79667 14.4649 8.31939 12.5264 8.31939C10.5879 8.31939 9.01074 6.79667 9.01074 4.925Z" fill="#F9DB15"/>
</g>
</svg>
