<svg width="25" height="24" viewBox="0 0 25 24" fill="none" xmlns="http://www.w3.org/2000/svg">
<g id="study 1" clip-path="url(#clip0_113_1206)">
<g id="Group">
<g id="Group_2">
<g id="Vector">
<path fill-rule="evenodd" clip-rule="evenodd" d="M23.12 12.5095V10.3561C23.12 9.98119 22.8052 9.67724 22.4169 9.67724C20.9643 9.67724 19.6101 9.79559 18.3307 10.0373L16.617 10.4476C15.1749 10.8707 13.824 11.4726 12.5263 12.2633C11.2285 11.4726 9.87768 10.8707 8.43563 10.4476L6.72197 10.0372C5.44252 9.79559 4.0883 9.67719 2.63574 9.67719C2.24743 9.67719 1.93262 9.98115 1.93262 10.3561V12.5095V14.503L1.93262 16.2739L1.93262 17.707V19.8604C1.93262 20.2353 2.24743 20.5392 2.63574 20.5392C6.3121 20.5392 9.33098 21.3803 12.1364 23.186C12.3714 23.3373 12.6811 23.3376 12.9164 23.186C15.7218 21.3803 18.7406 20.5392 22.417 20.5392C22.8053 20.5392 23.1201 20.2353 23.1201 19.8604V17.707V15.2528L23.12 13.6958V12.5095ZM12.5263 9.67724C16.0419 9.67724 17.4482 6.38282 17.4482 4.92509C17.4482 2.27977 15.2402 0.127686 12.5263 0.127686C9.81239 0.127686 7.60444 2.27977 7.60444 4.92509C7.60444 6.38282 8.86718 9.57397 12.5263 9.67724ZM9.01069 4.92509C9.01069 3.02844 10.5878 1.48544 12.5263 1.48544C14.4648 1.48544 16.0419 3.02844 16.0419 4.92509C16.0419 6.79676 14.4648 8.31948 12.5263 8.31948C10.5878 8.31948 9.01069 6.79676 9.01069 4.92509Z" fill="#383630" fill-opacity="0.8"/>
<path d="M9.01069 4.92509C9.01069 3.02844 10.5878 1.48544 12.5263 1.48544C14.4648 1.48544 16.0419 3.02844 16.0419 4.92509C16.0419 6.79676 14.4648 8.31948 12.5263 8.31948C10.5878 8.31948 9.01069 6.79676 9.01069 4.92509Z" fill="#383630" fill-opacity="0.8"/>
</g>
</g>
</g>
</g>
<defs>
<clipPath id="clip0_113_1206">
<rect width="24" height="23.1724" fill="white" transform="translate(0.526367 0.127197)"/>
</clipPath>
</defs>
</svg>
