<svg width="15" height="11" viewBox="0 0 15 11" fill="none" xmlns="http://www.w3.org/2000/svg">
<path d="M2.99999 6.86551C2.69062 7.64362 2.20313 8.41238 1.55157 9.15301C1.34532 9.38739 1.31719 9.72487 1.48594 9.98737C1.6172 10.1936 1.83281 10.3061 2.06718 10.3061C2.13281 10.3061 2.19845 10.3015 2.26408 10.278C3.64217 9.87487 6.86251 8.44519 6.95158 3.8608C6.98437 2.09363 5.69064 0.574889 4.00781 0.401452C3.075 0.307697 2.14689 0.612366 1.45781 1.23112C0.768764 1.85457 0.375 2.7452 0.375 3.67332C0.375 5.22019 1.47189 6.57489 2.99999 6.86551Z" fill="#4186AD"/>
<path d="M11.4895 0.401452C10.5613 0.307697 9.63322 0.612366 8.94417 1.23112C8.25509 1.85457 7.86133 2.7452 7.86133 3.67332C7.86133 5.22019 8.95822 6.57488 10.4863 6.86551C10.177 7.64362 9.68947 8.41238 9.0379 9.15301C8.83165 9.38738 8.80352 9.72487 8.97229 9.98737C9.10353 10.1936 9.31916 10.3061 9.55354 10.3061C9.61914 10.3061 9.68477 10.3014 9.7504 10.278C11.1285 9.87487 14.3488 8.44519 14.4379 3.8608V3.7952C14.4379 2.05613 13.1582 0.574889 11.4895 0.401452Z" fill="#4186AD"/>
</svg>
