<svg width="21" height="21" viewBox="0 0 21 21" fill="none" xmlns="http://www.w3.org/2000/svg">
<g clip-path="url(#clip0_733_5365)">
<path d="M20.6064 10.6445C20.6064 5.12168 16.1293 0.644531 10.6064 0.644531C5.0836 0.644531 0.606445 5.12168 0.606445 10.6445C0.606445 16.1674 5.0836 20.6445 10.6064 20.6445C16.1293 20.6445 20.6064 16.1674 20.6064 10.6445Z" fill="#F9DB15"/>
<path fill-rule="evenodd" clip-rule="evenodd" d="M15.7445 6.83979C16.0049 7.10015 16.0049 7.52225 15.7445 7.78261L9.07785 14.4493C8.81752 14.7096 8.3954 14.7096 8.13505 14.4493L4.80171 11.1159C4.54136 10.8556 4.54136 10.4335 4.80171 10.1731C5.06206 9.9128 5.48417 9.9128 5.74452 10.1731L8.60645 13.0351L14.8017 6.83979C15.0621 6.57944 15.4842 6.57944 15.7445 6.83979Z" fill="black"/>
</g>
<defs>
<clipPath id="clip0_733_5365">
<rect width="21" height="21" fill="white"/>
</clipPath>
</defs>
</svg>
