<svg width="512" height="512" viewBox="0 0 512 512" fill="none" xmlns="http://www.w3.org/2000/svg">
<path d="M264.534 196.267C271.323 196.267 277.835 198.964 282.636 203.765C287.436 208.566 290.134 215.077 290.134 221.867V298.667C290.134 305.456 287.436 311.968 282.636 316.769C277.835 321.569 271.323 324.267 264.534 324.267C257.744 324.267 251.233 321.569 246.432 316.769C241.631 311.968 238.934 305.456 238.934 298.667V221.867C238.934 215.077 241.631 208.566 246.432 203.765C251.233 198.964 257.744 196.267 264.534 196.267Z" fill="#F9DB15"/>
<path d="M196.267 196.267C203.057 196.267 209.568 198.964 214.369 203.765C219.17 208.566 221.867 215.077 221.867 221.867V298.667C221.867 305.456 219.17 311.968 214.369 316.769C209.568 321.569 203.057 324.267 196.267 324.267C189.477 324.267 182.966 321.569 178.165 316.769C173.364 311.968 170.667 305.456 170.667 298.667V221.867C170.667 215.077 173.364 208.566 178.165 203.765C182.966 198.964 189.477 196.267 196.267 196.267Z" fill="#F9DB15"/>
<path d="M477.219 254.729C449.366 297.293 398.149 376.815 367.992 431.053C331.947 495.881 259.277 494.976 256 494.934H213.334C183.923 494.9 155.726 483.201 134.929 462.405C114.133 441.608 102.434 413.411 102.4 384V119.467C102.4 112.677 105.098 106.166 109.898 101.365C114.699 96.564 121.211 93.8669 128 93.8669C134.79 93.8669 141.301 96.564 146.102 101.365C150.903 106.166 153.6 112.677 153.6 119.467V298.667C153.575 307.638 156.386 316.389 161.632 323.666C166.879 330.944 174.292 336.376 182.812 339.187C191.332 341.997 200.523 342.042 209.07 339.315C217.617 336.588 225.083 331.228 230.4 324.002C235.718 331.228 243.184 336.588 251.731 339.315C260.278 342.042 269.469 341.997 277.989 339.187C286.509 336.376 293.922 330.944 299.168 323.666C304.415 316.389 307.226 307.638 307.2 298.667V44.5954C307.131 41.0202 307.773 37.4668 309.088 34.1415C310.403 30.8161 312.366 27.7851 314.862 25.2242C317.357 22.6633 320.337 20.6235 323.627 19.2232C326.918 17.8229 330.453 17.09 334.029 17.0669C340.604 17.3828 346.804 20.2188 351.342 24.9859C355.88 29.753 358.408 36.085 358.4 42.6669V286.601L342.588 302.405C340.988 304.006 340.09 306.177 340.09 308.441C340.091 310.704 340.991 312.875 342.592 314.475C344.194 316.075 346.365 316.973 348.628 316.973C350.892 316.972 353.063 316.072 354.663 314.471L430.499 238.635C435.267 233.866 441.225 230.461 447.754 228.771C454.282 227.082 461.144 227.17 467.627 229.026C470.194 229.76 472.552 231.085 474.513 232.895C476.475 234.706 477.984 236.951 478.92 239.451C479.856 241.95 480.193 244.635 479.904 247.288C479.614 249.941 478.706 252.49 477.253 254.729H477.219Z" fill="#F9DB15"/>
</svg>
